<svg width="200" height="36" viewBox="0 0 200 36" fill="none" xmlns="http://www.w3.org/2000/svg">
<g clip-path="url(#clip0)">
<path d="M64.1687 26.5235C62.8677 28.5882 61.9309 30.4941 60.5778 32.0824C57.4552 35.7353 52.303 36.9 47.9314 35.2059C43.2476 33.4059 40.2291 29.3294 40.177 24.353C40.073 17.0471 40.177 9.68824 40.125 2.38236C40.125 0.423539 40.9056 1.00844e-05 42.623 0.0529513C48.5559 0.211775 47.6712 -0.741166 47.7753 5.24119C47.8273 7.20001 47.6712 9.15883 47.8794 11.0647C47.9314 11.7 48.9723 12.7588 49.4406 12.7059C56.4144 11.753 60.9421 14.7706 63.5442 21.2294C63.5962 21.3882 63.8044 21.4412 64.2728 21.8118C66.4586 16.3588 69.9455 12.4941 76.0865 12.4941C82.2275 12.4941 85.8705 16.2 88.1604 22.3941C88.8369 20.9118 89.2012 20.0647 89.6176 19.2177C92.7401 12.8647 100.234 10.5353 106.219 14.2941C107.676 15.1941 108.717 15.3 110.174 14.4C116.211 10.6941 123.029 12.6 126.672 18.9C126.984 19.4294 127.401 19.9059 128.389 20.2765C128.441 19.4294 128.546 18.6353 128.546 17.7882C128.546 12.653 128.598 7.5706 128.546 2.4353C128.546 0.741186 129.014 0.0529513 130.783 0.105892C137.133 0.264716 135.988 -0.688225 136.092 5.29413C136.144 7.72942 136.092 10.1647 136.092 12.9177C144.002 11.4882 149.363 14.2412 152.329 22.3941C154.775 16.4647 158.262 12.4941 164.351 12.4941C170.44 12.4941 174.135 16.1471 176.425 22.2882C178.402 17.6824 180.588 14.0294 185.064 13.1294C187.406 12.6529 190.112 12.6 192.402 13.2882C197.606 14.7706 200.26 19.2177 200.052 25.0412C199.896 29.8059 196.565 34.0412 191.829 35.4706C185.74 37.2706 181.837 35.0471 176.321 26.4706C174.083 31.9765 170.7 35.8412 164.455 35.8412C158.21 35.8412 154.671 32.2412 152.433 25.9941C150.143 31.5529 147.073 35.4177 141.244 35.8412C135.467 36.2647 131.668 33.1941 128.962 28.1118C128.65 28.2706 128.389 28.4294 128.077 28.5882C128.077 30.3353 128.025 32.1353 128.077 33.8824C128.129 35.3647 127.557 35.9471 126.1 35.8941C124.382 35.7882 122.665 35.8941 120.531 35.8941C120.531 32.9294 120.531 30.2294 120.531 27.5294C120.531 26.3647 120.583 25.253 120.479 24.0882C120.271 21.7059 118.657 20.1177 116.472 20.0647C114.182 20.0118 112.256 21.6 112.152 24.0353C111.996 26.6824 112.1 29.3294 112.1 31.9765C112.048 36.4235 112.464 35.8412 108.145 35.8941C107.104 35.8941 106.115 35.8941 104.554 35.8941C104.554 32.9824 104.554 30.2824 104.554 27.5824C104.554 26.4177 104.606 25.3059 104.502 24.1412C104.294 21.653 102.576 20.0118 100.234 20.0647C97.9444 20.1177 96.175 21.7059 96.0709 24.2471C95.9668 27.3177 96.0188 30.4412 96.0188 33.5118C96.0188 34.2 95.9148 34.8882 95.8107 35.8941C92.1156 35.8941 88.4726 35.8941 84.8817 35.8941C82.1755 35.8941 79.5213 35.8941 76.8151 35.8941C70.9343 35.8941 67.2913 33.353 65.0014 27.7941C64.6891 27.3177 64.4289 26.9471 64.1687 26.5235ZM80.3019 25.7294C80.3019 21.9706 78.7927 20.0118 76.1385 20.0118C73.8487 19.9588 71.9751 21.7588 71.871 24.0353C71.767 26.7882 73.9007 28.2706 77.4396 28.4294C79.7295 28.5353 80.7183 27.7941 80.3019 25.7294ZM140.411 28.3765C142.701 28.3235 144.523 26.4706 144.523 24.1412C144.523 21.7059 142.597 19.8529 140.203 19.9059C137.913 19.9588 136.092 21.8118 136.092 24.1412C136.092 26.5765 138.017 28.4294 140.411 28.3765ZM52.1469 19.9588C49.8049 19.9059 47.9314 21.653 47.8273 23.9824C47.7232 26.3118 49.4406 28.2706 51.7826 28.3765C54.1765 28.5353 56.2062 26.6294 56.2582 24.2471C56.2582 21.9177 54.4888 20.0118 52.1469 19.9588ZM188.447 28.3765C190.736 28.3765 192.61 26.6294 192.662 24.3C192.766 21.8647 190.945 19.9588 188.499 19.9588C186.209 19.9588 184.335 21.7588 184.231 24.0353C184.127 26.4177 186.001 28.3765 188.447 28.3765ZM164.247 28.3765C166.537 28.4294 168.462 26.6294 168.566 24.353C168.67 22.0235 166.901 20.0647 164.611 19.9588C162.165 19.853 160.187 21.7059 160.187 24.1412C160.135 26.4706 161.905 28.3235 164.247 28.3765Z" fill="#4A95E0"/>
<path d="M9.78454 33.9353C3.38329 30.2294 0.0525639 25.0412 0.000521216 17.8941C-0.0515215 11.7 3.79964 5.45294 8.89982 3.17647C9.3682 6.19412 9.83659 9.15883 10.357 12.1235C10.7734 12.0706 11.1897 12.0176 11.554 12.0176C11.554 9.21177 11.502 6.35294 11.554 3.54706C11.606 1.37647 11.606 1.37647 14.1561 1.21765C13.2714 8.47059 12.3346 15.6176 11.4499 22.8176C11.7622 22.9235 12.0224 23.0294 12.3346 23.1353C12.6989 22.4471 13.2194 21.7588 13.4275 21.0176C15.0929 14.9824 16.8623 9 18.2675 2.91177C18.84 0.529414 19.7767 0.264708 21.8584 0.847061C30.9659 3.22941 36.6906 11.4882 35.3895 20.6471C34.0885 29.5941 26.4382 36.1059 17.0185 35.6824C18.5798 34.0412 19.9329 32.6118 21.286 31.2353C23.732 28.7471 26.1259 26.1529 28.7281 23.8235C31.2782 21.4941 28.7801 20.5941 27.7393 19.3235C26.3862 17.6824 25.3973 18.5824 24.4606 19.8529C21.0778 24.1941 17.7471 28.5882 14.3643 32.9824C13.8439 33.6706 13.1673 34.3059 12.5428 34.9412C12.3346 34.7824 12.1265 34.6765 11.8663 34.5176C12.1785 33.7235 12.3867 32.8235 12.803 32.0824C17.2266 24.4059 21.6503 16.7294 26.0739 9.05294C28.2597 5.29412 28.2597 5.29412 24.5126 3.28235C24.1483 3.07059 23.732 2.96471 22.7952 2.59412C18.5277 12.9176 14.2602 23.2412 9.78454 33.9353Z" fill="#4A95E0"/>
</g>
<defs>
<clipPath id="clip0">
<rect width="200" height="36" fill="white"/>
</clipPath>
</defs>
</svg>
