<svg width="217" height="51" viewBox="0 0 217 51" fill="none" xmlns="http://www.w3.org/2000/svg">
<path d="M91.2271 6.45907C92.8642 6.45907 93.8332 5.57511 93.8332 3.81877C93.8332 2.06243 92.8642 1.10548 91.2271 1.10548H72.1874C70.254 1.10548 69.4414 1.91066 69.4414 3.81877V47.2603C69.4414 49.1684 70.254 49.969 72.1874 49.969H91.2271C92.8642 49.969 93.8332 49.0167 93.8332 47.2603C93.8332 45.5052 92.8642 44.6235 91.2271 44.6235H74.8675V28.148H86.4701C88.1048 28.148 88.9962 27.2698 88.9962 25.51C88.9962 23.749 88.1048 22.8002 86.4701 22.8002H74.8675V6.45907H91.2271Z" fill="#50B737"/>
<path d="M136.317 33.2761L143.005 13.1165L149.702 33.2761H136.317ZM145.982 3.67557C145.383 1.84161 144.791 1.10593 143.005 1.10593C141.22 1.10593 140.628 1.84161 140.026 3.67557L126.051 46.5309C125.751 47.4774 125.394 49.0855 127.794 49.8501C129.898 50.5267 130.96 49.1677 131.255 48.2849L134.386 38.6135H151.631L154.763 48.2849C155.054 49.1677 156.035 50.6738 158.365 49.9046C160.527 49.1898 160.265 47.3952 160.029 46.5946L145.982 3.67557Z" fill="#50B737"/>
<path d="M195.518 1.10593C193.655 1.10593 193.441 1.98526 192.324 3.81922L181.165 22.6466L170.013 3.81922C168.896 1.98526 168.676 1.10593 166.81 1.10593C164.884 1.10593 164.059 1.91112 164.059 3.81922V47.2596C164.059 49.1678 164.884 49.9683 166.81 49.9683C168.747 49.9683 169.489 49.1678 169.489 47.2596V13.8521L178.19 28.2875C178.865 29.3893 179.546 30.5617 181.165 30.5617C182.79 30.5617 183.478 29.3893 184.136 28.2875L192.844 13.8521V47.2596C192.844 49.1678 193.586 49.9683 195.518 49.9683C197.453 49.9683 198.27 49.1678 198.27 47.2596V3.81922C198.27 1.91112 197.453 1.10593 195.518 1.10593Z" fill="#50B737"/>
<path d="M120.041 6.45907C121.683 6.45907 122.646 5.57511 122.646 3.81877C122.646 2.06243 121.683 1.10548 120.041 1.10548H100.991C99.0536 1.10548 98.2422 1.91066 98.2422 3.81877V47.2603C98.2422 49.1684 99.0536 49.969 100.991 49.969H120.041C121.683 49.969 122.646 49.0167 122.646 47.2603C122.646 45.5052 121.683 44.6235 120.041 44.6235H103.671V28.148H115.282C116.915 28.148 117.81 27.2698 117.81 25.51C117.81 23.749 116.915 22.8002 115.282 22.8002H103.671V6.45907H120.041Z" fill="#50B737"/>
<path d="M41.5563 22.7844V6.53948H51.7876C56.507 6.53948 59.213 9.36514 59.213 14.2901C59.213 14.2901 59.7599 17.8213 57.369 20.6609C56.0954 22.1716 54.3984 22.7844 52.2428 22.7844H41.5563ZM54.8782 27.9712C57.4866 27.4568 59.7305 26.1419 61.498 24.1307C65.1707 19.9518 64.6392 14.2901 64.6392 14.2901C64.6392 6.45953 59.4741 1.19515 51.7876 1.19515C51.7876 1.19515 38.481 1.21485 38.3116 1.2496C36.7805 1.40135 36.1172 2.21698 36.1172 3.92582V47.3801C36.1172 49.2871 36.9322 50.0876 38.8691 50.0876C40.7977 50.0876 41.5457 49.2871 41.5457 47.3801V28.1635H48.8264L60.1762 48.556C61.1076 50.2267 62.2166 50.5429 63.9124 49.6254C65.6023 48.7067 65.8646 47.6478 64.9308 45.9795L54.8782 27.9712Z" fill="#50B737"/>
<path d="M26.161 36.7316C26.161 41.6565 23.4515 44.481 18.7345 44.481H6.60976V28.1399H19.1908C21.3429 28.1399 23.0199 28.8721 24.3147 30.362C26.1716 32.5076 26.161 36.7316 26.161 36.7316ZM6.60976 6.44864H16.8435C21.5628 6.44864 24.2688 9.27432 24.2688 14.1981C24.2688 14.1981 24.6887 18.0525 22.4248 20.5677C21.1042 22.0367 19.453 22.7898 17.2998 22.7898H6.60976V6.44864ZM28.4461 26.8945C27.6499 26.0256 26.0999 24.9134 25.8376 24.772C26.0811 24.5357 26.3198 24.2936 26.5562 24.0375C30.183 20.0684 29.6973 14.1981 29.6973 14.1981C29.6973 6.36755 24.5323 1.10316 16.8435 1.10316H3.89786C2.39844 1.10316 1.18359 2.29877 1.18359 3.7759V47.1572C1.18359 48.6286 2.39844 49.8253 3.89786 49.8253H18.7345C26.421 49.8253 31.5872 44.5656 31.5872 36.7316C31.5872 36.7316 32.1282 30.9204 28.4461 26.8945Z" fill="#50B737"/>
<path d="M208.013 4.09079V7.21304H210.151C210.929 7.21304 211.335 6.6442 211.335 5.62816C211.335 4.53798 210.653 4.09079 210.123 4.09079H208.013ZM209.876 3.17438C211.355 3.17438 212.24 4.11628 212.24 5.62816C212.24 7.21304 211.507 8.00664 210.505 8.10859L211.961 10.706C212.014 10.7825 212.062 10.8555 212.062 11.0292C212.062 11.4011 211.458 11.6757 211.181 11.203L209.446 8.13176H208.013V10.9806C208.013 11.2992 207.886 11.451 207.559 11.451C207.232 11.451 207.109 11.2992 207.109 10.9806V3.64474C207.109 3.32268 207.232 3.17438 207.559 3.17438H209.876ZM209.523 12.9107C212.187 12.9107 214.931 10.6319 214.931 7.11456C214.931 4.61213 212.69 1.71463 209.17 1.71463C206.252 1.71463 203.586 3.96799 203.586 7.38683C203.586 10.1105 205.751 12.9107 209.523 12.9107ZM202.707 7.36133C202.707 3.89384 205.498 0.868904 209.496 0.868904C212.795 0.868904 215.835 3.61927 215.835 7.1864C215.835 10.9806 212.489 13.7564 209.346 13.7564C205.32 13.7564 202.707 10.8555 202.707 7.36133Z" fill="#50B737"/>
</svg>
