<svg width="143" height="101" viewBox="0 0 143 101" fill="none" xmlns="http://www.w3.org/2000/svg">
<path d="M12.636 96.9406L12.5096 97.183C12.2358 97.7081 11.3302 98.94 9.30842 98.94C7.20238 98.94 5.53862 97.3647 5.53862 95.3653C5.53862 93.1438 7.45511 91.831 9.30842 91.831C9.81387 91.831 11.5829 91.9724 12.5096 93.6689L12.636 93.9112H15.079L14.8052 93.2852C13.71 90.7001 11.2249 89.7913 9.2663 89.7913C5.95982 89.7913 3.28516 92.3158 3.28516 95.4057C3.28516 98.5361 5.9177 101 9.2663 101C11.7304 101 13.5837 99.869 14.7841 97.6273L15.1421 96.9608H12.636V96.9406Z" fill="#0093CB"/>
<path d="M20.4293 89.7711C19.5658 89.8317 18.7024 89.9933 18.0074 90.5587V90.0134H15.7539V100.738H18.0284V94.5171C18.0284 93.8709 18.239 93.265 18.6392 92.7803C19.0183 92.336 19.6922 92.0532 20.5135 91.9927L20.9558 91.9725V89.7307L20.4293 89.7711Z" fill="#0093CB"/>
<path d="M30.3466 90.0336V91.0232C29.0829 89.9326 27.4824 89.7711 26.7663 89.7711C23.0176 89.7711 20.7852 92.6187 20.7852 95.3451C20.7852 98.4957 23.4177 100.96 26.7663 100.96C27.4824 100.96 29.0408 100.798 30.3466 99.7075V100.737H32.6V90.0134H30.3466V90.0336ZM26.7663 91.8109C28.8092 91.8109 30.4308 93.3861 30.4308 95.3855C30.4308 97.3849 28.8302 98.94 26.7663 98.94C24.6181 98.94 23.0386 97.4657 23.0386 95.4057C23.0386 93.0428 24.913 91.8109 26.7663 91.8109Z" fill="#0093CB"/>
<path d="M42.9192 86.5397V91.0232C41.5503 89.8922 39.9076 89.771 39.36 89.771C35.6113 89.771 33.3789 92.6187 33.3789 95.3451C33.3789 98.4957 36.0114 100.96 39.36 100.96C39.9076 100.96 41.5714 100.838 42.9192 99.7074V100.737H45.1938V86.5397H42.9192ZM39.36 91.8108C41.3608 91.8108 42.9824 93.4063 42.9824 95.3855C42.9824 97.3849 41.4029 98.94 39.36 98.94C37.2119 98.94 35.6534 97.4657 35.6534 95.4057C35.6534 93.0428 37.5067 91.8108 39.36 91.8108Z" fill="#0093CB"/>
<path d="M48.9019 86.5397H46.6484V100.758H48.9019V86.5397Z" fill="#0093CB"/>
<path d="M66.9485 90.0134V86.5397H64.695V90.0134H62.5469V92.0532H64.695V100.758H66.9485V92.0532H69.4125V90.0134H66.9485Z" fill="#8DC21F"/>
<path d="M74.7228 89.7711C71.9218 89.7711 68.9102 91.932 68.9102 95.4461C68.9102 98.4351 71.5848 100.98 74.7228 100.98C77.9451 100.98 80.5776 98.4755 80.5776 95.3855C80.5776 92.336 77.9029 89.7711 74.7228 89.7711ZM74.7439 98.94C72.7642 98.94 71.1636 97.3647 71.1636 95.4259C71.1636 92.9418 73.2486 91.8109 74.7439 91.8109C76.197 91.8109 78.3241 92.9216 78.3241 95.3249C78.3241 97.5869 76.513 98.94 74.7439 98.94Z" fill="#8DC21F"/>
<path d="M91.3376 96.9406L91.2112 97.183C91.0006 97.5869 90.116 98.94 88.01 98.94C85.904 98.94 84.2402 97.3647 84.2402 95.3653C84.2402 93.1438 86.1567 91.831 88.01 91.831C89.3789 91.831 90.5794 92.5177 91.2112 93.6689L91.3376 93.9112H93.7595L93.5068 93.2852C92.4327 90.7001 89.8633 89.7913 87.989 89.7913C84.6825 89.7913 82.0078 92.3158 82.0078 95.4057C82.0078 98.5361 84.6404 101 87.989 101C90.4741 101 92.3274 99.869 93.4857 97.6273L93.8227 96.9608H91.3376V96.9406Z" fill="#0093CB"/>
<path d="M99.1324 89.7711C98.269 89.8317 97.4055 89.9933 96.7105 90.5587V90.0134H94.457V100.738H96.7105V94.5171C96.7105 93.8709 96.9211 93.265 97.3212 92.7803C97.7214 92.336 98.3743 92.0532 99.1956 91.9927L99.6379 91.9725V89.7307L99.1324 89.7711Z" fill="#0093CB"/>
<path d="M109.031 90.0336V91.0232C107.767 89.9326 106.188 89.7711 105.493 89.7711C101.765 89.7711 99.5117 92.6187 99.5117 95.3451C99.5117 98.5563 102.081 100.96 105.493 100.96C106.188 100.96 107.746 100.798 109.031 99.7075V100.737H111.284V90.0134H109.031V90.0336ZM105.493 91.8109C107.494 91.8109 109.115 93.4063 109.115 95.3855C109.115 97.3849 107.515 98.94 105.493 98.94C103.345 98.94 101.765 97.4657 101.765 95.4057C101.765 93.0428 103.64 91.8109 105.493 91.8109Z" fill="#0093CB"/>
<path d="M121.601 86.5397V91.0232C120.232 89.8922 118.611 89.771 118.063 89.771C114.314 89.771 112.082 92.6187 112.082 95.3451C112.082 98.4957 114.715 100.96 118.063 100.96C118.611 100.96 120.275 100.838 121.601 99.7074V100.737H123.855V86.5397H121.601ZM118.063 91.8108C120.064 91.8108 121.686 93.4063 121.686 95.3855C121.686 97.3849 120.085 98.94 118.063 98.94C115.894 98.94 114.335 97.4657 114.335 95.4057C114.335 93.0428 116.21 91.8108 118.063 91.8108Z" fill="#0093CB"/>
<path d="M127.626 86.5397H125.352V100.758H127.626V86.5397Z" fill="#0093CB"/>
<path d="M58.4021 97.7081C57.8545 98.3544 56.9489 98.9199 55.6642 98.9401C54.0426 98.9401 52.5684 97.7485 52.2524 96.2944H61.519V95.8299C61.519 95.7895 61.519 95.7289 61.519 95.6683C61.519 95.6077 61.519 95.5471 61.519 95.4664C61.519 94.396 61.2242 93.3862 60.6345 92.4774C59.8552 91.1848 58.1283 89.7711 55.6642 89.7509C52.463 89.8115 49.8516 92.336 49.8516 95.3654C49.8516 98.4554 52.463 100.96 55.6642 100.96C57.9387 100.96 59.9816 99.6671 60.9293 97.6879H58.4021V97.7081ZM55.6853 91.8109C56.991 91.8109 58.5284 92.5783 59.076 94.2546H52.2946C52.8 92.5985 54.3374 91.8109 55.6853 91.8109Z" fill="#0093CB"/>
<path d="M137.25 97.5263C136.724 98.2534 135.776 98.9198 134.323 98.94C132.722 98.94 131.248 97.7485 130.911 96.2944H140.178V95.8298C140.178 95.7895 140.178 95.7289 140.178 95.6885C140.178 95.6279 140.178 95.5471 140.178 95.4865C140.178 94.4161 139.883 93.4265 139.293 92.4975C138.514 91.205 136.787 89.7913 134.323 89.7711C131.122 89.8316 128.531 92.3562 128.531 95.3855C128.531 98.4755 131.143 100.98 134.365 100.98C136.724 100.98 138.809 99.5863 139.714 97.5263H137.25ZM134.365 91.8109C135.671 91.8109 137.208 92.5783 137.756 94.2546H130.974C131.48 92.5985 133.017 91.8109 134.365 91.8109Z" fill="#0093CB"/>
<path d="M45.7416 43.7243C44.6254 44.2898 43.7829 44.5119 42.6036 44.5119C39.5077 44.5119 37.9492 42.5125 37.9492 40.4929C37.9492 38.3925 39.6972 36.4133 42.751 36.4133C43.8672 36.4133 44.857 36.6557 45.6363 37.1V38.857C44.7517 38.3723 43.8672 38.0492 42.8773 38.0492C41.1715 38.0492 39.9921 39.0388 39.9921 40.4525C39.9921 41.8662 41.1715 42.876 42.8352 42.876C43.8672 42.876 44.5832 42.5529 45.7205 42.0076V43.7243H45.7416Z" fill="#888888"/>
<path d="M53.6391 44.411H47.7422V36.5143H53.5549V37.9685H49.7429V39.6245H53.3653V41.0584H49.7429V42.9569H53.6391V44.411Z" fill="#888888"/>
<path d="M59.1373 36.5143C60.78 36.5143 61.7488 37.6049 61.7488 38.7763C61.7488 39.6447 61.2855 40.291 60.3799 40.7151C61.2013 41.119 61.454 42.0884 62.5702 44.411H60.3799C59.5375 42.7145 59.2005 41.1998 58.1264 41.1998H57.5578V44.411H55.5781V36.5143H59.1373ZM57.5578 39.7457H58.6108C59.1584 39.7457 59.706 39.5033 59.706 38.8369C59.706 38.2512 59.3269 37.9483 58.5687 37.9483H57.5578V39.7457Z" fill="#888888"/>
<path d="M70.5306 37.9685H67.6243V44.411H65.6446V37.9685H62.7383V36.5143H70.5306V37.9685Z" fill="#888888"/>
<path d="M74.1945 36.5143H72.2148V44.411H74.1945V36.5143Z" fill="#888888"/>
<path d="M81.946 37.9685H78.4289V39.7255H81.946V41.1594H78.4289V44.411H76.4492V36.5143H81.946V37.9685Z" fill="#888888"/>
<path d="M85.9679 36.5143H83.9883V44.411H85.9679V36.5143Z" fill="#888888"/>
<path d="M94.1391 44.411H88.2422V36.5143H94.0548V37.9685H90.2429V39.6245H93.8864V41.0584H90.2429V42.9569H94.1391V44.411Z" fill="#888888"/>
<path d="M99.5718 36.5143C102.478 36.5143 103.994 38.3118 103.994 40.4728C103.994 42.7347 102.541 44.411 99.3612 44.411H96.0547V36.5143H99.5718ZM98.0344 42.9569H99.3401C101.341 42.9569 101.931 41.6037 101.931 40.4526C101.931 39.0994 101.193 37.9483 99.298 37.9483H98.0344V42.9569Z" fill="#888888"/>
<path d="M41.9733 0C18.828 0 0 18.0754 0 40.2707C0 62.4459 18.828 80.5011 41.9733 80.5011C50.7134 80.5011 58.8216 77.9362 65.5399 73.5537C59.664 67.7776 55.3045 60.6081 53.03 52.6913C50.0605 55.135 46.1854 56.6295 41.9523 56.6295C32.5593 56.6295 24.8934 49.2781 24.8934 40.2707C24.8934 31.2432 32.5593 23.912 41.9523 23.912C48.3546 23.912 53.9145 27.3049 56.8419 32.3135H83.0621C79.2081 13.915 62.2755 0 41.9733 0Z" fill="#8DC21F"/>
<path d="M101.025 0C92.3064 0 84.1982 2.56489 77.4799 6.94741C83.3558 12.7437 87.7153 19.9132 89.9687 27.8098C92.9593 25.3661 96.8134 23.8918 101.025 23.8918C110.439 23.8918 118.084 31.2432 118.084 40.2505C118.084 49.2579 110.439 56.6093 101.025 56.6093C94.602 56.6093 89 53.176 86.0936 48.127H59.8945C63.7275 66.5457 80.6811 80.5011 101.004 80.5011C124.171 80.5011 142.999 62.4459 142.999 40.2707C142.999 18.0754 124.171 0 101.025 0Z" fill="#0093CB"/>
<path d="M129.52 0.32312H135.437V1.19155H132.973V7.12916H131.941V1.19155H129.52V0.32312Z" fill="#888888"/>
<path d="M142.031 0.32312H142.979V7.12916H141.968V1.83782L139.777 4.46329H139.609L137.398 1.83782V7.12916H136.387V0.32312H137.334L139.693 3.11016L142.031 0.32312Z" fill="#888888"/>
</svg>
