<svg width="107" height="110" viewBox="0 0 107 110" fill="none" xmlns="http://www.w3.org/2000/svg">
<path d="M61.1763 0C39.0593 0 31.2501 33.9983 23.986 61.3176C21.358 58.6871 13.2762 50.7152 13.2633 50.728C11.6378 49.1337 9.77229 49.6437 8.62376 50.7569C7.47852 51.899 7.30655 54.0066 8.62376 55.2802C8.68865 55.3379 19.5768 66.0783 23.35 69.7996C24.3915 70.8037 25.8871 71.3907 27.3828 70.515C28.9466 69.575 29.1607 67.8972 29.1932 67.8972C42.1026 10.7308 53.6428 6.47373 61.1471 6.47373C67.4217 6.47373 74.6761 11.0708 74.6761 20.2521C84.0784 20.2521 89.9604 32.4553 82.3978 39.9684C88.6659 42.9679 91.4561 46.6571 91.4561 51.3151C91.4561 55.9859 87.498 60.753 81.736 60.7402C76.0161 60.7402 73.1026 57.1055 68.6416 57.0959C66.6268 57.0959 65.381 58.7063 65.381 60.2943V71.8431H56.9684V60.3424C56.9586 58.5395 55.6024 57.1216 53.9478 57.1216C53.9121 57.1216 53.2146 57.1408 53.2373 57.1601L41.9533 58.5459C40.5939 58.7288 39.3416 60.1948 39.3416 61.7058C39.3416 63.4862 40.8113 64.9459 42.8066 64.9202C43.0564 64.9202 43.3906 64.9202 43.3647 64.8945C43.3419 64.8945 50.5055 63.9963 50.5055 63.9963C50.5055 63.9963 50.5055 75.343 50.5055 75.3879C50.5055 76.8379 52.157 78.2366 53.6429 78.2398H68.6222C70.3677 78.2398 71.8828 76.7609 71.8828 75.0029V64.5994C75.0103 66.4953 79.3643 67.23 81.6094 67.23C90.0091 67.23 98.0325 60.6985 97.9936 51.1194C97.9579 42.4257 91.2485 38.0982 91.2485 38.0982C95.1871 27.7075 88.8184 17.6696 80.5452 14.8819C77.5572 4.16077 68.2977 0 61.1763 0Z" fill="#5A772A"/>
<path d="M51.7225 90.966C51.7225 93.6479 54.756 95.2647 59.7524 97.6065C63.704 99.4479 65.9816 101.386 65.9816 102.941C65.9816 105.46 63.2239 106.358 60.677 106.358C56.6962 106.358 54.3375 104.789 53.043 101.276L52.9359 100.969H52.6083C51.901 100.969 51.3462 101.001 51.0412 101.389C50.7687 101.735 50.8433 102.21 50.9666 102.666C50.9536 102.656 51.8361 106.275 51.8361 106.275C52.0664 107.157 52.3909 107.298 53.8152 107.571C54.4284 107.683 57.65 108.235 60.3623 108.235C67.9704 108.235 71.3543 105.181 71.3543 102.155C71.3543 99.958 69.1449 97.8375 64.4016 95.5021L62.2213 94.4691C58.9802 92.9325 57.0012 92.0118 57.0012 90.3982C57.0012 88.8391 59.0451 87.7355 61.9747 87.7355C65.7707 87.7355 66.77 89.84 67.2469 91.6686L67.3345 92.015H67.6849C68.5382 92.015 69.0638 91.9476 69.3882 91.6076C69.5764 91.4183 69.6381 91.1585 69.6056 90.8441L69.2941 87.7099C69.2097 86.7186 68.4279 86.5678 67.3702 86.3561C66.0854 86.1251 64.5541 85.8589 62.2603 85.8589C55.6547 85.8589 51.7225 87.7676 51.7225 90.966Z" fill="#5A772A"/>
<path d="M73.6016 97.2922C73.6016 102.726 78.3741 108.235 87.4973 108.235C92.1044 108.235 94.6999 107.198 96.6206 106.175L97.1559 105.896L96.2993 104.972L96.348 105.02C96.1566 104.731 95.9781 104.683 95.6764 104.683L95.2287 104.837C94.5409 105.158 92.4255 106.124 88.5939 106.124C83.8701 106.124 78.7893 103.076 78.7893 96.3747C78.7893 89.9972 84.2951 87.7355 89.0059 87.7355C92.3898 87.7355 94.197 88.9321 94.5214 91.4087L94.5701 91.8097H94.9951C95.3909 91.8097 96.468 91.8097 96.468 91.0205V87.2961C96.468 86.385 95.4104 86.2503 94.9594 86.1925L94.5117 86.1316C93.4248 85.984 92.3834 85.8589 89.6386 85.8589C80.3499 85.8589 73.6016 90.6645 73.6016 97.2922Z" fill="#5A772A"/>
<path d="M39.187 86.1187L30.9657 86.1925L25.4827 86.093L24.6489 86.0706C24.1622 86.0706 23.8086 86.4267 23.8086 86.9271C23.8086 87.1581 23.8086 87.8863 24.7203 87.8863C28.0295 87.8863 28.1496 88.1558 28.182 89.4069L28.2015 90.1992L28.2599 93.5452V100.76C28.2599 101.957 28.221 103.859 28.1431 105.392C28.1204 105.829 28.0945 106.249 25.168 106.249C24.3537 106.249 23.854 106.406 23.854 107.211C23.854 107.442 23.854 108.061 24.6489 108.061L24.8338 108.058C25.1842 108.039 26.1153 108 30.6867 108C35.563 108 36.546 108.045 36.8672 108.058L37.0521 108.061C37.6848 108.061 38.2396 107.997 38.2396 107.211C38.2396 106.313 37.4934 106.249 36.2573 106.249C33.3146 106.249 33.2984 105.829 33.279 105.396C33.2108 103.987 33.1557 102.085 33.1557 100.76C33.1557 100.76 33.1557 98.8352 33.1557 98.1647C33.8175 98.1647 35.6116 98.1647 35.6116 98.1647C39.3816 98.1647 39.8098 98.2641 40.3484 101.142C40.5009 101.764 41.0038 101.841 41.4256 101.841C42.3178 101.841 42.4086 101.363 42.4086 101.145L42.3405 100.08C42.2821 99.4639 42.2107 98.6908 42.2107 97.6418V93.2244C42.2107 92.5571 41.4094 92.5571 40.9779 92.5571C40.2608 92.5571 40.0987 93.0095 39.6444 95.0979C39.4433 95.8934 37.8892 96.349 35.3781 96.349C35.3781 96.349 33.8013 96.349 33.1557 96.349C33.1557 95.5406 33.1557 89.8656 33.1557 89.8656C33.1557 88.0948 33.4672 88.082 33.863 88.0692C35.3002 88.005 38.8009 87.8863 39.852 87.8863C40.8481 87.8863 41.7695 88.1044 42.3664 88.4958C44.2222 89.6443 45.1826 90.4206 45.7569 90.8858C46.3246 91.3413 46.6425 91.6043 47.113 91.6043C47.3725 91.6043 48.1771 91.6044 48.1771 90.9243C48.1771 90.7574 48.109 90.6035 47.843 90.0517C47.5412 89.3844 47.0254 88.2905 46.3798 86.6063C46.1981 86.0706 45.5784 86.0706 44.4266 86.0706L39.187 86.1187Z" fill="#5A772A"/>
</svg>
