<svg width="114" height="114" viewBox="0 0 114 114" fill="none" xmlns="http://www.w3.org/2000/svg">
<g clip-path="url(#clip0)">
<path d="M57.0116 114C25.7607 114.023 -0.0462698 88.8697 6.22889e-05 56.9071C0.0463943 24.8981 26.0618 -0.162415 57.3128 -0.000285893C88.2858 0.161843 114.07 25.1529 114.023 57.1155C113.954 88.9623 88.1931 114.023 57.0116 114ZM54.0464 2.57062C53.3977 2.6401 52.5174 2.68643 51.6603 2.80223C50.0155 3.01068 48.3475 3.2423 46.7259 3.52023C45.4055 3.75185 44.085 4.09927 42.7877 4.44669C41.4209 4.81727 40.0541 5.23417 38.7105 5.72056C37.251 6.25327 35.8379 6.87862 34.4016 7.50398C32.5483 8.29146 30.8109 9.26424 29.0966 10.3065C27.2433 11.4182 25.4364 12.6226 23.7684 13.9891C22.3089 15.1935 20.8726 16.4211 19.5059 17.695C17.9074 19.1773 16.4711 20.7986 15.1043 22.4662C13.529 24.3886 12.0927 26.4036 10.7954 28.5345C10.2394 29.4609 9.68346 30.4105 9.17381 31.3833C8.57149 32.5414 7.96917 33.7226 7.43635 34.9038C6.97303 35.9461 6.60238 37.0346 6.16222 38.1001C5.44408 39.8372 4.93442 41.6438 4.4711 43.4503C3.89195 45.7201 3.4518 48.0363 3.17381 50.3756C2.91898 52.4832 2.80315 54.5678 2.77998 56.6754C2.77998 57.5556 2.80315 58.4125 2.84948 59.2927C2.94215 60.6592 3.01165 62.0257 3.17381 63.3922C3.35914 64.8745 3.5908 66.3569 3.89195 67.8392C4.14678 69.1362 4.4711 70.4333 4.81859 71.7303C5.16608 72.9578 5.53674 74.1854 5.9769 75.3898C6.53288 76.8721 7.15836 78.3081 7.78384 79.7441C8.54832 81.5739 9.5213 83.2878 10.5406 85.0017C11.6757 86.901 12.9035 88.7307 14.2935 90.4446C15.3823 91.788 16.4711 93.1082 17.6526 94.3589C19.2279 96.0497 20.9421 97.6246 22.7259 99.0838C24.6024 100.636 26.5715 102.048 28.6333 103.299C29.6062 103.878 30.5792 104.457 31.5754 104.967C32.7105 105.569 33.8688 106.171 35.0503 106.704C36.1159 107.19 37.2279 107.561 38.2935 108.001C40.0309 108.719 41.8379 109.228 43.6448 109.692C45.8688 110.271 48.1159 110.688 50.4093 110.966C52.6796 111.243 54.9499 111.382 57.2201 111.382C58.0078 111.382 58.7723 111.29 59.5599 111.29C61.3669 111.29 63.1506 111.035 64.9113 110.803C66.0232 110.664 67.1352 110.41 68.2472 110.201C70.0078 109.877 71.7221 109.391 73.4132 108.858C74.9421 108.371 76.4479 107.769 77.9306 107.167C79.5753 106.519 81.1506 105.754 82.6796 104.92C84.8109 103.762 86.8726 102.489 88.8418 101.053C91.1352 99.4081 93.2665 97.5783 95.2588 95.5864C95.9306 94.9148 96.6024 94.2431 97.2047 93.5251C98.3398 92.1817 99.4981 90.8615 100.564 89.4719C101.815 87.8506 102.904 86.1366 103.946 84.3764C104.965 82.6624 105.892 80.879 106.68 79.0493C107.444 77.289 108.116 75.4824 108.695 73.6527C109.228 72.0082 109.714 70.3175 110.085 68.6267C110.456 66.9127 110.71 65.1756 110.965 63.4154C111.266 61.3077 111.359 59.1769 111.359 57.046C111.359 56.1659 111.266 55.3089 111.29 54.4288C111.29 52.6454 111.058 50.8851 110.803 49.1249C110.571 47.4804 110.224 45.8359 109.83 44.2147C109.46 42.6165 109.043 41.0184 108.51 39.4666C107.884 37.66 107.143 35.9229 106.378 34.1626C105.892 33.0046 105.313 31.8928 104.71 30.7811C103.622 28.7892 102.394 26.8668 101.073 25.0139C99.4518 22.7673 97.6912 20.6596 95.7452 18.6909C94.7954 17.7413 93.7993 16.8148 92.8031 15.9115C91.3437 14.5913 89.8147 13.387 88.1931 12.2752C86.919 11.3951 85.5985 10.5381 84.278 9.75063C83.0271 9.03263 81.753 8.38411 80.4557 7.73559C79.5522 7.29553 78.6487 6.87862 77.7221 6.5312C76.2394 5.95217 74.7568 5.37314 73.251 4.88675C72.0696 4.49301 70.8649 4.21507 69.6603 3.93714C68.1545 3.58972 66.6487 3.28862 65.1429 3.03385C63.8225 2.82539 62.4557 2.70959 61.112 2.59378C59.8842 2.50114 58.6796 2.45481 57.4518 2.43165C56.3862 2.50114 55.3205 2.54746 54.0464 2.57062Z" fill="black"/>
<path d="M102.094 99.3157C102.395 98.8988 102.418 98.5282 102.511 98.1808C102.557 97.9955 102.604 97.7639 102.696 97.6018C102.766 97.4859 102.974 97.3701 103.09 97.3933C103.206 97.4165 103.345 97.5786 103.414 97.6944C103.484 97.8102 103.461 97.9723 103.461 98.1345C103.461 98.922 103.484 99.7326 103.484 100.52C103.484 100.613 103.507 100.729 103.461 100.798C103.391 100.914 103.299 101.076 103.206 101.099C102.997 101.145 102.905 100.96 102.905 100.798C102.882 100.427 102.905 100.057 102.835 99.6863C102.604 99.8947 102.534 100.173 102.465 100.451C102.441 100.566 102.418 100.659 102.395 100.775C102.349 100.937 102.302 101.145 102.094 101.099C101.978 101.076 101.862 100.891 101.816 100.752C101.7 100.451 101.631 100.103 101.538 99.8021C101.492 99.6863 101.445 99.5705 101.353 99.4083C101.167 99.6168 101.237 99.8252 101.214 100.011C101.19 100.288 101.214 100.566 101.19 100.844C101.19 100.914 101.051 101.006 100.959 101.03C100.912 101.03 100.82 100.937 100.797 100.844C100.773 100.775 100.773 100.659 100.773 100.566C100.773 99.6863 100.773 98.783 100.773 97.9029C100.773 97.6481 100.866 97.4628 101.121 97.4165C101.376 97.3701 101.561 97.5091 101.631 97.7407C101.723 98.0881 101.816 98.4124 101.909 98.7598C101.978 98.9219 102.001 99.0609 102.094 99.3157Z" fill="black"/>
<path d="M100.427 97.486C100.01 98.2503 100.01 98.2503 100.01 99.2231C100.01 99.64 100.01 100.08 100.01 100.497C100.01 100.613 100.01 100.729 99.9864 100.821C99.9633 101.006 99.8243 101.122 99.6389 101.099C99.4536 101.099 99.3378 100.983 99.3146 100.798C99.2914 100.682 99.3146 100.566 99.2914 100.474C99.2914 100.057 99.2914 99.6168 99.2914 99.1999C99.2914 98.2503 99.2914 98.2503 98.8281 97.5091C99.3841 97.3007 99.8938 97.3702 100.427 97.486Z" fill="black"/>
<path d="M109.577 57.0926C109.53 60.0573 109.345 63.1377 108.743 66.1719C108.395 67.9784 108.001 69.7618 107.515 71.5221C107.075 73.1897 106.473 74.8342 105.824 76.4555C105.106 78.2852 104.272 80.0686 103.345 81.7826C102.117 84.0987 100.727 86.299 99.152 88.3836C98.0632 89.8427 96.9281 91.2556 95.6771 92.5526C94.7737 93.5022 93.847 94.4286 92.9436 95.4014C92.7582 95.5867 92.6424 95.8647 92.5266 96.0963C92.4571 96.2352 92.4107 96.3742 92.3644 96.5132C92.0864 97.1154 92.0632 97.1154 91.4146 97.0459C91.1598 97.0227 90.9513 97.1385 90.7659 97.3007C89.6076 98.2039 88.4725 99.1072 87.291 99.9874C85.7621 101.099 84.1636 102.095 82.4957 102.998C80.7582 103.971 78.9513 104.828 77.098 105.616C76.3103 105.94 75.4995 106.218 74.7119 106.496C73.7621 106.82 72.8354 107.167 71.8625 107.445C70.7505 107.77 69.6154 108.048 68.4802 108.325C66.2331 108.858 63.9165 109.136 61.6231 109.391C60.9744 109.46 60.3258 109.483 59.6771 109.507C58.8895 109.53 58.0787 109.599 57.291 109.576C55.4378 109.507 53.5845 109.46 51.7544 109.298C49.3683 109.09 46.9822 108.696 44.6424 108.071C43.1598 107.677 41.654 107.306 40.2177 106.797C38.7582 106.31 37.3451 105.708 35.932 105.106C34.7273 104.596 33.5459 104.017 32.3876 103.415C31.2061 102.79 30.071 102.095 28.9358 101.4C26.9435 100.173 25.0903 98.7598 23.3065 97.2543C22.9822 96.9764 22.681 96.9301 22.2872 97.0459C21.6849 97.2312 21.4995 97.1154 21.2679 96.5363C21.1057 96.0963 20.9899 95.6562 20.7814 95.2393C20.5961 94.8919 20.3644 94.5908 20.0864 94.3128C18.5343 92.7842 17.1212 91.1629 15.7775 89.449C14.3876 87.6656 13.0903 85.8126 11.9551 83.8671C10.7505 81.7826 9.63853 79.6517 8.71189 77.4282C8.0169 75.7143 7.36826 74.0004 6.83544 72.2169C6.16362 69.9471 5.60764 67.631 5.26015 65.2917C4.93582 63.1146 4.65783 60.9374 4.65783 58.7139C4.65783 57.0926 4.58833 55.4482 4.681 53.8269C4.81999 51.9045 5.07482 50.0053 5.35281 48.106C5.60764 46.1836 6.09413 44.2844 6.62694 42.4083C7.09026 40.7407 7.66941 39.1426 8.2949 37.5213C9.01304 35.6684 9.87019 33.8387 10.82 32.0784C11.654 30.5266 12.6038 29.0443 13.5536 27.5619C14.8277 25.5701 16.2872 23.7172 17.8625 21.9801C19.0439 20.683 20.3181 19.4555 21.569 18.2279C22.8432 16.9772 24.2331 15.8655 25.6462 14.8001C27.2447 13.5957 28.8895 12.4608 30.6501 11.488C32.1327 10.6773 33.6385 9.8667 35.1675 9.12554C36.1636 8.63915 37.1829 8.22225 38.2254 7.8285C39.6385 7.31896 41.0517 6.80941 42.4648 6.3925C43.6231 6.04508 44.8277 5.76715 46.0323 5.51237C47.1212 5.28076 48.21 5.07231 49.2988 4.88702C50.4107 4.72489 51.5459 4.58592 52.6578 4.49328C54.071 4.40063 55.5073 4.33115 56.9204 4.33115C58.7505 4.33115 60.5806 4.37747 62.4107 4.58592C64.7737 4.84069 67.1598 5.18811 69.4532 5.81347C70.959 6.23037 72.4648 6.60095 73.9474 7.08734C75.3837 7.57373 76.7737 8.15276 78.1636 8.75496C79.3914 9.28767 80.5961 9.8667 81.7544 10.4921C82.8895 11.0942 83.9783 11.7428 85.0671 12.4144C87.2447 13.7578 89.3065 15.2864 91.2293 16.9772C92.6424 18.2048 93.986 19.5018 95.2833 20.8452C97.9242 23.6245 100.241 26.6818 102.187 29.9939C103.415 32.0552 104.48 34.2092 105.43 36.4327C106.241 38.3551 106.936 40.3007 107.515 42.2925C108.164 44.5623 108.673 46.8553 108.998 49.1946C109.206 50.7233 109.368 52.2519 109.484 53.7805C109.577 54.846 109.554 55.8882 109.577 57.0926ZM45.3142 77.5672C45.3374 77.5209 45.3374 77.4514 45.3605 77.4051C45.1289 77.2893 44.9204 77.1503 44.6887 77.0577C43.7389 76.7103 42.7659 76.386 41.793 76.0849C40.7042 75.7606 39.6385 75.4364 38.5266 75.1816C37.3683 74.9268 36.2331 74.5794 35.1675 74.0467C33.5459 73.2592 32.0864 72.2864 30.8586 70.9662C30.21 70.2714 29.6771 69.5302 29.4455 68.5575C29.1443 67.3531 30.1405 65.8013 31.6463 66.056C31.9011 66.1024 32.1559 66.1718 32.4107 66.2182C32.7119 66.2877 32.9899 66.334 33.291 66.3803C33.4995 66.4035 33.7544 66.3803 33.8007 66.1487C33.8239 66.0097 33.7544 65.7781 33.6385 65.6623C33.2215 65.1528 32.6656 64.8285 32.0632 64.5737C31.2061 64.2031 30.3258 63.8094 29.515 63.3693C28.7273 62.9293 28.0323 62.3966 27.4764 61.6786C26.6887 60.6363 26.5961 59.1077 27.291 58.0422C27.6617 57.44 28.2177 57.2547 28.8663 57.4864C29.1907 57.6022 29.515 57.7875 29.8393 57.8801C30.21 57.9959 30.5806 58.0886 30.9744 58.1117C31.2756 58.1349 31.5536 57.9959 31.6926 57.6948C31.8084 57.4169 31.6694 57.1853 31.4841 57C30.9744 56.4209 30.4416 55.8419 29.9088 55.286C29.0517 54.4059 28.2872 53.4563 27.8239 52.2982C27.4532 51.4181 27.291 50.4685 27.43 49.5189C27.5459 48.6851 28.3103 48.2218 29.1443 48.4303C29.2833 48.4766 29.4455 48.4998 29.5845 48.4998C29.9783 48.5229 30.2563 48.3145 30.3258 47.8976C30.349 47.7123 30.349 47.527 30.349 47.3417C30.3258 46.7858 30.2563 46.23 30.2795 45.6741C30.349 44.4234 30.8818 43.3811 31.8316 42.5936C32.6192 41.9451 33.569 41.922 34.5188 42.1304C35.0748 42.2462 35.4686 42.5705 35.7466 43.08C36.0941 43.6822 36.1173 44.3076 36.1405 44.9561C36.1636 45.4888 36.1173 46.0215 36.1636 46.5774C36.1636 46.7395 36.2795 46.948 36.3953 47.0174C36.5806 47.1333 36.7196 46.948 36.8354 46.7858C37.0439 46.5079 37.2524 46.2068 37.4609 45.952C38.3644 44.8403 39.708 45.234 40.2872 46.2068C40.7042 46.9016 40.6115 47.5965 40.4957 48.3145C40.3798 48.963 40.1945 49.6115 39.986 50.2369C39.6154 51.3255 39.3837 52.4604 39.291 53.5953C39.2679 53.7805 39.3142 54.0122 39.3605 54.1975C39.4995 54.6144 39.7544 54.6838 40.0324 54.3596C40.3103 54.0353 40.5652 53.6879 40.82 53.3636C41.3296 52.7383 41.793 52.0898 42.349 51.5339C42.8818 51.0244 43.4378 51.1402 43.8316 51.7655C44.0401 52.0898 44.2022 52.4604 44.3181 52.8309C44.5497 53.6647 44.6887 54.5217 44.5266 55.4018C44.2254 57.1621 43.9706 58.9455 43.6926 60.7289C43.5768 61.5396 43.3683 62.3271 43.5304 63.1609C43.5768 63.3693 43.5999 63.6009 43.8547 63.6241C44.0169 63.6241 44.2254 63.5315 44.3181 63.3925C44.5729 63.0682 44.8046 62.6977 45.0362 62.3271C45.3837 61.7249 45.7544 61.1459 46.403 60.8448C46.8895 60.6131 47.3991 60.5668 47.8856 60.8911C48.3953 61.2153 48.6269 61.7017 48.5574 62.3271C48.5111 62.605 48.4648 62.8829 48.3721 63.1377C47.8161 64.6432 47.2601 66.1487 46.8895 67.7237C46.542 69.2755 46.4262 70.8273 46.9358 72.3791C47.1443 73.0276 47.4223 73.6529 47.6308 74.3015C47.6771 74.4404 47.6076 74.6026 47.5845 74.7647C47.4686 74.7184 47.3065 74.6952 47.2138 74.6257C45.6154 73.0508 44.1327 71.3831 42.7891 69.5766C41.3065 67.6078 39.9397 65.5697 38.8277 63.3462C37.9937 61.6554 37.1134 59.9878 36.3953 58.2507C35.7698 56.7452 35.3065 55.1934 34.7737 53.6416C34.5883 53.0857 34.4493 52.5067 34.2872 51.9276C34.2177 51.7424 34.1945 51.4876 33.8239 51.4644C33.8239 51.6497 33.8239 51.8118 33.847 51.9508C34.2177 53.8037 34.7968 55.6103 35.3991 57.3937C35.793 58.5518 36.2795 59.6635 36.7891 60.7753C37.4146 62.1649 38.0401 63.5778 38.8046 64.9211C39.6617 66.4498 40.6347 67.9321 41.6076 69.3913C42.9976 71.4758 44.6424 73.3519 46.3798 75.1584C46.959 75.7606 47.5845 76.2933 48.1868 76.8955C48.5111 77.2198 48.9049 77.3124 49.3451 77.2893C50.8509 77.2198 52.3798 77.1503 53.8856 77.104C54.2563 77.0808 54.6269 77.104 54.9976 77.0808C55.2988 77.0577 55.3914 76.9187 55.2756 76.6176C55.1598 76.2702 54.8818 76.0386 54.5806 75.8533C53.237 75.0195 51.8934 74.2088 50.6887 73.1666C49.7157 72.3328 48.7659 71.4758 48.1405 70.3409C47.654 69.4608 47.5381 68.0711 48.6501 67.3068C49.0208 67.052 49.4609 66.8204 49.9011 66.7277C51.3605 66.4498 52.5652 64.5969 51.8239 63.0682C51.569 62.5818 51.2679 62.1649 50.7814 61.887C49.7852 61.308 48.8586 60.6131 48.1173 59.733C46.9358 58.297 46.0787 56.6989 45.6154 54.8923C45.3837 53.9427 45.2447 52.9931 45.4995 52.0434C45.7544 51.0938 46.4957 50.4222 47.515 50.4916C47.9551 50.5148 48.3953 50.6074 48.8354 50.7001C49.4378 50.8391 50.0401 51.0707 50.6656 51.1402C51.291 51.2328 51.5459 50.9086 51.4995 50.2832C51.4532 49.5884 51.152 48.9862 50.8741 48.4071C50.4571 47.5733 49.9706 46.7858 49.5768 45.952C48.9513 44.6782 48.4879 43.358 48.2331 41.9683C47.9783 40.6249 47.8625 39.2816 48.3953 37.9845C48.7428 37.1276 49.6463 36.757 50.5034 37.0812C50.9899 37.2665 51.43 37.5445 51.847 37.8456C52.3798 38.2393 52.9358 38.5867 53.4918 38.9573C53.7466 39.1194 53.9783 39.05 54.1173 38.8183C54.2331 38.6331 54.349 38.3783 54.3721 38.1698C54.3953 37.7992 54.3721 37.4287 54.3258 37.0581C54.071 35.4831 53.932 33.9081 54.0941 32.31C54.21 31.1519 54.4648 30.0402 55.2524 29.1138C56.0169 28.2105 57.3605 27.8862 58.4262 28.4421C59.0748 28.7895 59.515 29.299 59.8393 29.9476C60.0941 30.4571 60.21 30.9898 60.3258 31.5457C60.5574 32.7038 60.5574 33.8618 60.4648 35.0199C60.3953 35.9232 60.2563 36.8265 60.1636 37.7298C60.1405 38.0077 60.1636 38.2856 60.2331 38.5636C60.349 39.0036 60.6733 39.1658 61.0671 38.9342C61.4841 38.7025 61.8779 38.4246 62.2717 38.1467C62.8046 37.7529 63.3142 37.3129 63.9629 37.0812C64.7737 36.7801 65.4686 36.9886 65.9551 37.7066C66.488 38.4941 66.5574 39.4205 66.4879 40.3238C66.4185 41.4356 66.21 42.5242 65.8625 43.5896C65.4918 44.6782 65.0748 45.7436 64.5188 46.7395C63.9397 47.7586 63.3605 48.8009 63.0362 49.9589C62.8046 50.7927 63.1057 51.2328 63.986 51.1633C64.1019 51.1633 64.2177 51.1402 64.3103 51.0938C64.7737 50.9549 65.237 50.7927 65.7003 50.7001C66.1636 50.6074 66.6501 50.5148 67.1134 50.4916C67.9474 50.4685 68.7119 51.0707 68.9204 51.8582C69.2447 53.0394 69.1057 54.2206 68.7351 55.3555C68.2717 56.8378 67.5768 58.2044 66.5806 59.4087C65.8625 60.2657 65.098 61.0764 64.1019 61.6091C63.7544 61.7944 63.4532 62.0491 63.1752 62.3039C61.7158 63.6936 62.5266 66.195 64.403 66.6814C64.7042 66.7509 65.0053 66.8435 65.2833 66.9825C66.5574 67.5615 66.9976 68.8122 66.4185 70.0861C66.071 70.8504 65.5613 71.4758 65.0053 72.0548C63.6617 73.3982 62.0864 74.4636 60.488 75.4595C60.0246 75.7375 59.5613 75.9922 59.237 76.4555C59.1443 76.5713 59.098 76.7797 59.1443 76.9187C59.1675 76.9882 59.376 77.0808 59.515 77.0808C61.2061 77.0113 62.8741 77.1735 64.5652 77.2661C64.8663 77.2893 65.1675 77.3124 65.4455 77.2661C65.654 77.243 65.8856 77.1503 66.0478 77.0345C66.3258 76.8261 66.5806 76.5713 66.8354 76.3397C69.1057 74.1857 71.1675 71.8232 72.9513 69.2291C74.5497 66.9362 75.986 64.5274 77.098 61.9565C77.8393 60.2426 78.6038 58.5286 79.2293 56.7684C79.7621 55.2397 80.1327 53.6416 80.5729 52.0666C80.5961 51.9508 80.6424 51.835 80.6192 51.7424C80.5961 51.6497 80.5266 51.5571 80.4802 51.4644C80.3876 51.5339 80.2717 51.5802 80.2022 51.6729C80.1327 51.7655 80.1327 51.9276 80.0864 52.0434C79.4841 54.3596 78.7196 56.6062 77.7698 58.8066C76.82 61.0069 75.7544 63.1609 74.5034 65.2454C73.2524 67.3299 71.9088 69.3449 70.3103 71.1747C69.3605 72.2864 68.3412 73.3287 67.3451 74.3941C67.2061 74.5562 67.0439 74.7184 66.7196 74.5562C66.9281 73.954 67.1134 73.3519 67.3683 72.796C67.7389 71.9159 67.9242 70.9894 67.8779 70.0861C67.8547 69.067 67.6694 68.0479 67.4146 67.0751C67.0903 65.8013 66.6038 64.5737 66.1868 63.323C66.071 62.9293 65.932 62.5355 65.8856 62.1418C65.7698 61.0532 66.9049 60.2889 67.9242 60.7289C68.5266 61.0069 68.9436 61.4006 69.2679 62.0028C69.5227 62.466 69.847 62.9061 70.1713 63.323C70.264 63.4388 70.4725 63.5546 70.5883 63.5083C70.7273 63.462 70.8895 63.2535 70.9127 63.1146C70.959 62.744 71.0053 62.3734 70.959 62.026C70.7042 60.312 70.403 58.5981 70.1019 56.8842C69.9397 55.9577 69.8702 55.0544 69.8934 54.128C69.8934 53.41 70.125 52.7383 70.403 52.0898C70.4957 51.8813 70.6115 51.696 70.7737 51.5339C71.1443 51.0938 71.6076 51.0707 72.0478 51.4413C72.2563 51.6034 72.4184 51.7887 72.5806 51.9971C73.1598 52.7151 73.7158 53.4563 74.2949 54.1975C74.4339 54.3827 74.5497 54.5912 74.8277 54.4986C75.1057 54.4059 75.152 54.1743 75.1752 53.9195C75.1752 53.6879 75.1984 53.4795 75.1752 53.2478C75.0362 52.4372 74.9204 51.6265 74.6887 50.8622C74.3876 49.8431 74.0632 48.8009 73.9011 47.7354C73.7621 46.8553 74.0401 46.1142 74.7351 45.5583C75.1984 45.1877 75.7312 45.0951 76.3103 45.3498C76.6578 45.512 76.9358 45.7204 77.1675 46.0447C77.3528 46.2994 77.515 46.5774 77.7235 46.809C77.8161 46.9016 77.9783 46.9711 78.0941 46.9711C78.1868 46.9711 78.2795 46.7858 78.3026 46.6932C78.349 46.4153 78.3953 46.1373 78.3953 45.8594C78.4184 45.373 78.3721 44.8866 78.3953 44.4234C78.4648 43.5201 78.6501 42.6631 79.5768 42.2694C79.9706 42.1073 80.4339 42.0146 80.8741 41.9914C81.6385 41.9683 82.3335 42.1999 82.8895 42.7558C83.793 43.6127 84.2563 44.6782 84.2331 45.9289C84.21 46.3689 84.1868 46.809 84.1405 47.2491C84.0246 48.1755 84.488 48.5924 85.3683 48.384C85.3914 48.384 85.4146 48.384 85.4146 48.3608C86.0864 48.0597 86.8741 48.6851 87.0362 49.3104C87.2447 50.1905 87.0594 51.0012 86.8277 51.8118C86.6192 52.5762 86.2254 53.2942 85.6926 53.8964C85.1134 54.5449 84.5111 55.1702 83.932 55.8187C83.5613 56.2356 83.1907 56.6294 82.8663 57.0926C82.5652 57.5095 82.7505 57.8801 83.2602 58.0191C83.7003 58.1349 84.0941 58.0422 84.5111 57.8801C84.8818 57.7411 85.2293 57.579 85.5999 57.44C86.2949 57.1853 86.8972 57.3937 87.2447 58.0422C87.847 59.1308 87.8934 60.2426 87.1752 61.308C86.9436 61.6554 86.6656 62.0028 86.3644 62.2808C85.5304 63.0682 84.5574 63.6241 83.515 64.0873C82.9822 64.3189 82.4262 64.5274 81.8702 64.7822C81.3837 65.0138 80.9436 65.338 80.6656 65.8244C80.5266 66.0792 80.6192 66.3108 80.9204 66.3571C81.0362 66.3803 81.1752 66.3803 81.3142 66.334C81.6617 66.2645 81.986 66.1487 82.3335 66.0792C83.515 65.8244 84.349 66.0792 84.8818 67.1678C85.1366 67.7005 85.1134 68.2332 84.9513 68.7891C84.6501 69.7619 84.0246 70.5262 83.3297 71.1979C82.2409 72.2401 81.013 73.0971 79.6694 73.7688C78.6269 74.3015 77.5613 74.7415 76.403 74.9963C75.2679 75.2511 74.1327 75.529 73.0208 75.8533C71.8625 76.2007 70.7042 76.6408 69.5459 77.0345C69.3374 77.104 69.0825 77.1735 68.9899 77.5209C69.3837 77.5441 69.708 77.5672 70.0555 77.6135C72.0246 77.8683 73.9937 78.1231 75.9397 78.401C76.8895 78.54 77.8393 78.7253 78.7891 78.9106C79.8779 79.119 80.9667 79.3506 82.0555 79.5591C82.3567 79.6286 82.5883 79.5359 82.7968 79.2812C83.0285 79.0032 83.2602 78.7021 83.4918 78.4242C85.3451 76.1312 86.9204 73.6529 88.125 70.9431C88.7968 69.4839 89.3528 67.9784 89.793 66.4266C90.1868 65.0369 90.4648 63.6241 90.7196 62.2113C91.0671 60.3815 91.1598 58.5286 91.1829 56.6757C91.1829 56.0967 91.1366 55.4945 91.0903 54.8923C90.9976 53.8732 90.9281 52.8541 90.7891 51.8582C90.6501 50.9317 90.4648 50.0053 90.2563 49.0788C90.0015 48.0134 89.7003 46.9248 89.3528 45.8825C89.0517 44.9793 88.681 44.076 88.3335 43.1958C88.0555 42.5473 87.7775 41.8988 87.4532 41.2734C86.5961 39.6985 85.6926 38.1467 84.6269 36.7107C83.098 34.6493 81.4069 32.7501 79.4609 31.0593C77.9551 29.7623 76.3335 28.581 74.6192 27.5388C73.1366 26.6355 71.5845 25.848 69.9629 25.1995C68.6887 24.6899 67.3914 24.2499 66.071 23.9025C64.7042 23.5319 63.3374 23.2308 61.9474 23.0455C60.9281 22.9065 59.8856 22.9065 58.8432 22.7676C57.3837 22.5823 55.9242 22.7212 54.4648 22.837C53.2833 22.9297 52.1018 23.0686 50.9435 23.2771C49.7621 23.4856 48.6038 23.8098 47.4223 24.1109C46.9822 24.2267 46.542 24.3657 46.1018 24.551C45.2679 24.8752 44.4571 25.1995 43.6231 25.5237C42.9513 25.8017 42.2563 26.0796 41.6076 26.4502C40.4262 27.1219 39.2215 27.7936 38.0864 28.5579C36.8818 29.3917 35.7235 30.295 34.6115 31.2446C33.6385 32.1016 32.7582 33.0512 31.8547 33.9776C30.5806 35.2978 29.4918 36.7801 28.5188 38.332C27.6154 39.7448 26.7582 41.1576 26.1327 42.7094C25.6926 43.798 25.1829 44.8866 24.8123 45.9984C24.4416 47.1333 24.1868 48.3145 23.8856 49.4725C23.3296 51.6034 23.1443 53.7806 23.0748 55.9577C23.0285 57.5327 23.1443 59.1077 23.2833 60.6595C23.4455 62.3966 23.8161 64.0873 24.2795 65.7781C24.6964 67.2836 25.2061 68.7428 25.8084 70.1788C26.3644 71.5221 27.0362 72.796 27.7544 74.0467C28.7968 75.8533 30.0246 77.4977 31.3451 79.119C31.5768 79.397 31.8316 79.5128 32.1791 79.4201C32.3181 79.3738 32.4802 79.3738 32.6192 79.3275C34.7042 78.9569 36.7659 78.54 38.8509 78.2157C40.7505 77.9146 42.6733 77.7293 44.5729 77.4977C44.8046 77.6135 45.0594 77.5904 45.3142 77.5672ZM48.6501 78.3084C48.4648 78.3315 48.0941 78.401 47.7235 78.4242C45.4069 78.54 43.1134 78.7948 40.82 79.119C39.4069 79.3043 37.9937 79.4896 36.5806 79.7444C34.8895 80.0455 33.1984 80.3929 31.5304 80.7635C29.793 81.1572 28.0787 81.5973 26.3644 82.0605C24.9049 82.4774 23.4686 82.9406 22.0323 83.4502C20.7814 83.8903 19.5536 84.423 18.3258 84.9094C17.9783 85.0483 17.8856 85.2568 18.0246 85.6274C18.1636 85.9979 18.3258 86.3454 18.4648 86.6928C19.0671 88.1751 19.6694 89.6343 20.2486 91.1166C20.8509 92.5757 21.43 94.0349 22.0323 95.4941C22.1945 95.8878 22.2408 95.9341 22.6578 95.8183C23.237 95.6562 23.793 95.4709 24.3721 95.3088C26.6424 94.6834 28.9127 94.0581 31.1829 93.479C33.6849 92.8305 36.21 92.3441 38.7582 91.9504C40.82 91.6493 42.9049 91.325 44.9667 91.0934C46.7505 90.885 48.5343 90.746 50.3412 90.6302C51.8934 90.5375 53.4455 90.4681 54.9976 90.4449C57.4532 90.4217 59.932 90.4217 62.3876 90.607C64.125 90.7228 65.8625 90.8155 67.5768 90.9776C69.569 91.1861 71.5613 91.4177 73.5304 91.7188C75.3605 91.9967 77.1907 92.3441 78.9976 92.7379C81.0594 93.1779 83.1212 93.6412 85.1598 94.1507C86.5729 94.4981 87.9629 94.9382 89.376 95.3551C89.932 95.5172 90.4648 95.7025 91.0208 95.8415C91.3914 95.9341 91.5304 95.8415 91.6694 95.4941C92.0632 94.4981 92.4802 93.5022 92.8741 92.5063C93.2679 91.4872 93.6617 90.4681 94.0787 89.4721C94.5883 88.1983 95.1212 86.9475 95.6308 85.6737C95.8161 85.2336 95.7698 85.1178 95.3297 84.9557C94.264 84.5156 93.1752 84.0524 92.0864 83.6586C90.8354 83.1954 89.5613 82.7785 88.2872 82.4079C87.1057 82.0373 85.9011 81.7363 84.6964 81.4352C83.3991 81.1109 82.125 80.7635 80.8046 80.5087C78.3953 80.0455 75.9629 79.6054 73.5304 79.258C71.1907 78.9337 68.8277 78.7021 66.4648 78.4705C65.1443 78.3547 63.8007 78.3084 62.4802 78.2389C60.7891 78.1694 59.1212 78.0999 57.43 78.0768C55.7852 78.0768 54.1405 78.1231 52.4957 78.1694C52.125 78.1694 51.7544 78.1926 51.3837 78.2157C50.5497 78.2389 49.6926 78.2621 48.6501 78.3084ZM66.071 97.0227C64.9127 97.069 63.7775 97.3701 62.6424 97.6249C62.2022 97.7176 62.1559 97.8565 62.2486 98.3197C62.4339 99.223 62.6192 100.126 62.8046 101.03C63.0362 102.118 63.2679 103.207 63.4995 104.272C63.5922 104.689 63.6617 104.712 64.0787 104.643C65.0053 104.457 65.932 104.249 66.8354 104.064C67.4609 103.925 68.0169 103.624 68.4339 103.137C68.5729 102.975 68.7119 102.767 68.7351 102.558C68.8972 101.609 68.8972 100.705 67.9706 100.08C67.7157 99.9179 67.6926 99.7326 67.8316 99.4778C68.0864 98.9451 68.0401 98.4124 67.7621 97.8797C67.4146 97.208 66.8354 96.9301 66.071 97.0227ZM56.9204 74.2088C56.9204 74.9037 56.9204 75.5753 56.9204 76.2702C56.9204 76.4091 56.9204 76.525 56.9436 76.6639C56.9667 76.8492 57.0825 76.965 57.291 76.965C57.4764 76.965 57.5922 76.8492 57.6385 76.6639C57.6617 76.5713 57.6617 76.4786 57.6617 76.386C57.708 74.1393 57.708 71.9159 57.7312 69.6692C57.7544 64.3884 57.8934 59.1308 57.6617 53.85C57.569 51.5107 57.5922 49.1483 57.569 46.809C57.569 45.8594 57.569 44.9098 57.569 43.9833C57.569 43.8675 57.5922 43.7517 57.5459 43.6591C57.4995 43.5433 57.3605 43.4506 57.291 43.358C57.2215 43.4506 57.1289 43.5432 57.0594 43.6359C57.0362 43.6822 57.0362 43.7749 57.0362 43.8443C57.013 45.0024 56.9667 46.1836 56.9436 47.3417C56.8972 50.4222 56.8509 53.4795 56.8509 56.5599C56.8509 62.4429 56.7351 68.3259 56.9204 74.2088ZM40.0092 13.0861C39.8239 13.1324 39.4764 13.2019 39.152 13.3409C38.3876 13.642 37.6463 13.9663 36.9049 14.2905C36.4185 14.499 36.3258 14.7074 36.5574 15.1938C36.8818 15.935 37.2061 16.6761 37.5304 17.4404C38.0401 18.6448 38.5497 19.8492 39.0594 21.0536C39.1752 21.3547 39.291 21.3779 39.569 21.2621C39.7775 21.1694 39.986 21.0768 40.1713 20.9841C40.9358 20.6367 41.7003 20.3125 42.4416 19.9419C42.8818 19.7334 43.2293 19.386 43.4378 18.9459C43.8547 18.0658 43.5304 16.9541 42.9049 16.3982C42.7196 16.2361 42.5111 16.1434 42.3026 16.0276C41.8856 15.796 41.8625 15.7497 41.9783 15.2864C42.0246 15.1243 42.071 14.9622 42.0478 14.8001C41.9551 13.8736 41.0748 13.0861 40.0092 13.0861ZM79.5536 20.6136C79.5073 20.6136 79.4609 20.5904 79.4146 20.5904C79.3683 20.4051 79.2756 20.2198 79.2756 20.0577C79.2524 18.9923 79.2293 17.95 79.2061 16.8846C79.2061 16.4677 79.1366 16.0276 79.1134 15.6107C79.1134 15.3096 78.9513 15.1012 78.7196 14.9159C78.1405 14.499 77.9551 14.5221 77.6076 15.1475C76.5883 16.9309 75.569 18.7143 74.5497 20.4977C74.4571 20.6599 74.4107 20.8452 74.5266 21.0073C74.8741 21.5632 75.4532 21.5632 75.7775 21.0073C75.8007 20.961 75.8239 20.9146 75.847 20.8683C76.3567 19.9187 76.8895 18.9923 77.4223 18.0658C77.4687 17.9732 77.654 17.8342 77.7003 17.8574C77.8161 17.9268 77.932 18.0426 77.932 18.1585C77.9783 18.4595 77.932 18.7606 77.9551 19.0386C78.0246 20.1503 78.1173 21.2621 78.1173 22.3506C78.1173 22.9065 78.3026 23.2539 78.7659 23.5319C79.0671 23.7172 79.2756 23.694 79.4841 23.3929C79.6231 23.1845 79.7158 22.976 79.8316 22.7676C80.7814 21.1231 81.708 19.5018 82.6578 17.8574C82.8895 17.4404 82.82 17.2552 82.403 17.0004C81.9629 16.7456 81.8007 16.7688 81.5459 17.1857C80.9667 18.2048 80.3876 19.2239 79.8084 20.2198C79.7389 20.3588 79.6462 20.4977 79.5536 20.6136ZM99.6617 57.6253C99.8934 57.2547 100.125 57.0695 100.403 56.8842C101.561 56.1198 102.72 55.3787 103.901 54.6144C104.225 54.4059 104.388 53.6416 104.179 53.3173C104.11 53.2247 103.971 53.1552 103.855 53.132C103.716 53.1089 103.554 53.1089 103.415 53.1089C102.094 53.132 100.797 53.1784 99.4764 53.2015C98.8741 53.2015 98.2949 53.2015 97.6926 53.2015C97.5304 53.2015 97.3683 53.2015 97.1829 53.2247C96.9281 53.271 96.7891 53.41 96.7659 53.6647C96.7659 53.8269 96.7659 53.989 96.7659 54.1743C96.7891 54.3827 96.9281 54.4986 97.1366 54.5217C97.2756 54.5449 97.3914 54.5449 97.5304 54.5449C98.6656 54.5449 99.8007 54.5217 100.913 54.5217C101.028 54.5217 101.144 54.5449 101.376 54.5912C101.167 54.7996 101.052 54.9849 100.913 55.0776C99.8702 55.7724 98.8277 56.4209 97.8084 57.1158C97.5304 57.3011 97.2524 57.4864 97.0208 57.7411C96.7428 58.0191 96.8354 58.3665 96.9281 58.6907C97.0208 59.015 97.3219 58.9918 97.5768 58.9918C99.6385 58.9687 101.677 58.9224 103.739 58.876C104.202 58.876 104.341 58.7371 104.341 58.2738C104.364 57.7411 104.225 57.579 103.739 57.5558C103.646 57.5558 103.554 57.5558 103.461 57.5558C102.442 57.6022 101.422 57.6485 100.403 57.6716C100.195 57.6716 99.986 57.6485 99.6617 57.6253ZM31.7157 22.7907C31.1134 22.7907 30.7428 22.6286 30.349 22.4896C29.1675 22.0727 28.0092 21.6558 26.8509 21.2389C26.5961 21.1463 26.3876 21.1694 26.1791 21.3547C26.0632 21.4474 25.9474 21.54 25.8316 21.6326C25.5073 21.9337 25.5073 22.0264 25.8084 22.3738C26.7351 23.5319 27.6617 24.6899 28.5883 25.8248C29.0053 26.3344 29.3991 26.8439 29.8161 27.3303C30.071 27.6546 30.1868 27.6546 30.5111 27.3998C30.5806 27.3535 30.6501 27.284 30.7196 27.2145C31.0671 26.9134 31.0903 26.8439 30.7891 26.4965C30.071 25.5932 29.3528 24.7131 28.6347 23.8098C28.542 23.6708 28.4725 23.5087 28.3798 23.3466C28.681 23.1613 28.9127 23.2539 29.1443 23.3466C30.4416 23.7866 31.7157 24.2499 33.013 24.7131C33.43 24.8521 33.7544 24.8289 34.0787 24.5278C34.4725 24.1804 34.5188 24.0877 34.1713 23.6708C33.6154 22.9528 33.0362 22.258 32.4571 21.5632C31.7389 20.6599 30.9976 19.7334 30.2795 18.8301C30.1636 18.6912 29.9088 18.4595 29.8161 18.5059C29.5381 18.6217 29.2833 18.8301 29.0748 19.0617C28.8895 19.2702 29.1212 19.4786 29.2601 19.6408C29.932 20.4514 30.6038 21.2852 31.2524 22.0959C31.4146 22.2812 31.5304 22.4896 31.7157 22.7907ZM15.1752 38.2856C14.4339 38.3088 13.8316 38.7489 13.4378 39.49C13.1598 40.0227 12.9744 40.5786 12.7428 41.1113C12.5574 41.5514 12.3953 42.0146 12.2563 42.4778C12.1173 42.9179 12.2331 43.08 12.6501 43.2422C13.2988 43.4969 13.9706 43.7285 14.6192 43.9833C15.9165 44.4697 17.2138 44.9793 18.5111 45.4425C18.6501 45.4888 18.8818 45.512 18.9744 45.4425C19.2293 45.234 19.3683 44.9098 19.3451 44.5623C19.3219 44.2612 19.0671 44.2149 18.8354 44.1454C18.3721 43.9833 17.8856 43.8212 17.4223 43.6359C17.0285 43.4738 16.9127 43.3116 16.959 43.0337C17.0517 42.4083 17.3296 42.1072 17.9551 42.0146C18.6038 41.922 19.2524 41.8525 19.8779 41.8062C20.2254 41.783 20.4802 41.6903 20.5961 41.3429C20.6424 41.1808 20.7351 41.0418 20.8046 40.8797C20.9435 40.4628 20.8509 40.3238 20.4107 40.347C19.7621 40.3933 19.1134 40.486 18.4879 40.5554C17.8393 40.6249 17.7698 40.6018 17.6308 39.9996C17.3991 38.9341 16.2408 38.2856 15.1752 38.2856ZM66.6038 18.3206C67.9011 18.2743 68.8277 17.9037 69.4995 17.0004C70.1482 16.1434 70.3798 15.1243 70.3798 14.0821C70.3567 12.9472 69.8702 12.0439 68.8972 11.4417C67.9937 10.8858 66.9281 10.7468 65.8856 10.5152C65.6076 10.4457 65.4918 10.6079 65.4223 10.8626C65.0748 12.2755 64.7273 13.6883 64.403 15.1243C64.2408 15.796 64.0787 16.4445 63.9397 17.1162C63.847 17.5099 63.9165 17.6489 64.264 17.7415C65.098 17.9732 65.9551 18.1584 66.6038 18.3206ZM58.7968 101.47C58.6578 101.493 58.542 101.493 58.403 101.493C58.264 101.493 58.1482 101.47 58.0092 101.493C57.6154 101.493 57.5227 101.585 57.4995 101.979C57.4995 102.095 57.4995 102.211 57.4995 102.303C57.5227 102.72 57.5922 102.767 58.0555 102.813C58.1945 102.813 58.403 102.883 58.4725 102.975C58.6115 103.137 58.4725 103.323 58.3567 103.462C57.9165 103.971 57.0594 104.041 56.4802 103.647C55.5073 102.998 55.1134 100.937 56.2022 99.8252C56.8046 99.1999 57.6154 99.1999 58.2408 99.8021C58.681 100.219 58.6578 100.242 59.2138 100.034C59.3065 99.9874 59.4223 99.9642 59.5381 99.9179C59.8625 99.7558 59.932 99.5705 59.7698 99.2462C59.5381 98.8293 59.2138 98.4819 58.7968 98.2734C57.0594 97.3933 55.0671 98.1576 54.3953 99.941C54.0246 100.891 54.0246 101.887 54.2563 102.836C54.4879 103.878 55.0208 104.712 56.0864 105.129C56.6887 105.361 57.3142 105.384 57.9397 105.268C58.8432 105.106 59.4918 104.62 59.8856 103.786C60.1868 103.137 60.071 102.466 60.071 101.817C60.071 101.609 59.9088 101.493 59.7003 101.493C59.376 101.47 59.098 101.47 58.7968 101.47ZM97.5536 36.2011C96.21 36.2474 95.0517 36.7338 94.125 37.6834C93.3142 38.4941 92.9667 39.4437 93.2679 40.6249C93.6385 42.1072 95.0053 43.0105 96.349 42.9179C97.8084 42.8252 99.0826 42.2462 100.009 41.0882C100.959 39.9069 100.889 38.6099 100.102 37.4518C99.4995 36.5717 98.6192 36.178 97.5536 36.2011ZM49.0903 104.689C49.9474 104.689 50.4571 104.55 50.8277 104.249C51.9397 103.323 51.8239 101.516 50.5961 100.775C50.1327 100.497 49.6231 100.312 49.1598 100.057C48.9281 99.941 48.6964 99.8252 48.5111 99.6399C48.1868 99.3157 48.3258 98.8988 48.7428 98.783C49.3451 98.644 49.8779 98.7598 50.3412 99.1767C50.9436 99.6863 50.9436 99.6863 51.569 99.2462C51.6385 99.1999 51.6849 99.1767 51.7544 99.1304C51.9629 98.9914 51.986 98.8061 51.847 98.5977C51.7775 98.4819 51.6849 98.3429 51.569 98.2503C50.6656 97.4859 49.6463 97.1617 48.4879 97.347C47.3528 97.5323 46.7968 98.3429 46.7737 99.3852C46.7505 99.941 46.9127 100.427 47.376 100.752C47.7698 101.03 48.21 101.238 48.6269 101.47C48.9976 101.678 49.4146 101.817 49.7389 102.072C50.2486 102.442 50.1327 103.021 49.5304 103.207C49.2988 103.276 49.0208 103.276 48.7659 103.23C48.21 103.114 47.7003 102.906 47.3296 102.466C47.2138 102.303 47.0517 102.188 46.8432 102.28C46.5188 102.442 46.0787 102.558 46.0092 102.929C45.9397 103.253 46.2408 103.531 46.4957 103.763C46.5188 103.786 46.5188 103.786 46.542 103.786C47.2833 104.434 48.1636 104.735 49.0903 104.689ZM14.7582 52.7615C15.4069 52.7615 16.0092 52.5993 16.5883 52.3445C18.0015 51.696 18.6269 49.681 17.9783 48.4071C17.4918 47.4343 16.1482 46.7627 15.013 46.7627C14.8046 46.7627 14.6656 46.8785 14.6192 47.0869C14.5266 47.6428 14.4339 48.1755 14.3644 48.7314C14.3412 48.8703 14.4339 49.1251 14.5266 49.1483C14.7814 49.2409 15.1057 49.3336 15.3837 49.3104C15.6617 49.2873 15.6154 48.9862 15.6617 48.7777C15.7544 48.3608 16.0092 48.2682 16.3335 48.5229C16.681 48.7777 16.8663 49.1251 16.8663 49.5652C16.8895 50.5148 16.3103 51.2328 15.3837 51.3255C14.8277 51.3949 14.2254 51.3486 13.6926 51.2328C13.2756 51.1402 12.8586 50.9085 12.5111 50.6538C11.6771 50.0053 11.7235 48.7545 12.5574 48.106C13.0439 47.7354 13.0671 47.6428 12.7659 47.1101C12.7659 47.0869 12.7428 47.0869 12.7428 47.0638C12.5111 46.6469 12.349 46.6005 11.9551 46.8553C11.2601 47.2722 10.8432 47.8976 10.681 48.7082C10.4262 49.9589 10.8663 51.1865 11.8856 51.8813C12.7428 52.4372 13.7389 52.7151 14.7582 52.7615ZM82.0092 24.7131C81.9165 25.848 82.7273 26.8903 83.5845 27.3535C84.2563 27.7241 84.9513 27.863 85.7158 27.5619C86.4339 27.284 86.9204 26.7745 87.4069 26.2649C87.7312 25.9175 87.708 25.7554 87.3605 25.4311C86.9899 25.0837 86.6192 24.7826 86.2486 24.4352C86.0401 24.2499 85.8779 24.2499 85.6694 24.4352C85.1134 24.9216 85.1134 25.0374 85.5999 25.5469C85.8316 25.7785 85.8084 26.0101 85.5536 26.1954C85.2756 26.4039 84.9281 26.4502 84.6038 26.3576C83.8393 26.1259 83.3297 25.3848 83.3528 24.5973C83.3991 23.7172 83.932 23.0918 84.5111 22.5359C84.8354 22.2348 85.2524 21.9337 85.6926 21.8411C86.8046 21.5863 87.5922 22.2348 87.708 23.3697C87.7312 23.6477 87.8239 23.833 88.125 23.8793C88.264 23.9025 88.403 23.9719 88.5652 23.9951C88.9127 24.0646 89.0517 23.9488 89.098 23.6014C89.1675 23.0223 89.0285 22.4665 88.7273 21.9569C88.0555 20.822 86.4107 20.0345 85.0903 20.6136C84.2331 21.0073 83.515 21.5168 82.9822 22.258C82.403 22.9528 81.986 23.7403 82.0092 24.7131ZM40.7273 102.535C41.4455 102.581 42.0246 102.28 42.5343 101.817C42.9744 101.4 43.2756 100.891 43.4609 100.335C43.6463 99.8484 43.8084 99.362 43.9937 98.8756C44.2254 98.2271 44.4802 97.6018 44.6887 96.9532C44.8277 96.5363 44.7582 96.4437 44.3644 96.2816C44.2717 96.2584 44.1791 96.2352 44.1096 96.1889C43.5999 96.0036 43.4609 96.0499 43.2756 96.5595C42.9744 97.347 42.7196 98.1576 42.4185 98.9451C42.21 99.501 42.0478 100.057 41.654 100.52C41.0285 101.238 40.0787 101.192 39.5227 100.451C39.291 100.149 39.2447 99.8021 39.291 99.4547C39.3374 99.1536 39.4069 98.8293 39.5227 98.5514C39.847 97.6249 40.1945 96.7216 40.5188 95.7952C40.82 94.9614 40.7968 94.9614 39.9629 94.6139C39.6849 94.4981 39.4995 94.5445 39.3605 94.7992C39.291 94.9382 39.2215 95.054 39.152 95.193C38.8972 95.8415 38.6656 96.5132 38.4339 97.1617C38.2022 97.8565 37.9706 98.5745 37.8084 99.2925C37.6694 99.941 37.8084 100.59 38.1559 101.145C38.7351 102.141 39.6849 102.442 40.7273 102.535ZM25.4146 30.8045C25.2756 30.7582 25.1829 30.735 25.1366 30.6887C24.8123 30.3876 24.4648 30.1097 24.1636 29.7854C24.0015 29.6233 24.071 29.438 24.21 29.299C24.4184 29.0443 24.6501 28.7895 24.8586 28.5347C25.1829 28.1641 25.2061 28.0483 24.8586 27.7009C24.7891 27.6314 24.7196 27.5619 24.6501 27.5156C24.3721 27.3072 24.21 27.3072 23.9783 27.5619C23.7466 27.7936 23.5381 28.0715 23.3296 28.3263C23.0053 28.72 22.9358 28.72 22.5188 28.4189C22.4493 28.3726 22.403 28.3263 22.3335 28.2799C21.847 27.8862 21.8239 27.7009 22.2408 27.2377C22.7505 26.6587 23.2601 26.0565 23.7698 25.4774C24.0246 25.1763 24.0246 25.0605 23.7466 24.7826C23.7003 24.7363 23.6308 24.6899 23.5845 24.6436C23.2138 24.3194 23.0748 24.3194 22.7737 24.6899C21.9629 25.6164 21.1752 26.5428 20.3876 27.4693C20.0169 27.9094 20.0169 28.002 20.4571 28.3726C22.0555 29.7623 23.6308 31.1288 25.2293 32.5185C25.4841 32.7501 25.5999 32.7501 25.8547 32.5185C25.9474 32.449 26.0169 32.3563 26.0864 32.2868C26.7119 31.5688 27.3374 30.8277 27.9629 30.0865C28.1713 29.8318 28.403 29.577 28.6115 29.3222C28.7273 29.1601 28.82 28.9748 28.681 28.8127C28.5188 28.6274 28.3103 28.4652 28.0787 28.3263C28.0092 28.2799 27.8239 28.3263 27.7312 28.3726C27.6154 28.4421 27.5459 28.5579 27.4532 28.6505C26.9667 29.2064 26.5034 29.7854 26.0169 30.3413C25.8084 30.5266 25.5999 30.6656 25.4146 30.8045ZM18.1636 30.6424C18.1173 30.6656 18.0015 30.7119 17.932 30.7814C17.793 30.9435 17.6771 31.1519 17.5613 31.3372C16.9822 32.2869 16.4262 33.2365 15.847 34.1861C15.6154 34.5567 15.6385 34.8114 16.0555 35.043C17.098 35.6221 18.1173 36.2706 19.1366 36.896C19.8779 37.336 20.6192 37.7992 21.3605 38.2393C21.8239 38.5172 21.9629 38.4709 22.2408 38.0077C22.3798 37.7761 22.4957 37.5445 22.6347 37.336C23.1443 36.4559 23.6771 35.5989 24.1868 34.7188C24.4184 34.3482 24.3721 34.1861 24.0015 33.9313C23.932 33.885 23.8393 33.8387 23.7698 33.7923C23.4455 33.607 23.3991 33.6302 23.1675 33.9081C23.098 34.0239 23.0285 34.1166 22.959 34.2324C22.5652 34.9041 22.1713 35.5758 21.7775 36.2243C21.5459 36.618 21.3605 36.6643 20.9667 36.4327C20.7119 36.2706 20.4571 36.1316 20.2254 35.9695C19.8084 35.6916 19.8084 35.6221 20.0401 35.2052C20.2022 34.9272 20.3876 34.6493 20.5497 34.3482C20.7351 34.024 20.6887 33.8618 20.3876 33.6302C20.2717 33.5376 20.1327 33.4912 19.9937 33.4218C19.8084 33.3291 19.6462 33.3754 19.5304 33.5607C19.3914 33.7923 19.2293 34.024 19.1134 34.2787C18.7428 34.9272 18.5574 34.9736 17.932 34.5798C17.8625 34.5335 17.8161 34.5103 17.7466 34.464C17.4686 34.2324 17.4455 34.0471 17.6308 33.746C18.0246 33.0975 18.4184 32.449 18.8123 31.8005C19.1366 31.2909 18.8586 30.7119 18.1636 30.6424ZM48.2563 18.2974C48.4416 18.2511 48.7891 18.1816 49.1366 18.089C50.6192 17.7184 51.3142 16.3055 51.0594 14.9622C50.8741 13.8968 50.6192 12.8313 50.4107 11.7659C50.3412 11.3953 50.2486 11.0016 50.1791 10.631C50.1327 10.3994 50.0169 10.2604 49.7621 10.2604C49.0671 10.2141 48.7659 10.5384 48.9049 11.2332C48.9281 11.3259 48.9513 11.4185 48.9744 11.5112C49.1598 12.3681 49.3683 13.2483 49.5536 14.1052C49.6231 14.4758 49.7157 14.8695 49.7389 15.2633C49.7852 15.7497 49.7157 16.1897 49.3219 16.5372C48.4184 17.3246 47.2138 16.9772 46.8432 15.8423C46.681 15.3791 46.5883 14.8695 46.4725 14.3832C46.264 13.503 46.1018 12.5997 45.8934 11.7196C45.847 11.5575 45.7312 11.2795 45.6385 11.2795C45.3374 11.2564 45.013 11.3027 44.7351 11.4185C44.4571 11.5112 44.5729 11.7891 44.6192 11.9975C44.8972 13.3409 45.1752 14.6843 45.4764 16.0044C45.6154 16.5835 45.8934 17.1162 46.3103 17.5563C46.7968 18.0195 47.3991 18.2743 48.2563 18.2974ZM98.4802 50.7464C98.4802 50.7233 98.5034 50.7233 98.5034 50.7001C98.6424 50.6769 98.8046 50.6769 98.9436 50.6538C100.009 50.4453 101.075 50.2137 102.14 50.0053C102.534 49.9126 102.928 49.8431 103.322 49.7273C103.461 49.681 103.646 49.5652 103.669 49.4494C103.855 48.8009 103.391 48.3376 102.743 48.4766C101.445 48.7777 100.148 49.0556 98.8509 49.3336C98.2486 49.4725 97.6231 49.1946 97.3219 48.7082C96.7659 47.8281 97.0208 46.7164 98.2949 46.3689C99.43 46.0678 100.612 45.8362 101.747 45.5814C101.955 45.5351 102.187 45.4888 102.395 45.4193C102.604 45.3498 102.766 45.1877 102.72 44.9561C102.673 44.7013 102.581 44.4234 102.488 44.1918C102.465 44.1454 102.349 44.1454 102.279 44.1454C102.164 44.1454 102.048 44.1454 101.955 44.1686C100.635 44.4465 99.3142 44.7013 97.9937 45.0487C96.8123 45.373 95.8856 46.0447 95.7003 47.388C95.6076 48.0134 95.7698 48.5924 96.0246 49.1714C96.2563 49.681 96.5806 50.1442 97.1366 50.3527C97.5999 50.5148 98.0401 50.6075 98.4802 50.7464ZM17.4686 69.0439C16.7968 68.9744 16.125 69.3449 15.43 69.5997C14.5497 69.9008 13.6694 70.2714 12.7891 70.5957C12.1636 70.8273 12.071 71.0126 12.3258 71.6148C12.4648 71.9853 12.6501 72.0548 13.0208 71.939C13.4146 71.8 13.7852 71.6611 14.1559 71.5221C14.9899 71.1979 15.8007 70.8504 16.6347 70.5725C16.959 70.4567 17.3296 70.4335 17.6771 70.4335C18.3721 70.4335 18.6733 70.8736 18.9049 71.4526C19.1134 72.0085 19.0208 72.4949 18.5806 72.8655C18.2563 73.1434 17.8393 73.375 17.4455 73.5371C16.3567 73.9772 15.2215 74.3709 14.1327 74.7879C13.9937 74.8342 13.7621 74.9963 13.7621 75.089C13.8084 75.4132 13.8547 75.7606 14.0169 76.0154C14.1559 76.247 14.4339 76.1312 14.6887 76.0386C15.2215 75.8301 15.7544 75.6448 16.2872 75.4132C17.1675 75.0658 18.0478 74.7415 18.9049 74.3246C19.6231 73.9772 20.1327 73.3982 20.2949 72.5644C20.4107 71.9853 20.2949 71.4295 20.1096 70.8736C19.6694 69.6924 18.7428 69.0439 17.4686 69.0439ZM10.2408 62.3039C10.2177 63.2072 10.5883 64.0178 11.2601 64.62C11.932 65.1991 13.4146 65.2222 14.0169 64.2726C14.2254 63.9484 14.3644 63.5315 14.4802 63.1609C14.6424 62.605 14.7119 62.0491 14.8509 61.4701C14.9435 61.0764 15.291 60.7753 15.6154 60.7521C15.9165 60.7289 16.2872 60.9837 16.4262 61.3311C16.7042 62.0723 16.681 62.8135 16.2408 63.5083C15.986 63.9252 15.986 64.0178 16.3798 64.3189C16.4725 64.3884 16.5652 64.4579 16.6578 64.5274C16.8895 64.7127 17.0748 64.6664 17.2138 64.4348C17.4455 64.041 17.7003 63.6473 17.8161 63.2072C18.071 62.2344 17.9088 61.308 17.4223 60.4278C16.82 59.3393 15.1057 59.0613 14.2022 59.9183C13.7852 60.312 13.5536 60.8216 13.4378 61.3775C13.2988 61.9565 13.1829 62.5355 13.0439 63.1146C12.9513 63.462 12.7196 63.6473 12.4184 63.6473C12.0941 63.6473 11.8856 63.462 11.7698 63.2072C11.5381 62.744 11.4918 62.2576 11.6771 61.748C11.7466 61.5859 11.8161 61.4006 11.9088 61.2385C12.0015 61.0532 12.0246 60.8911 11.8393 60.7521C11.6076 60.5668 11.4223 60.2657 11.0517 60.312C10.9822 60.3352 10.8895 60.4047 10.8432 60.4742C10.5188 61.03 10.2872 61.6091 10.2408 62.3039ZM70.3103 97.6712C70.3335 98.8988 70.7737 99.9874 71.5845 100.914C71.9783 101.377 72.5111 101.701 73.0903 101.794C74.4571 102.049 75.569 101.655 76.403 100.497C76.5883 100.242 76.6578 99.9179 76.7505 99.6399C76.82 99.4315 76.7505 99.1999 76.5188 99.1304C76.2177 99.0609 75.8934 98.9914 75.5922 99.0146C75.291 99.0378 75.291 99.3388 75.1984 99.5705C74.8741 100.312 73.9937 100.636 73.2988 100.242C72.2331 99.6399 71.7698 98.6672 71.8161 97.5091C71.8625 96.3742 72.9976 95.772 73.7621 96.0963C74.1791 96.2816 74.4571 96.1889 74.7119 95.8647C74.7814 95.772 74.8741 95.7025 74.9436 95.633C75.1984 95.3551 75.1984 95.193 74.8741 94.9614C74.7582 94.8687 74.6192 94.8224 74.4802 94.7529C73.5536 94.3128 72.6733 94.5213 71.8161 94.9845C70.7737 95.5172 70.3567 96.49 70.3103 97.6712ZM99.43 61.2848C99.1289 61.3311 98.6656 61.4006 98.2254 61.5164C96.3721 62.026 95.4455 64.3189 96.5111 65.9866C97.0208 66.774 97.3451 66.774 97.8779 65.9866C97.9937 65.8244 97.9937 65.6855 97.8779 65.5233C97.8084 65.4307 97.7389 65.3612 97.6694 65.2686C97.1134 64.5274 97.4609 63.2767 98.2949 62.9061C99.4532 62.3966 100.542 62.6745 101.584 63.2535C102.65 63.8789 102.581 65.4307 101.631 65.9866C101.237 66.2182 101.237 66.2877 101.422 66.7046C101.469 66.7972 101.515 66.913 101.561 67.0057C101.723 67.3762 101.839 67.4226 102.187 67.2373C102.859 66.913 103.299 66.4035 103.53 65.6855C103.901 64.5042 103.739 63.462 102.859 62.5587C101.955 61.6786 100.82 61.4006 99.43 61.2848ZM97.0208 32.3563C97.0439 31.8468 96.8354 31.4067 96.6038 30.9667C96.0015 29.7854 94.6578 29.1832 93.5227 29.3685C92.4571 29.5307 91.5768 30.017 90.8354 30.7119C89.7235 31.731 89.1212 33.1901 89.9088 34.6493C90.4416 35.6452 91.2756 36.178 92.3644 36.3169C92.5729 36.3401 92.7582 36.2938 92.8046 36.0621C92.8509 35.7842 92.8509 35.4599 92.8046 35.182C92.7582 34.9041 92.4571 34.9736 92.2486 34.9272C91.1598 34.6725 90.4648 33.3754 91.2524 32.31C91.8316 31.5225 92.5729 30.9435 93.569 30.7119C94.681 30.4803 95.7698 31.3141 95.5845 32.5416C95.4918 33.0975 95.6076 33.2365 96.1173 33.4449C96.5111 33.607 96.7196 33.5376 96.8586 33.1438C96.9513 32.9122 96.9744 32.6343 97.0208 32.3563ZM58.959 10.6773C58.9358 10.6773 58.9358 10.6773 58.959 10.6773C58.9358 10.5847 58.9358 10.4921 58.9358 10.3994C58.9358 9.84354 58.9127 9.79722 58.3567 9.72773C58.2872 9.72773 58.2177 9.70457 58.125 9.70457C57.7312 9.68141 57.5922 9.82038 57.569 10.2141C57.4532 12.2292 57.3374 14.2674 57.1984 16.2824C57.1984 16.4214 57.1984 16.5372 57.1984 16.6761C57.2215 17.0467 57.3142 17.1394 57.6617 17.1625C58.9822 17.2552 60.3258 17.3246 61.6463 17.3941C61.8547 17.4173 61.9937 17.3478 62.0864 17.1162C62.3181 16.4445 62.1559 16.1434 61.4609 16.0276C61.3451 16.0044 61.2293 16.0044 61.1366 16.0044C60.6038 15.9581 60.071 15.8886 59.5381 15.9118C58.4957 15.935 58.6347 15.5412 58.6578 14.8001C58.6578 14.7537 58.6578 14.7306 58.681 14.6843C58.7737 13.3641 58.8663 12.0207 58.959 10.6773ZM95.0517 73.4213C95.3297 73.5603 95.5845 73.7224 95.8625 73.8382C97.1829 74.4636 98.5034 75.089 99.8239 75.6911C100.171 75.8533 100.287 75.8301 100.496 75.4827C100.542 75.3901 100.612 75.2974 100.658 75.1816C100.843 74.811 100.75 74.6026 100.38 74.4173C100.218 74.3478 100.032 74.2783 99.8702 74.2088C98.8509 73.7456 97.8316 73.2592 96.8123 72.7728C96.1868 72.4717 95.5381 72.1938 94.9127 71.8695C94.264 71.5221 94.1482 71.5453 93.8239 72.2169C93.8007 72.2401 93.8007 72.2864 93.7775 72.3096C93.3374 73.2824 92.8972 74.2551 92.4571 75.2279C92.1327 75.9459 92.1327 75.9228 92.7814 76.2933C93.152 76.5018 93.3605 76.4323 93.5459 76.0617C93.8239 75.4364 94.1019 74.811 94.3798 74.1857C94.4725 73.9772 94.5652 73.7919 94.7042 73.6066C94.7737 73.5603 94.9127 73.514 95.0517 73.4213ZM54.0478 9.82038C53.376 9.84354 53.237 10.0057 53.3065 10.6542C53.3065 10.6773 53.3065 10.7005 53.3065 10.7005C53.3991 11.9281 53.4686 13.1324 53.5613 14.36C53.6076 15.1012 53.654 15.8423 53.7235 16.5603C53.8161 17.3941 53.8393 17.3941 54.6501 17.232C55.0903 17.1394 55.1366 17.093 55.0903 16.6298C55.0903 16.5603 55.0671 16.4908 55.0671 16.3982C54.9744 15.2864 54.8818 14.1979 54.7891 13.0861C54.7196 12.1597 54.6733 11.2332 54.6269 10.3068C54.5806 9.8667 54.5111 9.82038 54.0478 9.82038ZM102.233 70.8504C102.233 70.4335 102.071 70.3177 101.793 70.2482C100.843 69.9703 99.9165 69.6924 98.9899 69.3913C97.9937 69.0902 97.0208 68.7659 96.0478 68.4417C95.3297 68.1869 95.237 68.2332 95.0285 68.9512C94.8895 69.4144 94.959 69.5534 95.4223 69.6924C96.9744 70.1788 98.5266 70.6651 100.079 71.1515C100.519 71.2905 100.959 71.4295 101.399 71.5684C101.631 71.6379 101.862 71.6842 102.001 71.4758C102.094 71.2442 102.164 70.9894 102.233 70.8504ZM74.8972 13.4335C74.8277 13.3409 74.7582 13.2019 74.6424 13.1556C73.9706 12.785 73.8316 12.5766 73.4609 13.4799C73.1829 14.1747 72.9049 14.8927 72.6269 15.5875C72.1636 16.7688 71.7003 17.95 71.237 19.1544C71.0748 19.5713 71.1443 19.7566 71.5613 19.9187C71.654 19.965 71.7698 19.9882 71.8856 20.0114C72.2331 20.104 72.349 20.0577 72.4648 19.7103C72.6501 19.247 72.7891 18.7606 72.9744 18.2974C73.5536 16.7919 74.1559 15.3096 74.7351 13.8273C74.8046 13.7115 74.8277 13.5957 74.8972 13.4335ZM18.8123 66.9362C18.8354 66.4498 18.3953 66.056 17.8856 66.0329C17.4455 66.0329 16.9358 66.4729 16.9127 66.913C16.8895 67.3068 17.3991 67.8395 17.8393 67.8395C18.3721 67.8626 18.7891 67.4689 18.8123 66.9362ZM17.5613 57.3242C17.5613 56.7915 17.1907 56.4209 16.6578 56.4209C16.1713 56.4209 15.7312 56.8842 15.7312 57.3474C15.7312 57.7643 16.264 58.297 16.681 58.2738C17.1443 58.2738 17.5613 57.8338 17.5613 57.3242Z" fill="black"/>
<path d="M73.8992 89.4026C73.5286 89.3563 72.9726 89.2637 72.4398 89.171C72.2081 89.1247 71.9533 89.1015 71.7216 89.0784C71.3278 89.0089 71.1888 88.8931 71.2351 88.4762C71.2815 88.0129 71.3509 87.5497 71.4204 87.1097C71.6521 85.6042 71.9069 84.1218 72.1618 82.6164C72.1849 82.4774 72.2081 82.3616 72.2313 82.2458C72.3471 81.852 72.4861 81.7362 72.8799 81.8057C73.7602 81.9447 74.6637 82.0142 75.4977 82.2921C77.1193 82.8248 77.8838 84.006 77.7216 85.8126C77.6753 86.3453 77.5595 86.878 77.351 87.3644C76.7486 88.7773 75.5903 89.3563 73.8992 89.4026ZM74.154 87.7813C74.71 87.8508 75.2197 87.596 75.5903 87.0633C76.0768 86.3685 76.1927 85.6042 75.961 84.7935C75.8915 84.5387 75.7062 84.3071 75.5208 84.1218C75.127 83.7049 74.571 83.6818 74.0614 83.5428C73.8761 83.4965 73.7371 83.6123 73.6907 83.7976C73.6444 83.9829 73.5981 84.145 73.5749 84.3303C73.4359 85.1178 73.3201 85.9053 73.1811 86.6696C72.9726 87.6887 73.0652 87.8045 74.154 87.7813Z" fill="black"/>
<path d="M64.4013 82.5006C63.7295 82.4543 63.0808 82.4079 62.409 82.3848C62.0152 82.3616 61.8993 82.4774 61.8298 82.7785C61.7372 83.1723 61.8993 83.3807 62.2932 83.427C62.6175 83.4734 62.965 83.4734 63.2893 83.5428C63.7295 83.6355 63.799 83.7281 63.8221 84.1914C63.8221 84.2145 63.8221 84.2377 63.8221 84.2377C63.8453 85.0252 63.7063 85.1178 63.0113 85.0483C62.7102 85.0252 62.409 85.002 62.131 85.0483C61.992 85.0715 61.7835 85.1873 61.7603 85.3031C61.6908 85.6274 61.6677 85.9516 61.6908 86.2759C61.714 86.5307 61.9225 86.5538 62.1542 86.5538C62.9881 86.6001 63.8221 86.6696 64.6329 86.7391C65.3047 86.7854 65.3511 86.8781 65.3279 87.5266C65.3279 87.6192 65.3279 87.7119 65.3047 87.8045C65.2352 88.2214 65.0731 88.3604 64.6561 88.3372C63.2661 88.2446 61.8993 88.152 60.5094 88.0593C60.0924 88.0361 59.9766 87.9203 59.9766 87.5034C59.9997 86.6696 60.0229 85.8358 60.0692 85.002C60.1156 84.145 60.1851 83.3112 60.2314 82.4543C60.2546 82.0374 60.2777 81.5973 60.3472 81.1804C60.3936 80.7866 60.4862 80.694 60.88 80.694C61.6677 80.7172 62.4785 80.7635 63.2661 80.7866C63.6368 80.8098 64.0074 80.833 64.3781 80.8561C64.5866 80.8793 64.7951 80.8561 64.9804 80.9025C65.3742 80.9951 65.4901 81.1109 65.4437 81.5046C65.3742 82.6627 65.4437 82.5701 64.4013 82.5006Z" fill="black"/>
<path d="M52.8184 82.2921C52.2393 82.3153 51.6833 82.3385 51.1041 82.3848C50.803 82.4079 50.6872 82.5006 50.6872 82.7785C50.664 83.1259 50.803 83.4039 51.081 83.427C51.4053 83.4502 51.7528 83.4502 52.0771 83.4039C52.7026 83.3344 52.8184 83.427 52.8184 84.0756C52.8184 84.1914 52.8184 84.3072 52.8184 84.3998C52.7953 84.7704 52.7026 84.8862 52.3319 84.9325C51.9844 84.9788 51.637 85.002 51.2895 85.0252C50.9883 85.0483 50.8493 85.1873 50.8493 85.4884C50.8493 85.5347 50.8493 85.5579 50.8493 85.6042C50.803 86.4612 50.8956 86.577 51.7528 86.577C52.4478 86.5538 53.1659 86.5075 53.8609 86.4843C54.5327 86.4612 54.6254 86.577 54.6254 87.2487C54.6254 87.3645 54.6254 87.4803 54.6254 87.5729C54.579 87.8972 54.4632 88.0361 54.1389 88.0593C53.4207 88.1056 52.7026 88.1288 51.9844 88.1751C51.4516 88.1983 50.9188 88.2446 50.386 88.2678C50.2238 88.2678 50.0617 88.2909 49.8763 88.2678C49.6215 88.2446 49.4362 88.1056 49.3667 87.8277C49.3204 87.6424 49.2972 87.4571 49.274 87.2718C49.2277 86.5538 49.2045 85.8358 49.1814 85.1178C49.1582 84.0987 49.135 83.0796 49.1119 82.0605C49.1119 81.8752 49.0655 81.6899 49.0655 81.5046C49.0192 81.1109 49.1119 80.9719 49.5289 80.9025C49.7837 80.8561 50.0385 80.8098 50.2933 80.7866C51.3821 80.7403 52.4709 80.7172 53.5597 80.694C54.0926 80.694 54.1157 80.7172 54.1852 81.2962C54.301 82.2226 54.2316 82.2921 53.3049 82.2921C53.1196 82.2921 52.9806 82.2921 52.8184 82.2921Z" fill="black"/>
<path d="M39.1518 89.4953C38.5958 89.5185 38.48 89.4258 38.3641 89.0552C38.341 88.9626 38.3178 88.87 38.3178 88.7773C38.1325 87.5266 37.9472 86.2759 37.7618 85.0483C37.6692 84.4925 37.5765 83.9598 37.507 83.4039C37.4838 83.1954 37.4375 82.9638 37.4375 82.7322C37.4375 82.6164 37.4607 82.4311 37.5302 82.3848C37.8777 82.13 38.2946 82.13 38.6885 82.1763C39.0128 82.2226 39.0128 82.5237 39.0591 82.7785C39.2908 84.2145 39.4993 85.6737 39.7309 87.1097C39.7541 87.2023 39.7541 87.295 39.7773 87.3876C39.8468 87.6424 39.9858 87.7582 40.2638 87.7119C41.0282 87.5729 41.7927 87.4571 42.5572 87.3413C42.8352 87.295 43.1595 87.2023 43.3217 87.5034C43.5302 87.8277 43.5997 88.2446 43.4838 88.6152C43.4375 88.731 43.2522 88.8468 43.09 88.87C42.7425 88.9626 42.395 88.9858 42.0475 89.0552C41.0514 89.1942 40.0321 89.3563 39.1518 89.4953Z" fill="black"/>
<path d="M65.2116 103.022C64.7482 103.045 64.6556 102.952 64.5861 102.628C64.5398 102.373 64.4934 102.118 64.4471 101.863C64.3776 101.47 64.4703 101.284 64.8409 101.192C65.3506 101.076 65.8834 100.96 66.4162 100.891C66.81 100.844 67.227 101.169 67.3197 101.562C67.4355 102.002 67.2502 102.443 66.81 102.605C66.2309 102.813 65.6517 102.906 65.2116 103.022Z" fill="black"/>
<path d="M65.8863 98.3661C66.0021 98.4124 66.2338 98.4587 66.3959 98.5977C66.6971 98.8525 66.6044 99.3852 66.1874 99.5473C65.6315 99.7326 65.0523 99.8716 64.4732 99.9642C64.1257 100.011 63.9635 99.7789 63.894 99.2925C63.8477 98.9451 63.9403 98.7598 64.2647 98.6672C64.5658 98.5745 64.867 98.5282 65.1913 98.4587C65.3766 98.4124 65.562 98.4124 65.8863 98.3661Z" fill="black"/>
<path d="M42.233 18.1584C42.233 18.4364 42.1403 18.6912 41.9086 18.807C41.3758 19.0849 40.8198 19.3397 40.2639 19.5944C40.0322 19.6871 39.8237 19.6176 39.731 19.3628C39.592 19.0154 39.4067 18.6448 39.2909 18.2974C39.1287 17.8805 39.1982 17.7879 39.6384 17.5794C40.009 17.4173 40.4029 17.3015 40.7503 17.093C41.399 16.653 42.233 17.232 42.233 18.1584Z" fill="black"/>
<path d="M40.7502 15.217C40.727 15.4949 40.6343 15.7265 40.3795 15.8655C39.9394 16.0971 39.476 16.2824 39.0359 16.514C39.0127 16.514 39.0127 16.5372 38.9895 16.5372C38.6884 16.6067 38.4799 16.4908 38.2946 16.0508C38.0397 15.4486 38.0166 15.217 38.3177 15.0548C38.8042 14.8232 39.2907 14.6148 39.8004 14.4526C40.31 14.2905 40.7502 14.6843 40.7502 15.217Z" fill="black"/>
<path d="M16.4701 40.6481C16.4006 40.8797 16.3311 41.0881 16.2384 41.3197C16.0994 41.7135 15.9604 42.1304 15.7751 42.501C15.6129 42.8484 15.4971 42.8947 15.1265 42.7558C14.7558 42.6168 14.4083 42.4778 14.0608 42.3157C13.8523 42.223 13.7597 42.0609 13.8523 41.8293C14.0608 41.3197 14.2693 40.8102 14.4778 40.3006C14.64 39.9301 14.918 39.6985 15.3118 39.6753C15.7519 39.6521 16.0763 39.9069 16.3311 40.2312C16.4006 40.3238 16.4006 40.4859 16.4701 40.6481Z" fill="black"/>
<path d="M66.8098 16.9772C66.5087 16.9309 66.2307 16.9078 65.9527 16.8151C65.5589 16.6993 65.4894 16.5372 65.5589 16.1434C65.6052 15.9118 65.6515 15.6802 65.721 15.4486C65.9527 14.4527 66.2075 13.4799 66.4623 12.4839C66.5782 12.0207 66.7172 11.9744 67.2037 12.1134C67.389 12.1597 67.5975 12.2292 67.7828 12.2987C68.3851 12.5303 68.8253 12.924 68.9643 13.5725C69.1496 14.4295 69.0106 15.2633 68.5473 16.0276C68.1303 16.6761 67.5975 17.0467 66.8098 16.9772Z" fill="black"/>
<path d="M99.3347 39.3047C99.3811 39.6521 99.2189 39.9764 98.9641 40.2775C98.2691 41.065 97.3888 41.505 96.3463 41.5745C95.5818 41.6209 94.9564 41.2734 94.7015 40.6712C94.3772 39.8838 94.493 39.1889 95.0722 38.633C95.8135 37.9382 96.6706 37.5908 97.6899 37.5908C98.6861 37.5676 99.3347 38.2393 99.3347 39.3047Z" fill="black"/>
</g>
<defs>
<clipPath id="clip0">
<rect width="114" height="114" fill="white"/>
</clipPath>
</defs>
</svg>
