<svg width="93" height="106" viewBox="0 0 93 106" fill="none" xmlns="http://www.w3.org/2000/svg">
<path d="M10.7381 90.601L0.535156 90.6025V86.1788H11.0322C15.6413 86.1788 18.6672 89.0764 18.6672 92.8121C18.6672 96.5478 15.6413 99.4749 11.0322 99.4749H5.6037V104.942H0.535156V95.0512L10.7381 95.0541C12.9431 95.0541 13.5987 94.0676 13.5987 92.8121C13.5987 91.5875 12.9431 90.601 10.7381 90.601Z" fill="#006B4A"/>
<path d="M23.4844 104.943V86.1792H40.2995V90.6015H28.5529V93.1404H36.542V97.5641H28.5529V100.522H40.2995V104.943H23.4844Z" fill="#006B4A"/>
<path d="M45.8398 104.943V86.1792H62.655V90.6015H50.9084V93.1404H58.9004V97.5641H50.9084V104.943H45.8398Z" fill="#006B4A"/>
<path d="M84.4876 101.877C82.246 104.212 79.2025 105.303 76.1254 105.303C70.0048 105.303 65.1016 101.058 65.1016 95.5615C65.1016 90.0645 70.0048 85.8202 76.1254 85.8202C79.2171 85.8202 82.2796 86.9243 84.5242 89.2824L80.4447 92.1331C79.3503 90.8966 77.8768 90.2424 76.1254 90.2424C73.1009 90.2424 70.3325 92.605 70.3325 95.5615C70.3325 98.518 73.1009 100.88 76.1254 100.88C77.7993 100.88 79.321 100.26 80.3789 99.2207L84.4876 101.877Z" fill="#006B4A"/>
<path d="M62.3595 51.7662H50.3349V60.3181H42.3253V51.7662H29.7812L30.0666 51.6721C35.4731 48.6995 39.1297 42.9996 39.1297 36.4574C39.1297 35.346 39.0229 34.2581 38.8224 33.204L46.3433 18.8405L62.3595 51.7662Z" fill="#006B4A"/>
<path d="M6.16016 36.7079C6.16016 28.6235 12.7987 22.071 20.9854 22.071C29.1735 22.071 35.8106 28.6235 35.8106 36.7079C35.8106 43.5177 31.099 49.241 24.7195 50.8744V60.5701H16.7113V50.7259C10.6068 48.9146 6.16016 43.3236 6.16016 36.7079Z" fill="#006B4A"/>
<path d="M2.57382 40.0131C2.71722 39.4236 2.87232 38.837 3.04059 38.2548C3.04059 38.2548 3.064 38.1902 3.13131 38.1843C3.24105 38.1754 3.23373 38.2548 3.23373 38.2548C3.33762 39.4207 3.55271 40.5571 3.8673 41.6494C1.18232 58.6254 12.3041 71.9641 29.8055 71.9641C46.7714 71.9641 63.8236 59.4295 69.8988 43.1916L77.8397 35.7497L82.421 40.8614C76.7935 62.1831 54.8951 79.3267 33.0758 79.3267C10.9668 79.3267 -2.69079 61.7289 2.57382 40.0131ZM71.684 36.7024C74.7508 19.425 63.569 5.75845 45.8525 5.75845C34.6414 5.75845 23.3938 11.2333 15.2993 19.6294C14.4346 19.9249 13.5976 20.2836 12.7987 20.7011C12.7987 20.7011 12.6963 20.7599 12.607 20.6614C12.5295 20.5747 12.5851 20.4894 12.5851 20.4894C22.3534 8.66496 37.2635 0.698158 52.1355 0.698158C72.6365 0.698158 85.8668 15.832 83.4906 35.3439L78.76 30.0675L71.684 36.7024Z" fill="#006B4A"/>
<path d="M86.1953 82.7284H88.7472V83.4018H87.8897V85.4482H87.0513V83.4018H86.1953V82.7284Z" fill="#006B4A"/>
<path d="M89.1133 82.7284H90.218L90.635 84.3838L91.052 82.7284H92.1538V85.4482H91.469V83.3738L90.9452 85.4482H90.3204L89.801 83.3738V85.4482H89.1133V82.7284Z" fill="#006B4A"/>
</svg>
