<svg width="92" height="180" viewBox="0 0 92 180" fill="none" xmlns="http://www.w3.org/2000/svg">
<g clip-path="url(#clip0)">
<path d="M82.712 68.0173C81.852 68.0173 81.1484 68.7202 81.1484 69.5011C81.1484 70.282 81.852 71.0629 82.712 71.0629C83.5719 71.0629 84.1973 70.3601 84.1973 69.5011C84.1973 68.6421 83.5719 68.0173 82.712 68.0173ZM82.712 68.9544C83.0247 68.9544 83.2592 69.1887 83.2592 69.5011C83.2592 69.8134 83.1029 70.0477 82.7902 70.1258C82.712 70.1258 82.712 70.1258 82.6338 70.2039C82.6338 70.2039 82.5556 70.1258 82.4774 70.1258C82.1647 70.0477 82.0084 69.8134 82.0084 69.5011C82.1647 69.1887 82.3993 68.9544 82.712 68.9544Z" fill="#646677"/>
<path d="M82.7117 77.0759C81.3045 77.0759 80.1318 78.2473 80.1318 79.6529C80.1318 81.0586 81.3045 82.2299 82.7117 82.2299C84.1189 82.2299 85.2915 81.0586 85.2915 79.6529C85.2915 78.2473 84.1189 77.0759 82.7117 77.0759ZM82.7117 81.2929C81.8517 81.2929 81.07 80.59 81.07 79.6529C81.07 78.7939 81.7736 78.013 82.7117 78.013C83.6498 78.013 84.3534 78.7158 84.3534 79.6529C84.3534 80.59 83.6498 81.2929 82.7117 81.2929Z" fill="#646677"/>
<path d="M82.7116 80.7462C83.2729 80.7462 83.7279 80.2917 83.7279 79.731C83.7279 79.1703 83.2729 78.7158 82.7116 78.7158C82.1503 78.7158 81.6953 79.1703 81.6953 79.731C81.6953 80.2917 82.1503 80.7462 82.7116 80.7462Z" fill="#646677"/>
<path d="M91.2329 18.6638C91.2329 18.5076 91.2329 18.4295 91.1547 18.3514C91.0765 18.2733 90.9984 18.1952 90.9202 18.1952L89.1221 17.7267C88.8876 17.6486 88.5749 17.7267 88.3403 17.8048L88.1058 16.3991L87.7149 14.9154L87.4804 13.744L87.324 12.5727L87.4022 11.4013L87.5586 10.2299L87.8713 9.13666L88.3403 8.04338L89.9039 5.46638L90.0602 4.99783L90.1384 4.52928V3.98265L89.9039 3.43601L89.7475 2.96746L89.513 2.57701L89.0439 1.7961L88.4185 1.17137L87.7149 0.624729L86.855 0.234273L85.995 0.0780911L85.1351 0L84.2751 0.156182L83.337 0.312364L82.3989 0.624729L81.5389 1.01518C81.5389 1.01518 81.5389 1.01518 81.4607 1.09328L81.3825 1.17137V1.24946V1.32755V1.48373V1.56182L81.5389 1.87419V1.95228H81.2262C81.0698 1.95228 80.9135 2.10846 80.9135 2.26464C80.9135 2.42082 81.0698 2.57701 81.2262 2.57701L81.148 2.88937L81.0698 3.43601V3.98265C80.9917 4.06074 80.9135 4.13883 80.9135 4.29501C80.9135 4.3731 80.9917 4.52928 81.0698 4.52928V4.60738L80.9917 4.76356L80.9135 4.91974L80.1317 5.70065H80.0535L79.9754 5.77874V5.85683L79.8972 5.93492C79.8972 5.93492 79.8972 5.93492 79.8972 6.01302V6.1692V6.24729L80.0535 6.40347L80.6008 6.63774V6.79393L80.4444 7.18438V7.34056V7.41866L80.5226 7.49675V7.57484C80.5226 7.57484 80.5226 7.57484 80.5226 7.65293V7.8872V7.96529L80.6008 8.04338C80.6008 8.04338 80.6008 8.04338 80.6008 8.12148V8.19957L80.5226 8.35575L80.3662 8.51193L80.2881 8.59002C80.2881 8.59002 80.2881 8.59002 80.2881 8.66811L80.2099 8.8243V9.13666V9.21475C80.2099 9.21475 80.2099 9.21475 80.2099 9.29284L80.2881 9.37093L80.4444 9.52712L80.6789 9.6833L80.7571 9.76139C80.7571 9.76139 80.7571 9.76139 80.8353 9.76139H80.9917H81.6171L82.1643 9.6833L82.3207 9.76139L82.5552 9.83948L82.6334 9.99566L82.7116 10.0738L82.477 10.3861L82.3989 10.4642L82.3207 10.6204V10.7766C82.3207 10.7766 82.3207 10.7766 82.3207 10.8547L82.3989 11.0108L82.477 11.167L82.5552 11.3232V11.7137L82.477 11.9479L82.3989 12.1822L82.2425 12.4165L82.0861 12.5727L81.9298 12.7289L81.5389 12.885L81.2262 13.0412L80.9135 13.2755L80.6008 13.5879L78.8809 15.3059L77.3173 17.0239H77.2392L77.0828 17.18L77.0046 17.4143L76.9264 17.8048V17.8829C76.9264 17.8829 76.9264 17.8829 76.9264 17.961V18.039C76.9264 18.039 76.9264 18.039 76.9264 18.1171L77.2392 18.7419V18.9761V19.0542V19.1323L77.161 19.2885L76.0665 21.9436L76.1447 23.4273L76.0665 24.9111C76.0665 24.9892 76.1447 25.0672 76.1447 25.0672H75.2847L70.2814 25.2234C70.2032 25.2234 70.2032 25.3015 70.2032 25.3015L70.125 25.8482L69.0305 25.692H68.6397L68.0924 25.6139C68.0924 25.6139 68.0924 25.6139 68.0142 25.6139L67.8579 25.692H67.5452L67.2325 26.1605H67.0761L66.9197 26.2386L66.3725 26.551L65.9816 27.0195L65.8253 27.3319L65.6689 27.8004L65.5907 28.0347V28.5813V28.6594L65.6689 28.8156L65.7471 28.9718L65.8253 29.128L66.2162 29.4404L66.5289 29.6746L66.8416 29.8308L67.0761 29.9089L67.2325 29.987H67.5452C67.5452 29.987 67.5452 29.987 67.6233 29.987L67.8579 30.9241L66.0598 30.7679L64.1054 30.6898H62.3073L60.6656 30.7679L59.102 31.0022L57.5385 31.3926L57.2258 31.5488L56.8349 31.705L56.444 31.7831L56.1313 32.0174L55.8186 32.2516L55.584 32.564L55.3495 32.9545L55.2713 33.3449L55.1932 33.7354L55.2713 34.2039L55.3495 34.5944L55.5059 34.9067L55.7404 35.2191L55.8968 36.9371L55.9749 38.7332L57.773 47.5575L57.9294 48.6508L58.0075 49.744L57.6948 53.7267L57.5385 54.039L57.3821 54.1952L57.2258 54.3514L57.0694 54.4295L56.9131 54.5076L55.7404 54.9761L54.6459 55.6009L53.7078 56.3037L53.0042 56.538L52.457 56.7722L51.8315 56.8503H51.597L51.4407 56.9284L51.1279 57.1627L51.0498 57.2408H45.0301H44.7174C44.6392 57.2408 44.6392 57.2408 44.5611 57.3189C44.4829 57.3189 44.4829 57.2408 44.4047 57.2408H44.1702H0.625418H0.312709C0.156355 57.2408 0 57.397 0 57.5532V60.3644C0 60.4425 0 60.5206 0.0781773 60.5206L0.469064 61.1453C0.469064 61.1453 0.469064 61.1453 0.547241 61.2234V77.3102C0.547241 77.3883 0.625418 77.4664 0.703596 77.5445L1.0163 77.7787C1.09448 77.8568 1.17266 77.8568 1.25084 77.8568H1.64172C1.79808 77.8568 1.95443 77.7007 1.95443 77.5445V73.0933C2.11079 73.0933 2.26714 72.9371 2.26714 72.7809V72.4686C2.34532 72.3905 2.34532 72.3905 2.34532 72.3124C2.4235 72.2343 2.4235 72.0781 2.34532 72C2.34532 71.9219 2.34532 71.9219 2.26714 71.9219V71.8438V69.1887C2.34532 69.1106 2.34532 69.1106 2.34532 69.0325C2.34532 68.9545 2.34532 68.7983 2.34532 68.7202C2.34532 68.7202 2.34532 68.6421 2.26714 68.6421V68.564V68.4078L2.57985 64.5033H7.34866C7.50502 64.5033 7.66137 64.3471 7.66137 64.1909H12.9774C13.0556 64.269 13.0556 64.269 13.1338 64.3471V64.4252L12.9774 65.0499L12.8993 65.5965V81.9176L12.9774 82.5423L13.1338 83.0889L13.3683 83.6356L13.681 84.1041V84.5727H6.72325C6.56689 84.5727 6.41054 84.7289 6.41054 84.885V85.4317C6.41054 85.5879 6.56689 85.744 6.72325 85.744H6.80142V129.319H6.72325C6.56689 129.319 6.41054 129.475 6.41054 129.631V130.022C6.41054 130.178 6.56689 130.334 6.72325 130.334H15.7136V130.412V131.115C15.7136 131.193 15.7136 131.271 15.7918 131.349V131.505C15.7918 131.662 15.9482 131.818 16.1045 131.818H16.8081V132.599L16.6518 132.677L16.4954 132.755C16.4172 132.833 16.3391 132.911 16.3391 133.067V133.145C16.3391 133.223 16.3391 133.302 16.4172 133.38L16.4954 133.458C16.4954 133.458 16.5736 133.536 16.6518 133.536L16.8863 133.614V134.941L16.7299 135.02L16.5736 135.098C16.4954 135.176 16.4172 135.254 16.4172 135.41V135.488C16.4172 135.566 16.4172 135.644 16.4954 135.722L16.5736 135.8C16.5736 135.8 16.6518 135.879 16.7299 135.879L16.9645 135.957V137.284L16.8081 137.362L16.6518 137.44C16.5736 137.518 16.4954 137.597 16.4954 137.753V137.831C16.4954 137.909 16.4954 137.987 16.5736 138.065L16.6518 138.143C16.6518 138.143 16.7299 138.221 16.8081 138.221L17.0426 138.299V139.627L16.8863 139.705L16.7299 139.783C16.6518 139.861 16.5736 139.939 16.5736 140.095V140.174C16.5736 140.252 16.5736 140.33 16.6518 140.408L16.7299 140.486C16.7299 140.486 16.8081 140.564 16.8863 140.564L17.1208 140.642V141.97L16.9645 142.048L16.8081 142.126C16.7299 142.204 16.6518 142.282 16.6518 142.438V142.516C16.6518 142.594 16.6518 142.672 16.7299 142.751L16.8081 142.829C16.8081 142.829 16.8863 142.907 16.9645 142.907L17.199 142.985V144.312L17.0426 144.39L16.8863 144.469C16.8081 144.547 16.7299 144.625 16.7299 144.781V144.859C16.7299 144.937 16.7299 145.015 16.8081 145.093L16.8863 145.171C16.8863 145.171 16.9645 145.249 17.0426 145.249L17.2772 145.328V146.655H17.199C17.1208 146.655 17.1208 146.655 17.0426 146.733L16.4172 146.811C16.3391 146.889 16.2609 146.967 16.2609 147.046V147.124C16.2609 147.202 16.2609 147.28 16.3391 147.358L16.4172 147.436C16.4172 147.436 16.4954 147.514 16.5736 147.514L16.8081 147.592V148.92L16.6518 148.998L16.4954 149.076C16.4172 149.154 16.3391 149.232 16.3391 149.388V149.466C16.3391 149.544 16.3391 149.623 16.4172 149.701L16.4954 149.779C16.4954 149.779 16.5736 149.857 16.6518 149.857L16.8863 149.935V151.262L16.7299 151.341L16.5736 151.419C16.4954 151.497 16.4172 151.575 16.4172 151.731V151.809C16.4172 151.887 16.4172 151.965 16.4954 152.043L16.5736 152.121C16.5736 152.121 16.6518 152.2 16.7299 152.2L16.9645 152.278V153.605L16.8081 153.683L16.6518 153.761C16.5736 153.839 16.4954 153.918 16.4954 154.074V154.152C16.4954 154.23 16.4954 154.308 16.5736 154.308L16.6518 154.464C16.7299 154.542 16.7299 154.542 16.8081 154.62L17.0426 154.699V156.026L16.8863 156.104L16.7299 156.182C16.6518 156.26 16.5736 156.338 16.5736 156.495V156.573C16.5736 156.651 16.5736 156.729 16.6518 156.807L16.7299 156.885C16.7299 156.885 16.8081 156.963 16.8863 156.963L17.1208 157.041V158.369L16.9645 158.447L16.8081 158.525C16.7299 158.603 16.6518 158.681 16.6518 158.837V158.915C16.6518 158.994 16.6518 159.072 16.7299 159.15L16.8081 159.228C16.8081 159.228 16.8863 159.306 16.9645 159.306L17.199 159.384V160.712L17.0426 160.79L16.8863 160.868C16.8081 160.946 16.7299 161.024 16.7299 161.18V161.258C16.7299 161.336 16.7299 161.414 16.8081 161.492L16.8863 161.571C16.8863 161.571 16.9645 161.649 17.0426 161.649L17.2772 161.727V162.976C17.2772 163.132 17.4335 163.289 17.5899 163.289H27.7529C27.9093 163.289 28.0656 163.132 28.0656 162.976V162.898L28.222 162.82L28.3784 162.742C28.4565 162.664 28.5347 162.586 28.5347 162.43V162.351C28.5347 162.273 28.4565 162.117 28.3784 162.117L28.222 162.039H28.1438L27.9093 161.961V160.633L28.0656 160.555L28.222 160.477C28.3002 160.399 28.3784 160.321 28.3784 160.165V160.087C28.3784 160.009 28.3002 159.853 28.222 159.853L28.0656 159.774H27.9875L27.7529 159.696V158.369L27.9093 158.291L28.0656 158.213C28.1438 158.135 28.222 158.056 28.222 157.9V157.822C28.222 157.744 28.1438 157.588 28.0656 157.588L27.9093 157.51H27.8311L27.5966 157.432V156.104L27.7529 156.026L27.9093 155.948C27.9875 155.87 28.0656 155.792 28.0656 155.636V155.557C28.0656 155.479 27.9875 155.323 27.9093 155.323L27.7529 155.245H27.6748L27.4402 155.167V153.839L27.5966 153.761L27.7529 153.683C27.8311 153.605 27.9093 153.527 27.9093 153.371V153.293C27.9093 153.215 27.8311 153.059 27.7529 153.059L27.5966 152.98H27.5184L27.2839 152.902V151.575L27.4402 151.497L27.5966 151.419C27.6748 151.341 27.7529 151.262 27.7529 151.106V151.028C27.7529 150.95 27.6748 150.794 27.5966 150.794L27.4402 150.716H27.362L27.1275 150.638V149.31L27.2839 149.232L27.4402 149.154C27.5184 149.076 27.5966 148.998 27.5966 148.842V148.764C27.5966 148.685 27.5184 148.529 27.4402 148.529L27.2839 148.451H27.2057L26.9712 148.373V147.046H27.0493H27.1275L27.2839 146.967C27.362 146.889 27.4402 146.811 27.4402 146.655V146.499C27.4402 146.421 27.362 146.265 27.2839 146.265L27.1275 146.187H27.0493L26.8148 146.108V144.781L26.9712 144.703L27.1275 144.625C27.2057 144.547 27.2839 144.469 27.2839 144.312V144.234C27.2839 144.156 27.2057 144 27.1275 144L26.9712 143.922H26.893L26.6585 143.844V142.516L26.8148 142.438L26.9712 142.36C27.0493 142.282 27.1275 142.204 27.1275 142.048V141.97C27.1275 141.892 27.0493 141.735 26.9712 141.735L26.8148 141.657H26.7366L26.5021 141.579V140.252L26.6585 140.174L26.8148 140.095C26.893 140.017 26.9712 139.939 26.9712 139.783V139.705C26.9712 139.627 26.9712 139.549 26.893 139.471L26.7366 139.315C26.7366 139.315 26.6585 139.236 26.5803 139.236L26.3457 139.158V137.831L26.5021 137.753L26.6585 137.675C26.7366 137.597 26.8148 137.518 26.8148 137.362V137.284C26.8148 137.206 26.7366 137.05 26.6585 137.05L26.5021 136.972H26.4239L26.1894 136.894V135.566L26.3457 135.488L26.5021 135.41C26.5803 135.332 26.6585 135.254 26.6585 135.098V135.02C26.6585 134.941 26.5803 134.785 26.5021 134.785L26.3457 134.707H26.2676L26.033 134.629V132.677H26.8148C26.9712 132.677 27.1275 132.521 27.1275 132.364V132.13C27.1275 132.052 27.2057 132.052 27.2057 131.974V131.271V131.193H31.9745C32.1309 131.193 32.2872 131.037 32.2872 130.881V129.631C32.2872 129.475 32.1309 129.319 31.9745 129.319H30.0201V127.367C30.0201 127.289 30.0983 127.289 30.0983 127.21C30.0983 126.508 29.7074 125.883 29.0819 125.649L29.1601 125.414C29.1601 125.336 29.1601 125.18 29.0819 125.102L29.0038 125.024C28.9256 125.024 28.9256 124.946 28.8474 124.946H28.7692H28.6911H28.6129L26.3457 124.087L25.3294 123.696L20.8733 121.978V115.184L22.7496 109.484L37.4469 114.247C37.4469 114.247 37.4469 114.247 37.5251 114.247C37.6033 114.247 37.7596 114.325 37.8378 114.325C37.9942 114.325 38.2287 114.247 38.385 114.169C38.6196 114.013 38.7759 113.701 38.8541 113.388C38.8541 113.31 38.8541 113.31 38.8541 113.232L39.1668 109.249C39.4013 109.171 39.6359 108.937 39.7922 108.703C39.7922 108.625 39.8704 108.547 39.8704 108.547C39.8704 108.469 39.8704 108.469 39.8704 108.39L42.5284 95.2712C42.5284 95.1931 42.5284 95.1931 42.5284 95.115C42.6066 94.4902 42.2157 93.9436 41.5903 93.7874C41.5121 93.7874 41.5121 93.7874 41.434 93.7874L40.4177 93.5532L40.8085 88.5553C40.8085 88.3991 40.7304 88.243 40.6522 88.1649C40.7304 88.0868 40.8085 88.0087 40.8085 87.9306C40.8085 87.8525 40.8085 87.8525 40.8085 87.7744L41.903 84.4165C41.9812 84.3384 41.9812 84.3384 42.0594 84.2603C42.1376 84.1041 42.0594 83.948 42.0594 83.7918C42.0594 83.6356 41.8248 83.5575 41.6685 83.4794C41.5903 83.4794 41.5121 83.4794 41.5121 83.4794L40.1049 83.0109C40.0268 82.9328 39.9486 82.9328 39.7922 82.9328C39.0105 83.0889 38.1505 83.167 37.3687 83.2451L37.4469 83.167C37.6814 83.167 37.8378 83.089 38.0723 83.0109C38.3069 83.0109 38.6196 82.9328 38.8541 82.8547H39.0886C39.3232 82.8547 39.5577 82.6985 39.7922 82.5423C40.1831 82.3861 40.574 82.1519 40.9649 81.9176C41.0431 81.9176 41.0431 81.9176 41.0431 81.9176C41.1213 81.8395 41.1994 81.7614 41.2776 81.6833C41.3558 81.6052 41.3558 81.6052 41.434 81.5271C41.5121 81.3709 41.5121 81.1367 41.5121 80.9805V80.9024C42.6848 79.2625 42.8411 77.2321 42.0594 75.5141C42.3721 72.3905 42.4503 69.1887 42.2157 66.0651V65.987V65.6746C42.2157 65.6746 42.2157 65.6746 42.2157 65.5965C42.2157 65.5184 42.2157 65.5184 42.2157 65.4404V65.3623V65.2842C42.2157 65.2842 42.2157 65.2842 42.2157 65.2061C42.2157 65.2061 42.2157 65.2061 42.1376 65.128C42.1376 65.128 42.1376 65.128 42.0594 65.128H41.9812C41.9812 64.9718 41.8248 64.8156 41.6685 64.8156H40.9649C40.8085 64.8156 40.7304 64.8937 40.6522 65.0499C39.6359 64.9718 38.6978 64.9718 37.6814 64.9718C37.6033 64.8937 37.5251 64.8937 37.4469 64.8937H36.7433C36.6651 64.8937 36.587 64.8937 36.5088 64.9718C35.4925 64.9718 34.5544 65.0499 33.5381 65.0499C33.4599 64.8937 33.3817 64.8156 33.2253 64.8156H32.5217C32.3654 64.8156 32.209 64.9718 32.209 65.128H32.1309C32.1309 65.128 32.1309 65.128 32.0527 65.128C32.0527 65.128 32.0527 65.128 31.9745 65.2061C31.9745 65.2061 31.9745 65.2061 31.8963 65.2842L31.8182 65.3623V65.4404L31.74 65.987C31.74 66.0651 31.74 66.1432 31.8182 66.1432L31.74 69.1106V70.2039L28.8474 73.9523L26.9712 79.6529V79.731L27.0493 83.8699C27.0493 83.8699 27.0493 83.8699 27.0493 83.9479C26.9712 83.9479 26.9712 84.026 26.893 84.1041C26.893 84.1041 26.8148 84.1822 26.8148 84.2603L21.0297 102.143V91.7571L22.046 91.3666C22.1242 91.3666 22.1242 91.3666 22.1242 91.3666C22.1242 91.3666 22.2023 91.3666 22.2023 91.2885C22.2805 91.2885 22.3587 91.2104 22.4369 91.1323C22.5151 91.0542 22.5151 90.8981 22.5151 90.82L22.4369 90.5857C23.0623 90.2733 23.4532 89.6486 23.4532 89.0239C23.4532 88.9458 23.4532 88.9458 23.375 88.8677V85.1193L23.6095 85.0412L24.1568 84.7289L24.6258 84.4165L25.0949 83.9479L25.4076 83.4794L25.7203 82.9328L25.8767 82.3861L25.9549 81.7614V65.4404L27.2839 64.8156L27.1275 64.1909V64.1128C27.2057 64.1128 27.2057 64.0347 27.2839 64.0347H41.9812C42.1376 64.0347 42.2939 63.8785 42.2939 63.7223V60.5206H43.7793H43.8575C44.0138 60.5206 44.092 60.4425 44.1702 60.3644L44.4047 59.974V60.3644C44.4047 60.4425 44.4047 60.4425 44.4047 60.5206L44.7174 61.1453C44.7174 61.1453 44.7174 61.1453 44.7956 61.2234V77.3102C44.7956 77.3883 44.8738 77.4664 44.9519 77.5445L45.2646 77.7787C45.3428 77.8568 45.421 77.8568 45.4992 77.8568H45.8901C46.0464 77.8568 46.2028 77.7007 46.2028 77.5445V73.0933C46.3591 73.0933 46.5155 72.9371 46.5155 72.7809V72.4686C46.5937 72.3905 46.5937 72.3905 46.5937 72.3124C46.6718 72.1562 46.6718 72.0781 46.5937 71.9219C46.5937 71.9219 46.5937 71.8438 46.5155 71.8438C46.5155 71.8438 46.5155 71.8438 46.5155 71.7657V71.6876V69.0325C46.5937 68.9545 46.5937 68.9545 46.5937 68.8764C46.6718 68.7202 46.6718 68.6421 46.5937 68.4859C46.5937 68.4859 46.5937 68.4859 46.5937 68.4078V68.3297V68.2516V68.0955L46.9064 64.1909H51.6752C51.8315 64.1909 51.9879 64.0347 51.9879 63.8785H57.3039C57.3821 63.9566 57.3821 63.9566 57.4603 64.0347V64.1128L57.1476 64.8156L57.0694 65.4404V81.7614L57.1476 82.3861L57.3039 82.9328L57.5385 83.4794L57.8512 83.9479V84.4165H50.9716C50.8152 84.4165 50.6589 84.5727 50.6589 84.7289V85.2755C50.6589 85.4317 50.8152 85.5879 50.9716 85.5879H51.0498V129.163H50.9716C50.8152 129.163 50.6589 129.319 50.6589 129.475V129.866C50.6589 130.022 50.8152 130.178 50.9716 130.178H59.962V130.256V130.959C59.962 131.037 59.962 131.115 60.0402 131.193V131.349C60.0402 131.505 60.1965 131.662 60.3529 131.662H61.0565V132.443L60.9001 132.521L60.7437 132.599C60.6656 132.677 60.5874 132.755 60.5874 132.911V132.989C60.5874 133.067 60.5874 133.145 60.6656 133.223L60.7437 133.302C60.7437 133.38 60.8219 133.38 60.9001 133.38L61.0565 133.458V134.785L60.9001 134.863L60.7437 134.941C60.6656 135.02 60.5874 135.098 60.5874 135.254V135.332C60.5874 135.41 60.5874 135.488 60.6656 135.566L60.7437 135.644C60.8219 135.722 60.8219 135.722 60.9001 135.722L61.0565 135.8V137.128L60.9001 137.206L60.7437 137.284C60.6656 137.362 60.5874 137.44 60.5874 137.597V137.675C60.5874 137.753 60.5874 137.831 60.6656 137.909L60.7437 137.987C60.8219 138.065 60.8219 138.065 60.9001 138.065L61.0565 138.143V139.471L60.9001 139.549L60.7437 139.627C60.6656 139.705 60.5874 139.783 60.5874 139.939V140.017C60.5874 140.095 60.5874 140.174 60.6656 140.252L60.7437 140.33C60.8219 140.408 60.8219 140.408 60.9001 140.408L61.0565 140.486V141.813L60.9001 141.892L60.7437 141.97C60.6656 142.048 60.5874 142.126 60.5874 142.282V142.36C60.5874 142.438 60.5874 142.516 60.6656 142.594L60.7437 142.672C60.8219 142.751 60.8219 142.751 60.9001 142.751L61.0565 142.829V144.156L60.9001 144.234L60.7437 144.312C60.6656 144.39 60.5874 144.469 60.5874 144.625V144.703C60.5874 144.781 60.5874 144.859 60.6656 144.937L60.7437 145.015C60.8219 145.093 60.8219 145.093 60.9001 145.093L61.0565 145.171V146.499H60.9783C60.9001 146.499 60.9001 146.499 60.8219 146.577L60.6656 146.733C60.5874 146.811 60.5092 146.889 60.5092 146.967V147.046C60.5092 147.124 60.5092 147.202 60.5874 147.28L60.6656 147.358C60.7437 147.436 60.7437 147.436 60.8219 147.436L60.9783 147.514V148.842L60.8219 148.92L60.6656 148.998C60.5874 149.076 60.5092 149.154 60.5092 149.31V149.388C60.5092 149.466 60.5092 149.544 60.5874 149.623L60.6656 149.701C60.7437 149.779 60.7437 149.779 60.8219 149.779L60.9783 149.857V151.184L60.8219 151.262L60.6656 151.341C60.5874 151.419 60.5092 151.497 60.5092 151.653V151.731C60.5092 151.809 60.5092 151.887 60.5874 151.965L60.6656 152.043C60.7437 152.121 60.7437 152.121 60.8219 152.121L60.9783 152.2V153.527L60.8219 153.605L60.6656 153.683C60.5874 153.761 60.5092 153.839 60.5092 153.996V154.074C60.5092 154.152 60.5092 154.23 60.5874 154.23L60.6656 154.386C60.7437 154.464 60.7437 154.464 60.8219 154.542L60.9783 154.62V155.948L60.8219 156.026L60.6656 156.104C60.5874 156.182 60.5092 156.26 60.5092 156.417V156.495C60.5092 156.573 60.5092 156.651 60.5874 156.729L60.6656 156.807C60.7437 156.885 60.7437 156.885 60.8219 156.885L60.9783 156.963V158.291L60.8219 158.369L60.6656 158.447C60.5874 158.525 60.5092 158.603 60.5092 158.759V158.837C60.5092 158.915 60.5092 158.993 60.5874 159.072L60.6656 159.15C60.7437 159.228 60.7437 159.228 60.8219 159.228L60.9783 159.306V160.633L60.8219 160.712L60.6656 160.79C60.5874 160.868 60.5092 160.946 60.5092 161.102V161.18C60.5092 161.258 60.5092 161.336 60.5874 161.414L60.6656 161.492C60.7437 161.571 60.7437 161.571 60.8219 161.571L60.9783 161.649V162.898C60.9783 163.054 61.1346 163.21 61.291 163.21H71.454C71.6104 163.21 71.7667 163.054 71.7667 162.898V162.82L71.9231 162.742L72.0795 162.664C72.1576 162.586 72.2358 162.508 72.2358 162.351V162.273C72.2358 162.195 72.2358 162.117 72.1576 162.039L72.0795 161.961C72.0013 161.883 72.0013 161.883 71.9231 161.883L71.6886 161.805V160.477L71.8449 160.399L72.0013 160.321C72.0795 160.243 72.1576 160.165 72.1576 160.009V159.931C72.1576 159.853 72.1576 159.774 72.0795 159.696L72.0013 159.618C71.9231 159.54 71.9231 159.54 71.8449 159.54L71.6104 159.462V158.213L71.7667 158.135L71.9231 158.056C72.0013 157.978 72.0795 157.9 72.0795 157.744V157.666C72.0795 157.588 72.0795 157.51 72.0013 157.432L71.9231 157.354C71.8449 157.276 71.8449 157.275 71.7667 157.275L71.5322 157.197V155.87L71.6886 155.792L71.8449 155.714C71.9231 155.636 72.0013 155.557 72.0013 155.401V155.323C72.0013 155.245 72.0013 155.167 71.9231 155.089L71.8449 155.011C71.7667 154.933 71.7667 154.933 71.6886 154.933L71.454 154.855V153.527L71.6104 153.449L71.7667 153.371C71.8449 153.293 71.9231 153.215 71.9231 153.059V152.98C71.9231 152.902 71.9231 152.824 71.8449 152.746L71.7667 152.668C71.6886 152.59 71.6886 152.59 71.6104 152.59L71.3759 152.512V151.262L71.5322 151.184L71.6886 151.106C71.7667 151.028 71.8449 150.95 71.8449 150.794V150.716C71.8449 150.638 71.8449 150.56 71.7667 150.482L71.6886 150.403C71.6104 150.325 71.6104 150.325 71.5322 150.325L71.2977 150.247V148.92L71.454 148.842L71.6104 148.764C71.6886 148.685 71.7667 148.607 71.7667 148.451V148.373C71.7667 148.295 71.7667 148.217 71.6886 148.139L71.6104 148.061C71.5322 147.983 71.5322 147.983 71.454 147.983L71.2195 147.905V146.577H71.2977H71.3759L71.5322 146.499C71.6104 146.421 71.6886 146.343 71.6886 146.187V146.03C71.6886 145.952 71.6886 145.874 71.6104 145.796L71.5322 145.718C71.454 145.64 71.454 145.64 71.3759 145.64L71.1413 145.562V144.234L71.2977 144.156L71.454 144.078C71.5322 144 71.6104 143.922 71.6104 143.766V143.688C71.6104 143.61 71.6104 143.531 71.5322 143.453L71.454 143.375C71.3759 143.297 71.3759 143.297 71.2977 143.297L71.0631 143.219V141.892L71.2195 141.813L71.3759 141.735C71.454 141.657 71.5322 141.579 71.5322 141.423V141.345C71.5322 141.267 71.5322 141.189 71.454 141.111L71.3759 141.033C71.2977 140.954 71.2977 140.954 71.2195 140.954L70.985 140.876V139.549L71.1413 139.471L71.2977 139.393C71.3759 139.315 71.454 139.236 71.454 139.08V139.002C71.454 138.924 71.454 138.846 71.3759 138.846L71.2977 138.69C71.2195 138.612 71.2195 138.612 71.1413 138.534L70.9068 138.456V137.128L71.0631 137.05L71.2195 136.972C71.2977 136.894 71.3759 136.816 71.3759 136.659V136.581C71.3759 136.503 71.3759 136.425 71.2977 136.347L71.2195 136.269C71.1413 136.191 71.1413 136.191 71.0631 136.191L70.8286 136.113V134.785L70.985 134.707L71.1413 134.629C71.2195 134.551 71.2977 134.473 71.2977 134.317V134.239C71.2977 134.161 71.2977 134.082 71.2195 134.004L71.1413 133.926C71.0631 133.848 71.0631 133.848 70.985 133.848L70.7504 133.77V131.818H71.5322C71.6886 131.818 71.8449 131.662 71.8449 131.505V131.271C71.8449 131.193 71.9231 131.193 71.9231 131.115V130.412V130.334H76.6919C76.8483 130.334 77.0046 130.178 77.0046 130.022V129.631C77.0046 129.475 76.8483 129.319 76.6919 129.319H74.7375V127.367C74.7375 127.289 74.8157 127.289 74.8157 127.21C74.8157 126.508 74.4248 125.883 73.7994 125.649L73.8775 125.414C73.8775 125.336 73.8775 125.18 73.7994 125.102L73.7212 125.024C73.643 125.024 73.643 124.946 73.5648 124.946H73.4866H73.4085H73.3303L71.1413 124.087H71.0631L70.0468 123.696L65.5907 121.978V91.679L66.607 91.2885H66.6852C66.6852 91.2885 66.7634 91.2885 66.7634 91.2104C66.8416 91.2104 66.9197 91.1323 66.9979 91.0542C67.0761 90.9762 67.0761 90.82 67.0761 90.7419L66.9979 90.5076C67.6233 90.1952 68.0142 89.5705 68.0142 88.9458C68.0142 88.8677 68.0142 88.8677 67.9361 88.7896V85.1193L68.1706 85.0412L68.7178 84.7289L69.1869 84.4165L69.656 83.9479L69.9687 83.4794L70.2814 82.9328L70.4377 82.3861L70.5159 81.7614V65.4404L71.6104 64.8156L71.454 64.1909V64.1128C71.5322 64.1128 71.5322 64.0347 71.6104 64.0347H86.3077C86.4641 64.0347 86.6204 63.8785 86.6204 63.7223V60.5206H88.1058H88.184C88.2622 60.5206 88.3403 60.4425 88.4185 60.4425V62.8633L87.7149 64.8937H87.6367C87.6367 64.7375 87.4804 64.5814 87.324 64.5814H86.6204C86.4641 64.5814 86.3859 64.6594 86.3077 64.8156L83.337 64.6594C83.2588 64.5814 83.1806 64.5814 83.1024 64.5814H82.3989C82.3207 64.5814 82.2425 64.6594 82.1643 64.6594L79.1936 64.8156C79.1154 64.6594 79.0372 64.5814 78.8809 64.5814H78.1773C78.0209 64.5814 77.8646 64.7375 77.8646 64.8937C77.7082 64.8937 77.63 65.0499 77.63 65.2061V65.2842L77.5519 65.8308L77.4737 68.9545L77.5519 72.0781L77.7864 75.1236C77.0046 76.9197 77.161 79.0282 78.3336 80.6681L78.4118 81.2148C78.4118 81.2928 78.49 81.3709 78.5682 81.449C78.5682 81.5271 78.6463 81.5271 78.6463 81.6052L78.7245 81.6833C79.1154 81.9957 79.5845 82.2299 80.0535 82.3861C80.2099 82.4642 80.3662 82.6204 80.6008 82.6204H80.6789H80.8353C81.0698 82.6985 81.3825 82.7766 81.6953 82.7766C81.8516 82.8547 82.0861 82.8547 82.3207 82.9328C82.3989 83.0108 82.477 83.0889 82.6334 83.0889H82.9461C83.1024 83.0889 83.1806 83.0108 83.2588 82.9328C83.4933 82.9328 83.6497 82.8547 83.8842 82.7766C84.1188 82.7766 84.3533 82.6985 84.666 82.6204H84.9005C85.1351 82.6204 85.3696 82.4642 85.6041 82.308C85.995 82.1519 86.3859 81.9176 86.7768 81.6833C86.855 81.6833 86.855 81.6833 86.855 81.6833C86.9331 81.6052 87.0113 81.5271 87.0895 81.449C87.1677 81.3709 87.1677 81.3709 87.2458 81.2928C87.2458 81.1367 87.324 80.9024 87.324 80.7462V80.6681C88.4967 79.0282 88.653 76.9978 87.8713 75.2798C88.184 72.3905 88.2621 69.423 88.0276 66.5336L89.2003 63.1757V63.0976V57.0065V56.9284L87.8713 53.102C87.9494 53.0239 88.0276 52.8677 88.0276 52.7115C88.0276 52.6334 88.0276 52.6334 87.9494 52.5553V31.7831L91.2329 18.6638ZM88.9657 17.961L90.842 18.4295C90.842 18.4295 90.9202 18.4295 90.9202 18.5076V18.5857L87.8713 30.846V28.1128C87.8713 28.0347 87.9494 28.0347 87.9494 27.9566C87.9494 27.7223 87.7931 27.4881 87.5586 27.4881V21.8655L87.9494 20.6941L88.2621 19.5228L88.3403 18.8981L88.2621 18.1171C88.4967 17.8829 88.7312 17.8829 88.9657 17.961ZM87.2458 74.1866C87.2458 74.0304 87.1677 73.8742 87.1677 73.6399C87.1677 73.5618 87.0895 73.4837 87.0113 73.4837C86.9331 73.4056 86.855 73.2495 86.7768 73.2495C86.6986 73.2495 86.6986 73.1714 86.6204 73.1714C86.1514 72.859 85.6823 72.6247 85.1351 72.3905H86.3859C86.5423 72.3905 86.6986 72.3124 86.6986 72.1562C87.0895 71.5315 87.324 70.9067 87.4022 70.282C87.4022 71.5315 87.324 72.859 87.2458 74.1866ZM79.2718 71.7657C78.8809 71.2191 78.7245 70.5944 78.6463 69.8915C78.7245 69.9696 78.8809 70.0477 79.0372 70.1258C79.1154 70.7505 79.3499 71.2972 79.6627 71.7657H79.2718ZM86.1514 71.7657H85.6823C85.7605 71.6876 85.7605 71.6096 85.8387 71.5315H85.9168C85.995 71.5315 85.995 71.5315 86.0732 71.5315C86.1514 71.5315 86.2295 71.4534 86.2295 71.3753L86.6986 69.9696C86.6986 70.5163 86.5422 71.2191 86.1514 71.7657ZM84.3533 65.4404L85.995 65.5184H79.5063L81.148 65.4404H84.3533ZM79.8972 69.5792C79.8972 68.0174 81.148 66.7679 82.7116 66.7679C84.2751 66.7679 85.5259 68.0174 85.5259 69.5792C85.5259 70.4382 85.1351 71.2191 84.5096 71.7657H84.0406C84.7442 71.2972 85.2914 70.5163 85.2914 69.5792C85.2914 68.1735 84.1188 67.0022 82.7116 67.0022C81.3044 67.0022 80.1317 68.1735 80.1317 69.5792C80.1317 70.5163 80.6008 71.2972 81.3825 71.7657H80.9135C80.2881 71.2191 79.8972 70.4382 79.8972 69.5792ZM82.7116 71.4534C81.6953 71.4534 80.8353 70.5944 80.8353 69.5792C80.8353 68.564 81.6953 67.705 82.7116 67.705C83.7279 67.705 84.5878 68.564 84.5878 69.5792C84.5878 70.5944 83.806 71.4534 82.7116 71.4534ZM84.5096 66.2994H85.2132C85.8387 66.7679 86.3077 67.3926 86.5422 68.0955L86.3077 68.7202C86.0732 67.705 85.4478 66.846 84.5096 66.2994ZM86.0732 66.1432H87.2458L86.855 67.2365C86.6204 66.846 86.3859 66.5336 86.0732 66.1432ZM80.2099 66.2994H80.9135C79.8972 66.846 79.1936 67.8612 79.0372 69.0325C78.8809 69.0325 78.7245 69.1106 78.6463 69.1887C78.7245 68.0955 79.2718 67.0803 80.2099 66.2994ZM79.0372 69.5011V69.5792V69.6573C79.0372 69.6573 78.9591 69.6573 78.9591 69.5792C78.9591 69.5011 78.9591 69.5011 79.0372 69.5011ZM78.0991 66.1432H79.3499C78.6463 66.846 78.1773 67.705 78.0209 68.6421L78.0991 66.1432ZM87.7931 58.5683V59.8959H86.3077H47.5318H45.7337V58.5683C45.8119 58.4902 45.8901 58.4122 45.8901 58.256V57.9436H74.0339H75.7538H87.5586V58.256C87.5586 58.4122 87.6367 58.5683 87.7931 58.5683ZM45.421 60.9892V60.9111H45.4992V68.2516V68.564H45.421V60.9892ZM46.8282 63.41C46.75 63.41 46.75 63.3319 46.6718 63.3319C46.4373 63.3319 46.2809 63.41 46.1246 63.4881V60.5206C46.1246 60.5206 46.1246 60.5206 46.1246 60.4425H47.1409V63.3319H46.8282V63.41ZM45.421 68.8764L45.4992 71.9219H45.421V68.8764ZM70.985 47.4013C70.9068 47.4013 70.9068 47.4013 70.8286 47.4013C70.5159 47.4013 70.2814 47.2451 70.2032 46.9328C70.2032 46.8547 70.2032 46.8547 70.125 46.7766L68.6397 33.8135L71.8449 47.3232L70.985 47.4013ZM61.6819 37.9523C61.6819 37.8742 61.6819 37.8742 61.6819 37.9523C61.9164 37.2495 62.4636 36.859 63.0109 36.859L63.0891 36.9371L68.4051 37.5618L68.796 40.9197L61.3692 39.9827L61.6819 37.9523ZM68.0924 28.5033V28.4252C68.0924 28.3471 68.0924 28.3471 68.0924 28.269L68.4051 28.1909L68.7178 28.1128L69.1087 28.0347H69.8905L69.8123 28.4252V28.5033L69.8905 28.5813H72.1576C72.2358 28.5813 72.314 28.5033 72.314 28.5033C72.314 28.5033 72.2358 28.4252 72.1576 28.4252H70.0468V28.1128H82.0861L81.3044 28.269C81.2262 28.269 81.2262 28.3471 81.2262 28.4252C81.2262 28.5033 81.3044 28.5033 81.3044 28.5033L83.0243 28.1128H83.1024H87.1677V52.6334H73.8775C73.8775 52.6334 73.8775 52.6334 73.7994 52.6334C73.7994 52.6334 73.7212 52.6334 73.7212 52.5553L68.0924 28.5033ZM84.5096 19.1323C84.5096 18.5076 84.9787 17.961 85.6041 17.8829C85.6823 17.8829 85.6823 17.8829 85.7605 17.8829H87.0113V20.9284L85.995 25.1453L85.6823 25.692L85.3696 26.2386L85.0569 26.8633L84.7442 27.41H84.5878L84.5096 19.1323ZM88.184 18.82L88.1058 19.4447L87.7931 20.6161L87.6367 21.1627V19.3666L87.7931 18.7419C87.7931 18.7419 87.8713 18.7419 87.8713 18.6638C87.9494 18.5076 88.0276 18.3514 88.184 18.1952V18.82ZM86.9331 22.8807L86.6986 23.2712L86.4641 23.8959L86.3859 24.1302L86.9331 21.9436V22.8807ZM84.9787 27.41L85.2132 27.0195L85.5259 26.3948L85.6823 26.0824L85.3696 27.41H84.9787ZM86.1514 25.2234L86.4641 24.5987L86.7768 24.0521L87.0113 23.5054V27.4881H85.6823L86.1514 25.2234ZM75.832 57.1627C75.7538 57.1627 75.7538 57.1627 75.832 57.1627H74.1902V53.7267H87.1677L88.184 56.538C84.1969 54.82 79.5845 55.0542 75.832 57.1627ZM88.4185 57.2408H77.0046C80.6008 55.6009 84.7442 55.6009 88.4185 57.2408ZM75.2847 25.692H78.2555H78.3336L79.1154 24.833L79.9754 24.1302L80.9135 23.5054L82.008 23.115L83.1024 22.8026C83.1024 22.8026 83.1024 22.8026 83.1024 22.7245C83.1024 22.7245 83.1024 22.7245 83.1024 22.6464L82.7897 21.1627L82.7116 19.6009V19.3666L82.6334 18.9761L82.5552 18.82C82.5552 18.7419 82.477 18.7419 82.3989 18.7419C82.3207 18.7419 82.3207 18.82 82.3207 18.8981L82.3989 19.0542L82.477 19.2885L82.5552 19.4447V19.679L82.6334 21.2408L82.9461 22.6464L81.9298 22.9588L80.8353 23.4273L79.819 24.0521L78.8809 24.7549L78.0991 25.5358H76.0665C76.1447 25.5358 76.1447 25.4577 76.2228 25.4577L76.301 23.974L76.2228 22.4902L77.3173 19.8351L77.3955 19.6009L77.4737 19.3666V19.0542L77.161 18.5076V18.4295C77.161 18.4295 77.161 18.4295 77.161 18.3514V18.2733L77.2392 17.961L77.3173 17.8048L77.3955 17.7267H77.4737L79.1154 15.9306L80.8353 14.2126L81.0698 13.9783L81.3825 13.8221L81.6953 13.6659L82.0861 13.5098L82.3207 13.3536L82.5552 13.1193L82.7116 12.885L82.7897 12.6508L82.8679 12.3384V11.8698L82.7897 11.6356L82.7116 11.4794L82.6334 11.3232V11.167V11.0889L82.7116 11.0108L82.9461 10.6985L83.0243 10.6204V10.5423C83.0243 10.4642 83.0243 10.4642 82.9461 10.4642L82.8679 10.3861L82.7897 10.2299C82.7897 10.2299 82.7897 10.2299 82.7116 10.1518L84.4315 9.83948C84.4315 9.83948 84.4315 9.83948 84.5096 9.83948L84.8223 9.6833C84.8223 9.6833 84.8223 9.6833 84.9005 9.60521L84.9787 9.52712L85.2132 8.66811H85.2914C85.2914 8.66811 85.2914 8.66811 85.3696 8.66811C85.3696 8.66811 85.3696 8.66811 85.4478 8.66811L85.8387 8.8243L85.9168 8.90239H85.995H86.0732L86.1514 8.8243L86.6986 8.04338L87.0895 7.18438L87.1677 7.0282C87.1677 7.0282 87.1677 7.0282 87.1677 6.95011V6.40347C87.1677 6.40347 87.1677 6.40347 87.1677 6.32538L87.0895 6.24729V6.1692L87.0113 6.09111C87.0113 6.09111 87.0113 6.09111 86.9331 6.09111L86.7768 6.01302L86.6986 5.93492C86.6986 5.93492 86.6986 5.93492 86.6204 5.93492H86.3077L86.1514 6.01302L85.995 6.09111L85.9168 6.1692C85.8387 6.24729 85.8387 6.32538 85.9168 6.32538H85.995H86.0732L86.1514 6.24729L86.4641 6.09111H86.6986L86.9331 6.1692L87.0113 6.24729V6.32538V6.40347V6.55965L86.5422 7.57484L85.995 8.35575L85.6823 8.19957H85.6041H85.5259H85.4478H85.3696H85.2914L85.2132 8.27766L84.9787 9.13666V9.21475L84.9005 9.29284L84.7442 9.37093L82.5552 9.76139H82.477H82.3989L82.008 9.83948H81.3044L81.0698 9.6833H80.9917L80.9135 9.60521V9.52712V9.44903V9.21475V9.13666L80.9917 9.05857L81.148 8.90239L81.2262 8.8243L81.3044 8.66811C81.3044 8.66811 81.3044 8.66811 81.3044 8.59002V8.51193C81.3044 8.51193 81.3044 8.51193 81.3044 8.43384V8.35575L81.2262 8.19957V8.04338V7.96529C81.2262 7.96529 81.3044 7.8872 81.2262 7.80911C81.2262 7.73102 81.148 7.73102 81.148 7.73102V7.57484L81.3044 7.18438V6.79393V6.71584L81.2262 6.63774H81.148L80.6789 6.40347L80.6008 6.32538V6.24729V6.1692V6.09111H80.6789L81.5389 5.2321L81.6171 5.07592L81.6953 4.84165V4.68547H86.3077C86.4641 4.68547 86.6204 4.52928 86.6204 4.3731C86.6204 4.21692 86.4641 4.06074 86.3077 4.06074H81.7734V3.5141L81.8516 2.96746L81.9298 2.57701H87.2458C87.4022 2.57701 87.5586 2.42082 87.5586 2.26464C87.5586 2.10846 87.4022 1.95228 87.2458 1.95228H82.3207C82.3207 1.95228 82.3207 1.95228 82.3207 1.87419C82.3207 1.87419 82.3207 1.87419 82.3207 1.7961L82.1643 1.40564V1.32755C82.1643 1.32755 82.1643 1.32755 82.1643 1.24946C82.2425 1.24946 82.2425 1.17137 82.2425 1.17137L83.1024 0.859002L83.9624 0.546638L84.9005 0.390456L85.7605 0.234273L86.6204 0.312364L87.4022 0.468547L88.184 0.859002L88.8876 1.32755L89.513 1.95228L89.982 2.73319L90.2166 3.12364L90.3729 3.59219L90.4511 4.06074V4.52928L90.3729 4.99783L90.2166 5.46638L88.653 8.04338L88.184 9.21475L87.8713 10.3861L87.7149 11.5575L87.6367 12.7289L87.7931 13.9002L88.0276 15.0716L88.4185 16.5553L88.7312 18.039C88.4967 18.1952 88.3403 18.4295 88.2621 18.6638V17.961C88.2621 17.6486 88.0276 17.4143 87.7149 17.4143H86.6204C86.5423 17.4143 86.5422 17.3362 86.4641 17.3362C85.4478 17.3362 84.5878 18.1952 84.5878 19.2104V27.4881H70.2032L70.2814 26.6291C70.2814 26.6291 70.2814 26.551 70.3596 26.551V26.4729L70.4377 26.0043L75.2847 25.692ZM67.6233 29.6746H67.3106L66.6852 29.4404L66.3725 29.2061L66.138 29.0499L65.9816 28.9718L65.9035 28.8937L65.8253 28.7375L65.7471 28.6594V28.1909L65.8253 28.0347L65.9816 27.6443L66.138 27.41L66.5289 26.9414L66.9979 26.6291H67.0761H67.2325L67.6233 26.551H67.9361H68.0142L68.4833 26.6291H68.8742L69.9687 26.7853L69.8905 27.6443H68.4833C68.4051 27.6443 68.4051 27.5662 68.3269 27.5662C68.0142 27.5662 67.7015 27.7223 67.5452 27.9566C67.3888 28.1909 67.3106 28.4252 67.3106 28.6594C67.3106 28.7375 67.3106 28.7375 67.3106 28.8156L67.6233 29.6746ZM51.5188 57.0846H51.6752H51.9097L52.6133 57.0065L53.2387 56.7722L54.0205 56.538L54.9586 55.8351L56.0531 55.2104L57.1476 54.7419L57.3821 54.6638L57.5385 54.5857L57.6948 54.4295L57.8512 54.2733L58.0075 53.8829L58.3202 49.9002L58.2421 48.7289L58.0857 47.6356L56.2876 38.8113L56.2095 37.0152L56.0531 35.2191V35.141L55.8186 34.8286L55.6622 34.3601L55.584 33.9696L55.5059 33.6573L55.584 33.2668L55.6622 32.9545L55.8186 32.564L56.0531 32.2516L56.2876 32.0174L56.6004 31.7831L56.9912 31.705L57.4603 31.5488L57.773 31.3926L59.3366 31.0022L60.9001 30.7679L62.4636 30.6898H64.2617L66.2162 30.7679L68.0924 30.9241L68.4833 32.4078C68.1706 32.7983 68.0142 33.0325 68.0142 33.2668C68.0142 33.2668 68.0142 33.2668 68.0142 33.3449C68.0142 33.423 68.0142 33.5011 68.0142 33.5011C68.0142 33.5011 68.0142 33.5011 68.0142 33.5792L68.4051 37.3276L63.4018 36.7028L63.3236 36.6247C62.5418 36.4686 61.76 37.0152 61.5255 37.718L61.4473 37.7961L61.1346 40.0607C61.1346 40.1388 61.1346 40.2169 61.2128 40.2169L68.796 41.154L69.4996 47.0109C69.4996 47.0889 69.5778 47.167 69.656 47.2451C69.8123 47.7137 70.2032 48.026 70.6723 48.026C70.7504 48.1041 70.8286 48.1041 70.9068 48.1041L72.0795 47.9479L73.2521 52.7896C73.2521 52.8677 73.3303 52.9458 73.4085 53.0239C73.4085 53.102 73.4866 53.102 73.5648 53.102C73.4866 53.18 73.4866 53.3362 73.4866 53.4143V57.2408H61.9164L62.0728 56.7722L62.1509 56.0694V55.3666L61.7601 53.7267L61.9164 49.9783L62.3073 46.2299L62.7764 42.4816C62.7764 42.4035 62.7764 42.3254 62.6982 42.3254C62.62 42.3254 62.5418 42.3254 62.5418 42.4035L62.0728 46.1518L61.6819 49.9783L61.5255 53.8048L61.9164 55.4447V56.1475L61.8382 56.7722L61.6819 57.3189H51.2843L51.5188 57.0846ZM43.4666 58.5683V59.8959H41.9812H3.20527H1.32901V58.5683C1.48537 58.4902 1.56355 58.4122 1.56355 58.256V57.9436H43.232V58.256C43.232 58.4122 43.3102 58.5683 43.4666 58.5683ZM0.625418 60.1302V58.0217H0.781773C0.781773 58.0998 0.703596 58.1779 0.703596 58.1779L0.625418 60.1302C0.703596 60.1302 0.703596 60.1302 0.625418 60.1302ZM1.09448 60.9892V60.9111H1.17266V68.2516V68.564H1.09448V60.9892ZM2.50167 63.41C2.4235 63.41 2.4235 63.3319 2.34532 63.3319C2.11079 63.3319 1.95443 63.41 1.79808 63.4881V60.5206C1.79808 60.5206 1.79808 60.5206 1.79808 60.4425H2.81438V63.3319H2.50167V63.41ZM1.09448 68.8764L1.17266 71.9219H1.09448V68.8764ZM1.17266 77.154L1.09448 72.2343H1.17266V72.7028V77.154ZM25.9549 72.6247V72.2343H26.033L25.9549 72.6247ZM23.4532 89.8829C23.4532 89.8829 23.375 89.8829 23.375 89.961H23.2968H23.2187C23.1405 89.961 23.1405 89.961 23.0623 90.0391C22.9841 90.0391 22.9059 90.0391 22.9059 90.1171L22.3587 90.2733V85.6659H24.1568V88.8677C24.1568 88.9458 24.1568 88.9458 24.1568 89.0239C24.1568 89.4143 23.8441 89.8048 23.4532 89.8829ZM18.3717 108.625C18.3717 108.781 18.4498 108.937 18.4498 109.015C18.4498 109.093 18.4498 109.093 18.528 109.171L19.2316 110.343C18.8407 110.187 18.3717 110.187 17.9808 110.421C17.4335 110.811 17.1208 111.436 17.3554 112.139C17.5117 112.607 17.9026 112.998 18.3717 113.076L17.8244 112.764L17.7462 112.685C17.2772 112.451 16.9645 111.983 16.9645 111.436V93.7093L17.8244 93.397L18.528 93.1627V108.625H18.3717ZM21.186 107.766L22.1242 104.876V108.078L21.186 107.766ZM21.2642 108.469L22.1242 108.703V113.701L21.0297 116.98C21.0297 117.059 21.0297 117.059 21.0297 117.137C20.9515 117.371 20.717 117.605 20.4824 117.683C20.1697 117.839 19.857 117.839 19.5443 117.761C19.5443 117.761 19.5443 117.761 19.4661 117.761L18.2935 117.371L21.2642 108.469ZM19.3098 111.748C19.3098 112.061 19.0753 112.373 18.6844 112.373C18.2935 112.373 18.059 112.139 18.059 111.748C18.059 111.358 18.2935 111.124 18.6844 111.124C19.0753 111.124 19.3098 111.436 19.3098 111.748ZM25.9549 64.8937L26.033 65.6746H25.9549V64.8937ZM24.704 64.0347C24.7822 64.1128 24.8604 64.1909 24.9386 64.1909H25.0167V64.5033C25.0167 64.5814 25.0167 64.5814 25.0949 64.6594L25.1731 64.7375L25.2513 64.8156V65.5965C25.2513 65.5965 25.1731 65.5965 25.1731 65.6746L25.0949 65.7527C25.0949 65.7527 25.0949 65.7527 25.0949 65.8308C25.0949 65.9089 25.0949 65.9089 25.0949 65.987V66.3774H24.8604V65.3623C24.8604 64.8156 24.3913 64.269 23.8441 64.269C23.7659 64.269 23.7659 64.269 23.6877 64.3471H16.5736C16.4954 64.3471 16.4954 64.269 16.4172 64.269C15.87 64.269 15.4009 64.7375 15.4009 65.3623V66.3774H15.0882V66.0651C15.0882 65.987 15.0882 65.987 15.0882 65.9089C15.0882 65.9089 15.0882 65.9089 15.0882 65.8308L14.8537 65.7527C14.8537 65.7527 14.8537 65.7527 14.7755 65.7527V64.8937H14.8537C14.9319 64.8937 14.9319 64.8156 14.9319 64.8156C14.9319 64.7375 15.01 64.7375 15.01 64.6594V64.3471H15.0882C15.1664 64.3471 15.3227 64.269 15.3227 64.1909H24.704V64.0347ZM20.2479 91.1323L19.0753 91.6009V86.9935C19.0753 86.4469 18.7625 85.9783 18.3717 85.744H20.2479V91.1323ZM18.2935 91.8352C18.2935 91.8352 18.3717 91.7571 18.3717 91.679V91.7571L18.2935 91.8352ZM17.5899 90.5076C17.2772 90.5076 16.9645 90.7419 16.8081 90.9762V87.3059C16.9645 87.6182 17.2772 87.7744 17.5899 87.7744C17.9026 87.7744 18.2153 87.5401 18.3717 87.3059V90.9762C18.2153 90.6638 17.9808 90.5076 17.5899 90.5076ZM17.5899 85.5098C17.5117 85.5098 17.5117 85.5098 17.4335 85.5098C17.4335 85.4317 17.5117 85.4317 17.5117 85.3536V85.1974H17.9808V85.3536C17.9808 85.4317 17.9808 85.5098 18.059 85.5879C17.9026 85.5879 17.7462 85.5098 17.5899 85.5098ZM15.01 84.4946H14.6973V84.026C14.6973 84.2603 14.8537 84.4165 15.01 84.4946ZM23.7659 65.4404L23.8441 81.7614C23.7659 81.7614 23.7659 81.7614 23.6877 81.8395H16.5736C16.4954 81.8395 16.4954 81.7614 16.4172 81.7614C16.4172 81.6833 16.4172 81.6833 16.3391 81.6052V65.5965C16.3391 65.5184 16.4172 65.5184 16.4172 65.4404H23.7659ZM18.7625 83.3232C18.6844 83.4794 18.6062 83.6356 18.6062 83.7918C18.6062 84.026 18.7625 84.2603 18.9189 84.4165H15.9482C16.1827 84.2603 16.3391 84.026 16.3391 83.7137C16.3391 83.5575 16.2609 83.4013 16.1827 83.2451H18.7625V83.3232ZM14.6973 83.5575V83.3232H14.8537C14.7755 83.4013 14.6973 83.4794 14.6973 83.5575ZM24.1568 83.8699H23.6095H22.5932L22.4369 83.7918H22.1242L21.9678 83.8699H21.4206V83.6356H24.235V83.8699H24.1568ZM16.8081 91.7571C16.8863 91.9913 17.1208 92.1475 17.3554 92.2256L17.199 92.3037C17.1208 92.3037 17.1208 92.3037 17.1208 92.3818L17.0426 92.4599V92.538V92.6161L17.1208 92.8503L16.8081 92.9284V91.7571ZM24.1568 83.0109H21.3424V82.7766H23.7659H24.1568V83.0109ZM14.1501 72.2343V72.6247H14.0719L14.1501 72.2343ZM14.0719 64.8937L14.1501 65.6746H14.0719V64.8937ZM13.5247 70.8286V67.0803H15.3227V70.8286H13.5247ZM16.8863 85.744C16.4172 85.9783 16.1827 86.4469 16.1827 86.9935V90.82H15.6355C15.6355 90.82 15.6355 90.7419 15.5573 90.7419C15.5573 90.7419 15.5573 90.7419 15.4791 90.7419C15.4009 90.7419 15.4009 90.6638 15.3227 90.6638H15.2446C15.2446 90.5857 15.3227 90.5857 15.3227 90.5076C15.3227 90.4295 15.3227 90.4295 15.2446 90.3514L14.7755 85.8221H16.8863V85.744ZM21.186 91.3666L21.1079 91.1323C21.1079 91.0542 21.0297 91.0542 21.0297 91.0542C21.0297 91.0542 20.9515 91.0542 20.9515 90.9762V85.744H22.2023V90.4295L21.8896 90.5857H21.8115C21.7333 90.5857 21.7333 90.6638 21.7333 90.6638C21.7333 90.6638 21.7333 90.6638 21.7333 90.7419C21.7333 90.7419 21.7333 90.7419 21.7333 90.82C21.7333 90.8981 21.7333 90.8981 21.7333 90.9762V91.0542V91.1323L21.8115 91.3666H21.186ZM24.7822 67.0803H26.5803V70.8286H24.7822V67.0803ZM26.893 66.3774V66.0651C26.893 65.987 26.893 65.987 26.893 65.9089C26.893 65.9089 26.893 65.9089 26.893 65.8308C26.893 65.8308 26.893 65.8308 26.893 65.7527L26.8148 65.6746C26.8148 65.6746 26.8148 65.6746 26.7366 65.6746V64.8156H26.8148C26.893 64.8156 26.893 64.7375 26.893 64.7375C26.893 64.6594 26.9712 64.6594 26.9712 64.5814V64.4252L27.1275 64.8937L27.2057 65.4404V66.4555C27.0493 66.4555 26.9712 66.3774 26.893 66.3774ZM13.681 63.41L14.1501 62.9414L14.6192 62.6291L15.1664 62.3948L15.7136 62.2386L16.2609 62.1605H23.8441L24.3913 62.2386L25.0167 62.3948L25.4858 62.6291L25.9549 62.9414L26.3457 63.3319L26.4239 63.41H13.681ZM12.9774 64.8937L13.1338 64.5033C13.1338 64.5814 13.1338 64.5814 13.212 64.6594L13.2901 64.7375L13.3683 64.8156V65.5965C13.3683 65.5965 13.2901 65.5965 13.2901 65.6746L13.212 65.7527C13.212 65.7527 13.212 65.7527 13.212 65.8308C13.212 65.9089 13.212 65.9089 13.212 65.987V66.2994C13.1338 66.2994 13.0556 66.2994 13.0556 66.3774V65.2842L12.9774 64.8937ZM13.4465 83.4013L13.212 82.9328L13.0556 82.3861L12.9774 81.7614V71.4534C13.0556 71.5315 13.0556 71.5315 13.1338 71.5315V71.8438C13.1338 71.9219 13.1338 71.9219 13.1338 72C13.1338 72 13.1338 72 13.1338 72.0781L13.212 72.1562L13.2901 72.2343V73.0152C13.2901 73.1714 13.4465 73.3276 13.6028 73.3276H14.2283H14.3064C14.4628 73.3276 14.6192 73.1714 14.6192 73.0152V72.2343C14.6192 72.2343 14.6192 72.2343 14.6973 72.2343L14.7755 72.1562C14.7755 72.1562 14.7755 72.1562 14.7755 72.0781C14.7755 72 14.7755 72 14.7755 71.9219V71.6096H15.0882V81.8395C15.0882 81.9176 15.0882 81.9176 15.0882 81.9957C15.0882 82.0738 15.0882 82.1519 15.1664 82.2299H13.7592C13.6028 82.2299 13.4465 82.3861 13.4465 82.5423V83.7137V83.4013ZM11.1794 129.631V129.709H10.7103V129.631C10.7103 129.475 10.5539 129.319 10.3976 129.319H7.89591V126.82C7.89591 126.664 7.73955 126.508 7.5832 126.508H7.50502V126.039H7.5832C7.73955 126.039 7.89591 125.883 7.89591 125.727V104.954C7.89591 104.798 7.73955 104.642 7.5832 104.642H7.50502V104.174H7.5832C7.73955 104.174 7.89591 104.017 7.89591 103.861V89.4143C7.89591 89.2581 7.73955 89.102 7.5832 89.102H7.50502V88.6334H7.5832C7.73955 88.6334 7.89591 88.4772 7.89591 88.3211V85.8221H9.22492C9.38127 85.8221 9.53763 85.666 9.53763 85.5098V85.1193H10.0067V85.3536C10.0067 85.5098 10.163 85.6659 10.3194 85.6659H14.0719L14.6192 90.4295V90.5076C14.541 90.5076 14.4628 90.5857 14.3846 90.6638H14.0719C14.0719 90.6638 14.0719 90.5857 13.9937 90.5857C13.9156 90.5076 13.8374 90.4295 13.7592 90.4295H13.4465C13.3683 90.4295 13.2901 90.5076 13.212 90.5076C13.212 90.5076 13.212 90.5076 13.1338 90.5076L13.0556 90.5857C13.0556 90.6638 13.0556 90.6638 13.0556 90.7419V91.6009C13.0556 91.679 13.1338 91.7571 13.212 91.8352C13.212 91.8352 13.212 91.8352 13.2901 91.8352C13.3683 91.8352 13.3683 91.9132 13.4465 91.9132H13.7592C13.8374 91.9132 13.9156 91.8352 13.9937 91.7571L14.0719 91.679H14.3846C14.4628 91.7571 14.541 91.8352 14.6192 91.8352C14.6192 91.9132 14.6973 91.9913 14.7755 91.9913L14.8537 92.0694C14.9319 92.1475 15.01 92.2256 15.0882 92.2256H16.1827V92.3037L14.6973 92.8503C14.6973 92.8503 14.6973 92.8503 14.6192 92.8503C14.2283 93.0065 13.9937 93.3189 13.9937 93.7093V96.5206C13.9937 96.6768 14.1501 96.833 14.3064 96.833H14.541V97.3015H14.3064C14.1501 97.3015 13.9937 97.4577 13.9937 97.6139V115.575C13.9937 115.731 14.1501 115.887 14.3064 115.887H14.541V116.356H14.3064C14.1501 116.356 13.9937 116.512 13.9937 116.668V119.479V119.558C14.0719 119.87 14.2283 120.182 14.541 120.338L17.0426 121.276H17.1208C17.199 121.276 17.199 121.275 17.2772 121.197C17.3554 121.197 17.3554 121.119 17.3554 121.041L17.4335 120.807L17.8244 120.963L17.7462 121.197C17.7462 121.275 17.7462 121.275 17.7462 121.354V121.432C17.7462 121.432 17.7462 121.432 17.7462 121.51C17.7462 121.51 17.7462 121.51 17.7462 121.588C17.7462 121.588 17.7462 121.588 17.7462 121.666C17.7462 121.666 17.7462 121.666 17.8244 121.666C17.8244 121.666 17.8244 121.666 17.9026 121.744L21.7333 123.15V125.727C21.7333 125.649 21.6551 125.649 21.6551 125.571V125.492V125.414C21.6551 125.18 21.4206 124.946 21.186 124.946C21.1079 124.946 21.1079 124.946 21.0297 125.024H21.1079C21.0297 125.024 21.0297 124.946 20.9515 124.946C20.717 124.946 20.4824 125.18 20.4824 125.414V125.492V125.571C20.4043 125.649 20.3261 125.727 20.3261 125.805V128.616C20.3261 128.538 20.2479 128.538 20.2479 128.46C20.2479 128.46 20.1697 128.46 20.1697 128.382V128.304C20.1697 128.148 20.0916 128.069 20.0134 127.991H19.9352V127.757C19.9352 127.679 19.857 127.601 19.7789 127.523L19.7007 127.445C19.6225 127.445 19.6225 127.445 19.5443 127.445H18.9189C18.8407 127.445 18.7625 127.523 18.6844 127.601L18.6062 127.679C18.6062 127.757 18.6062 127.757 18.6062 127.835V127.991C18.528 127.991 18.528 127.991 18.4498 128.069C18.3717 128.148 18.3717 128.148 18.3717 128.226C18.3717 128.304 18.3717 128.304 18.3717 128.382H18.2935H17.9808H17.9026H17.8244C17.7462 128.382 17.6681 128.382 17.5899 128.46C17.5117 128.46 17.5117 128.538 17.4335 128.616L17.3554 128.694V128.772V128.85C17.3554 128.928 17.3554 129.007 17.3554 129.007V129.085H11.4921C11.3357 129.319 11.1794 129.475 11.1794 129.631ZM17.5117 159.384L18.6844 159.54L20.4043 159.618H22.2023L23.1405 159.696H24.0786L26.9712 159.931V161.649L26.5021 161.571L23.2187 161.414H21.3424L20.4043 161.336H19.5443L18.1371 161.18L17.5117 161.102V159.384ZM25.7985 159.072L24.1568 158.994H23.2187L22.2805 158.915H20.4824L18.8407 158.837L18.1371 158.759L17.5899 158.681H17.5117V156.963L18.059 157.041L21.3424 157.197H23.2187L24.1568 157.275H24.9386L25.7203 157.354L26.4239 157.432L26.9712 157.51V159.15L25.7985 159.072ZM24.9386 156.729H24.0786L23.1405 156.651H21.2642L18.059 156.495L17.4335 156.417V154.777L18.6062 154.933L20.3261 155.011H23.0623L26.3457 155.167L26.893 155.245V156.963L24.9386 156.729ZM26.5021 154.464L23.2187 154.308H20.4824L18.8407 154.23L17.5899 154.074V152.434L18.7625 152.59L20.4824 152.668H21.3424L22.2805 152.746H24.1568L25.7985 152.824L26.5021 152.902L27.0493 152.98V154.699L26.5021 154.464ZM25.7985 152.121L24.1568 152.043H22.2805L21.3424 151.965H20.4824L18.8407 151.887L18.1371 151.809L17.5899 151.731H17.5117V150.013L18.059 150.091L21.3424 150.247H23.2187L26.5021 150.403L27.0493 150.482V152.121H25.7985ZM26.5021 149.857L23.2187 149.701H21.3424L18.1371 149.544L17.5117 149.466V147.826L18.6844 147.983L20.4043 148.061H23.1405L26.4239 148.217L26.9712 148.295V150.013L26.5021 149.857ZM26.5021 147.514L23.2187 147.358H20.4824L18.8407 147.28L18.1371 147.202L17.5899 147.124H17.5117V145.406L18.059 145.484L21.3424 145.64H24.1568L25.7985 145.718L27.0493 145.874V147.514H26.5021ZM25.7985 145.093L24.1568 145.015H21.3424L18.1371 144.859L17.5117 144.781V143.141L19.5443 143.375H20.4043L21.3424 143.453H23.2187L26.5021 143.61L27.0493 143.688V145.328L25.7985 145.093ZM26.5021 142.907L23.2187 142.751H21.3424L20.4043 142.672H19.5443L18.7625 142.594L18.1371 142.516L17.5117 142.438V140.798L18.6844 140.954L20.4043 141.033H22.2023L23.1405 141.111H24.0786L25.7203 141.189L26.4239 141.267L26.9712 141.345V143.063L26.5021 142.907ZM25.7985 140.486L24.1568 140.408H23.2187L22.2805 140.33H20.4824L18.8407 140.252L18.1371 140.174L17.5899 140.095H17.5117V138.377L18.059 138.456L21.3424 138.612H24.1568L25.7985 138.69L27.0493 138.846V140.486H25.7985ZM25.7985 138.143L24.1568 138.065H21.3424L18.1371 137.909L17.5117 137.831V136.191L19.5443 136.425H20.4043L21.3424 136.503H23.2187L26.5021 136.659L27.0493 136.738V138.377L25.7985 138.143ZM26.5021 135.879L23.2187 135.722H21.3424L20.4043 135.644H19.5443L18.7625 135.566L18.1371 135.488L17.5117 135.41V133.77L18.6844 133.926L20.3261 134.004V134.161C20.3261 134.317 20.4824 134.473 20.6388 134.473H23.8441C24.0004 134.473 24.1568 134.317 24.1568 134.161V134.082L25.6421 134.161L26.3457 134.239L26.893 134.317V136.035L26.5021 135.879ZM17.5117 131.505H17.9808H18.2935V131.584C18.2935 131.74 18.4498 131.896 18.6062 131.896H19.7007H20.0916C20.2479 131.896 20.3261 131.818 20.4043 131.662V133.38H20.3261L18.6844 133.302L17.9808 133.223L17.4335 133.145H17.3554V131.505H17.5117ZM23.7659 130.803H23.1405V130.725H25.0167H25.3294H26.1112V130.803H23.7659ZM21.3424 130.803H20.2479C20.2479 130.803 20.2479 130.803 20.2479 130.725L21.3424 130.803ZM22.5151 130.803H21.9678V130.725L22.5151 130.803ZM21.186 131.896H21.4206H21.6551C21.7333 131.896 21.8115 131.818 21.8896 131.74H22.4369C22.5151 131.74 22.5151 131.74 22.5932 131.74C22.5932 131.74 22.6714 131.74 22.6714 131.662C22.7496 131.74 22.8278 131.818 22.9841 131.818H23.1405H23.2187V133.38H22.1242L21.186 133.302H21.0297V131.896H21.186ZM25.1731 129.163V129.241H23.2187V129.163H23.4532C23.5314 129.163 23.5314 129.163 23.6095 129.085H25.1731V129.163ZM21.0297 126.273H21.4988V126.43V126.508C21.4206 126.586 21.3424 126.664 21.3424 126.742V126.898C21.3424 126.976 21.4206 127.132 21.4988 127.132V128.382H21.0297V126.273ZM20.5606 129.163C20.5606 129.163 20.4824 129.163 20.5606 129.163C20.4824 129.163 20.4824 129.163 20.5606 129.163C20.4824 129.085 20.4824 129.085 20.5606 129.163ZM16.5736 130.803H17.6681V130.881H17.199H16.4172V130.803H16.5736ZM25.7985 133.536L24.1568 133.458H24.0004V131.74L24.0786 131.662C24.0786 131.818 24.235 131.896 24.3913 131.896H24.7822H25.8767C26.033 131.896 26.1894 131.74 26.1894 131.584V131.505H26.5021H27.0493V133.692L25.7985 133.536ZM28.0656 130.803H27.2839H26.7366V130.725L28.0656 130.803ZM17.5117 162.43V161.649L19.5443 161.883H20.4043L21.3424 161.961H23.2187L26.5021 162.117L27.0493 162.195V162.43H17.5117ZM26.3457 124.79H26.4239C26.5021 124.79 26.5021 124.79 26.5803 124.712C26.6585 124.712 26.6585 124.633 26.6585 124.555L26.7366 124.321L27.1275 124.477L27.0493 124.712V124.79V124.868C27.0493 124.868 27.0493 124.946 27.1275 124.946C27.1275 124.946 27.1275 124.946 27.2057 124.946L29.3947 125.727L29.4728 125.805L29.551 125.883H29.6292H29.7074H29.7855L29.9419 125.961H30.0201C30.0201 125.961 30.0201 125.961 30.0983 125.961C30.411 126.117 30.6455 126.43 30.7237 126.82C30.7237 126.898 30.7237 126.898 30.7237 126.976V129.007H26.893V128.928C26.893 128.85 26.893 128.85 26.8148 128.772C26.8148 128.694 26.8148 128.694 26.7366 128.616C26.7366 128.538 26.6585 128.382 26.5803 128.382C26.5021 128.304 26.4239 128.304 26.3457 128.304H26.033C26.033 128.226 26.033 128.148 25.9549 128.069L25.8767 127.991C25.7985 127.991 25.7985 127.913 25.7203 127.913V127.757C25.7203 127.679 25.6421 127.601 25.564 127.523C25.4858 127.445 25.4076 127.445 25.3294 127.445H24.704C24.6258 127.445 24.5477 127.523 24.4695 127.601L24.3913 127.679C24.3913 127.757 24.3913 127.757 24.3913 127.835V127.991C24.3131 127.991 24.3131 127.991 24.235 128.069C24.235 128.069 24.235 128.148 24.1568 128.148L24.0786 128.226H23.4532H23.2968H23.2187C23.2187 128.226 23.1405 128.148 23.0623 128.148H22.9841V127.054C23.1405 126.976 23.2187 126.898 23.2187 126.742V126.586C23.2187 126.43 23.1405 126.351 23.0623 126.273V126.195C23.0623 126.039 22.9059 125.883 22.7496 125.883H22.5932H22.5151V123.15L26.3457 124.79ZM22.1242 121.9L18.7625 120.651C18.7625 120.651 18.7625 120.651 18.6844 120.651C18.6844 120.651 18.6844 120.651 18.6062 120.651L17.5899 120.26L15.1664 119.323V94.3341L16.1045 93.9436V111.514C16.1045 111.514 16.1045 111.514 16.1045 111.592C16.1045 112.295 16.4954 112.92 17.1208 113.31C17.1208 113.31 17.1208 113.388 17.199 113.388L17.1208 113.466C17.0426 113.623 17.1208 113.779 17.199 113.935L17.2772 114.013C17.2772 114.013 17.2772 114.013 17.3554 114.013C17.3554 114.013 17.3554 114.013 17.4335 114.013C17.4335 114.013 17.4335 114.013 17.5117 114.013H17.5899C17.6681 114.091 17.7462 114.091 17.7462 114.091H17.8244C17.9026 114.091 17.9808 114.091 17.9808 114.013C18.059 114.013 18.059 113.935 18.059 113.857V113.779C18.059 113.779 18.059 113.779 18.1371 113.779C18.3717 113.779 18.528 113.623 18.6844 113.466V113.388L18.8407 113.154L17.5117 117.293C17.5117 117.371 17.5117 117.371 17.5117 117.449C17.5117 117.605 17.5899 117.761 17.7462 117.918C17.7462 117.918 17.8244 117.996 17.9026 117.996L19.1534 118.386C19.1534 118.386 19.1534 118.386 19.2316 118.386C19.388 118.464 19.6225 118.464 19.857 118.464C20.1697 118.464 20.4824 118.386 20.717 118.23C21.186 117.996 21.4988 117.605 21.6551 117.137C21.6551 117.059 21.6551 116.98 21.6551 116.98L22.046 115.731V121.9H22.1242ZM22.3587 112.998V108.781L23.6095 109.171L22.3587 112.998ZM42.8411 94.4122C42.8411 94.4122 42.9193 94.4122 42.8411 94.4122C42.9193 94.4122 42.9193 94.4122 42.9193 94.4122C43.1539 94.4902 43.3102 94.7245 43.232 95.0369C43.232 95.115 43.232 95.115 43.232 95.1931L40.7304 107.766L41.8248 94.1779L42.8411 94.4122ZM42.9193 74.1866C42.9193 74.0304 42.8411 73.8742 42.8411 73.6399C42.8411 73.5618 42.763 73.4837 42.6848 73.4837C42.6066 73.4056 42.5284 73.3276 42.4503 73.2495C42.3721 73.2495 42.3721 73.1714 42.2939 73.1714C41.8248 72.859 41.3558 72.6247 40.8085 72.3905H42.0594C42.2157 72.3905 42.3721 72.3124 42.3721 72.1562C42.763 71.5315 42.9975 70.9067 43.0757 70.2039C43.0757 71.5315 42.9975 72.859 42.9193 74.1866ZM33.9289 80.7462C33.9289 80.9024 34.0071 81.1367 34.0071 81.2928C34.0071 81.3709 34.0853 81.449 34.1635 81.449C34.1635 81.5271 34.2416 81.5271 34.2416 81.6052L34.3198 81.6833C34.7107 81.9957 35.1798 82.2299 35.6488 82.3861C35.8052 82.4642 35.9615 82.6204 36.1961 82.6204H36.2743H36.4306C36.6651 82.6985 36.9779 82.7766 37.2906 82.7766C37.4469 82.8547 37.6814 82.8547 37.916 82.9328C37.916 82.9328 37.916 83.0109 37.9942 83.0109C34.7107 82.9328 31.5836 81.6833 29.1601 79.4187L30.88 74.1866L33.1472 71.2972V72.0781L33.3817 75.1236C32.5217 76.9978 32.7563 79.1063 33.9289 80.7462ZM39.9486 74.4208V75.2017C39.0105 74.8113 37.8378 74.8113 36.8997 75.2017V74.4208C36.9779 74.3427 36.9779 74.2646 36.9779 74.1866V74.1085H39.8704V74.1866C39.7922 74.2646 39.8704 74.3427 39.9486 74.4208ZM41.1212 83.6356L42.6066 84.1041L41.5121 87.384L29.1601 83.4013L29.0819 80.3558C31.6618 82.6204 34.9452 83.7918 38.385 83.7918C39.245 83.7918 40.1049 83.7137 40.9649 83.5575C41.0431 83.5575 41.0431 83.6356 41.1212 83.6356ZM36.3524 76.4512C36.2743 76.5293 36.1961 76.5293 36.1179 76.6074C36.1179 76.5293 36.1961 76.4512 36.3524 76.4512C36.2743 76.3731 36.2743 76.4512 36.3524 76.4512ZM40.7304 76.6074C40.6522 76.6074 40.574 76.5293 40.4958 76.4512L40.574 76.3731C40.574 76.4512 40.6522 76.5293 40.7304 76.6074ZM39.6359 76.0607C38.7759 75.7484 37.916 75.7484 37.1342 76.0607C37.1342 75.9827 37.056 75.9827 36.9779 75.9046C37.916 75.436 38.9323 75.436 39.8704 75.9046C39.7141 75.9046 39.7141 75.9827 39.6359 76.0607ZM39.0105 82.308C38.9323 82.308 38.8541 82.308 38.8541 82.3861C38.6978 82.3861 38.5414 82.4642 38.385 82.4642C38.2287 82.4642 38.0723 82.4642 37.916 82.3861C37.8378 82.308 37.8378 82.308 37.7596 82.308C37.6814 82.308 37.5251 82.308 37.4469 82.2299C37.2124 82.1519 36.9779 81.9957 36.7433 81.8395L36.6651 81.7614C36.5088 81.6052 36.3524 81.449 36.1961 81.2928L36.1179 81.2148C36.0397 81.0586 35.9615 80.9024 35.8834 80.7462C35.8834 80.6681 35.8834 80.59 35.8052 80.59C35.727 80.2777 35.6488 79.9653 35.6488 79.6529C35.6488 79.3406 35.727 79.0282 35.8052 78.7939C35.8052 78.7158 35.8834 78.7158 35.8834 78.6377C35.9615 78.4816 36.0397 78.4035 36.1179 78.2473C36.1961 78.1692 36.2743 78.0911 36.2743 78.013C36.4306 77.8568 36.5088 77.7007 36.6651 77.6226C36.7433 77.6226 36.7433 77.6226 36.7433 77.5445C36.7433 77.5445 36.7433 77.5445 36.7433 77.4664L36.8215 77.3883C36.8997 77.3883 36.9779 77.3102 36.9779 77.3102C37.2906 77.154 37.6033 76.9978 37.9942 76.9978C37.9942 76.9978 37.9942 76.9978 38.0723 76.9978H38.1505C38.2287 76.9978 38.2287 76.9978 38.3069 76.9197C38.385 76.9197 38.385 76.9978 38.4632 76.9978H38.5414C38.5414 76.9978 38.5414 76.9978 38.6196 76.9978C38.9323 77.0759 39.245 77.154 39.5577 77.3102C39.6359 77.3883 39.7141 77.4664 39.7922 77.4664C39.7922 77.4664 39.8704 77.4664 39.8704 77.5445C39.8704 77.5445 39.8704 77.5445 39.8704 77.6226L39.9486 77.7007C40.1049 77.8568 40.2613 77.9349 40.3395 78.0911C40.3395 78.1692 40.4177 78.2473 40.4958 78.3254C40.574 78.4035 40.6522 78.5597 40.7304 78.7158V78.7939C40.7304 78.872 40.8085 78.9501 40.8085 78.9501C40.8867 79.1844 40.9649 79.4967 40.9649 79.8091C40.9649 80.1215 40.8867 80.3558 40.8085 80.6681C40.7304 80.7462 40.7304 80.7462 40.7304 80.8243V80.9024C40.6522 81.0586 40.574 81.2148 40.4958 81.3709L40.4177 81.449C40.1049 81.8395 39.6359 82.2299 39.1668 82.3861C39.245 82.308 39.0886 82.308 39.0105 82.308ZM42.1376 65.5184H34.6325C37.1342 65.3623 39.6359 65.3623 42.1376 65.5184ZM41.8248 71.7657H41.434C41.7467 71.2972 41.9812 70.7505 42.0594 70.1258C42.2157 70.1258 42.3721 70.0477 42.4503 69.9696C42.3721 70.5163 42.2157 71.2191 41.8248 71.7657ZM33.7726 72.1562V70.5944C33.8508 71.141 34.0853 71.6876 34.398 72.1562C34.398 72.3124 34.5544 72.3905 34.7107 72.3905H35.9615C35.4143 72.6247 34.9452 72.859 34.4762 73.1714C34.4762 73.1714 34.4762 73.1714 34.398 73.1714L34.3198 73.2495C34.2416 73.3276 34.1635 73.4056 34.1635 73.4837C34.1635 73.4837 34.0853 73.5618 34.0853 73.6399C34.0853 73.7961 34.0071 73.9523 34.0071 74.1085L33.7726 72.1562ZM40.1831 71.7657H39.7141C40.4177 71.2972 40.9649 70.5163 40.9649 69.5792C40.9649 68.1735 39.7922 67.0022 38.385 67.0022C36.9779 67.0022 35.8052 68.1735 35.8052 69.5792C35.8052 70.5163 36.2743 71.2972 37.056 71.7657H36.587C35.9615 71.2191 35.5707 70.4382 35.5707 69.5792C35.5707 68.0174 36.8215 66.7679 38.385 66.7679C39.9486 66.7679 41.1994 68.0174 41.1994 69.5792C41.1994 70.4382 40.8085 71.2191 40.1831 71.7657ZM38.385 71.4534C37.3687 71.4534 36.5088 70.5944 36.5088 69.5792C36.5088 68.564 37.3687 67.705 38.385 67.705C39.4013 67.705 40.2613 68.564 40.2613 69.5792C40.2613 70.5944 39.4795 71.4534 38.385 71.4534ZM34.7107 69.5011V69.5792V69.6573C34.7107 69.6573 34.6325 69.6573 34.6325 69.5792C34.6325 69.5011 34.6325 69.5011 34.7107 69.5011ZM42.1376 69.5011L42.2157 69.5792C42.2157 69.6573 42.2157 69.6573 42.1376 69.6573V69.5792V69.5011ZM34.7107 70.1258C34.7889 70.7505 35.0234 71.2972 35.3361 71.7657H34.8671C34.4762 71.2191 34.3198 70.5944 34.2416 69.8915C34.398 70.0477 34.5544 70.1258 34.7107 70.1258ZM42.0594 69.0325C41.903 67.8612 41.1994 66.846 40.1831 66.2994H40.8867C41.8248 67.0022 42.3721 68.0955 42.4503 69.1887C42.3721 69.1106 42.2157 69.0325 42.0594 69.0325ZM35.8834 66.2994H36.587C36.3524 66.4555 36.1179 66.6117 35.8834 66.7679C35.8052 66.7679 35.8052 66.6898 35.727 66.6898C35.6488 66.6898 35.5707 66.7679 35.4925 66.846L34.5544 68.0955C34.8671 67.3926 35.258 66.7679 35.8834 66.2994ZM43.0757 68.8764C42.9193 67.8612 42.4503 66.9241 41.6685 66.1432H42.9975C43.0757 67.0803 43.0757 68.0174 43.0757 68.8764ZM35.1016 66.1432C34.398 66.846 33.9289 67.705 33.7726 68.564L33.8508 66.1432H35.1016ZM42.2939 80.4338C42.2157 80.5119 42.2157 80.6681 42.2157 80.7462C42.2157 80.8243 42.2157 80.9024 42.1376 80.9805C42.1376 80.9805 42.0594 81.0586 42.0594 81.1367C42.0594 81.1367 42.0594 81.1367 41.9812 81.1367C41.8248 81.2929 41.5903 81.3709 41.434 81.449C41.434 81.449 41.434 81.449 41.434 81.3709L41.5121 80.9024C41.6685 80.5119 41.7467 80.0434 41.7467 79.6529C41.7467 79.3406 41.6685 79.0282 41.5903 78.7158V78.6377C41.5903 78.0911 41.5903 77.4664 41.5121 76.9197C41.5121 76.8417 41.5121 76.8417 41.434 76.7636C41.3558 76.3731 41.1994 75.9827 40.8867 75.7484L40.8085 75.6703C40.7304 75.5922 40.6522 75.5141 40.574 75.5141V74.577C40.6522 74.4989 40.6522 74.4208 40.6522 74.3427V74.1866C40.6522 74.0304 40.574 73.9523 40.4958 73.8742V73.7961C40.4958 73.6399 40.3395 73.4837 40.1831 73.4837H36.6651C36.5088 73.4837 36.3524 73.6399 36.3524 73.7961V73.8742C36.1961 73.9523 36.1179 74.0304 36.1179 74.1866V74.4208C36.1179 74.4989 36.1961 74.6551 36.2743 74.6551V75.5141C36.1961 75.5922 36.0397 75.6703 35.9615 75.7484L35.8834 75.8265C35.6488 76.0607 35.4925 76.3731 35.4143 76.7636C35.4143 76.7636 35.4143 76.8417 35.3361 76.9197C35.1798 77.5445 35.1798 78.0911 35.1798 78.6377C35.1016 78.872 35.1016 79.0282 35.0234 79.2625C34.9452 79.3406 34.8671 79.4187 34.8671 79.5748V79.9653C34.8671 80.1215 34.9452 80.1996 35.0234 80.2777C35.0234 80.5119 35.1016 80.7462 35.1798 80.9805V81.2928V81.5271C35.0234 81.449 34.8671 81.2928 34.7107 81.2148C34.7107 81.2148 34.7107 81.2148 34.6325 81.1367C34.6325 81.0586 34.6325 81.0586 34.5544 80.9805C34.5544 80.8243 34.4762 80.7462 34.4762 80.59C34.4762 80.5119 34.4762 80.4338 34.398 80.4338C33.2253 78.9501 33.069 76.9978 33.8508 75.3579C34.0071 75.1236 34.1635 74.8113 34.3198 74.577C34.398 74.4989 34.398 74.4989 34.4762 74.3427C34.4762 74.1866 34.5544 74.0304 34.5544 73.8742C34.5544 73.8742 34.5544 73.7961 34.6325 73.7961C34.7889 73.7961 34.9452 73.718 35.1016 73.718C35.1798 73.718 35.258 73.6399 35.3361 73.5618C35.727 73.2495 36.1179 73.0933 36.587 72.9371C37.1342 73.1714 37.6814 73.4056 38.3069 73.4056C38.9323 73.4056 39.4795 73.2495 40.0268 72.9371C40.4177 73.0933 40.8867 73.3276 41.2776 73.5618C41.3558 73.6399 41.434 73.718 41.5121 73.718C41.6685 73.718 41.8248 73.7961 41.9812 73.7961C42.0594 73.7961 42.0594 73.8742 42.0594 73.8742C42.0594 73.9523 42.0594 73.9523 42.1376 73.9523C42.1376 74.0304 42.1376 74.1085 42.2157 74.1866C42.2157 74.2646 42.2157 74.4208 42.2939 74.4989C43.6229 76.2169 43.6229 78.6378 42.2939 80.4338ZM28.7692 84.3384L29.1601 84.4946C29.1601 84.4946 29.2383 84.5727 29.3165 84.5727C29.3947 84.5727 29.3947 84.5727 29.4728 84.5727L40.8867 88.243L40.9649 88.3211H41.0431L41.6685 88.4772L39.6359 113.232V113.31C39.6359 113.388 39.5577 113.466 39.4795 113.466C39.4013 113.544 39.3232 113.544 39.1668 113.544L24.1568 108.703L22.4369 108.156V104.174L28.7692 84.3384ZM20.4824 107.61C20.4824 107.688 20.4824 107.688 20.4824 107.766C20.4824 107.922 20.5606 108.078 20.6388 108.156L19.9352 110.265V110.187C19.9352 110.187 19.9352 110.108 19.857 110.108L19.0753 108.781V108.703C19.0753 108.625 18.9971 108.547 18.9971 108.469V92.6942L19.7007 92.4599H20.3261C20.4043 92.4599 20.4824 92.4599 20.5606 92.3818C20.717 92.3037 20.7952 92.2256 20.7952 92.0694L21.1079 92.1475L22.1242 91.7571V102.69L20.4824 107.61ZM27.0493 82.308L26.893 82.8547L26.6585 83.3232L26.3457 83.7918L25.9549 84.1822L25.4858 84.4946L25.0167 84.8069H24.8604V84.7289V84.6508V84.1822V83.3232V82.4642C24.8604 82.3861 24.7822 82.308 24.704 82.2299C24.7822 82.1519 24.7822 81.9957 24.7822 81.9176C24.7822 81.8395 24.7822 81.8395 24.7822 81.7614V71.4534H25.0167V71.7657C25.0167 71.8438 25.0167 71.8438 25.0167 71.9219C25.0167 71.9219 25.0167 71.9219 25.0167 72L25.0949 72.0781L25.1731 72.1562V72.9371C25.1731 73.0152 25.1731 73.0933 25.2513 73.1714C25.3294 73.2495 25.4076 73.2495 25.4858 73.2495H26.1894C26.3457 73.2495 26.5021 73.0933 26.5021 72.9371V72.1562C26.5021 72.1562 26.5021 72.1562 26.5803 72.1562L26.6585 72.0781C26.6585 72.0781 26.6585 72.0781 26.6585 72C26.6585 72 26.6585 72 26.6585 71.9219C26.6585 71.8438 26.6585 71.8438 26.6585 71.7657V71.4534C26.7366 71.4534 26.7366 71.4534 26.8148 71.3753V81.6833L27.0493 82.308ZM26.6585 63.41L26.5021 63.1757L26.033 62.7072L25.564 62.3948L25.0167 62.1605L24.3913 62.0043L23.8441 61.9263H16.2609L15.6355 62.0043L15.0882 62.1605L14.541 62.3948L14.0719 62.7072L13.6028 63.1757L13.4465 63.41H7.19231H3.51798V60.5206H41.5903V63.41H26.6585ZM45.4992 77.154L45.421 72.2343H45.4992V72.7028V77.154ZM70.2814 72.6247V72.2343H70.3596L70.2814 72.6247ZM67.7797 89.8829C67.7797 89.8829 67.7015 89.8829 67.7015 89.961H67.6233H67.5452C67.467 89.961 67.467 89.961 67.3888 90.0391C67.3106 90.0391 67.2325 90.0391 67.2325 90.1171L66.6852 90.2733V85.6659H68.4833V88.8677C68.4833 88.9458 68.4833 88.9458 68.4833 89.0239C68.4833 89.4143 68.1706 89.8048 67.7797 89.8829ZM62.6982 108.625C62.6982 108.781 62.7764 108.937 62.7764 109.015C62.7764 109.093 62.7764 109.093 62.8545 109.171L63.5581 110.343C63.1672 110.187 62.6982 110.187 62.3073 110.421C61.76 110.811 61.4473 111.436 61.6819 112.139C61.7601 112.451 61.9946 112.764 62.2291 112.92L62.1509 112.842L62.0728 112.764C61.6037 112.529 61.291 112.061 61.291 111.514V93.7093L62.1509 93.397L62.8545 93.1627V108.625H62.6982ZM62.4636 111.748C62.4636 111.436 62.6982 111.124 63.0891 111.124C63.4799 111.124 63.7145 111.358 63.7145 111.748C63.7145 112.139 63.4799 112.373 63.0891 112.373C62.6982 112.373 62.4636 112.061 62.4636 111.748ZM62.6982 113.154C62.62 113.154 62.62 113.154 62.6982 113.154L62.5418 113.076L62.3855 112.998C62.4636 113.076 62.5418 113.154 62.6982 113.154ZM70.2814 65.6746V64.8937H70.3596L70.2814 65.6746ZM69.0305 64.0347C69.1087 64.1128 69.1869 64.1909 69.2651 64.1909H69.3432V64.5033C69.3432 64.5814 69.3432 64.6594 69.4214 64.6594L69.4996 64.7375L69.5778 64.8156V65.5965C69.5778 65.5965 69.4996 65.5965 69.4996 65.6746L69.4214 65.7527C69.4214 65.7527 69.4214 65.7527 69.4214 65.8308C69.4214 65.9089 69.3432 65.9089 69.3432 65.987V66.3774H69.1087V65.5965C69.1087 65.5184 69.1869 65.5184 69.1869 65.4404C69.1869 64.8937 68.7178 64.3471 68.1706 64.3471C68.0924 64.3471 68.0924 64.3471 68.0142 64.4252H60.9001C60.8219 64.4252 60.8219 64.3471 60.7437 64.3471C60.1965 64.3471 59.7274 64.8156 59.7274 65.4404V66.3774H59.4147V66.0651C59.4147 65.987 59.4147 65.987 59.4147 65.9089C59.4147 65.9089 59.4147 65.9089 59.4147 65.8308L59.3366 65.7527C59.3366 65.7527 59.3366 65.7527 59.2584 65.7527V64.8937H59.3366C59.4147 64.8937 59.4147 64.8156 59.4147 64.8156C59.4147 64.7375 59.4929 64.7375 59.4929 64.6594V64.3471H59.4147C59.4929 64.3471 59.6493 64.269 59.6493 64.1909H69.0305V64.0347ZM64.5744 91.1323L63.3236 91.6009V86.9935C63.3236 86.4469 63.0109 85.9783 62.62 85.744H64.5744V91.1323ZM62.62 91.8352C62.62 91.7571 62.6982 91.7571 62.6982 91.679V91.7571L62.62 91.8352ZM68.4833 82.7766V83.0109H65.6689V82.7766H68.0924H68.4833ZM62.6982 90.9762C62.5418 90.6638 62.2291 90.5076 61.9164 90.5076C61.6037 90.5076 61.291 90.7419 61.1346 90.9762V87.1497C61.2128 87.5401 61.5255 87.7744 61.9164 87.7744C62.2291 87.7744 62.4636 87.6182 62.62 87.384V90.9762H62.6982ZM59.3366 84.4946H59.0238V84.026C59.0238 84.2603 59.1802 84.4165 59.3366 84.4946ZM68.0924 65.4404V81.7614C68.0142 81.7614 68.0142 81.7614 67.9361 81.8395H60.8219C60.7437 81.8395 60.7437 81.7614 60.6656 81.7614C60.6656 81.6833 60.6656 81.6833 60.5874 81.6052V65.5965C60.5874 65.5184 60.5874 65.5184 60.6656 65.4404H68.0924ZM61.8382 85.3536V85.1974H62.3073V85.3536C62.3073 85.4317 62.3073 85.5098 62.3855 85.5879C62.2291 85.5098 62.0728 85.5098 61.9164 85.5098C61.8382 85.5098 61.8382 85.5098 61.7601 85.5098C61.8382 85.5098 61.8382 85.4317 61.8382 85.3536ZM63.0891 83.3232C63.0109 83.4794 62.9327 83.6356 62.9327 83.7918C62.9327 84.1041 63.0891 84.3384 63.3236 84.4946H60.3529C60.5874 84.3384 60.7437 84.1041 60.7437 83.7918C60.7437 83.6356 60.6656 83.4794 60.5874 83.3232H63.0891ZM59.0238 83.5575V83.3232H59.1802C59.102 83.4013 59.0238 83.4794 59.0238 83.5575ZM68.4833 83.8699H67.9361H66.9197L66.7634 83.7918H66.4507L66.2943 83.8699H65.6689V83.6356H68.4833V83.8699ZM61.1346 91.7571C61.2128 91.9913 61.4473 92.1475 61.6819 92.2256L61.5255 92.3037C61.5255 92.3037 61.4473 92.3037 61.4473 92.3818C61.4473 92.3818 61.4473 92.3818 61.4473 92.4599V92.538V92.6161C61.4473 92.6161 61.4473 92.6161 61.4473 92.6942L61.5255 92.9284L61.2128 93.0846V91.7571H61.1346ZM58.4766 72.2343V72.6247H58.3984L58.4766 72.2343ZM58.3984 64.8937L58.4766 65.6746H58.3984V64.8937ZM57.8512 70.8286V67.0803H59.6493V70.8286H57.8512ZM61.2128 85.744C60.7437 85.9783 60.5092 86.4469 60.5092 86.9935V90.82H59.962C59.962 90.82 59.962 90.7419 59.8838 90.7419C59.8838 90.7419 59.8838 90.7419 59.8056 90.7419C59.7274 90.7419 59.7274 90.6638 59.6493 90.6638H59.5711V90.5857C59.5711 90.5857 59.5711 90.5857 59.5711 90.5076C59.5711 90.4295 59.5711 90.4295 59.4929 90.3514L59.0238 85.8221H61.2128V85.744ZM65.5126 91.3666L65.4344 91.1323C65.4344 91.0542 65.3562 91.0542 65.3562 91.0542C65.3562 91.0542 65.278 91.0542 65.278 90.9762V85.6659H66.4507V90.3514L66.0598 90.5076H65.9816C65.9816 90.5076 65.9816 90.5076 65.9035 90.5076C65.9035 90.5076 65.9034 90.5857 65.8253 90.5857V90.6638C65.8253 90.6638 65.8253 90.6638 65.8253 90.7419V90.82C65.8253 90.82 65.8253 90.82 65.8253 90.8981L65.9035 91.1323L65.5126 91.3666ZM69.1087 67.0803H70.9068V70.8286H69.1087V67.0803ZM71.2195 66.3774V66.0651C71.2195 65.987 71.2195 65.987 71.2195 65.9089L71.1413 65.8308C71.1413 65.8308 71.1413 65.7527 71.0631 65.7527C71.0631 65.7527 71.0631 65.7527 70.985 65.7527V64.9718C71.0631 64.9718 71.0631 64.8937 71.0631 64.8937C71.0631 64.8156 71.1413 64.8156 71.1413 64.7375V64.5814L71.2977 65.0499L71.3759 65.5965V66.6117C71.3759 66.4555 71.2977 66.3774 71.2195 66.3774ZM58.0075 63.41L58.4766 62.9414L58.9457 62.6291L59.4929 62.3948L60.0402 62.2386L60.5874 62.1605H68.1706L68.796 62.2386L69.3432 62.3948L69.8123 62.6291L70.2814 62.9414L70.6723 63.3319L70.7504 63.41H58.0075ZM57.3821 64.8937L57.4603 64.5814C57.4603 64.6594 57.4603 64.6594 57.5385 64.7375L57.6167 64.8156L57.6948 64.8937V65.6746C57.6948 65.6746 57.6167 65.6746 57.6167 65.7527L57.5385 65.8308C57.5385 65.8308 57.5385 65.8308 57.5385 65.9089C57.5385 65.9089 57.5385 65.9089 57.5385 65.987C57.5385 66.0651 57.5385 66.0651 57.5385 66.1432V66.4555C57.4603 66.4555 57.3821 66.4555 57.3821 66.5336V65.5184V64.8937ZM57.773 83.4013L57.5385 82.9328L57.3821 82.3861L57.3039 81.7614V71.4534C57.3821 71.5315 57.3821 71.5315 57.4603 71.5315V71.8438C57.4603 71.9219 57.4603 71.9219 57.4603 72C57.4603 72 57.4603 72 57.4603 72.0781C57.4603 72.0781 57.4603 72.0781 57.4603 72.1562L57.5385 72.2343L57.6167 72.3124V73.0933C57.6167 73.2495 57.773 73.4056 57.9294 73.4056H58.5548H58.633C58.7893 73.4056 58.9457 73.2495 58.9457 73.0933V72.3124C58.9457 72.3124 58.9457 72.3124 59.0238 72.3124L59.102 72.2343C59.102 72.2343 59.102 72.2343 59.102 72.1562C59.102 72.0781 59.102 72.0781 59.102 72V71.6876H59.4147V81.9176C59.4147 81.9957 59.4147 81.9957 59.4147 82.0738C59.4147 82.1518 59.4147 82.2299 59.4929 82.308H58.0857C57.9294 82.308 57.773 82.4642 57.773 82.6204V83.7918V83.4013ZM55.5059 129.631V129.709H55.0368V129.631C55.0368 129.475 54.8805 129.319 54.7241 129.319H52.2224V126.82C52.2224 126.664 52.0661 126.508 51.9097 126.508H51.8315V126.039H51.9097C52.0661 126.039 52.2224 125.883 52.2224 125.727V104.954C52.2224 104.798 52.0661 104.642 51.9097 104.642H51.8315V104.174H51.9097C52.0661 104.174 52.2224 104.017 52.2224 103.861V89.4143C52.2224 89.2581 52.0661 89.102 51.9097 89.102H51.8315V88.6334H51.9097C52.0661 88.6334 52.2224 88.4772 52.2224 88.3211V85.8221H53.5514C53.7078 85.8221 53.8641 85.666 53.8641 85.5098V85.1193H54.3332V85.3536C54.3332 85.5098 54.4896 85.6659 54.6459 85.6659H58.3202L58.8675 90.5076V90.5857C58.7893 90.5857 58.7111 90.6638 58.633 90.7419H58.3202C58.3202 90.7419 58.3203 90.6638 58.2421 90.6638C58.1639 90.5857 58.0857 90.5076 58.0075 90.5076H57.8512C57.773 90.5076 57.6948 90.5857 57.6167 90.5857C57.6167 90.5857 57.6167 90.5857 57.5385 90.5857L57.4603 90.6638C57.4603 90.7419 57.4603 90.7419 57.4603 90.82V91.679C57.4603 91.7571 57.5385 91.8352 57.6167 91.9132C57.6167 91.9132 57.6167 91.9132 57.6948 91.9132C57.773 91.9132 57.773 91.9913 57.8512 91.9913H58.1639C58.2421 91.9913 58.3202 91.9132 58.3984 91.8352L58.4766 91.7571H58.7893C58.8675 91.8352 58.9457 91.9132 59.0238 91.9132C59.0238 91.9132 59.0238 91.9132 59.0238 91.9913C59.0238 92.0694 59.102 92.1475 59.1802 92.2256C59.2584 92.3037 59.3366 92.3818 59.4147 92.3818H60.5092V92.4599L59.0238 93.0065C58.633 93.1627 58.3984 93.4751 58.3984 93.8655V96.6768C58.3984 96.833 58.5548 96.9892 58.7111 96.9892H58.9457V97.4577H58.7111C58.5548 97.4577 58.3984 97.6139 58.3984 97.7701V115.575C58.3984 115.731 58.5548 115.887 58.7111 115.887H58.9457V116.356H58.7111C58.5548 116.356 58.3984 116.512 58.3984 116.668V119.479V119.558C58.4766 119.87 58.633 120.182 58.9457 120.338C58.9457 120.338 58.9457 120.338 59.0238 120.338L61.6037 121.276H61.6819C61.7601 121.276 61.76 121.276 61.8382 121.276C61.8382 121.276 61.8382 121.276 61.9164 121.276L61.9946 121.197L62.0728 120.963L62.4636 121.119L62.3855 121.354C62.3855 121.432 62.3855 121.432 62.3855 121.51V121.588C62.3855 121.588 62.3855 121.588 62.3855 121.666C62.3855 121.666 62.3855 121.666 62.3855 121.744C62.3855 121.744 62.3855 121.744 62.3855 121.822C62.3855 121.822 62.3855 121.822 62.4636 121.822C62.4636 121.822 62.4636 121.822 62.5418 121.9L66.3725 123.306V125.883C66.3725 125.805 66.2943 125.805 66.2162 125.727V125.649V125.571C66.2162 125.336 65.9816 125.102 65.7471 125.102C65.6689 125.102 65.6689 125.102 65.5907 125.18H65.278C65.1999 125.18 65.1999 125.102 65.1217 125.102C64.8871 125.102 64.6526 125.336 64.6526 125.571V125.649V125.727C64.5744 125.805 64.4963 125.883 64.4963 125.961V128.772C64.4963 128.694 64.4181 128.694 64.3399 128.616C64.4181 128.46 64.3399 128.304 64.1835 128.226H64.1054V127.991C64.1054 127.913 64.0272 127.835 63.949 127.757L63.8708 127.679C63.7927 127.679 63.7927 127.679 63.7145 127.679H63.0891C63.0109 127.679 62.9327 127.757 62.8545 127.835L62.7764 127.913C62.7764 127.991 62.7764 127.991 62.7764 128.069V128.226C62.6982 128.226 62.6982 128.226 62.62 128.304C62.5418 128.382 62.4636 128.538 62.5418 128.616H62.4636H62.2291H62.1509H62.0728C61.9946 128.616 61.9164 128.616 61.8382 128.694C61.76 128.694 61.7601 128.772 61.6819 128.85L61.6037 128.928V129.007V129.085C61.6037 129.163 61.6037 129.241 61.6037 129.241V129.319H55.7404C55.6622 129.319 55.5059 129.475 55.5059 129.631ZM61.8382 159.306L63.0891 159.462L64.7308 159.54H66.5289L67.5452 159.618H68.4051L71.2977 159.853V161.571L70.8286 161.492L67.5452 161.336H65.6689L64.7308 161.258H63.8708L63.0891 161.18L62.3855 161.102L61.7601 161.024V159.306H61.8382ZM70.125 159.072L68.4833 158.994H67.6233L66.607 158.915H64.809L63.1672 158.837L62.4636 158.759L61.9164 158.681H61.8382V156.963L62.3855 157.041L65.6689 157.197H67.5452L68.4833 157.275H69.3432L70.125 157.354L70.8286 157.432L71.3759 157.51V159.15L70.125 159.072ZM69.3432 156.729H68.4833L67.5452 156.651H65.6689L62.4636 156.495L61.8382 156.417V154.777L63.0891 154.933L64.7308 155.011H67.5452L70.7504 155.167L71.2977 155.245V156.885L69.3432 156.729ZM70.8286 154.464L67.5452 154.308H64.7308L63.0891 154.23L61.8382 154.074V152.434L63.0891 152.59L64.7308 152.668H65.5907L66.5289 152.746H68.4051L70.0468 152.824L70.7504 152.902L71.2977 152.98V154.699L70.8286 154.464ZM70.125 152.121L68.4833 152.043H66.607L65.6689 151.965H64.809L63.1672 151.887L62.4636 151.809L61.9164 151.731H61.8382V150.013L62.3855 150.091L65.6689 150.247H67.5452L70.7504 150.403L71.2977 150.482V152.121H70.125ZM70.8286 149.857L67.5452 149.701H65.6689L62.4636 149.544L61.8382 149.466V147.826L63.0891 147.983L64.7308 148.061H67.5452L70.7504 148.217L71.2977 148.295V150.013L70.8286 149.857ZM70.8286 147.514L67.5452 147.358H64.7308L63.0891 147.28L62.3855 147.202L61.8382 147.124H61.7601V145.406L62.3073 145.484L65.5907 145.64H68.4051L69.2651 145.718L71.2195 145.952V147.592L70.8286 147.514ZM70.125 145.093L68.4833 145.015H65.6689L62.4636 144.859L61.8382 144.781V143.141L63.8708 143.375H64.7308L65.6689 143.453H67.5452L70.7504 143.61L71.2977 143.688V145.328L70.125 145.093ZM70.8286 142.907L67.5452 142.751H65.6689L64.7308 142.672H63.8708L63.0891 142.594L62.3855 142.516L61.7601 142.438V140.798L63.0109 140.954L64.6526 141.033H66.4507L67.467 141.111H68.3269L69.9687 141.189L70.6723 141.267L71.2195 141.345V143.063L70.8286 142.907ZM70.125 140.486L68.4833 140.408H67.6233L66.607 140.33H64.809L63.1672 140.252L62.4636 140.174L61.9164 140.095H61.8382V138.377L62.3855 138.456L65.6689 138.612H68.4833L70.125 138.69L71.3759 138.846V140.486H70.125ZM70.125 138.143L68.4833 138.065H65.6689L62.4636 137.909L61.8382 137.831V136.191L63.8708 136.425H64.7308L65.6689 136.503H67.5452L70.7504 136.659L71.2977 136.738V138.377L70.125 138.143ZM70.8286 135.879L67.5452 135.722H65.6689L64.7308 135.644H63.8708L63.0891 135.566L62.3855 135.488L61.7601 135.41V133.77L63.0109 133.926L64.5744 134.004V134.161C64.5744 134.317 64.7308 134.473 64.8871 134.473H68.0924C68.2488 134.473 68.4051 134.317 68.4051 134.161V134.082L69.8905 134.161L70.5941 134.239L71.1413 134.317V136.035L70.8286 135.879ZM61.8382 131.505H62.3855H62.6982V131.584C62.6982 131.74 62.8545 131.896 63.0109 131.896H64.1054H64.4963C64.6526 131.896 64.7308 131.818 64.809 131.662V133.38H64.7308L63.0891 133.302L62.3855 133.223L61.8382 133.145H61.7601V131.505H61.8382ZM65.6689 130.803H64.5744C64.5744 130.803 64.5744 130.803 64.5744 130.725L65.6689 130.803ZM66.8416 130.803H66.2943V130.725L66.8416 130.803ZM65.5126 131.896H65.7471C65.7471 131.896 65.7471 131.896 65.8253 131.896H66.0598C66.138 131.896 66.2162 131.818 66.2943 131.74H66.8416C66.9198 131.74 66.9197 131.74 66.9979 131.74C66.9979 131.74 67.0761 131.74 67.0761 131.662C67.1543 131.74 67.2325 131.818 67.3888 131.818H67.5452H67.6233V133.38H66.5289L65.5907 133.302H65.4344V131.896H65.5126ZM69.4996 129.163V129.241H67.5452V129.163H67.8579C67.9361 129.163 67.9361 129.163 68.0142 129.085H69.4996V129.163ZM65.3562 126.273H65.8253V126.43V126.508C65.7471 126.586 65.6689 126.664 65.6689 126.742V126.898C65.6689 126.976 65.7471 127.132 65.8253 127.132V128.382H65.3562V126.273ZM68.0924 130.803H67.467V130.725H69.2651H69.5778H70.4377V130.803H68.0924ZM60.9001 130.803H61.9946V130.881H61.4473H60.6656V130.803H60.9001ZM70.125 133.536L68.4833 133.458H68.3269V131.74C68.3269 131.74 68.3269 131.662 68.4051 131.662C68.4833 131.818 68.5615 131.896 68.7178 131.896H69.1087H70.2032C70.3596 131.896 70.5159 131.74 70.5159 131.584V131.505H70.8286H71.2977V133.692L70.125 133.536ZM72.3922 130.803H71.6104H71.1413V130.725L72.3922 130.803ZM61.8382 162.43V161.649L63.8708 161.883H64.7308L65.6689 161.961H67.5452L70.7504 162.117L71.2977 162.195V162.43H61.8382ZM70.6723 124.79H70.7504C70.8286 124.79 70.8286 124.79 70.9068 124.712C70.985 124.712 70.985 124.633 70.985 124.555L71.0631 124.321L71.454 124.477L71.3759 124.712C71.3759 124.712 71.3759 124.712 71.3759 124.79V124.868C71.3759 124.868 71.3759 124.868 71.3759 124.946V125.024C71.3759 125.024 71.3759 125.102 71.454 125.102L71.5322 125.18L73.7212 125.961L73.7994 126.039L73.8775 126.117C73.9557 126.117 73.9557 126.117 74.0339 126.117L74.1121 126.195L74.2684 126.273H74.3466C74.3466 126.273 74.3466 126.273 74.4248 126.273C74.7375 126.43 74.972 126.742 75.0502 127.132C75.0502 127.21 75.0502 127.21 75.0502 127.289V129.319H71.2195V129.241C71.2195 129.163 71.2195 129.163 71.2195 129.085C71.2195 129.007 71.2195 129.007 71.2195 129.007L71.1413 128.928C71.1413 128.928 71.1413 128.85 71.0631 128.85C70.985 128.772 70.9068 128.694 70.8286 128.694H70.7504H70.4377C70.4377 128.694 70.4377 128.694 70.3596 128.694C70.3596 128.616 70.3596 128.46 70.2814 128.382C70.2032 128.382 70.2032 128.304 70.125 128.304V128.148C70.125 128.069 70.0468 127.991 69.9687 127.913C69.8905 127.835 69.8123 127.835 69.7341 127.835H69.1087C69.0305 127.835 68.9524 127.913 68.8742 127.991L68.796 128.069C68.796 128.148 68.796 128.148 68.796 128.226V128.382C68.7178 128.382 68.7178 128.382 68.7178 128.46C68.6397 128.46 68.6397 128.538 68.6397 128.616C68.6397 128.616 68.6396 128.694 68.5615 128.694H67.7015H67.6233H67.5452H67.467C67.3888 128.616 67.3888 128.616 67.3106 128.616H67.2325V127.523C67.3888 127.445 67.467 127.367 67.467 127.21V127.054C67.467 126.898 67.3888 126.82 67.3106 126.742V126.664C67.3106 126.508 67.1543 126.351 66.9979 126.351H66.8416H66.7634V123.618L70.6723 124.79ZM63.0891 120.573C63.0109 120.573 63.0109 120.573 63.0891 120.573C63.0109 120.573 63.0109 120.573 63.0109 120.573L61.9946 120.182L59.5711 119.245V94.256L60.5092 93.8655V111.436C60.5092 111.436 60.5092 111.436 60.5092 111.514C60.5092 112.217 60.9001 112.842 61.5255 113.232C61.5255 113.232 61.5255 113.31 61.6037 113.31L61.5255 113.388C61.4473 113.466 61.5255 113.701 61.6037 113.779L61.6819 113.857H61.7601C61.7601 113.857 61.8382 113.857 61.8382 113.935H61.9164C61.9946 114.013 62.0728 114.013 62.0728 114.013H62.1509C62.2291 114.013 62.2291 114.013 62.3073 114.013L62.3855 113.935L62.4636 113.779C62.4636 113.779 62.4636 113.779 62.4636 113.701C62.62 113.701 62.7764 113.623 62.9327 113.544C63.0109 113.544 63.0109 113.466 63.0891 113.388L63.2454 112.998C63.7927 112.842 64.2617 112.295 64.2617 111.67C64.2617 111.358 64.1835 111.124 64.0272 110.889L64.1054 110.733L64.1835 110.655C64.2617 110.499 64.1835 110.343 64.1054 110.187C64.1054 110.187 64.1054 110.108 64.0272 110.108L63.2454 108.781V108.703C63.2454 108.625 63.1672 108.547 63.1672 108.469V92.6942L63.8708 92.4599H64.4963C64.5744 92.4599 64.6526 92.4599 64.7308 92.3818C64.809 92.3037 64.9653 92.2256 64.9653 92.0694C64.9653 92.0694 64.9653 92.0694 64.9653 91.9913L65.1217 91.9132L66.138 91.5228V121.666L63.0891 120.573ZM71.3759 82.308L71.2195 82.8547L70.985 83.3232L70.6723 83.7918L70.2814 84.1822L69.8123 84.4946L69.3432 84.8069H69.1869V84.7289V84.6508V84.1822V83.3232V82.4642C69.1869 82.3861 69.1869 82.308 69.1087 82.2299C69.1869 82.0738 69.2651 81.9176 69.2651 81.7614C69.2651 81.6833 69.2651 81.6833 69.1869 81.6052V71.4534H69.4214V71.7657C69.4214 71.8438 69.4214 71.8438 69.4996 71.9219C69.4996 71.9219 69.4996 71.9219 69.4996 72L69.5778 72.0781L69.656 72.1562V72.9371C69.656 73.0152 69.656 73.0152 69.656 73.0933C69.656 73.1714 69.7341 73.2495 69.8123 73.2495C69.8123 73.2495 69.8905 73.2495 69.9687 73.2495H70.6723C70.8286 73.2495 70.985 73.0933 70.985 72.9371V72.1562L71.0631 72.0781L71.1413 72C71.1413 71.9219 71.1413 71.9219 71.1413 71.8438V71.5315C71.2195 71.5315 71.2195 71.5315 71.2977 71.4534V81.7614L71.3759 82.308ZM70.985 63.41L70.8286 63.1757L70.3596 62.7853L69.8905 62.4729L69.3432 62.2386L68.796 62.0043L68.1706 61.9263H60.5874L60.0402 62.0043L59.4147 62.1605L58.8675 62.3948L58.3984 62.7072L57.8512 63.1757L57.6948 63.41H51.4407H47.7663V60.5206H85.8387V63.41H70.985ZM78.0991 72.1562V70.5944C78.1773 71.141 78.4118 71.6876 78.7245 72.1562C78.7245 72.3124 78.8809 72.3905 79.0372 72.3905H80.2881C79.7408 72.6247 79.2718 72.859 78.8027 73.1714C78.7245 73.1714 78.7245 73.2495 78.7245 73.2495C78.6463 73.3276 78.6463 73.3276 78.6463 73.4056C78.5682 73.4837 78.5682 73.5618 78.49 73.6399L78.4118 74.1085L78.0991 72.1562ZM84.2751 74.4208V75.2017C83.337 74.8113 82.1643 74.8113 81.2262 75.2017V74.4208C81.3044 74.3427 81.3044 74.2646 81.3044 74.1866V74.1085H84.1969V74.1866C84.1188 74.2646 84.1969 74.3427 84.2751 74.4208ZM83.337 82.308C83.2588 82.308 83.1806 82.308 83.1806 82.3861C83.0243 82.3861 82.8679 82.4642 82.7116 82.4642C82.5552 82.4642 82.3988 82.4642 82.2425 82.3861C82.1643 82.308 82.1643 82.308 82.0861 82.308C82.008 82.308 81.8516 82.308 81.7734 82.2299C81.5389 82.1519 81.3044 81.9957 81.0698 81.8395L80.9917 81.7614C80.8353 81.6052 80.6008 81.449 80.5226 81.2148L80.4444 81.1367C80.3662 80.9805 80.2881 80.8243 80.2099 80.6681C80.2099 80.59 80.2099 80.5119 80.1317 80.5119C80.0535 80.1996 79.9754 79.8872 79.9754 79.5748C79.9754 79.2625 80.0535 78.9501 80.1317 78.7158C80.1317 78.6378 80.2099 78.6377 80.2099 78.5597C80.2881 78.4035 80.3662 78.3254 80.4444 78.1692C80.5226 78.0911 80.6008 78.013 80.6008 77.9349C80.7571 77.7788 80.8353 77.6226 80.9917 77.5445C81.0698 77.5445 81.0698 77.5445 81.0698 77.4664C81.0698 77.4664 81.0698 77.4664 81.0698 77.3883L81.148 77.3102C81.2262 77.3102 81.3044 77.2321 81.3044 77.2321C81.6171 77.0759 81.9298 76.9197 82.3207 76.9197C82.3207 76.9197 82.3207 76.9197 82.3989 76.9197H82.477C82.5552 76.9197 82.5552 76.9197 82.6334 76.8417C82.7116 76.8417 82.7116 76.9197 82.7897 76.9197H82.8679C82.8679 76.9197 82.8679 76.9197 82.9461 76.9197C83.337 76.9978 83.6497 77.0759 83.9624 77.2321C84.0406 77.3102 84.0406 77.3102 84.1188 77.3102C84.1188 77.3102 84.1969 77.3102 84.1969 77.3883C84.1969 77.3883 84.1969 77.3883 84.1969 77.4664L84.2751 77.5445C84.4315 77.7007 84.5878 77.7788 84.666 77.9349C84.666 78.013 84.7442 78.0911 84.8223 78.1692C84.9005 78.2473 84.9787 78.4035 85.0569 78.5597V78.6377C85.0569 78.7158 85.1351 78.7939 85.1351 78.7939C85.2132 79.0282 85.2914 79.3406 85.2914 79.6529C85.2914 79.9653 85.2132 80.1996 85.1351 80.5119C85.0569 80.59 85.0569 80.59 85.0569 80.6681V80.7462C84.9787 80.9024 84.9005 81.0586 84.8223 81.2148L84.7442 81.2928C84.4315 81.6833 83.9624 82.0738 83.4933 82.2299C83.5715 82.308 83.4152 82.308 83.337 82.308ZM80.6789 76.4512C80.6008 76.5293 80.5226 76.5293 80.4444 76.6074C80.4444 76.5293 80.5226 76.4512 80.6789 76.4512C80.6008 76.3731 80.6008 76.4512 80.6789 76.4512ZM85.0569 76.6074C84.9787 76.6074 84.9005 76.5293 84.8223 76.4512L84.9005 76.3731C84.9005 76.4512 84.9787 76.5293 85.0569 76.6074ZM84.0406 76.0607C83.1806 75.7484 82.3207 75.7484 81.4607 76.0607C81.4607 75.9827 81.3825 75.9827 81.3044 75.9046C82.2425 75.436 83.2588 75.436 84.1969 75.9046C84.1188 75.9046 84.0406 75.9827 84.0406 76.0607ZM86.6204 80.4338C86.5423 80.5119 86.5422 80.6681 86.5422 80.7462C86.5422 80.8243 86.5422 80.9024 86.4641 80.9805C86.4641 80.9805 86.3859 81.0586 86.3859 81.1367C86.3859 81.1367 86.3859 81.1367 86.3077 81.1367C86.1514 81.2929 85.9168 81.3709 85.7605 81.449C85.7605 81.449 85.7605 81.449 85.7605 81.3709L85.8387 80.9024C85.995 80.5119 86.0732 80.0434 86.0732 79.6529C86.0732 79.3406 85.995 79.0282 85.9168 78.7158V78.6377C85.9168 78.0911 85.9168 77.4664 85.8387 76.9197C85.8387 76.8417 85.8387 76.8417 85.7605 76.7636C85.6823 76.3731 85.5259 75.9827 85.2132 75.7484L85.1351 75.6703C85.0569 75.5922 84.9787 75.5141 84.9005 75.5141V74.6551C84.9787 74.577 85.0569 74.4989 85.0569 74.4208V74.1866C85.0569 74.0304 84.9787 73.8742 84.8223 73.8742V73.7961C84.8223 73.6399 84.666 73.4837 84.5096 73.4837H80.9917C80.8353 73.4837 80.6789 73.6399 80.6789 73.7961V73.8742C80.5226 73.9523 80.4444 74.0304 80.4444 74.1866V74.4208C80.4444 74.4989 80.5226 74.6551 80.6008 74.6551V75.5141C80.5226 75.5922 80.3662 75.6703 80.2881 75.7484L80.2099 75.8265C79.8972 76.1388 79.7408 76.4512 79.6627 76.9197L79.5845 78.4816C79.5063 78.7158 79.5063 78.872 79.4281 79.1063C79.3499 79.1844 79.2718 79.2625 79.2718 79.4187V79.8091C79.2718 79.9653 79.3499 80.0434 79.4281 80.1215C79.4281 80.3558 79.5063 80.59 79.5845 80.8243V81.1367V81.3709C79.4281 81.2928 79.2718 81.1367 79.1154 81.0586C79.1154 81.0586 79.1154 81.0586 79.0372 80.9805C79.0372 80.9024 78.9591 80.9024 78.9591 80.8243L78.8809 80.5119C78.8809 80.4338 78.8809 80.3558 78.8027 80.2777C77.63 78.7939 77.4737 76.8417 78.2555 75.2017C78.4118 74.8894 78.5682 74.577 78.8027 74.3427C78.8027 74.2646 78.8809 74.2646 78.8809 74.1866L78.9591 73.8742C78.9591 73.8742 79.0372 73.7961 79.0372 73.718C79.0372 73.6399 79.1154 73.6399 79.1154 73.6399C79.2718 73.6399 79.4281 73.5618 79.5063 73.5618C79.5845 73.5618 79.6627 73.4837 79.7408 73.4056C80.1317 73.0933 80.5226 72.9371 80.9917 72.7809C81.5389 73.0152 82.0861 73.2495 82.7116 73.2495C83.337 73.2495 83.8842 73.0933 84.4315 72.7809C84.8223 72.9371 85.2914 73.1714 85.6823 73.4056C85.7605 73.4837 85.8387 73.5618 85.9168 73.5618C86.0732 73.5618 86.2295 73.6399 86.3859 73.6399C86.4641 73.6399 86.4641 73.718 86.4641 73.718C86.4641 73.718 86.4641 73.7961 86.5422 73.7961C86.5422 73.8742 86.5423 73.9523 86.6204 74.0304C86.6204 74.1085 86.6204 74.2646 86.6986 74.3427C87.9494 76.2169 87.9494 78.6378 86.6204 80.4338ZM87.4022 68.8764C87.4022 68.7202 87.324 68.564 87.324 68.4078L87.4022 68.1735C87.4022 68.4078 87.4022 68.6421 87.4022 68.8764Z" fill="#646677"/>
<path d="M56.4438 124.79C56.4438 124.165 55.9748 123.696 55.3494 123.696C54.7239 123.696 54.2549 124.165 54.2549 124.79C54.2549 125.414 54.7239 125.883 55.3494 125.883C55.9748 125.883 56.4438 125.414 56.4438 124.79ZM55.3494 125.18C55.1148 125.18 54.8803 124.946 54.8803 124.711C54.8803 124.477 55.1148 124.243 55.3494 124.243C55.5839 124.243 55.8184 124.477 55.8184 124.711C55.7402 125.024 55.5839 125.18 55.3494 125.18Z" fill="#646677"/>
<path d="M55.3494 90.6638C55.9748 90.6638 56.4438 90.1953 56.4438 89.5706C56.4438 88.9458 55.9748 88.4773 55.3494 88.4773C54.7239 88.4773 54.2549 88.9458 54.2549 89.5706C54.2549 90.1953 54.7239 90.6638 55.3494 90.6638ZM55.3494 89.102C55.5839 89.102 55.8184 89.3363 55.8184 89.5706C55.8184 89.8048 55.5839 90.0391 55.3494 90.0391C55.1148 90.0391 54.8803 89.8048 54.8803 89.5706C54.8803 89.3363 55.1148 89.102 55.3494 89.102Z" fill="#646677"/>
<path d="M38.3848 68.0173C37.5249 68.0173 36.8213 68.7202 36.8213 69.5011C36.8213 70.282 37.5249 71.0629 38.3848 71.0629C39.2448 71.0629 39.9484 70.3601 39.9484 69.5011C39.9484 68.6421 39.2448 68.0173 38.3848 68.0173ZM38.3848 68.9544C38.6975 68.9544 38.9321 69.1887 38.9321 69.5011C38.9321 69.8134 38.7757 70.0477 38.463 70.1258C38.3848 70.1258 38.3848 70.1258 38.3067 70.2039C38.3067 70.2039 38.2285 70.1258 38.1503 70.1258C37.8376 70.0477 37.6812 69.8134 37.6812 69.5011C37.8376 69.1887 38.0721 68.9544 38.3848 68.9544Z" fill="#646677"/>
<path d="M38.3855 77.0759C36.9783 77.0759 35.8057 78.2473 35.8057 79.6529C35.8057 81.0586 36.9783 82.2299 38.3855 82.2299C39.7927 82.2299 40.9654 81.0586 40.9654 79.6529C40.9654 78.2473 39.7927 77.0759 38.3855 77.0759ZM38.3855 81.2929C37.5256 81.2929 36.7438 80.59 36.7438 79.6529C36.7438 78.7939 37.4474 78.013 38.3855 78.013C39.3236 78.013 40.0272 78.7158 40.0272 79.6529C40.0272 80.59 39.3236 81.2929 38.3855 81.2929Z" fill="#646677"/>
<path d="M38.3845 80.7462C38.9458 80.7462 39.4008 80.2917 39.4008 79.731C39.4008 79.1703 38.9458 78.7158 38.3845 78.7158C37.8232 78.7158 37.3682 79.1703 37.3682 79.731C37.3682 80.2917 37.8232 80.7462 38.3845 80.7462Z" fill="#646677"/>
<path d="M12.1177 124.79C12.1177 124.165 11.6486 123.696 11.0232 123.696C10.3978 123.696 9.92871 124.165 9.92871 124.79C9.92871 125.414 10.3978 125.883 11.0232 125.883C11.6486 125.883 12.1177 125.414 12.1177 124.79ZM11.0232 125.18C10.7887 125.18 10.5541 124.946 10.5541 124.711C10.5541 124.477 10.7887 124.243 11.0232 124.243C11.2577 124.243 11.4923 124.477 11.4923 124.711C11.4141 125.024 11.2577 125.18 11.0232 125.18Z" fill="#646677"/>
<path d="M11.0232 90.6638C11.6486 90.6638 12.1177 90.1953 12.1177 89.5706C12.1177 88.9458 11.6486 88.4773 11.0232 88.4773C10.3978 88.4773 9.92871 88.9458 9.92871 89.5706C9.92871 90.1953 10.3978 90.6638 11.0232 90.6638ZM11.0232 89.102C11.2577 89.102 11.4923 89.3363 11.4923 89.5706C11.4923 89.8048 11.2577 90.0391 11.0232 90.0391C10.7887 90.0391 10.5541 89.8048 10.5541 89.5706C10.5541 89.3363 10.7887 89.102 11.0232 89.102Z" fill="#646677"/>
<path d="M31.2707 31.3926H26.8146V21.3188H17.9805V31.3926H13.5244L22.3584 49.0412L31.2707 31.3926Z" fill="#646677"/>
<path d="M11.9609 179.922H12.5082V177.891H14.6971V177.345H12.5082V175.939H15.0099V175.393H11.9609V179.922Z" fill="#646677"/>
<path d="M18.3719 177.892C18.6846 177.813 18.9191 177.657 19.0755 177.501C19.2318 177.267 19.31 177.033 19.31 176.72C19.31 176.486 19.2318 176.174 19.0755 176.017C18.9191 175.783 18.7628 175.627 18.5282 175.627C18.2937 175.549 18.0592 175.549 17.6683 175.549H15.7139V180.078H16.4175V178.126H17.5119C17.7465 178.126 17.981 178.204 18.1374 178.36C18.2937 178.516 18.4501 178.672 18.5282 178.907L18.9191 180.078H19.5446L19.0755 178.829C18.9191 178.204 18.6846 177.97 18.3719 177.892ZM17.7465 177.423H16.4175V175.861H17.8247C18.4501 175.861 18.7628 176.095 18.7628 176.642C18.7628 176.954 18.6846 177.111 18.5282 177.267C18.3719 177.345 18.0592 177.423 17.7465 177.423Z" fill="#646677"/>
<path d="M22.2808 175.314C21.6553 175.314 21.1081 175.549 20.7172 175.939C20.3263 176.33 20.0918 176.954 20.0918 177.657C20.0918 178.36 20.3263 178.907 20.7172 179.375C21.1081 179.766 21.6553 180 22.2808 180C22.9062 180 23.4534 179.766 23.8443 179.375C24.2352 178.985 24.4697 178.36 24.4697 177.657C24.4697 176.954 24.2352 176.408 23.8443 175.939C23.4534 175.549 22.9062 175.314 22.2808 175.314ZM23.3752 178.985C23.0625 179.297 22.7498 179.453 22.2808 179.453C21.8117 179.453 21.499 179.297 21.1863 178.985C20.8736 178.672 20.7172 178.204 20.7172 177.657C20.7172 177.111 20.8736 176.642 21.1863 176.33C21.499 176.017 21.8117 175.861 22.2808 175.861C22.7498 175.861 23.0625 176.017 23.3752 176.33C23.688 176.642 23.7661 177.111 23.7661 177.657C23.7661 178.204 23.688 178.672 23.3752 178.985Z" fill="#646677"/>
<path d="M28.2217 178.985L25.7982 175.393H25.251V179.922H25.7982V176.33L28.1435 179.922H28.769V175.393H28.2217V178.985Z" fill="#646677"/>
<path d="M29.3945 175.939H30.8799V179.922H31.5053V175.939H32.9907V175.393H29.3945V175.939Z" fill="#646677"/>
<path d="M61.1346 177.892C61.4473 177.813 61.6818 177.657 61.8382 177.501C61.9945 177.267 62.0727 177.033 62.0727 176.72C62.0727 176.486 61.9945 176.174 61.8382 176.017C61.6818 175.783 61.5255 175.627 61.2909 175.627C61.0564 175.549 60.8219 175.549 60.431 175.549H58.4766V180.078H59.102V178.126H60.1965C60.431 178.126 60.6655 178.204 60.8219 178.36C60.9782 178.516 61.1346 178.672 61.2128 178.907L61.6037 180.078H62.2291L61.76 178.829C61.6818 178.204 61.4473 177.97 61.1346 177.892ZM60.431 177.423H59.102V175.861H60.5092C61.1346 175.861 61.4473 176.095 61.4473 176.642C61.4473 176.954 61.3691 177.111 61.2128 177.267C61.0564 177.345 60.8219 177.423 60.431 177.423Z" fill="#646677"/>
<path d="M63.6361 177.813H66.1378V177.345H63.6361V175.939H66.2941V175.393H63.0889V179.922H66.4505V179.375H63.6361V177.813Z" fill="#646677"/>
<path d="M68.4836 175.393L66.7637 179.922H67.3891L67.8582 178.516H69.7344L70.2816 179.922H70.9852L69.1872 175.393H68.4836ZM68.0145 178.048L68.7963 175.939L69.578 178.048H68.0145Z" fill="#646677"/>
<path d="M74.034 177.892C74.3467 177.813 74.5813 177.657 74.7376 177.501C74.894 177.267 74.9721 177.033 74.9721 176.72C74.9721 176.486 74.894 176.174 74.7376 176.017C74.5813 175.783 74.4249 175.627 74.1904 175.627C73.9558 175.549 73.7213 175.549 73.3304 175.549H71.376V180.078H72.0014V178.126H73.0959C73.3304 178.126 73.5649 178.204 73.7213 178.36C73.8777 178.516 74.034 178.672 74.1122 178.907L74.5031 180.078H75.1285L74.6594 178.829C74.5813 178.204 74.3467 177.97 74.034 177.892ZM73.4086 177.423H72.0796V175.861H73.4868C74.1122 175.861 74.4249 176.095 74.4249 176.642C74.4249 176.954 74.3467 177.111 74.1904 177.267C74.034 177.345 73.7213 177.423 73.4086 177.423Z" fill="#646677"/>
</g>
<defs>
<clipPath id="clip0">
<rect width="91.2329" height="180" fill="white"/>
</clipPath>
</defs>
</svg>
