<svg width="32" height="32" viewBox="0 0 32 32" fill="none" xmlns="http://www.w3.org/2000/svg">
<path d="M21.94 9.02515H13.9928C13.2924 9.02515 12.7246 9.59283 12.7246 10.2933C12.7246 10.9938 13.2923 11.5615 13.9928 11.5615H21.94C22.6409 11.5615 23.2082 10.9938 23.2082 10.2933C23.2081 9.59283 22.6404 9.02515 21.94 9.02515Z" fill="#646677"/>
<path d="M24.9835 15.1545H13.9928C13.2924 15.1545 12.7246 15.7222 12.7246 16.4227C12.7246 17.1232 13.2923 17.6909 13.9928 17.6909H24.9835C25.684 17.6909 26.2517 17.1232 26.2517 16.4227C26.2517 15.7222 25.684 15.1545 24.9835 15.1545Z" fill="#646677"/>
<path d="M30.7318 1.07794H8.28531C7.58488 1.07794 7.01713 1.64563 7.01713 2.34613V14.3091H4.77675C2.14275 14.3091 0 16.4523 0 19.0859V26.1453C0 28.7793 2.14275 30.9221 4.77675 30.9221C4.99231 30.9221 5.20456 30.9077 5.41213 30.8798H26.3356C29.4586 30.8798 32 28.3388 32 25.2154V2.34613C32 1.64563 31.4323 1.07794 30.7318 1.07794ZM7.01719 26.1453C7.01719 27.2321 6.23894 28.141 5.2105 28.3434H4.77681V28.3857C3.54119 28.3857 2.53638 27.3804 2.53638 26.1453V19.0859C2.53638 17.8507 3.54163 16.8454 4.77681 16.8454H7.01725V26.1453H7.01719ZM29.4637 25.2153C29.4637 26.9109 28.0315 28.3434 26.3356 28.3434H9.01706C9.35987 27.6853 9.5535 26.9374 9.5535 26.1453V3.61425H29.4637V25.2153Z" fill="#646677"/>
<path d="M21.94 20.904H13.9928C13.2924 20.904 12.7246 21.4717 12.7246 22.1722C12.7246 22.8726 13.2923 23.4404 13.9928 23.4404H21.94C22.6409 23.4404 23.2082 22.8727 23.2082 22.1722C23.2081 21.4717 22.6404 20.904 21.94 20.904Z" fill="#646677"/>
</svg>
