<svg width="30" height="29" viewBox="0 0 30 29" fill="none" xmlns="http://www.w3.org/2000/svg">
<g clip-path="url(#clip0)">
<path d="M20.4562 0H9.54225C4.52 0 0.447266 4.05819 0.447266 9.0625V19.9375C0.447266 24.9418 4.52 29 9.54225 29H20.4562C25.4785 29 29.5512 24.9418 29.5512 19.9375V9.0625C29.5512 4.05819 25.4785 0 20.4562 0ZM26.8227 19.9375C26.8227 23.4356 23.9669 26.2812 20.4562 26.2812H9.54225C6.03158 26.2812 3.17576 23.4356 3.17576 19.9375V9.0625C3.17576 5.56437 6.03158 2.71875 9.54225 2.71875H20.4562C23.9669 2.71875 26.8227 5.56437 26.8227 9.0625V19.9375Z" fill="#646677"/>
<path d="M14.9986 7.25C10.9805 7.25 7.72266 10.4962 7.72266 14.5C7.72266 18.5038 10.9805 21.75 14.9986 21.75C19.0168 21.75 22.2746 18.5038 22.2746 14.5C22.2746 10.4962 19.0168 7.25 14.9986 7.25ZM14.9986 19.0312C12.4921 19.0312 10.4512 16.9976 10.4512 14.5C10.4512 12.0006 12.4921 9.96875 14.9986 9.96875C17.5052 9.96875 19.5461 12.0006 19.5461 14.5C19.5461 16.9976 17.5052 19.0312 14.9986 19.0312Z" fill="#646677"/>
<path d="M22.8191 7.67254C23.3546 7.67254 23.7887 7.24002 23.7887 6.70648C23.7887 6.17294 23.3546 5.74042 22.8191 5.74042C22.2837 5.74042 21.8496 6.17294 21.8496 6.70648C21.8496 7.24002 22.2837 7.67254 22.8191 7.67254Z" fill="#646677"/>
</g>
<defs>
<clipPath id="clip0">
<rect width="29.1039" height="29" fill="white" transform="translate(0.447266)"/>
</clipPath>
</defs>
</svg>
