<svg width="36" height="36" viewBox="0 0 36 36" fill="none" xmlns="http://www.w3.org/2000/svg">
<path d="M18.1588 21.8213L33.2323 5.2763C33.6042 4.86804 34.2367 4.83861 34.6449 5.21057L35.2454 5.75765C35.6537 6.1296 35.6831 6.76207 35.3112 7.17033L18.3029 25.8387L9.38862 17.3646C8.98833 16.9841 8.97231 16.3511 9.35285 15.9508L9.9128 15.3618C10.2933 14.9616 10.9263 14.9456 11.3266 15.3261L18.1588 21.8213ZM35.3907 13.3306C35.197 12.6054 34.2891 12.4245 33.7844 12.9802L33.0633 13.7742C32.8363 14.0242 32.7531 14.3713 32.8264 14.7009C33.0627 15.7633 33.1875 16.8673 33.1875 18C33.1875 26.3743 26.3743 33.1875 18 33.1875C9.62567 33.1875 2.8125 26.3743 2.8125 18C2.8125 9.62567 9.62567 2.8125 18 2.8125C21.5238 2.8125 24.7704 4.01933 27.3501 6.04072C27.7824 6.37945 28.4085 6.34961 28.7777 5.94305L29.3304 5.33444C29.7033 4.9239 29.6724 4.2859 29.2399 3.93879C26.0597 1.38659 22.1365 0 18 0C13.1921 0 8.67178 1.87234 5.27206 5.27206C1.87234 8.67178 0 13.1921 0 18C0 22.8079 1.87234 27.3282 5.27206 30.7279C8.67178 34.1277 13.1921 36 18 36C22.8079 36 27.3282 34.1277 30.7279 30.7279C34.1277 27.3282 36 22.8079 36 18C36 16.4014 35.7924 14.8348 35.3907 13.3306Z" fill="#DC3143"/>
</svg>
