<svg width="239" height="43" viewBox="0 0 239 43" fill="none" xmlns="http://www.w3.org/2000/svg">
<g clip-path="url(#clip0)">
<path d="M180.194 37.6995C180.194 37.6333 180.226 37.5007 180.226 37.3351C180.389 37.3351 180.519 37.3351 180.714 37.3351C180.714 37.4676 180.714 37.6001 180.714 37.7658C180.714 38.9584 180.714 40.1178 180.714 41.3105C180.714 42.5031 180.519 42.8012 179.348 42.9668C178.534 43.0662 177.72 43.0331 176.907 42.9337C176.126 42.8343 175.963 42.6024 175.833 41.7411C176.093 41.6417 176.321 41.6086 176.419 41.973C176.516 42.2712 176.744 42.4699 177.069 42.4699C177.818 42.5031 178.566 42.5362 179.315 42.4699C179.933 42.4368 180.161 42.1055 180.194 41.5092C180.194 41.2442 180.194 40.9792 180.194 40.7142C179.12 41.5092 177.948 41.2773 176.777 41.1448C176.093 41.0454 175.8 40.5154 175.768 39.8528C175.735 39.3228 175.768 38.7927 175.865 38.2627C175.93 37.7326 176.288 37.3682 176.809 37.3351C177.558 37.2689 178.306 37.2357 179.055 37.2689C179.445 37.302 179.803 37.567 180.194 37.6995ZM178.274 40.8135C178.534 40.7804 178.892 40.7804 179.25 40.7142C179.771 40.6479 180.096 40.416 180.129 39.886C180.194 39.4222 180.129 38.9252 180.096 38.4283C180.063 38.0639 179.836 37.832 179.478 37.7989C178.664 37.7658 177.883 37.7326 177.069 37.7658C176.744 37.7658 176.451 38.0308 176.419 38.3952C176.386 38.8921 176.321 39.4222 176.386 39.9191C176.451 40.4823 176.679 40.6479 177.232 40.7142C177.525 40.8135 177.85 40.7804 178.274 40.8135Z" fill="#292A35"/>
<path d="M37.0996 40.8135C37.0996 41.4761 37.0996 42.1718 37.0996 42.8675C36.9369 42.8675 36.7742 42.8675 36.6115 42.8675C36.6115 41.0454 36.6115 39.1903 36.6115 37.3351C36.7742 37.3351 36.9043 37.3351 37.0671 37.3351C37.0996 37.4676 37.0996 37.6333 37.1321 37.7989C37.9457 37.0038 38.8895 37.2688 39.8007 37.2688C40.0285 37.2688 40.2238 37.3351 40.4516 37.3682C41.0699 37.4676 41.4279 37.832 41.493 38.4615C41.5255 38.9584 41.5581 39.4553 41.493 39.9191C41.3628 40.7804 41.1025 41.0786 40.2238 41.1779C39.5078 41.2442 38.7593 41.2442 38.0434 41.2111C37.7505 41.1779 37.4576 40.946 37.0996 40.8135ZM39.1499 40.8467V40.8135C39.28 40.8135 39.4102 40.8135 39.5404 40.8135C39.7356 40.7804 39.9309 40.7804 40.1262 40.7473C40.6143 40.6479 40.8747 40.4491 40.9398 39.9853C40.9723 39.5215 40.9723 39.0246 40.9398 38.5608C40.9072 38.1633 40.6469 37.8651 40.2238 37.832C39.4753 37.7989 38.7268 37.7989 37.9783 37.832C37.5552 37.8651 37.2298 38.1302 37.1972 38.594C37.1647 39.0578 37.1647 39.5215 37.1972 39.9853C37.2298 40.3829 37.4576 40.681 37.8807 40.7142C38.3037 40.7142 38.7268 40.7804 39.1499 40.8467Z" fill="#292A35"/>
<path d="M161.644 39.2565C161.611 38.9584 161.611 38.6934 161.579 38.4283C161.514 37.9977 161.253 37.7658 160.83 37.7658C160.147 37.7327 159.496 37.7327 158.813 37.7658C158.617 37.7658 158.357 37.9314 158.292 38.0971C158.162 38.4946 157.966 38.4615 157.674 38.3952C157.608 37.832 157.804 37.5008 158.357 37.3683C159.333 37.1695 160.31 37.1695 161.253 37.3683C161.839 37.5008 162.067 37.7327 162.099 38.3621C162.132 39.2897 162.099 40.2173 162.099 41.1448C161.839 41.178 161.579 41.2773 161.579 40.8136C161.123 41.2773 160.602 41.2773 160.114 41.2773C159.496 41.2442 158.878 41.2773 158.292 41.178C157.641 41.1117 157.478 40.8136 157.478 40.151C157.478 39.3559 157.608 39.0578 158.292 38.9915C159.171 38.9253 160.082 38.9253 160.96 38.9584C161.156 38.9253 161.351 39.124 161.644 39.2565ZM159.886 39.2897C159.431 39.3228 159.008 39.3559 158.585 39.4222C158.162 39.4884 157.999 39.7203 157.999 40.1179C158.032 40.4823 158.227 40.681 158.585 40.7142C158.975 40.7473 159.398 40.7804 159.789 40.7804C160.244 40.7804 160.7 40.7142 161.123 40.6479C161.416 40.5817 161.579 40.3498 161.579 40.0185C161.579 39.6872 161.383 39.4553 161.058 39.3891C160.7 39.3559 160.277 39.3228 159.886 39.2897Z" fill="#292A35"/>
<path d="M123.958 39.2234C123.958 38.9915 123.958 38.7596 123.958 38.5277C123.926 38.0639 123.698 37.7657 123.21 37.7657C122.526 37.7326 121.843 37.7326 121.16 37.7657C120.964 37.7657 120.704 37.9314 120.639 38.097C120.509 38.4614 120.281 38.4283 119.988 38.3621C119.988 37.7326 120.183 37.4345 120.736 37.3351C121.713 37.1694 122.689 37.1363 123.633 37.3682C124.186 37.5007 124.381 37.7326 124.414 38.2958C124.446 39.124 124.446 39.9522 124.446 40.7804C124.446 40.946 124.479 41.1779 124.219 41.1448C124.088 41.1117 123.958 41.0123 123.763 40.9129C123.503 41.1779 123.08 41.211 122.591 41.211C121.941 41.1779 121.257 41.211 120.606 41.1117C119.955 41.0454 119.76 40.7473 119.76 40.0516C119.76 39.2896 119.923 38.9584 120.606 38.9252C121.485 38.859 122.364 38.859 123.242 38.8921C123.535 38.9252 123.73 39.0909 123.958 39.2234ZM122.266 39.2896C121.81 39.3228 121.355 39.3559 120.899 39.4221C120.574 39.4553 120.411 39.6872 120.411 40.0516C120.411 40.3829 120.476 40.681 120.834 40.7141C121.713 40.7473 122.591 40.7473 123.47 40.681C123.796 40.681 123.991 40.416 123.991 40.0516C123.991 39.6872 123.796 39.4884 123.47 39.4221C123.047 39.3559 122.657 39.3228 122.266 39.2896Z" fill="#292A35"/>
<path d="M46.8626 39.2565C46.8301 38.9252 46.8301 38.6271 46.765 38.3289C46.6999 37.9645 46.4396 37.7658 46.1141 37.7658C45.3982 37.7326 44.7147 37.7326 43.9988 37.7658C43.7384 37.7658 43.5106 37.8983 43.4455 38.1964C43.3805 38.4283 43.1852 38.4946 43.0225 38.3952C42.9248 38.3621 42.8272 38.0639 42.8923 37.9976C43.055 37.7657 43.2177 37.4676 43.4455 37.4013C44.5195 37.1363 45.5934 37.1363 46.6674 37.4013C46.9928 37.5007 47.2206 37.7658 47.2531 38.097C47.2857 39.0909 47.2531 40.0847 47.2531 41.2442C47.0253 41.1448 46.8626 41.0454 46.6348 40.946C46.3419 41.2442 45.8538 41.2773 45.3656 41.2442C44.7473 41.2111 44.129 41.2442 43.5106 41.1448C42.8598 41.0785 42.632 40.7473 42.632 40.0847C42.632 39.3559 42.8272 38.9915 43.4781 38.9252C44.3568 38.859 45.268 38.859 46.1467 38.8921C46.407 38.9252 46.5697 39.124 46.8626 39.2565ZM45.1704 39.2896C44.7147 39.3228 44.2917 39.3228 43.8686 39.389C43.3805 39.4553 43.2503 39.654 43.2828 40.0847C43.2828 40.4822 43.4455 40.6479 43.9012 40.681C44.2591 40.7141 44.6171 40.7473 44.9751 40.7473C45.4307 40.7473 45.8863 40.7141 46.3419 40.6148C46.6674 40.5485 46.8626 40.3497 46.8626 39.9853C46.8626 39.6209 46.6674 39.4221 46.3419 39.3559C45.9189 39.3559 45.5283 39.3228 45.1704 39.2896Z" fill="#292A35"/>
<path d="M69.3177 39.3228C67.8533 39.3228 66.4539 39.3228 65.0545 39.3228C64.8918 40.0516 65.2172 40.6479 65.8681 40.681C66.6166 40.7473 67.3651 40.7141 68.1136 40.681C68.3089 40.681 68.5367 40.4822 68.6994 40.3166C68.9272 40.0184 68.8947 40.0184 69.3503 40.0847C69.3503 40.4822 69.1876 40.7804 68.797 40.946C68.016 41.2773 67.2024 41.211 66.3888 41.1779C66.1285 41.1779 65.8681 41.0785 65.6078 41.0785C64.9243 41.0123 64.5664 40.6147 64.5338 39.9522C64.5013 39.5215 64.4687 39.0909 64.5013 38.6602C64.6314 37.6995 64.9894 37.302 66.0308 37.2688C66.8119 37.2357 67.6255 37.3351 68.4391 37.4345C69.0248 37.5007 69.2852 37.9314 69.3503 38.4614C69.3503 38.7265 69.3177 38.9915 69.3177 39.3228ZM65.022 38.859C66.2261 38.859 67.4302 38.859 68.6343 38.859C68.6994 38.859 68.797 38.6933 68.797 38.5939C68.7645 38.1302 68.4716 37.7989 67.9509 37.7657C67.2675 37.7326 66.6166 37.7326 65.9332 37.7657C65.2823 37.7989 65.0545 38.097 65.022 38.859Z" fill="#292A35"/>
<path d="M137.659 39.3228C137.659 40.3829 137.854 40.6479 138.798 40.7473C139.449 40.8135 140.132 40.7804 140.783 40.7141C140.978 40.681 141.271 40.5154 141.336 40.3497C141.499 40.0185 141.694 40.0516 141.922 40.1178C141.987 40.5816 141.825 40.8135 141.402 41.0123C140.62 41.3436 139.807 41.2442 139.026 41.2111C138.733 41.2111 138.408 41.1117 138.115 41.0785C137.594 40.9792 137.268 40.681 137.236 40.151C137.171 39.5547 137.171 38.9252 137.236 38.2958C137.334 37.4676 138.017 37.2688 138.668 37.2357C139.481 37.2357 140.262 37.302 141.076 37.4014C141.727 37.5007 141.955 37.8651 142.02 38.594C142.085 39.3228 142.085 39.3228 141.369 39.3228C140.295 39.3228 139.221 39.3228 138.147 39.3228C137.952 39.3228 137.822 39.3228 137.659 39.3228ZM137.692 38.859C138.896 38.859 140.067 38.859 141.239 38.859C141.304 38.859 141.434 38.6602 141.434 38.5608C141.402 38.1302 141.109 37.7989 140.62 37.7658C139.937 37.7326 139.254 37.6995 138.57 37.7658C137.919 37.832 137.659 38.1633 137.692 38.859Z" fill="#292A35"/>
<path d="M151.978 39.3228C151.913 40.2835 152.174 40.6479 153.052 40.7141C153.736 40.7804 154.387 40.7473 155.07 40.681C155.265 40.681 155.558 40.5154 155.623 40.3497C155.786 40.0516 155.949 40.0185 156.242 40.1178C156.339 40.4822 156.176 40.7473 155.851 40.9129C155.656 41.0123 155.428 41.1117 155.2 41.1448C154.256 41.3104 153.28 41.2442 152.336 41.0454C151.881 40.946 151.588 40.681 151.555 40.2172C151.49 39.5878 151.458 38.9584 151.523 38.3289C151.62 37.5007 152.271 37.2357 152.922 37.2357C153.768 37.2357 154.614 37.3351 155.46 37.4345C155.949 37.5007 156.176 37.8983 156.242 38.3621C156.404 39.5547 156.404 39.2896 155.46 39.3228C154.321 39.3559 153.182 39.3228 151.978 39.3228ZM152.011 38.8259C153.28 38.8259 154.517 38.8259 155.753 38.8259C155.818 38.2296 155.623 37.8651 155.102 37.7989C154.289 37.7326 153.475 37.7326 152.662 37.832C152.141 37.8983 151.978 38.2296 152.011 38.8259Z" fill="#292A35"/>
<path d="M145.502 39.9522C145.665 39.9522 145.828 39.9522 145.99 39.9522C146.153 40.6148 146.218 40.7141 146.869 40.7473C147.618 40.7804 148.399 40.7473 149.18 40.7473C149.505 40.7473 149.766 40.6148 149.766 40.2172C149.766 39.8197 149.603 39.5547 149.245 39.5215C148.724 39.4553 148.203 39.4884 147.683 39.4553C147.195 39.4221 146.706 39.4221 146.218 39.389C145.828 39.3559 145.6 39.124 145.567 38.7265C145.502 38.097 145.632 37.6995 146.023 37.5339C146.283 37.4345 146.609 37.3682 146.902 37.3351C147.683 37.302 148.464 37.302 149.245 37.3351C149.928 37.3682 150.091 37.567 150.189 38.2958C149.928 38.3952 149.7 38.4283 149.57 38.0639C149.505 37.9314 149.277 37.7989 149.115 37.7989C148.334 37.7658 147.585 37.7989 146.804 37.7989C146.706 37.7989 146.641 37.832 146.544 37.8651C146.251 37.9314 146.088 38.1302 146.121 38.4283C146.153 38.7265 146.283 38.9252 146.609 38.9252C147.325 38.9584 148.008 38.9584 148.724 38.9915C149.017 38.9915 149.31 38.9915 149.57 39.0577C150.319 39.2234 150.677 40.2503 150.189 40.8466C150.058 41.0123 149.766 41.1448 149.538 41.1779C148.464 41.2111 147.39 41.2442 146.316 41.1779C145.665 41.1117 145.405 40.6479 145.502 39.9522Z" fill="#292A35"/>
<path d="M227.707 38.2958C227.447 38.3621 227.219 38.3952 227.089 38.0639C227.024 37.9314 226.796 37.7989 226.633 37.7658C225.852 37.7326 225.071 37.7658 224.29 37.7658C224.192 37.7658 224.095 37.7989 223.997 37.832C223.704 37.9314 223.607 38.1302 223.639 38.4283C223.672 38.6933 223.802 38.8921 224.062 38.8921C224.746 38.9252 225.429 38.9252 226.112 38.9584C226.438 38.9584 226.763 38.9584 227.089 39.0246C227.805 39.1903 228.163 40.2504 227.642 40.8135C227.479 40.9792 227.219 41.1117 226.991 41.1117C225.982 41.1448 224.941 41.1779 223.932 41.1448C223.216 41.1117 222.956 40.7141 223.021 39.9191C223.184 39.9191 223.346 39.9191 223.509 39.9191C223.704 40.6148 223.737 40.681 224.453 40.7141C225.201 40.7473 225.95 40.7141 226.698 40.681C226.991 40.681 227.252 40.5154 227.284 40.151C227.317 39.7534 227.154 39.5215 226.763 39.4222C226.47 39.3559 226.178 39.3559 225.885 39.3559C225.169 39.3228 224.453 39.3228 223.737 39.2896C223.346 39.2565 223.119 39.0246 223.086 38.594C223.021 37.9314 223.151 37.567 223.574 37.4345C223.965 37.302 224.355 37.2357 224.746 37.2357C225.462 37.2357 226.21 37.2357 226.926 37.302C227.447 37.3682 227.609 37.6001 227.707 38.2958Z" fill="#292A35"/>
<path d="M188.98 38.2958C188.72 38.3621 188.492 38.3952 188.362 38.0639C188.297 37.9314 188.037 37.7989 187.874 37.7658C187.125 37.7326 186.409 37.7658 185.661 37.7658C185.531 37.7658 185.401 37.7989 185.27 37.8652C184.978 37.9645 184.88 38.1633 184.912 38.4615C184.945 38.7265 185.075 38.9253 185.336 38.9253C186.051 38.9584 186.8 38.9584 187.516 38.9915C187.841 38.9915 188.199 39.0246 188.525 39.0909C188.98 39.1903 189.176 39.5878 189.143 40.151C189.111 40.7473 188.98 41.0786 188.46 41.1117C187.321 41.1779 186.149 41.2111 185.01 41.1448C184.457 41.1117 184.229 40.6479 184.294 39.9522C184.359 39.9522 184.457 39.9191 184.554 39.9191C184.62 39.9191 184.717 39.9191 184.782 39.9522C184.978 40.6479 185.01 40.7142 185.726 40.7473C186.475 40.7804 187.223 40.7473 187.972 40.7142C188.264 40.7142 188.525 40.5485 188.557 40.1841C188.59 39.7866 188.427 39.5216 188.037 39.4884C187.614 39.4222 187.191 39.4553 186.767 39.4222C186.182 39.389 185.596 39.389 185.01 39.3559C184.62 39.3228 184.392 39.0909 184.359 38.6602C184.294 37.9977 184.424 37.6333 184.847 37.5008C185.27 37.3682 185.694 37.302 186.149 37.2689C186.767 37.2357 187.386 37.2689 188.004 37.3351C188.688 37.3682 188.85 37.5339 188.98 38.2958Z" fill="#292A35"/>
<path d="M19.4934 41.2773C19.0053 41.2111 18.5497 41.1448 18.0941 41.0786C17.4432 40.9792 17.0852 40.6148 17.0527 39.9522C17.0201 39.3559 17.0527 38.7596 17.1178 38.1964C17.1829 37.6333 17.6385 37.3351 18.1266 37.302C19.0053 37.2689 19.9165 37.2357 20.7952 37.3351C21.6739 37.4345 21.8691 37.6664 21.9668 38.5608C22.0318 39.0909 21.9668 39.6541 21.9017 40.2172C21.8366 40.681 21.5437 40.9792 21.0881 41.0454C20.5348 41.178 20.0141 41.2111 19.4934 41.2773ZM19.3307 40.8135C19.3307 40.7804 19.3307 40.7804 19.3307 40.8135C19.4934 40.8135 19.6562 40.8135 19.8514 40.8135C21.3159 40.681 21.5437 40.416 21.4461 38.9253C21.4461 38.7927 21.4135 38.6602 21.381 38.5277C21.2508 38.0639 21.023 37.7989 20.5674 37.7658C19.884 37.7327 19.2331 37.7327 18.5497 37.7658C17.9639 37.7989 17.7036 38.0639 17.6385 38.5608C17.5734 38.8259 17.5734 39.124 17.5734 39.389C17.6385 40.4823 17.9639 40.7473 19.0378 40.8135C19.1029 40.8135 19.2331 40.8135 19.3307 40.8135Z" fill="#292A35"/>
<path d="M111.201 41.2774C110.713 41.2442 110.355 41.2111 109.965 41.1449C109.021 41.0124 108.663 40.6479 108.598 39.6541C108.565 39.2234 108.63 38.7597 108.695 38.329C108.793 37.7327 109.184 37.4014 109.737 37.3351C110.648 37.2026 111.592 37.2026 112.503 37.4014C113.219 37.567 113.512 37.7989 113.577 38.5278C113.642 39.0909 113.577 39.6541 113.512 40.2173C113.447 40.6811 113.154 41.0124 112.666 41.0786C112.145 41.178 111.624 41.2111 111.201 41.2774ZM110.941 40.8136C111.331 40.7805 111.689 40.7473 112.047 40.7142C112.763 40.6148 112.991 40.4492 113.056 39.6872C113.089 39.2897 113.056 38.8922 112.991 38.5278C112.894 37.9977 112.601 37.7989 112.112 37.7327C111.722 37.6996 111.299 37.6664 110.908 37.6996C109.411 37.6996 109.086 38.0971 109.184 39.621C109.249 40.3498 109.509 40.6148 110.192 40.7473C110.453 40.7805 110.713 40.7805 110.941 40.8136Z" fill="#292A35"/>
<path d="M83.6695 41.2774C83.279 41.2442 82.921 41.2111 82.5305 41.178C81.5868 41.0455 81.2613 40.7142 81.1637 39.7204C81.1311 39.2566 81.1962 38.7928 81.2613 38.329C81.3589 37.7327 81.7495 37.4014 82.3353 37.3351C83.2465 37.2026 84.1902 37.2026 85.1015 37.4014C85.85 37.567 86.1428 37.8321 86.1754 38.594C86.2079 39.1241 86.1754 39.6872 86.1103 40.2173C86.0452 40.7142 85.7523 41.0124 85.2642 41.1117C85.134 41.1449 85.0364 41.178 84.9062 41.178C84.5157 41.2111 84.0926 41.2442 83.6695 41.2774ZM83.637 40.8467C84.0601 40.7805 84.5157 40.7473 85.0038 40.6479C85.3618 40.5817 85.5896 40.3498 85.6222 39.9854C85.6547 39.4885 85.6222 39.0247 85.5896 38.5278C85.5571 38.0308 85.1991 37.7989 84.776 37.7658C84.0926 37.7327 83.4417 37.7327 82.7583 37.7658C82.14 37.7989 81.8796 38.064 81.8146 38.6934C81.782 39.0578 81.782 39.4553 81.8146 39.8529C81.9122 40.4492 82.14 40.6479 82.7258 40.7473C82.9861 40.7805 83.279 40.7805 83.637 40.8467Z" fill="#292A35"/>
<path d="M213.225 41.2774C212.835 41.2111 212.314 41.1449 211.794 41.0786C211.273 40.9792 210.947 40.6479 210.915 40.151C210.85 39.5547 210.882 38.9253 210.947 38.2959C211.013 37.6996 211.436 37.4014 211.989 37.3351C212.933 37.2026 213.876 37.2026 214.82 37.4014C215.406 37.5008 215.764 37.8652 215.829 38.4615C215.894 38.9915 215.894 39.5216 215.829 40.0516C215.731 40.8467 215.406 41.0786 214.592 41.178C214.169 41.2111 213.779 41.2442 213.225 41.2774ZM213.193 40.8136C213.486 40.7805 213.746 40.7805 214.007 40.7473C215.113 40.6148 215.406 40.2504 215.308 39.1241C215.276 38.9253 215.276 38.7597 215.211 38.5609C215.08 38.064 214.853 37.7989 214.332 37.7658C213.681 37.7327 213.03 37.7327 212.379 37.7658C211.761 37.7989 211.501 38.064 211.403 38.6934C211.338 39.0247 211.338 39.3891 211.403 39.7204C211.501 40.416 211.728 40.6479 212.412 40.7473C212.705 40.7805 212.965 40.7805 213.193 40.8136Z" fill="#292A35"/>
<path d="M192.723 41.3105C192.235 41.2442 191.714 41.178 191.226 41.0786C190.705 40.9792 190.38 40.6148 190.315 40.1179C190.282 39.5216 190.315 38.8921 190.347 38.2958C190.38 37.7327 190.77 37.4345 191.291 37.3351C192.3 37.1695 193.341 37.1695 194.35 37.4014C194.838 37.5008 195.164 37.832 195.196 38.329C195.229 38.9584 195.229 39.5878 195.164 40.2173C195.131 40.7142 194.773 40.9792 194.318 41.0786C193.764 41.178 193.244 41.2111 192.723 41.3105ZM192.593 40.8136C192.886 40.7804 193.113 40.7804 193.374 40.7473C194.643 40.5817 194.936 40.1179 194.708 38.8259C194.676 38.7265 194.676 38.6271 194.643 38.5277C194.513 38.0639 194.285 37.7989 193.797 37.7658C193.309 37.7327 192.788 37.6995 192.267 37.7327C190.966 37.832 190.673 38.1965 190.77 39.5216C190.835 40.3829 191.063 40.6479 191.877 40.7804C192.137 40.7804 192.365 40.7804 192.593 40.8136Z" fill="#292A35"/>
<path d="M13.4729 41.1117C13.4729 40.4823 13.4729 39.8197 13.4729 39.1903C13.4729 38.9252 13.4078 38.7265 13.2126 38.5277C12.3664 37.6995 11.5203 36.8382 10.7067 35.9769C10.6091 35.8775 10.544 35.7781 10.4138 35.6787C10.902 35.5793 11.2925 35.6125 11.6505 36.0431C12.2363 36.7057 12.8546 37.302 13.4729 37.9645C13.5705 38.0639 13.6682 38.1633 13.7984 38.2958C14.5143 37.567 15.2628 36.8382 15.9462 36.0762C16.2717 35.7118 16.6622 35.5793 17.1829 35.7118C17.0853 35.8444 16.9876 35.9437 16.89 36.0431C16.0764 36.8713 15.2628 37.7326 14.4167 38.5277C14.1889 38.7596 14.0587 38.9915 14.0912 39.3228C14.1238 39.7866 14.0912 40.2504 14.0912 40.7142C14.0587 41.2111 14.0262 41.2442 13.4729 41.1117Z" fill="#292A35"/>
<path d="M204.797 37.7326C204.471 37.7326 204.178 37.7326 203.885 37.7326C203.885 37.567 203.885 37.4676 203.853 37.3351C203.918 37.302 203.983 37.302 204.016 37.302C204.243 37.2689 204.536 37.3351 204.699 37.2357C204.829 37.1363 204.764 36.8051 204.797 36.6063C204.829 36.5069 204.959 36.4407 205.057 36.4075C205.122 36.4075 205.22 36.54 205.285 36.6063V36.6394C205.35 37.302 205.35 37.302 206.033 37.302C206.586 37.302 207.14 37.302 207.66 37.302C207.758 37.302 207.856 37.4345 207.986 37.5339C207.888 37.6001 207.791 37.7326 207.693 37.7326C207.042 37.7658 206.424 37.7326 205.773 37.7326C205.643 37.7326 205.48 37.7326 205.35 37.7326C205.35 38.5608 205.317 39.3228 205.35 40.1179C205.35 40.4823 205.61 40.7142 206.001 40.7473C206.359 40.7473 206.749 40.7473 207.107 40.7142C207.433 40.681 207.595 40.4491 207.595 40.0847C207.595 39.9191 207.595 39.7534 207.595 39.5547C207.758 39.5547 207.888 39.5216 208.149 39.5216C208.051 40.0185 208.018 40.4823 207.823 40.8467C207.725 41.0454 207.335 41.2111 207.075 41.2111C206.554 41.2442 206.001 41.2111 205.48 41.1448C204.959 41.0786 204.764 40.7473 204.764 40.1841C204.797 39.3559 204.797 38.594 204.797 37.7326Z" fill="#292A35"/>
<path d="M126.074 37.7326C125.748 37.7326 125.455 37.7326 125.162 37.7326C125.162 37.567 125.162 37.4676 125.162 37.302C125.26 37.302 125.325 37.2689 125.39 37.2689C126.009 37.2357 126.009 37.2357 126.074 36.6394C126.074 36.54 126.236 36.4075 126.334 36.4075C126.432 36.4075 126.497 36.54 126.594 36.6394C126.627 36.6726 126.594 36.7388 126.594 36.8051C126.529 37.2026 126.725 37.302 127.083 37.302C127.799 37.2689 128.547 37.302 129.296 37.302C129.296 37.4676 129.328 37.567 129.328 37.6995C129.263 37.7326 129.198 37.7326 129.165 37.7326C128.449 37.7326 127.701 37.7326 126.985 37.7326C126.725 37.7326 126.594 37.7989 126.627 38.0971C126.659 38.7596 126.627 39.389 126.659 40.0516C126.692 40.4823 126.92 40.7473 127.343 40.7804C127.701 40.7804 128.091 40.8135 128.449 40.7142C128.645 40.681 128.807 40.416 128.905 40.1841C128.97 40.0185 128.938 39.7866 128.97 39.5547C129.1 39.5547 129.23 39.5215 129.491 39.5215C129.393 39.9853 129.361 40.416 129.198 40.8135C129.133 40.9792 128.872 41.1448 128.677 41.1448C128.124 41.1779 127.571 41.2111 127.017 41.1448C126.334 41.0786 126.106 40.7804 126.106 40.0847C126.106 39.4553 126.106 38.8259 126.106 38.2296C126.074 38.0971 126.074 37.9314 126.074 37.7326Z" fill="#292A35"/>
<path d="M166.883 37.3351C166.883 37.4677 166.883 37.6002 166.883 37.7327C166.005 37.7327 165.159 37.7327 164.312 37.7327C164.312 38.594 164.312 39.4222 164.312 40.2504C164.312 40.3829 164.475 40.5817 164.605 40.6479C165.159 40.9129 165.712 40.8798 166.265 40.6148C166.395 40.5485 166.493 40.2835 166.558 40.0848C166.59 39.9522 166.558 39.7866 166.558 39.621C166.948 39.4553 167.014 39.4885 167.014 39.886C167.014 39.9854 167.014 40.0848 166.981 40.151C166.916 40.9129 166.753 41.1448 166.037 41.2111C165.517 41.2774 164.963 41.2111 164.41 41.1117C163.954 41.0455 163.759 40.7473 163.727 40.2173C163.727 39.5216 163.694 38.8259 163.727 38.1633C163.727 37.8321 163.662 37.6995 163.304 37.7327C163.108 37.7327 162.75 37.9314 162.783 37.5339C162.783 37.1695 163.108 37.3351 163.304 37.3351C163.629 37.3351 163.759 37.2358 163.727 36.9045C163.727 36.8051 163.694 36.6726 163.759 36.6063C163.792 36.5401 163.922 36.4738 164.019 36.4738C164.085 36.4738 164.182 36.5732 164.247 36.6395C164.28 36.7057 164.28 36.8382 164.247 36.9045C164.182 37.302 164.377 37.3683 164.703 37.3683C165.321 37.3351 165.94 37.3683 166.525 37.3683C166.623 37.302 166.721 37.302 166.883 37.3351Z" fill="#292A35"/>
<path d="M96.7518 37.3351C96.9145 37.3351 97.0447 37.3351 97.2074 37.3351C97.24 37.5339 97.24 37.6995 97.2725 37.8983C98.1837 37.0038 99.2577 37.2026 100.299 37.3682C100.95 37.4676 101.275 37.8652 101.275 38.5608C101.308 39.3228 101.308 40.0847 101.308 40.8135C101.308 41.2442 101.275 41.2442 100.787 41.1448C100.787 40.416 100.787 39.6872 100.787 38.9252C100.787 38.1302 100.527 37.832 99.7784 37.7658C99.2577 37.7326 98.7044 37.7326 98.1838 37.832C97.4678 37.9645 97.2725 38.2627 97.24 39.0246C97.24 39.5878 97.24 40.151 97.24 40.7473C97.24 40.8798 97.24 41.0454 97.2074 41.2111C97.0447 41.2111 96.9145 41.2111 96.7518 41.2111C96.7518 39.886 96.7518 38.6271 96.7518 37.3351Z" fill="#292A35"/>
<path d="M103.228 41.1448C103.033 41.1448 102.903 41.1448 102.74 41.1448C102.74 39.8528 102.74 38.6271 102.74 37.3351C102.903 37.3351 103.033 37.3351 103.196 37.3351C103.228 37.5339 103.228 37.7326 103.261 37.9977C103.684 37.2688 104.302 37.2357 104.92 37.2357C105.343 37.2357 105.767 37.2357 106.19 37.302C106.906 37.4014 107.264 37.832 107.264 38.5608C107.264 39.389 107.264 40.2504 107.264 41.1117C107.068 41.1117 106.938 41.1117 106.743 41.1117C106.743 40.6479 106.743 40.151 106.743 39.6872C106.743 39.3559 106.743 39.0246 106.743 38.6933C106.71 38.1633 106.515 37.8983 105.994 37.7658C105.278 37.6001 104.562 37.6001 103.846 37.832C103.391 37.9645 103.196 38.2958 103.196 38.8921C103.228 39.6541 103.228 40.3829 103.228 41.1448Z" fill="#292A35"/>
<path d="M170.398 41.1117C169.975 41.2442 169.845 41.1117 169.845 40.7141C169.877 39.7203 169.877 38.6933 169.845 37.6995C169.845 37.302 169.975 37.2026 170.366 37.302C170.366 37.4676 170.398 37.6332 170.398 37.832C171.407 36.9044 172.546 37.1363 173.685 37.4013C174.206 37.5339 174.433 37.9645 174.433 38.4946C174.433 39.3559 174.433 40.2172 174.433 41.1117C174.271 41.1117 174.141 41.1117 173.913 41.1117C173.913 40.5154 173.913 39.8859 173.913 39.2896C173.913 37.9645 173.685 37.6995 172.383 37.6664C172.025 37.6664 171.667 37.6995 171.309 37.7658C170.561 37.9314 170.366 38.1633 170.366 38.9252C170.398 39.6872 170.398 40.416 170.398 41.1117Z" fill="#292A35"/>
<path d="M203.104 41.1117C202.551 41.3436 202.616 40.9129 202.551 40.5817C201.672 41.4761 200.631 41.2774 199.622 41.1117C198.776 40.9792 198.516 40.6148 198.516 39.7203C198.516 38.9584 198.516 38.1965 198.516 37.4676C198.516 37.4345 198.548 37.4014 198.548 37.3683C199.036 37.2689 199.036 37.2689 199.069 37.7658C199.069 38.4615 199.069 39.1572 199.101 39.8529C199.134 40.416 199.362 40.6811 199.882 40.7142C200.533 40.7473 201.184 40.7142 201.835 40.6479C202.291 40.6148 202.518 40.2504 202.551 39.8197C202.584 39.124 202.616 38.4284 202.584 37.7327C202.584 37.3351 202.746 37.2357 203.104 37.3683C203.104 38.594 203.104 39.8529 203.104 41.1117Z" fill="#292A35"/>
<path d="M59.0991 41.1448C58.9039 41.1448 58.7737 41.1448 58.611 41.1448C58.611 39.8859 58.611 38.594 58.611 37.302C58.7411 37.302 58.9039 37.302 59.0666 37.2688C59.0666 37.4676 59.0991 37.6664 59.0991 37.8651C60.0754 36.8713 61.2145 37.1363 62.3209 37.3682C62.8091 37.4676 63.102 37.8651 63.1345 38.3952C63.1671 39.2896 63.1345 40.151 63.1345 41.0785C62.9718 41.0785 62.8416 41.0785 62.6138 41.0785C62.6138 40.5154 62.6138 39.9522 62.6138 39.389C62.6138 39.1903 62.6138 39.0246 62.6138 38.8258C62.6138 38.097 62.3535 37.7658 61.6701 37.6995C61.0843 37.6664 60.4659 37.6995 59.8802 37.7658C59.2944 37.832 59.0666 38.1633 59.0666 38.7927C59.0991 39.6209 59.0991 40.3497 59.0991 41.1448Z" fill="#292A35"/>
<path d="M54.315 37.7658C53.9895 37.7658 53.7292 37.7658 53.4038 37.7658C53.4038 37.6001 53.3712 37.5008 53.3712 37.302C53.599 37.302 53.7617 37.302 53.9245 37.302C54.2173 37.3351 54.3475 37.2026 54.3475 36.9045C54.3475 36.8051 54.315 36.6726 54.3801 36.6063C54.4126 36.5401 54.5102 36.4407 54.5753 36.4407C54.673 36.4407 54.7706 36.5401 54.8357 36.6063C54.8682 36.6394 54.8682 36.7388 54.8357 36.8051C54.7706 37.2357 54.9984 37.3351 55.3889 37.3351C56.0723 37.302 56.7883 37.3351 57.5042 37.3351C57.5042 37.5008 57.5042 37.6001 57.5042 37.7658C56.6256 37.7658 55.7469 37.7658 54.9008 37.7658C54.9008 38.6271 54.9008 39.4222 54.9008 40.2504C54.9008 40.2835 54.9333 40.3498 54.9658 40.3829C55.1286 40.7473 55.6818 40.8798 56.3652 40.7473C56.951 40.6479 57.1137 40.4823 57.1463 40.0185C57.1463 39.9191 57.1137 39.7866 57.1788 39.7203C57.2114 39.6541 57.3415 39.5547 57.4066 39.5547C57.4717 39.5547 57.5693 39.6541 57.6019 39.7535C57.7646 40.6479 57.3415 41.2442 56.4303 41.2773C56.0072 41.3105 55.5516 41.2773 55.1286 41.2111C54.6079 41.1448 54.3801 40.8798 54.3475 40.3166C54.315 39.6541 54.3475 38.9915 54.315 38.329C54.3475 38.1302 54.315 37.9646 54.315 37.7658Z" fill="#292A35"/>
<path d="M221.784 41.1117C221.394 41.2442 221.231 41.1448 221.264 40.7473C221.296 40.1179 221.264 39.4885 221.264 38.8921C221.264 38.0971 221.003 37.7989 220.222 37.7658C219.669 37.7327 219.083 37.7658 218.53 37.8652C218.009 37.9314 217.782 38.2296 217.749 38.7596C217.716 39.4553 217.716 40.151 217.716 40.8136C217.716 41.0123 217.749 41.2111 217.456 41.178C217.196 41.178 217.228 40.9792 217.228 40.8136C217.228 39.7866 217.228 38.7596 217.228 37.7658C217.228 37.6002 217.131 37.3351 217.456 37.3351C217.782 37.3351 217.684 37.567 217.716 37.7658C217.716 37.8321 217.749 37.8983 217.749 37.9646C218.725 36.9707 219.864 37.2026 220.971 37.4345C221.557 37.567 221.784 38.0639 221.784 38.6271C221.784 39.4222 221.784 40.2835 221.784 41.1117Z" fill="#292A35"/>
<path d="M23.3012 37.3351C23.4639 37.3351 23.6267 37.3351 23.8219 37.3351C23.8219 37.8652 23.8219 38.3621 23.8219 38.859C23.8219 39.2234 23.8219 39.5878 23.887 39.9191C23.9521 40.4492 24.1474 40.6811 24.6681 40.7142C25.3189 40.7473 25.9698 40.7142 26.6207 40.6479C27.1088 40.5817 27.3366 40.2835 27.3692 39.7866C27.4017 39.0909 27.4017 38.4284 27.4343 37.7327C27.4343 37.567 27.3692 37.3351 27.6621 37.3351C27.955 37.3351 27.9224 37.5339 27.9224 37.7327C27.9224 38.7596 27.9224 39.7866 27.9224 40.8136C27.9224 40.9792 27.9875 41.2111 27.6621 41.2111C27.3692 41.2111 27.4343 40.9792 27.4017 40.8136C27.4017 40.7473 27.3692 40.6811 27.3692 40.5817C26.6858 41.443 25.8071 41.2774 24.9609 41.2442C24.7331 41.2442 24.5379 41.178 24.3101 41.1117C23.6267 40.9461 23.3663 40.6811 23.3338 39.9854C23.2687 39.0909 23.3012 38.2296 23.3012 37.3351Z" fill="#292A35"/>
<path d="M114.26 37.3351C114.618 37.2357 114.814 37.302 115.009 37.6333C115.497 38.5277 116.018 39.4222 116.506 40.3166C116.571 40.4492 116.636 40.5485 116.766 40.7473C116.994 40.3498 117.189 39.9854 117.417 39.6541C117.775 38.9915 118.166 38.3621 118.524 37.6995C118.751 37.2689 118.751 37.2689 119.272 37.3351C119.24 37.4014 119.24 37.4676 119.207 37.5339C118.556 38.6603 117.905 39.7866 117.254 40.9461C117.059 41.2774 116.441 41.3105 116.246 40.9792C115.595 39.8197 114.944 38.6934 114.325 37.5339C114.293 37.4676 114.26 37.4014 114.26 37.3351Z" fill="#292A35"/>
<path d="M131.476 37.3351C131.899 37.2026 132.094 37.3351 132.29 37.6664C132.778 38.5608 133.266 39.4553 133.787 40.3497C133.852 40.4491 133.917 40.5816 134.014 40.7473C134.275 40.2835 134.503 39.9191 134.73 39.5215C135.088 38.8921 135.446 38.2958 135.772 37.6664C135.934 37.3351 136.162 37.2357 136.553 37.3351C136.26 37.8651 135.934 38.4283 135.642 38.9584C135.251 39.6209 134.893 40.2835 134.502 40.946C134.34 41.2442 133.689 41.2773 133.526 41.0123C132.843 39.8197 132.159 38.5939 131.476 37.3351Z" fill="#292A35"/>
<path d="M80.4801 35.5793C80.6102 35.9106 80.5126 36.01 80.1872 36.01C79.8617 36.01 79.5363 36.0431 79.2109 36.0763C78.7227 36.1425 78.4298 36.6726 78.5926 37.1032C78.6251 37.1695 78.7878 37.2689 78.8854 37.2689C79.341 37.302 79.7641 37.2689 80.2197 37.302C80.3174 37.302 80.415 37.4345 80.5126 37.5008C80.415 37.567 80.3174 37.6995 80.2197 37.6995C79.9594 37.7327 79.6665 37.6995 79.4061 37.6995C79.1458 37.6995 78.8854 37.6995 78.5926 37.6995C78.5926 37.8983 78.56 38.0639 78.56 38.2296C78.56 39.0909 78.56 39.9191 78.56 40.7804C78.56 40.9461 78.5926 41.1448 78.3322 41.1448C78.0719 41.1448 78.0719 40.9792 78.0719 40.7804C78.0719 39.9191 78.0719 39.0909 78.0719 38.2296C78.0719 38.0639 78.0393 37.8983 78.0393 37.6995C77.7464 37.6995 77.4861 37.6995 77.1932 37.6995C77.1932 37.5339 77.1606 37.4345 77.1606 37.3351C77.2257 37.302 77.2257 37.2689 77.2583 37.2689C77.4861 37.2357 77.8115 37.302 77.9742 37.1695C78.1044 37.037 78.0719 36.7057 78.1044 36.4407C78.1695 35.9438 78.4949 35.6456 79.0807 35.5793C79.5363 35.6125 79.9919 35.5793 80.4801 35.5793Z" fill="#292A35"/>
<path d="M70.6521 41.1448C70.6521 39.8528 70.6521 38.6271 70.6521 37.3351C70.8148 37.3351 70.9775 37.3351 71.1403 37.3351C71.1728 37.5007 71.2053 37.6332 71.2379 37.7989C72.0189 37.0038 72.9627 37.2026 73.8739 37.3351C74.3946 37.4014 74.6549 37.7326 74.6875 38.2627C74.72 38.4614 74.72 38.6933 74.7526 38.8921C74.297 39.0577 74.2319 39.0246 74.1668 38.594C74.0692 37.9977 73.9064 37.7989 73.3207 37.7658C72.8325 37.7326 72.3769 37.7989 71.8887 37.8651C71.4657 37.9314 71.2379 38.2296 71.2379 38.6271C71.2053 39.3228 71.2053 40.0516 71.2053 40.7804C71.1728 41.1779 71.1403 41.2111 70.6521 41.1448Z" fill="#292A35"/>
<path d="M87.5096 41.1448C87.5096 39.8859 87.5096 38.6271 87.5096 37.3351C87.6724 37.3351 87.8351 37.3351 87.9978 37.3351C88.0303 37.5007 88.0629 37.6332 88.0629 37.7657C88.9416 36.9707 89.9504 37.1694 90.9267 37.4013C91.2847 37.4676 91.4474 37.7989 91.5125 38.1302C91.5451 38.362 91.5776 38.6271 91.6101 38.859C91.1545 39.0246 91.0894 38.9915 91.0244 38.5939C90.9267 37.9314 90.764 37.7657 90.1131 37.7326C89.6575 37.6995 89.1694 37.7657 88.7138 37.832C88.2907 37.8983 88.0629 38.1964 88.0629 38.5939C88.0303 39.3228 87.9978 40.0184 88.0303 40.7473C88.0629 41.1448 87.9002 41.2442 87.5096 41.1448Z" fill="#292A35"/>
<path d="M29.8098 41.1448C29.6471 41.1448 29.4844 41.1448 29.3217 41.1448C29.3217 39.886 29.3217 38.6271 29.3217 37.3351C29.4844 37.3351 29.6145 37.3351 29.7773 37.3351C29.8098 37.5008 29.8098 37.6333 29.8424 37.7989C30.7536 36.9707 31.7624 37.1695 32.7387 37.4345C33.1618 37.5339 33.4872 38.4283 33.292 38.859C33.2594 38.9253 33.0967 38.9915 32.9991 38.9584C32.934 38.9584 32.8364 38.859 32.8038 38.7928C32.7713 38.6602 32.7713 38.4946 32.7387 38.3621C32.6736 37.9977 32.4458 37.7989 32.0879 37.7658C31.6323 37.7327 31.1441 37.7327 30.6885 37.7989C30.0376 37.8983 29.8098 38.2296 29.7773 38.9253C29.7773 39.5216 29.7773 40.1179 29.7773 40.7142C29.8098 40.8467 29.8098 40.9792 29.8098 41.1448Z" fill="#292A35"/>
<path d="M49.2707 41.1449C49.0755 41.1449 48.9453 41.1449 48.7826 41.1449C48.7826 39.886 48.7826 38.6271 48.7826 37.3351C48.9453 37.3351 49.0755 37.3351 49.2382 37.3351C49.2707 37.4677 49.2707 37.6002 49.3033 37.7989C50.1169 37.037 51.0932 37.1695 52.0044 37.3683C52.5902 37.5008 52.9807 38.2296 52.7855 38.7928C52.7529 38.8922 52.5251 38.9253 52.3298 39.0247C52.1997 37.8652 52.0695 37.7327 50.8654 37.6996C50.6701 37.6996 50.4423 37.7327 50.2471 37.7658C49.5636 37.8652 49.3033 38.1965 49.2707 38.9584C49.2707 39.6872 49.2707 40.3829 49.2707 41.1449Z" fill="#292A35"/>
<path d="M197.084 41.1117C196.726 41.2442 196.563 41.1448 196.563 40.7473C196.563 39.1572 196.563 37.567 196.563 35.9769C196.563 35.8444 196.563 35.745 196.596 35.5793C196.758 35.5793 196.921 35.5793 197.084 35.5793C197.084 37.4345 197.084 39.2565 197.084 41.1117Z" fill="#292A35"/>
<path d="M130.337 37.3683C130.825 37.2689 130.857 37.2689 130.857 37.7327C130.857 38.7265 130.857 39.7535 130.857 40.7473C130.857 41.1448 130.727 41.2442 130.337 41.1117C130.337 39.886 130.337 38.6271 130.337 37.3683Z" fill="#292A35"/>
<path d="M167.957 37.3351C168.12 37.3351 168.25 37.3351 168.413 37.3351C168.413 38.594 168.413 39.8529 168.413 41.1448C168.283 41.1448 168.12 41.1448 167.957 41.1448C167.957 39.886 167.957 38.6271 167.957 37.3351Z" fill="#292A35"/>
<path d="M209.515 37.3351C209.515 38.6271 209.515 39.886 209.515 41.1448C209.353 41.1448 209.222 41.1448 209.06 41.1448C209.06 39.886 209.06 38.594 209.06 37.3351C209.222 37.3351 209.353 37.3351 209.515 37.3351Z" fill="#292A35"/>
<path d="M95.3199 37.3683C95.3199 38.6271 95.3199 39.8528 95.3199 41.1117C94.8643 41.2442 94.7992 41.2111 94.7992 40.7473C94.7992 39.7535 94.7992 38.7265 94.7992 37.7327C94.7992 37.2689 94.8317 37.2689 95.3199 37.3683Z" fill="#292A35"/>
<path d="M209.515 35.5793C209.515 35.8112 209.515 35.9769 209.515 36.2088C209.353 36.2088 209.222 36.2088 209.06 36.2088C209.06 36.01 209.06 35.8112 209.06 35.5793C209.19 35.5793 209.353 35.5793 209.515 35.5793Z" fill="#292A35"/>
<path d="M168.413 36.2088C168.25 36.2088 168.12 36.2088 167.957 36.2088C167.957 36.01 167.957 35.8112 167.957 35.5793C168.087 35.5793 168.25 35.5793 168.413 35.5793C168.413 35.7781 168.413 35.9769 168.413 36.2088Z" fill="#292A35"/>
<path d="M130.337 36.275C130.337 35.9769 130.337 35.7781 130.337 35.5462C130.5 35.5793 130.727 35.5462 130.792 35.6456C130.857 35.745 130.857 36.01 130.792 36.1094C130.727 36.2088 130.532 36.2419 130.337 36.275Z" fill="#292A35"/>
<path d="M95.3201 36.275C95.1248 36.2419 94.9296 36.2419 94.8645 36.1425C94.7994 36.01 94.7994 35.7781 94.8645 35.6787C94.9296 35.5793 95.1574 35.5793 95.3201 35.5462C95.3201 35.7781 95.3201 35.9769 95.3201 36.275Z" fill="#292A35"/>
<path d="M239 14.0794C238.87 14.8744 238.772 15.6364 238.609 16.4314C237.373 21.6656 233.142 25.5747 227.903 26.3035C227.349 26.3698 226.796 26.4029 226.243 26.4029C155.103 26.4029 83.9299 26.4029 12.7896 26.4029C6.63889 26.4029 1.33429 21.8644 0.227805 15.7689C0.162718 15.2388 0.0650871 14.7419 0 14.245C0 13.5162 0 12.8205 0 12.0917C0.0650871 11.7604 0.0976307 11.4291 0.162718 11.131C0.878676 5.86364 4.88154 1.49075 9.95833 0.298151C10.5116 0.198767 11.0648 0.0993837 11.6506 0C83.5394 0 155.428 0 227.284 0C227.512 0.0331279 227.772 0.0662558 228 0.0993837C233.24 0.927581 237.373 4.77042 238.609 10.0046C238.772 10.7666 238.87 11.5285 239 12.2904C239 12.9199 239 13.4831 239 14.0794ZM103.489 24.6803C103.651 24.6803 103.814 24.6803 103.944 24.6803C144.721 24.6803 185.498 24.6803 226.275 24.6803C226.991 24.6803 227.707 24.614 228.391 24.4484C234.411 23.1564 238.284 17.094 237.08 10.9322C236.104 5.92989 231.84 1.68952 225.95 1.68952C185.271 1.72265 144.624 1.68952 103.944 1.68952C103.781 1.68952 103.651 1.68952 103.456 1.68952C103.489 9.37519 103.489 16.9946 103.489 24.6803ZM42.6321 5.86364C37.5878 5.86364 32.6087 5.86364 27.6295 5.86364C27.6295 10.9322 27.6295 15.9676 27.6295 21.0362C32.7388 21.0362 37.8156 21.0362 42.8924 21.0362C42.8924 19.8105 42.8924 18.6179 42.8924 17.359C42.6972 17.359 42.5345 17.359 42.4043 17.359C39.0197 17.359 35.6678 17.359 32.2832 17.359C31.9252 17.359 31.8276 17.2265 31.8276 16.8952C31.8602 16.4314 31.8602 15.9345 31.8276 15.4707C31.7951 15.0732 31.9252 14.9407 32.3158 14.9738C35.4074 15.0069 38.499 14.9738 41.5581 14.9738C41.7209 14.9738 41.8836 14.9738 42.0788 14.9738C42.0788 13.8806 42.0788 12.8536 42.0788 11.7935C38.6618 11.7935 35.2772 11.7935 31.8602 11.7935C31.8602 10.9653 31.8602 10.2034 31.8602 9.37519C35.4725 9.37519 39.0523 9.37519 42.6321 9.37519C42.6321 8.21572 42.6321 7.05624 42.6321 5.86364ZM78.5602 17.359C74.8502 17.359 71.2053 17.359 67.5279 17.359C67.5279 16.6965 67.5279 16.1002 67.5279 15.5039C67.5279 14.9738 67.5279 14.9738 68.0486 14.9738C71.1077 14.9738 74.1993 14.9738 77.2584 14.9738C77.4212 14.9738 77.5839 14.9738 77.7466 14.9738C77.7466 13.8806 77.7466 12.8536 77.7466 11.7935C77.5513 11.7935 77.4212 11.7935 77.2584 11.7935C74.297 11.7935 71.3355 11.7935 68.3415 11.7935C67.4954 11.7935 67.4954 11.7935 67.4954 10.9322C67.4954 10.4353 67.4954 9.90524 67.4954 9.37519C71.1403 9.37519 74.72 9.37519 78.2998 9.37519C78.2998 8.18259 78.2998 7.02311 78.2998 5.86364C73.2881 5.86364 68.2764 5.86364 63.2647 5.86364C63.2647 10.9322 63.2647 15.9676 63.2647 21.0031C68.374 21.0031 73.4508 21.0031 78.5276 21.0031C78.5602 19.8105 78.5602 18.6179 78.5602 17.359ZM44.7474 21.0693C50.2147 21.0693 55.6495 21.0693 61.0843 21.0693C61.0843 19.8436 61.0843 18.651 61.0843 17.3921C57.7648 17.3921 54.4454 17.3921 51.0609 17.3921C51.2561 17.2265 51.3863 17.1271 51.4839 17.0277C54.5105 14.6094 57.537 12.1911 60.5636 9.80586C60.7914 9.64022 60.889 9.47458 60.889 9.17643C60.8565 8.21572 60.889 7.25501 60.889 6.32743C60.889 6.19492 60.889 6.0624 60.8565 5.92989C55.5519 5.92989 50.3124 5.92989 45.0728 5.92989C45.0728 7.15562 45.0728 8.34823 45.0728 9.60709C48.2296 9.60709 51.3863 9.60709 54.6081 9.60709C54.4779 9.70647 54.4129 9.77273 54.3478 9.83898C51.4839 12.1248 48.6201 14.4438 45.7237 16.6633C45.0078 17.1934 44.6823 17.7565 44.78 18.651C44.845 19.4129 44.7474 20.2411 44.7474 21.0693ZM10.6417 14.51C10.6743 15.6032 10.6743 16.6633 10.8045 17.7234C10.9672 19.2804 11.7808 20.4068 13.3103 20.8706C13.7334 21.0031 14.1565 21.1025 14.6121 21.1356C16.0765 21.2018 17.5084 21.235 18.9729 21.235C19.7539 21.235 20.535 21.1687 21.316 21.0693C23.171 20.8043 24.245 19.8105 24.6029 18.121C24.7006 17.6572 24.7657 17.1602 24.7657 16.6633C24.7982 13.218 24.7982 9.7396 24.7982 6.2943C24.7982 6.16179 24.7982 6.02928 24.7657 5.89676C20.0794 5.89676 15.4257 5.89676 10.7719 5.89676C10.7719 7.08937 10.7719 8.21572 10.7719 9.40832C14.0263 9.40832 17.2481 9.40832 20.5025 9.40832C20.535 9.47458 20.535 9.5077 20.535 9.57396C20.535 11.6941 20.535 13.8143 20.535 15.9345C20.535 16.9615 20.1119 17.3921 19.1031 17.4253C18.1919 17.4584 17.2481 17.4584 16.3369 17.4253C15.2955 17.3921 14.8724 16.8952 14.8724 15.8351C14.8724 15.4045 14.8724 14.9738 14.8724 14.5431C13.4405 14.51 12.1062 14.51 10.6417 14.51ZM90.2759 9.67334C92.2936 9.67334 94.2136 9.67334 96.1988 9.67334C96.1988 8.38136 96.1988 7.15562 96.1988 5.89676C90.8291 5.89676 85.492 5.89676 80.1548 5.89676C80.1548 7.15562 80.1548 8.41448 80.1548 9.67334C80.3501 9.67334 80.4803 9.67334 80.643 9.67334C82.2701 9.67334 83.8973 9.67334 85.5245 9.67334C86.0452 9.67334 86.0452 9.67334 86.0452 10.2034C86.0452 13.6487 86.0452 17.1271 86.0452 20.5724C86.0452 20.7381 86.0452 20.9037 86.0778 21.0693C87.5097 21.0693 88.909 21.0693 90.3084 21.0693C90.2759 17.2596 90.2759 13.4831 90.2759 9.67334Z" fill="#780043"/>
<path d="M228.456 12.3567C228.488 12.423 228.488 12.423 228.488 12.4561C228.488 14.2119 228.521 15.9677 228.423 17.7234C228.293 19.7774 227.317 20.8043 225.299 21.0362C224.062 21.1687 222.793 21.2019 221.557 21.2019C219.702 21.235 217.847 21.235 216.024 21.1688C215.341 21.1688 214.625 21.0694 213.941 20.9037C211.989 20.4731 210.785 19.1479 210.655 17.0278C210.524 15.007 210.589 12.9862 210.557 10.9654C210.557 10.6341 210.589 10.2697 210.622 9.9384C210.915 7.35442 212.249 6.0293 214.788 5.76428C215.341 5.69803 215.927 5.6649 216.512 5.6649C218.986 5.6649 221.426 5.63177 223.9 5.69803C224.648 5.73115 225.429 5.89679 226.145 6.09556C227.284 6.45997 228.033 7.28816 228.228 8.48077C228.358 9.27584 228.391 10.104 228.488 10.9654C227.024 10.9654 225.69 10.9654 224.323 10.9654C224.323 10.8991 224.29 10.8328 224.29 10.7666C224.16 9.73963 223.77 9.34209 222.728 9.30897C220.808 9.27584 218.888 9.27584 217.001 9.30897C215.731 9.34209 215.08 9.87214 215.015 11.1641C214.918 12.7211 214.95 14.2781 215.048 15.8352C215.113 16.829 215.666 17.2928 216.643 17.4253C216.935 17.4584 217.228 17.4916 217.521 17.4916C219.051 17.4916 220.58 17.4916 222.077 17.4916C222.305 17.4916 222.533 17.4916 222.793 17.4584C223.965 17.2928 224.388 16.6634 224.225 15.4376C222.533 15.4376 220.808 15.4376 219.083 15.4376C219.083 14.3775 219.083 13.3506 219.083 12.2905C222.207 12.3567 225.332 12.3567 228.456 12.3567Z" fill="#780043"/>
<path d="M126.334 10.6672C124.87 10.6672 123.503 10.6672 122.136 10.6672C122.104 10.6009 122.104 10.5678 122.104 10.5347C122.038 9.47459 121.746 9.17644 120.704 9.14331C118.817 9.11018 116.962 9.11018 115.074 9.14331C114.163 9.14331 113.74 9.64023 113.772 10.4684C113.805 11.0647 114 11.3629 114.586 11.4623C115.172 11.5616 115.79 11.6279 116.408 11.6279C118.361 11.661 120.281 11.661 122.234 11.7273C123.047 11.7604 123.828 11.9261 124.609 12.1248C125.748 12.423 126.464 13.218 126.692 14.4106C126.952 15.7689 126.985 17.1603 126.725 18.5185C126.432 20.0093 125.618 20.7712 123.958 21.0031C122.689 21.1687 121.42 21.235 120.151 21.2681C118.036 21.3012 115.92 21.2681 113.805 21.235C113.154 21.235 112.471 21.1025 111.852 20.9368C110.616 20.6387 109.867 19.8105 109.672 18.5185C109.574 17.7566 109.542 16.9615 109.509 16.1664C110.974 16.1664 112.34 16.1664 113.74 16.1664C113.805 16.4646 113.837 16.7627 113.903 17.0609C114 17.4584 114.261 17.7234 114.684 17.7897C114.976 17.8228 115.302 17.8559 115.627 17.8559C117.45 17.8559 119.272 17.8559 121.095 17.8559C121.257 17.8559 121.42 17.8559 121.55 17.8228C122.266 17.6903 122.592 17.2928 122.592 16.564C122.592 15.8351 122.331 15.5039 121.583 15.4045C120.704 15.3051 119.825 15.2388 118.947 15.2057C117.092 15.1395 115.237 15.1395 113.382 15.0401C112.796 15.0069 112.21 14.8744 111.657 14.7088C110.518 14.3775 109.802 13.6156 109.737 12.423C109.672 11.1641 109.639 9.90525 109.737 8.67952C109.835 7.45379 110.583 6.65872 111.69 6.22805C112.601 5.89677 113.545 5.76426 114.488 5.76426C116.994 5.76426 119.5 5.73114 121.973 5.79739C122.657 5.79739 123.34 5.9299 124.024 6.12867C125.358 6.49308 126.139 7.38753 126.269 8.81203C126.269 9.3752 126.302 10.0046 126.334 10.6672Z" fill="#780043"/>
<path d="M203.788 16.7627C203.788 13.1518 203.788 9.54083 203.788 5.89676C205.22 5.89676 206.587 5.89676 207.986 5.89676C207.986 10.9322 207.986 15.9676 207.986 21.0362C207.823 21.0362 207.693 21.0362 207.563 21.0362C205.675 21.0362 203.788 21.0362 201.9 21.0362C201.607 21.0362 201.412 20.9368 201.217 20.7049C198.809 17.3259 196.4 13.98 193.96 10.6009C193.83 10.4353 193.699 10.2696 193.537 10.0046C193.537 13.7481 193.537 17.359 193.537 21.0031C192.105 21.0031 190.738 21.0031 189.339 21.0031C189.339 15.9676 189.339 10.9322 189.339 5.86363C189.469 5.86363 189.599 5.83051 189.729 5.83051C191.649 5.83051 193.569 5.83051 195.522 5.83051C195.782 5.83051 195.945 5.92989 196.108 6.12866C198.548 9.54083 200.989 12.9199 203.43 16.332C203.528 16.4646 203.625 16.5971 203.723 16.7296C203.723 16.7958 203.755 16.7627 203.788 16.7627Z" fill="#780043"/>
<path d="M133.722 9.37522C133.722 10.2034 133.722 10.9985 133.722 11.8267C137.139 11.8267 140.523 11.8267 143.94 11.8267C143.94 12.8868 143.94 13.8806 143.94 14.9738C140.556 14.9738 137.139 14.9738 133.722 14.9738C133.722 15.802 133.722 16.5971 133.722 17.3922C137.399 17.3922 141.076 17.3922 144.754 17.3922C144.754 18.6179 144.754 19.8105 144.754 21.0362C139.677 21.0362 134.633 21.0362 129.523 21.0362C129.523 16.0008 129.523 10.9654 129.523 5.89679C134.503 5.89679 139.482 5.89679 144.493 5.89679C144.493 7.05627 144.493 8.18261 144.493 9.37522C140.914 9.37522 137.334 9.37522 133.722 9.37522Z" fill="#780043"/>
<path d="M166.786 21.0693C165.452 21.0693 164.15 21.0362 162.848 21.0693C162.262 21.1025 161.969 20.9037 161.742 20.3737C161.514 19.7774 161.188 19.2473 160.928 18.651C160.83 18.4522 160.733 18.3529 160.505 18.3529C157.869 18.3529 155.233 18.3529 152.597 18.3529C152.337 18.3529 152.239 18.4522 152.141 18.6841C151.816 19.413 151.49 20.1086 151.165 20.8043C151.1 20.9037 150.97 21.0362 150.872 21.0362C149.375 21.0362 147.878 21.0362 146.349 21.0362C146.414 20.8706 146.479 20.7381 146.544 20.6056C148.887 15.802 151.263 11.0316 153.606 6.22805C153.736 5.96303 153.899 5.86365 154.192 5.86365C155.754 5.89678 157.316 5.89678 158.878 5.86365C159.203 5.86365 159.366 5.96303 159.496 6.26118C161.253 9.80587 163.011 13.3174 164.768 16.8621C165.387 18.121 166.037 19.413 166.656 20.6718C166.656 20.7712 166.721 20.9037 166.786 21.0693ZM159.203 15.0732C158.292 13.1849 157.413 11.3297 156.47 9.40833C155.591 11.3297 154.712 13.1849 153.834 15.0732C155.656 15.0732 157.381 15.0732 159.203 15.0732Z" fill="#780043"/>
<path d="M179.934 5.89679C179.934 7.15565 179.934 8.38138 179.934 9.64024C177.981 9.64024 176.028 9.64024 174.043 9.64024C174.043 13.4499 174.043 17.2265 174.043 21.0362C172.644 21.0362 171.244 21.0362 169.845 21.0362C169.845 17.2597 169.845 13.4831 169.845 9.67337C167.86 9.67337 165.907 9.67337 163.922 9.67337C163.922 8.38138 163.922 7.15565 163.922 5.89679C169.259 5.89679 174.564 5.89679 179.934 5.89679Z" fill="#780043"/>
<path d="M186.182 21.0362C184.782 21.0362 183.415 21.0362 182.016 21.0362C182.016 16.0008 182.016 10.9654 182.016 5.89679C183.383 5.89679 184.782 5.89679 186.182 5.89679C186.182 10.9322 186.182 15.9677 186.182 21.0362Z" fill="#780043"/>
</g>
<defs>
<clipPath id="clip0">
<rect width="239" height="43" fill="white"/>
</clipPath>
</defs>
</svg>
