<svg width="176" height="71" viewBox="0 0 176 71" fill="none" xmlns="http://www.w3.org/2000/svg">
<g clip-path="url(#clip0)">
<path d="M147.302 35.7069C147.327 27.3754 153.267 21.5944 161.725 21.6187C170.06 21.643 176 27.5455 176 35.7798C175.976 44.1842 169.962 49.9167 161.162 49.8681C153.193 49.8195 147.278 43.8198 147.302 35.7069ZM169.547 35.7555C169.547 35.3426 169.571 34.9539 169.547 34.541C169.278 31.0189 166.931 28.0555 163.827 27.3026C160.087 26.4038 156.665 27.6183 154.953 30.7275C153.022 34.2495 153.12 37.893 155.32 41.318C156.322 42.8968 157.838 43.7955 159.671 44.2085C165.22 45.4473 169.596 41.7066 169.547 35.7555Z" fill="#292A35"/>
<path d="M128.749 41.6336C128.749 44.1841 128.749 46.5402 128.749 48.9935C126.696 48.9935 124.764 48.9935 122.736 48.9935C122.736 40.1519 122.736 31.3589 122.736 22.4202C123.102 22.3959 123.493 22.3473 123.884 22.3473C127.233 22.3473 130.558 22.323 133.907 22.3473C138.551 22.3716 141.998 24.8006 143.244 28.9056C144.564 33.3021 143.024 37.6986 139.284 40.2005C139.113 40.322 138.967 40.4191 138.673 40.6377C140.189 43.3825 141.68 46.0787 143.318 49.0664C141.484 49.0664 139.896 48.945 138.307 49.0907C136.816 49.2365 136.009 48.7021 135.373 47.3904C134.64 45.8115 133.638 44.3784 132.856 42.8239C132.391 41.9251 131.853 41.4393 130.778 41.5851C130.191 41.7065 129.58 41.6336 128.749 41.6336ZM128.773 36.6785C130.411 36.6785 131.878 36.727 133.32 36.6785C135.74 36.5813 137.353 34.8324 137.451 32.3062C137.573 29.6343 136.058 27.6182 133.638 27.3753C132.269 27.2296 130.876 27.2782 129.507 27.3268C129.262 27.3268 128.822 27.764 128.798 28.0069C128.749 30.8245 128.773 33.6665 128.773 36.6785Z" fill="#292A35"/>
<path d="M49.5244 40.3948C51.48 40.3948 53.2889 40.3705 55.0977 40.4433C55.3177 40.4433 55.6111 40.9777 55.6844 41.2935C56.2711 44.2569 58.5933 45.69 61.5755 44.8641C62.7489 44.5484 63.5066 43.8439 63.6777 42.6294C63.8489 41.3664 63.6044 40.2247 62.4311 39.5689C61.1111 38.8645 59.7177 38.3058 58.3244 37.7228C57.0044 37.1642 55.66 36.7269 54.3644 36.1197C51.5289 34.7594 50.0866 32.4519 50.1355 29.3185C50.1844 26.2579 51.6266 23.9261 54.4622 22.6873C58.3489 20.987 62.26 21.0598 65.9266 23.2702C68.3222 24.7276 69.4222 26.9866 69.4466 29.8771C67.4177 29.8771 65.4377 29.8771 63.4089 29.8771C63.3355 29.5128 63.3111 29.1484 63.2377 28.8084C62.6511 26.2822 59.0089 25.1649 57.0533 26.938C56.0266 27.8611 55.9533 29.6585 57.0533 30.6301C57.7377 31.2374 58.5689 31.7232 59.4244 32.0875C61.2577 32.8891 63.14 33.5449 64.9489 34.3222C68.4689 35.8282 70.0577 38.4273 69.8377 42.1679C69.6422 45.5928 67.6133 48.1433 64.1177 49.2363C61.2333 50.1351 58.3489 50.1108 55.4644 49.1635C52.0911 48.0461 50.16 45.69 49.5977 42.2165C49.5489 41.6821 49.5489 41.1235 49.5244 40.3948Z" fill="#292A35"/>
<path d="M80.9358 41.6334C80.9358 44.1353 80.9358 46.5157 80.9358 48.9933C78.858 48.9933 76.878 48.9933 74.8491 48.9933C74.8491 40.176 74.8491 31.3587 74.8491 22.5657C74.9225 22.5171 74.9713 22.4199 75.0447 22.4199C79.1513 22.4199 83.2825 22.2013 87.3647 22.4685C92.6447 22.8328 96.0669 27.1079 95.8225 32.476C95.578 37.7713 91.7891 41.512 86.5091 41.6091C84.7247 41.6577 82.9402 41.6334 80.9358 41.6334ZM80.9113 36.6782C82.4758 36.6782 83.8691 36.7025 85.238 36.6782C87.7802 36.6296 89.4914 34.905 89.5891 32.2574C89.7114 29.4883 88.0736 27.4966 85.5069 27.3265C84.2602 27.2536 82.9891 27.2536 81.718 27.3265C81.4247 27.3508 80.9358 27.788 80.9358 28.0309C80.8869 30.8486 80.9113 33.6662 80.9113 36.6782Z" fill="#292A35"/>
<path d="M34.9557 38.2089C34.9557 40.2492 34.9557 42.071 34.9557 44.0628C38.329 44.0628 41.6779 44.0628 45.0757 44.0628C45.0757 45.8602 45.0757 47.4634 45.0757 49.1637C39.6001 49.1637 34.149 49.1637 28.5757 49.1637C28.5757 40.2249 28.5757 31.2862 28.5757 22.2745C34.0757 22.2745 39.5268 22.2745 45.0512 22.2745C45.0512 23.9506 45.0512 25.578 45.0512 27.3512C41.7268 27.3512 38.4023 27.3512 35.0046 27.3512C35.0046 29.4158 35.0046 31.3348 35.0046 33.3994C38.3535 33.3994 41.6535 33.3994 45.0757 33.3994C45.0757 35.0511 45.0757 36.5571 45.0757 38.2089C41.7023 38.2089 38.3779 38.2089 34.9557 38.2089Z" fill="#292A35"/>
<path d="M116.38 33.5203C116.38 35.0992 116.38 36.5323 116.38 38.1354C115.94 38.1597 115.525 38.184 115.085 38.184C112.469 38.184 109.878 38.2083 107.262 38.184C106.431 38.1597 106.089 38.3783 106.113 39.2528C106.162 40.5402 106.162 41.8518 106.113 43.1392C106.065 43.9894 106.382 44.2565 107.238 44.2565C109.805 44.208 112.371 44.2323 114.938 44.2323C115.378 44.2323 115.818 44.2323 116.331 44.2323C116.331 45.8597 116.331 47.3657 116.331 48.9931C110.929 48.9931 105.551 48.9931 100.076 48.9931C100.076 40.1515 100.076 31.3585 100.076 22.4683C105.502 22.4683 110.88 22.4683 116.331 22.4683C116.331 24.0229 116.331 25.5289 116.331 27.2292C115.182 27.2292 114.058 27.2292 112.933 27.2292C111.051 27.2292 109.193 27.2778 107.311 27.2049C106.309 27.1563 106.04 27.5207 106.089 28.4437C106.162 29.7311 106.162 31.0427 106.089 32.3301C106.04 33.2774 106.431 33.496 107.287 33.4717C109.902 33.4232 112.493 33.4474 115.109 33.4474C115.525 33.4717 115.891 33.496 116.38 33.5203Z" fill="#292A35"/>
<path d="M6.16 0H0V71H6.16V0Z" fill="#FFE54D"/>
</g>
<defs>
<clipPath id="clip0">
<rect width="176" height="71" fill="white"/>
</clipPath>
</defs>
</svg>
