<svg width="222" height="37" viewBox="0 0 222 37" fill="none" xmlns="http://www.w3.org/2000/svg">
<g clip-path="url(#clip0)">
<path d="M18.2863 0C28.366 0 36.4388 8.15677 36.5726 18.4434C36.7064 28.6846 28.366 37.0227 17.9518 37.0227C8.09503 37 0 28.6393 0 18.5113C0 8.17943 8.09503 0 18.2863 0ZM10.9272 8.04348C10.9495 7.88488 10.9718 7.74893 11.0164 7.59033C13.4917 7.4997 15.9671 7.18249 18.4201 7.31843C25.0656 7.72627 31.1536 9.53889 35.4799 15.2486C35.3238 14.7728 35.1677 14.2743 34.9 13.8665C33.8296 12.1219 32.3355 10.8304 30.6407 9.78812C26.3144 7.11452 21.5421 6.14023 16.5692 6.20821C14.5398 6.23087 12.5328 6.57073 10.3251 6.79731C10.2582 6.0496 10.0798 5.25658 10.169 4.50888C10.2582 3.78383 10.6596 3.1041 10.9272 2.33374C8.78634 3.376 6.95771 4.75812 5.35208 6.4801C4.28167 7.61298 3.85796 8.9951 4.21477 10.4452C4.52697 11.782 5.03988 13.1188 5.75349 14.2743C7.15841 16.5401 9.25465 18.1715 11.507 19.5309C15.744 22.0912 20.3379 23.4507 25.2663 23.564C27.7193 23.6093 30.1501 23.2468 32.3801 22.0459C33.9188 21.2303 35.1231 20.0974 35.6137 18.3301C35.7475 17.8769 35.7921 17.1972 35.5468 16.8573C33.8742 14.433 31.4881 13.1188 28.6336 12.643C24.6642 11.9633 20.8062 12.5297 16.9706 13.6852C16.5915 13.7985 15.9894 13.9118 15.744 13.7079C13.7816 12.1219 12.0645 10.3092 10.9272 8.04348ZM3.41195 9.22168C1.60563 12.0312 0.847413 15.158 0.691311 18.4887C0.468307 23.0882 2.45304 26.1017 6.6455 27.7104C14.8966 30.9278 22.9248 30.3613 30.6853 26.079C32.5362 25.0594 34.0972 23.632 35.1677 21.774C35.4799 21.2529 35.5914 20.6185 35.7921 20.0521C33.7404 22.6577 32.1571 23.6999 28.879 24.3344C24.2182 25.2407 19.7135 24.425 15.3426 22.7483C11.6408 21.3209 8.31803 19.3044 5.75349 16.1776C4.12556 14.1837 3.05515 11.9633 3.41195 9.22168ZM2.38614 25.8977C4.32627 30.1347 7.40372 33.1029 11.5962 34.9608C13.1572 35.6406 14.7182 35.8898 16.3685 35.5726C17.9964 35.2554 19.6689 34.9835 21.2522 34.4624C26.3813 32.7857 30.8637 30.0894 34.0526 25.5352C34.4986 24.8781 34.8108 24.1304 35.19 23.4054C28.9905 32.1739 9.96826 33.4654 2.38614 25.8977ZM15.0973 1.13288C18.7769 1.56338 22.3004 2.53766 25.6008 4.23699C28.9236 5.93632 31.8226 8.20208 34.0972 11.2382C32.4916 6.16289 22.055 0.362523 15.0973 1.13288ZM17.372 36.139C23.1255 36.7508 29.771 33.2615 32.2017 28.9112C27.9423 33.1029 22.9471 35.2327 17.372 36.139Z" fill="#008CD1"/>
<path d="M67.7262 6.63871C67.7262 7.86222 67.7262 8.97245 67.7262 10.196C67.2579 10.196 66.8565 10.196 66.4551 10.196C62.1734 10.196 57.9141 10.196 53.6324 10.196C52.2944 10.196 51.5585 10.6944 51.3354 11.6914C51.0901 12.7789 51.5808 13.5946 52.8296 14.1384C56.9551 15.9284 61.103 17.6957 65.2286 19.4856C67.9938 20.6865 69.3764 23.1562 68.8412 25.8751C68.2837 28.7073 66.0983 30.4293 63.0431 30.4293C58.6946 30.4293 54.346 30.4293 49.9974 30.4293C49.6629 30.4293 49.3507 30.4293 48.9493 30.4293C48.9493 29.1831 48.9493 28.0502 48.9493 26.7814C49.5291 26.7814 50.0866 26.7814 50.6218 26.7814C54.7474 26.7814 58.873 26.7814 62.9985 26.7814C64.3366 26.7814 65.1171 26.2149 65.3401 25.15C65.5408 24.1757 65.0279 23.3374 63.8237 22.8163C59.5866 20.981 55.3495 19.1911 51.1347 17.3331C48.5925 16.2229 47.366 13.7985 47.812 11.0796C48.2134 8.63258 50.3096 6.72934 52.9411 6.52542C53.9 6.45744 54.8812 6.4801 55.8401 6.50276C59.5197 6.52542 63.1992 6.54808 66.8788 6.57073C67.1018 6.59339 67.3471 6.61605 67.7262 6.63871Z" fill="#008CD1"/>
<path d="M84.7413 16.5628C88.0863 21.1396 91.3868 25.6938 94.8656 30.4519C93.3046 30.4519 91.9666 30.4972 90.6286 30.4066C90.3387 30.384 90.0042 29.9081 89.7812 29.5909C87.3058 26.2149 84.8305 22.8163 82.2882 19.3043C80.638 21.1396 79.0324 22.9069 77.4714 24.7195C77.2707 24.9688 77.2038 25.3993 77.2038 25.7618C77.1815 27.2572 77.1815 28.7753 77.1815 30.3613C75.9772 30.3613 74.8622 30.3613 73.6803 30.3613C73.6803 22.4538 73.6803 14.5915 73.6803 6.6387C74.8176 6.6387 75.9103 6.6387 77.1369 6.6387C77.1369 10.8077 77.1369 14.9994 77.1369 19.1684C77.2707 19.2817 77.4268 19.395 77.5606 19.4856C77.7613 19.1457 77.9174 18.7606 78.1627 18.4887C81.4854 14.7728 84.8082 11.0569 88.1086 7.31843C88.5992 6.75198 89.0898 6.50275 89.8258 6.54807C91.0077 6.59338 92.1896 6.57072 93.6391 6.57072C90.584 10.0147 87.6849 13.2774 84.7413 16.5628Z" fill="#008CD1"/>
<path d="M196.154 6.63868C196.31 6.59336 196.444 6.52539 196.578 6.52539C199.923 6.54805 203.268 6.4121 206.59 6.61602C212.857 7.02386 217.495 12.5977 217.272 19.2364C217.094 25.1727 211.764 30.3613 205.788 30.4066C202.599 30.4292 199.41 30.4066 196.132 30.4066C196.154 22.4537 196.154 14.5689 196.154 6.63868ZM198.562 28.0049C200.948 28.0049 203.245 28.0049 205.542 28.0049C210.515 27.9822 214.373 24.3117 214.931 19.1004C215.399 14.7728 212.099 10.0147 207.572 9.28963C204.65 8.81382 201.617 9.199 198.562 9.199C198.562 15.3392 198.562 21.5927 198.562 28.0049Z" fill="#939598"/>
<path d="M157.218 6.14023C162.458 5.75505 169.371 10.0827 169.505 18.466C169.617 25.3313 164.086 30.9051 157.284 30.9277C150.461 30.9277 144.997 25.4446 144.975 18.5566C144.952 11.6234 150.371 6.14023 157.218 6.14023ZM157.307 28.4807C162.793 28.458 167.141 24.0171 167.119 18.4434C167.097 12.9375 162.637 8.42866 157.218 8.47397C151.776 8.49663 147.405 13.0055 147.405 18.534C147.428 24.1078 151.799 28.5034 157.307 28.4807Z" fill="#939598"/>
<path d="M119.597 6.50274C119.195 7.06918 118.95 7.4317 118.705 7.79423C115.85 11.714 112.974 15.6111 110.164 19.5309C109.829 20.0067 109.606 20.6865 109.584 21.2756C109.517 24.289 109.562 27.3025 109.562 30.3839C108.38 30.3839 107.287 30.3839 105.994 30.3839C105.994 30.0441 105.994 29.6816 105.994 29.3417C105.994 26.6907 106.038 24.0624 105.971 21.4115C105.949 20.7544 105.726 20.0067 105.347 19.4629C102.537 15.5205 99.6603 11.6234 96.8058 7.72625C96.5828 7.4317 96.3821 7.1145 96.0476 6.61603C97.564 6.61603 98.902 6.57071 100.24 6.66134C100.508 6.684 100.798 7.09184 101.021 7.38639C103.228 10.3999 105.436 13.436 107.711 16.5628C107.978 16.2455 108.201 16.019 108.38 15.7697C110.409 12.9828 112.461 10.1959 114.468 7.38639C114.914 6.77463 115.382 6.48008 116.14 6.50274C117.211 6.54806 118.281 6.50274 119.597 6.50274Z" fill="#008CD1"/>
<path d="M141.897 6.59338C141.897 7.3864 141.897 8.08879 141.897 8.94978C136.434 8.94978 131.015 8.94978 125.506 8.94978C125.506 11.8047 125.506 14.5009 125.506 17.3105C130.591 17.3105 135.631 17.3105 140.715 17.3105C140.715 18.1261 140.715 18.8285 140.715 19.7122C135.653 19.7122 130.613 19.7122 125.439 19.7122C125.439 23.3827 125.439 26.872 125.439 30.4066C124.637 30.4066 123.945 30.4066 123.187 30.4066C123.187 22.4764 123.187 14.5689 123.187 6.59338C129.387 6.59338 135.564 6.59338 141.897 6.59338Z" fill="#939598"/>
<path d="M176.128 28.0049C181.257 28.0049 186.275 28.0049 191.359 28.0049C191.359 28.8432 191.359 29.5683 191.359 30.3613C185.561 30.3613 179.741 30.3613 173.854 30.3613C173.854 22.4764 173.854 14.5915 173.854 6.61603C174.567 6.61603 175.281 6.61603 176.128 6.61603C176.128 13.7305 176.128 20.8224 176.128 28.0049Z" fill="#939598"/>
<path d="M222 7.74892C222 9.08572 220.996 10.128 219.725 10.1733C218.432 10.1959 217.317 9.06307 217.317 7.74892C217.317 6.38946 218.41 5.32455 219.748 5.36986C221.019 5.39252 222 6.41212 222 7.74892ZM221.71 7.7036C221.688 6.66135 220.707 5.73239 219.636 5.75504C218.543 5.7777 217.696 6.68401 217.718 7.81689C217.741 8.92712 218.655 9.81077 219.748 9.76545C220.818 9.72014 221.732 8.7232 221.71 7.7036Z" fill="#939598"/>
<path d="M17.0375 14.8635C22.0328 13.368 26.7158 12.6657 31.4212 14.5236C32.5585 14.9767 33.5843 15.8151 34.521 16.6308C35.413 17.4238 35.3907 18.0129 34.3202 18.5567C33.1606 19.1458 31.8449 19.6442 30.5738 19.7122C27.0726 19.8935 23.8614 18.6699 20.8062 17.0839C19.6243 16.4495 18.4647 15.7018 17.0375 14.8635Z" fill="#008CD1"/>
<path d="M220.662 8.92714C219.636 7.86223 219.435 7.86223 218.811 9.13106C218.811 8.13412 218.811 7.38642 218.811 6.36682C219.502 6.57074 220.35 6.57074 220.684 6.97858C220.974 7.36376 220.707 8.2021 220.662 8.92714Z" fill="#939598"/>
</g>
<defs>
<clipPath id="clip0">
<rect width="222" height="37" fill="white"/>
</clipPath>
</defs>
</svg>
