<svg width="64" height="66" viewBox="0 0 64 66" fill="none" xmlns="http://www.w3.org/2000/svg">
<g clip-path="url(#clip0)">
<path d="M55.1562 15.3629H56.3586C57.4834 15.3629 58.5307 15.8181 59.2677 16.5388L59.3452 16.6146C60.0434 17.3353 60.4701 18.3215 60.4701 19.3836V21.7353C60.4701 22.8353 60.0046 23.8594 59.2677 24.5801C59.1513 24.6939 59.0349 24.8077 58.9186 24.8836V26.4767C59.1901 26.4767 59.4616 26.4767 59.7331 26.4767C60.3925 26.4767 61.2458 26.856 61.8665 27.4629C62.4483 28.0698 62.9137 28.9043 62.9137 29.9284L62.8749 38.5387C62.8749 39.1836 62.3319 39.7146 61.6725 39.7146C61.0131 39.7146 60.4701 39.1836 60.4701 38.5387L60.5089 29.9284C60.5089 29.625 60.3537 29.3215 60.1598 29.1319C60.0046 28.9422 59.8495 28.8663 59.7719 28.8663C59.3065 28.8663 58.7246 28.8663 58.3368 28.8284L56.7852 30.725C56.7077 30.8388 56.6301 30.9146 56.5525 30.9905C56.0095 31.4077 55.2725 31.2939 54.8458 30.8008L53.2555 28.8284C52.8289 28.8284 52.2083 28.8663 51.704 28.8663H51.5877C51.5101 28.8663 51.3549 28.9801 51.1998 29.1319C51.0058 29.3215 50.8507 29.587 50.8507 29.8905L50.8895 31.256C50.8895 31.9008 50.3852 32.4319 49.7258 32.4698C49.0665 32.4698 48.5234 31.9767 48.4846 31.3319L48.4459 29.8905C48.4459 28.9043 48.9113 28.0698 49.4931 27.4629C50.0749 26.8939 50.8119 26.5525 51.4713 26.5146H51.6265C51.898 26.5146 52.1695 26.5146 52.441 26.5146V25.1491C52.2083 24.9974 51.9755 24.8077 51.7816 24.6181C51.0446 23.8974 50.5792 22.8732 50.5792 21.7732V19.4215C50.5792 18.3215 51.0446 17.2974 51.7816 16.5767C52.0531 16.3112 52.4022 16.0456 52.7513 15.856L52.7901 14.5663C52.7901 14.2629 52.6349 13.9974 52.441 13.8077C52.2858 13.656 52.1307 13.5422 52.0531 13.5422H52.0143C51.5489 13.5422 50.9671 13.5043 50.5792 13.5043L49.0277 15.4008C48.9501 15.5146 48.8725 15.5905 48.7949 15.6663C48.2907 16.0836 47.5149 15.9698 47.0883 15.4767L45.498 13.5043C45.0713 13.5043 44.4507 13.5422 43.9465 13.5422H43.9077C43.8301 13.5422 43.6749 13.656 43.5198 13.8077C43.3258 13.9974 43.1707 14.2629 43.1707 14.5663V14.6801C43.1319 15.1732 42.8216 15.5905 42.3562 15.7422C42.8216 15.9319 43.2483 16.2353 43.5974 16.5767C44.3343 17.2974 44.7998 18.3215 44.7998 19.4215V21.7732C44.7998 22.8732 44.3343 23.8974 43.5974 24.6181L43.5198 24.6939C43.4422 24.7698 43.3646 24.8456 43.2483 24.9215V26.5146C43.5198 26.5146 43.7913 26.5146 44.0628 26.5146H44.218C44.8386 26.5525 45.6143 26.8939 46.1962 27.4629C46.778 28.0319 47.2434 28.8663 47.2434 29.8905L47.2046 31.3319C47.2046 31.9767 46.6228 32.5077 45.9634 32.4698C45.304 32.4698 44.761 31.9008 44.7998 31.256L44.8386 29.8905C44.8386 29.587 44.6834 29.3215 44.4895 29.1319C44.3343 28.9801 44.1792 28.8663 44.1016 28.8663H44.0628C43.5974 28.8663 43.0155 28.8663 42.6277 28.8284L41.0762 30.725C40.9986 30.8388 40.921 30.9146 40.8434 30.9905C40.3392 31.4077 39.5634 31.2939 39.1368 30.8008L37.5077 28.8284C37.081 28.8284 36.4604 28.8663 35.9562 28.8663H35.9174C35.8398 28.8663 35.6846 28.9801 35.5295 29.1319C35.4907 29.1698 35.4519 29.2456 35.4131 29.2836C35.3743 29.3594 35.3355 29.4732 35.258 29.5491C35.2192 29.6629 35.1804 29.7767 35.1804 29.8905V30.0043C35.1416 30.3836 34.9477 30.725 34.6762 30.9146C38.6713 31.4456 42.2398 33.2663 44.9549 35.8836C48.2519 39.0698 50.2689 43.4698 50.2689 48.3629C50.2689 53.2181 48.2131 57.6181 44.9549 60.8422C41.658 64.0284 37.1198 66.0008 32.1162 66.0008C27.1125 66.0008 22.5355 64.0284 19.2386 60.8422C15.9416 57.656 13.9246 53.256 13.9246 48.3629C13.9246 43.5077 15.9804 39.0698 19.2386 35.8836C21.9149 33.2663 25.4446 31.4836 29.3622 30.9146C29.0519 30.725 28.858 30.3836 28.8192 30.0043V29.8905C28.8192 29.7388 28.7804 29.587 28.7028 29.4732L28.664 29.3974C28.6252 29.3215 28.5477 29.2456 28.4701 29.1698C28.3149 29.0181 28.1598 28.9043 28.0822 28.9043H28.0434C27.578 28.9043 26.9962 28.9043 26.6083 28.8663L25.0568 30.7629C24.9792 30.8767 24.9016 30.9525 24.824 31.0284C24.3198 31.4457 23.544 31.3319 23.1174 30.8388L21.5271 28.8284C21.1004 28.8284 20.4798 28.8663 19.9755 28.8663H19.9368C19.8592 28.8663 19.704 28.9801 19.5489 29.1319C19.3549 29.3215 19.1998 29.587 19.1998 29.8905L19.2386 31.256C19.2386 31.9008 18.7343 32.4319 18.0749 32.4698C17.4155 32.4698 16.8725 31.9767 16.8337 31.3319L16.7949 29.8905C16.7949 28.9043 17.2604 28.0698 17.8422 27.4629C18.424 26.8939 19.161 26.5525 19.8204 26.5146H19.9755C20.2471 26.5146 20.5186 26.5146 20.7513 26.5146V25.1491C20.5186 24.9974 20.2858 24.8077 20.0919 24.6181C19.3549 23.8974 18.8895 22.8732 18.8895 21.7732V19.4215C18.8895 18.3215 19.3549 17.2974 20.0919 16.5767C20.3246 16.3491 20.5962 16.1215 20.9065 15.9698L20.9452 14.6043C20.9452 14.3008 20.7901 14.0353 20.5962 13.8456C20.441 13.6939 20.2858 13.5801 20.2083 13.5801H20.1695C19.704 13.5801 19.1222 13.5422 18.7343 13.5422L17.1828 15.4388C17.1052 15.5525 17.0277 15.6284 16.9501 15.7043C16.4458 16.1215 15.6701 16.0077 15.2434 15.5146L13.6531 13.5422C13.2265 13.5422 12.6058 13.5801 12.1016 13.5801H12.0628C11.9852 13.5801 11.8301 13.6939 11.6749 13.8456C11.481 14.0353 11.3258 14.3008 11.3258 14.6043L11.3646 15.9698V16.0077C11.481 16.1215 11.6362 16.2353 11.7525 16.3491C12.4895 17.0698 12.9549 18.0939 12.9549 19.1939V21.5456C12.9549 22.6456 12.4895 23.6698 11.7525 24.3905C11.6362 24.5043 11.5198 24.5801 11.4034 24.6939V26.287C11.6749 26.287 11.9465 26.287 12.218 26.287H12.3731C12.9937 26.325 13.7695 26.7043 14.3513 27.2732C14.9331 27.8422 15.3986 28.6767 15.3986 29.7008L15.3598 31.1422C15.3598 31.787 14.778 32.3181 14.1186 32.2801C13.4592 32.2801 12.9162 31.7112 12.9549 31.0663L12.9937 29.7008C12.9937 29.3974 12.8386 29.1319 12.6446 28.9422C12.4895 28.7905 12.3343 28.6767 12.2568 28.6767H12.218C11.7525 28.6767 11.1707 28.6767 10.7828 28.6388L9.2313 30.5353C9.15373 30.6491 9.07615 30.725 8.99858 30.8008C8.49433 31.2181 7.71857 31.1422 7.29191 30.6112L5.7016 28.6388C5.27494 28.6388 4.65433 28.6767 4.15009 28.6767C4.07251 28.6767 3.91736 28.7905 3.76221 28.9422C3.56827 29.1319 3.41312 29.4353 3.41312 29.7388L3.45191 38.6905C3.45191 39.3353 2.90888 39.8663 2.24948 39.8663C1.59009 39.8663 1.04706 39.3353 1.04706 38.6905L0.930696 29.7008C0.930696 28.6767 1.39615 27.8422 1.97797 27.2353C2.59857 26.6284 3.41312 26.2491 4.1113 26.2491C4.38282 26.2491 4.65433 26.2491 4.88706 26.2491V24.8836C4.65433 24.7319 4.4216 24.5422 4.22766 24.3525C3.4907 23.6319 3.02524 22.6077 3.02524 21.5077V19.156C3.02524 18.056 3.4907 17.0319 4.22766 16.3112C4.96463 15.5905 6.01191 15.1353 7.13676 15.1353H8.84342H8.921V14.5663C8.921 13.5801 9.38645 12.7456 9.96827 12.1388C10.5501 11.5698 11.2871 11.2284 11.9465 11.1905H12.1016C12.3731 11.1905 12.6446 11.1905 12.8774 11.1905V9.82496C12.6446 9.67323 12.4119 9.48358 12.218 9.29393C11.481 8.57324 11.0155 7.5491 11.0155 6.4491V4.09737C11.0155 2.99737 11.481 1.97324 12.218 1.25255L12.2955 1.17668C13.0325 0.418063 14.041 0.000821661 15.1271 0.000821661H16.8337C17.9586 0.000821661 19.0058 0.455994 19.7428 1.17668C20.4798 1.89737 20.9452 2.92151 20.9452 4.02151V6.37324C20.9452 7.47324 20.4798 8.49737 19.7428 9.21806C19.6265 9.33186 19.5101 9.44565 19.3937 9.52151V11.1146C19.6652 11.1146 19.9368 11.1146 20.2083 11.1146H20.3634C20.984 11.1525 21.7598 11.4939 22.3416 12.0629C22.9234 12.6319 23.3889 13.4663 23.3889 14.4905L23.3501 15.287H24.7077C24.824 15.287 24.9404 15.287 25.0568 15.287C24.9016 15.0974 24.7852 14.8698 24.7465 14.6043V14.4525C24.7465 13.4663 25.2119 12.6319 25.7937 12.025C26.3755 11.456 27.1125 11.1146 27.7719 11.0767H27.9271C28.1986 11.0767 28.4701 11.0767 28.7416 11.0767V9.71117C28.5089 9.55944 28.2762 9.36979 28.0822 9.18013C27.3452 8.45944 26.8798 7.4353 26.8798 6.3353V3.98358C26.8798 2.88358 27.3452 1.85944 28.0822 1.13875C28.7804 0.455994 29.8277 0.000821661 30.9525 0.000821661H32.6592C33.784 0.000821661 34.8313 0.455994 35.5683 1.17668C36.3052 1.89737 36.7707 2.92151 36.7707 4.02151V6.37324C36.7707 7.47324 36.3052 8.49737 35.5683 9.21806C35.4519 9.33186 35.3355 9.44565 35.2192 9.52151V11.1146C35.4907 11.1146 35.7622 11.1146 35.9949 11.1146H36.1501C36.7707 11.1525 37.5465 11.4939 38.1283 12.0629C38.7101 12.6319 39.1755 13.4663 39.1755 14.4905L39.1368 15.287H40.6495C40.7659 15.287 40.8822 15.287 40.9986 15.287C40.8434 15.0974 40.7271 14.8698 40.6883 14.6043V14.4525C40.6883 13.4663 41.1537 12.6319 41.7355 12.025C42.3174 11.456 43.0543 11.1146 43.7137 11.0767H43.8689C44.1404 11.0767 44.4119 11.0767 44.6834 11.0767V9.71117C44.4507 9.55944 44.218 9.36979 44.024 9.18013C43.2871 8.45944 42.8216 7.4353 42.8216 6.3353V3.98358C42.8216 2.88358 43.2871 1.85944 44.024 1.13875C44.761 0.418063 45.8083 -0.0371094 46.9331 -0.0371094H48.6398C49.7646 -0.0371094 50.8119 0.418063 51.5489 1.13875C52.2858 1.85944 52.7513 2.88358 52.7513 3.98358V6.3353C52.7513 7.4353 52.2858 8.45944 51.5489 9.18013C51.4325 9.29393 51.3162 9.40772 51.1998 9.48358V11.0767C51.4713 11.0767 51.7428 11.0767 51.9755 11.0767H52.1307C52.7513 11.1146 53.5271 11.456 54.1089 12.025C54.6907 12.5939 55.1562 13.4284 55.1562 14.4525V15.3629ZM57.5998 47.756C58.2592 47.756 58.8022 48.287 58.8022 48.9319C58.8022 49.5767 58.2592 50.1077 57.5998 50.1077H52.441C51.7816 50.1077 51.2386 49.5767 51.2386 48.9319C51.2386 48.287 51.7816 47.756 52.441 47.756H57.5998ZM62.7586 52.4974C63.418 52.4974 63.961 53.0284 63.961 53.6732C63.961 54.3181 63.418 54.8491 62.7586 54.8491H52.4798C51.8204 54.8491 51.2774 54.3181 51.2774 53.6732C51.2774 53.0284 51.8204 52.4974 52.4798 52.4974H62.7586ZM60.3925 43.0525C61.0519 43.0525 61.5949 43.5836 61.5949 44.2284C61.5949 44.8732 61.0519 45.4043 60.3925 45.4043H52.2471C51.5877 45.4043 51.0446 44.8732 51.0446 44.2284C51.0446 43.5836 51.5877 43.0525 52.2471 43.0525H60.3925ZM6.39979 50.1456C5.74039 50.1456 5.19736 49.6146 5.19736 48.9698C5.19736 48.325 5.74039 47.7939 6.39979 47.7939H11.5586C12.218 47.7939 12.761 48.325 12.761 48.9698C12.761 49.6146 12.218 50.1456 11.5586 50.1456C11.5198 50.1456 6.39979 50.1456 6.39979 50.1456ZM1.241 54.8491C0.581605 54.8491 0.0385742 54.3181 0.0385742 53.6732C0.0385742 53.0284 0.581605 52.4974 1.241 52.4974H11.5198C12.1792 52.4974 12.7222 53.0284 12.7222 53.6732C12.7222 54.3181 12.1792 54.8491 11.5198 54.8491H1.241ZM3.60706 45.4043C2.94767 45.4043 2.40463 44.8732 2.40463 44.2284C2.40463 43.5836 2.94767 43.0525 3.60706 43.0525H11.7525C12.4119 43.0525 12.9549 43.5836 12.9549 44.2284C12.9549 44.8732 12.4119 45.4043 11.7525 45.4043H3.60706ZM23.3889 56.4422C23.3889 57.087 22.8458 57.6181 22.1865 57.6181C21.5271 57.6181 20.984 57.087 20.984 56.4422V54.925C20.984 54.8112 20.984 54.6974 21.0228 54.5836C21.178 54.0525 21.9537 51.5491 24.5137 51.0181C25.9489 50.7146 27.1125 50.6388 27.7331 50.6388V49.3112C26.8022 48.0974 26.0652 46.5043 26.0652 45.6319V42.0284C25.8713 41.8767 25.6774 41.687 25.4834 41.4594C25.1731 41.0422 24.9404 40.4732 24.8628 39.8663V39.8284C24.7852 39.2215 24.8628 38.5767 25.1731 37.9698C25.6774 36.9456 26.7634 36.0732 28.7804 35.8836C28.858 35.8077 28.9355 35.7319 29.0131 35.656C29.5174 35.2008 30.2931 34.9353 31.1465 34.8215C31.8446 34.7457 32.6592 34.7456 33.3574 34.8594C34.4046 35.0112 35.4131 35.3525 35.8786 35.8456C36.0725 36.0353 35.7234 36.0732 35.6459 36.0732C35.8398 36.0732 36.0337 36.1112 36.1889 36.225C36.5768 36.4146 38.9428 37.5905 38.9816 40.2077C39.0204 41.9146 38.4386 42.6732 37.7792 42.9767V45.4801C37.7792 46.2388 37.5465 46.9974 37.2362 47.756C37.1586 47.9456 37.081 48.0974 36.9646 48.287V51.0181H39.1368C39.7574 51.0181 40.9986 51.2836 41.8907 52.0422C42.5501 52.5732 43.0543 53.3698 43.0931 54.4319C43.2095 56.7077 42.744 57.1629 42.744 57.1629C42.2786 57.6181 41.5028 57.6181 41.0374 57.1629C40.5719 56.7077 40.5719 55.9491 41.0374 55.4939C41.0374 55.4939 40.7659 55.7594 40.6883 54.5457C40.6883 54.2043 40.5331 53.9767 40.3392 53.825C39.9513 53.4836 39.4471 53.3698 39.1755 53.3698H36.2277L34.0943 55.1146C33.8616 55.3422 33.5901 55.456 33.241 55.456H31.1465C30.8749 55.456 30.6034 55.3422 30.3707 55.1525L28.5865 53.6732C28.3149 53.5594 28.0822 53.3698 27.9271 53.1422L27.8495 53.0663C27.3065 53.0663 26.298 53.1422 25.018 53.3698C23.9319 53.5974 23.5052 54.7353 23.4277 55.0767L23.3889 56.4422ZM30.138 51.8905L31.4955 53.0284H32.698L34.4822 51.587V51.1319C34.1331 51.2836 33.784 51.3594 33.3574 51.3594H30.7198C30.5258 51.3594 30.3319 51.3215 30.138 51.2836V51.8905ZM29.8277 48.0974C29.8665 48.1732 29.944 48.2112 29.9828 48.287C30.3319 48.7043 30.6034 49.0077 30.7198 49.0077H33.4349C33.5125 48.9698 33.6677 48.7801 33.8616 48.5525C34.1331 48.2112 34.6374 47.5284 34.9477 46.7698C35.1416 46.3146 35.2968 45.8215 35.2968 45.4422V42.787C34.3271 42.4836 32.6204 42.0663 31.2628 42.1043C30.138 42.1422 29.1295 42.1801 28.4701 42.2181V45.5939C28.4701 46.0112 29.0131 46.9974 29.6725 47.8698C29.6725 47.9077 29.8277 48.0974 29.8277 48.0974ZM36.7707 40.7388C36.6931 40.7008 36.538 40.5491 36.538 40.2077C36.4992 38.9181 35.064 38.3112 35.064 38.3112L35.1028 38.2732C34.8313 38.1215 34.4822 37.8939 34.0943 37.4388C34.0168 37.3629 33.5901 37.2491 33.0083 37.1732C32.504 37.0974 31.9222 37.0974 31.418 37.1353C31.1077 37.1732 30.8362 37.2491 30.681 37.325C30.5258 37.8181 30.0604 38.1974 29.5174 38.1974C28.1598 38.1974 27.5392 38.5387 27.3065 38.956C27.2289 39.1456 27.1901 39.3353 27.2289 39.487V39.525C27.2289 39.6767 27.2677 39.7905 27.3452 39.8663C27.8495 39.8284 29.3234 39.7525 31.1852 39.7146C33.3574 39.6767 36.0337 40.5112 36.7707 40.7388ZM33.1246 30.7629C32.9307 30.5732 32.8143 30.3456 32.7755 30.0422H31.224C31.1852 30.3077 31.0689 30.5732 30.8749 30.7629C31.2628 30.725 31.6507 30.725 32.0774 30.725C32.4265 30.725 32.7755 30.7629 33.1246 30.7629ZM43.2483 37.5905C40.4168 34.8215 36.4604 33.1146 32.1162 33.1146C27.7719 33.1146 23.8155 34.8215 20.984 37.5905C18.1525 40.3594 16.3683 44.1525 16.3683 48.3629C16.3683 52.5732 18.1137 56.4043 20.984 59.1353C23.8155 61.9043 27.7719 63.6112 32.1162 63.6112C36.4604 63.6112 40.4168 61.9043 43.2483 59.1353C46.0798 56.3663 47.864 52.5732 47.864 48.3629C47.8252 44.1525 46.0798 40.3594 43.2483 37.5905ZM33.6289 27.6905C33.7065 27.6146 33.7452 27.5388 33.8228 27.5008C34.4046 26.9319 35.1416 26.5905 35.801 26.5525H35.9562C36.2277 26.5525 36.4992 26.5525 36.7319 26.5525V25.187C36.4992 25.0353 36.2665 24.8456 36.0725 24.656C35.3355 23.9353 34.8701 22.9112 34.8701 21.8112V19.4594C34.8701 18.3594 35.3355 17.3353 36.0725 16.6146C36.2665 16.425 36.4992 16.2353 36.7319 16.0836C36.7319 16.0456 36.7319 16.0077 36.7319 15.9698L36.7707 14.6043C36.7707 14.3008 36.6155 14.0353 36.4216 13.8456C36.2665 13.6939 36.1113 13.5801 36.0337 13.5801H35.9949C35.5295 13.5801 34.9477 13.5422 34.5598 13.5422L33.0083 15.4388C32.9307 15.5525 32.8531 15.6284 32.7755 15.7043C32.2325 16.1215 31.4955 16.0077 31.0689 15.5146L29.4786 13.5043C29.0519 13.5043 28.4313 13.5422 27.9271 13.5422H27.8883C27.8107 13.5422 27.6555 13.656 27.5004 13.8077C27.3065 13.9974 27.1513 14.2629 27.1513 14.5663V14.6801C27.1125 15.1732 26.8022 15.5525 26.3755 15.7043C26.841 15.8939 27.2677 16.1974 27.6168 16.5388L27.6943 16.6146C28.3925 17.3353 28.8192 18.3215 28.8192 19.3836V21.7353C28.8192 22.8353 28.3537 23.8594 27.6168 24.5801C27.5004 24.6939 27.384 24.8077 27.2677 24.8836V26.4767C27.5392 26.4767 27.8107 26.4767 28.0434 26.4767H28.1986C28.8192 26.5146 29.5949 26.856 30.1768 27.425C30.2543 27.5008 30.2931 27.5767 30.3707 27.6146C30.3707 27.6905 33.6289 27.6905 33.6289 27.6905ZM8.95979 26.9698V25.5284H8.80464H7.29191V26.856L8.18403 27.956L8.95979 26.9698ZM8.84342 17.487H7.13676C6.6713 17.487 6.24464 17.6767 5.93433 17.9801C5.62403 18.2836 5.43009 18.7008 5.43009 19.156V21.5077C5.43009 21.9629 5.62403 22.3801 5.93433 22.6836C6.08948 22.8353 6.28342 22.987 6.51615 23.0629C6.71009 23.1388 6.90403 23.1767 7.09797 23.1767H8.80464C9.07615 23.1767 9.34767 23.1008 9.58039 22.987C9.73554 22.9112 9.85191 22.7974 9.96827 22.6836C10.2786 22.3801 10.4725 21.9629 10.4725 21.5077V19.156C10.4725 18.7008 10.2786 18.2836 9.96827 17.9801C9.69676 17.6767 9.30888 17.487 8.84342 17.487ZM47.1271 11.7215L48.0192 12.8215L48.7949 11.8732V10.4319H48.6398H47.1271V11.7215ZM48.6398 2.39048H46.9331C46.4677 2.39048 46.041 2.58013 45.7307 2.88358C45.4204 3.18703 45.2265 3.60427 45.2265 4.05944V6.41117C45.2265 6.86634 45.4204 7.28358 45.7307 7.58703C45.8858 7.73875 46.0798 7.89048 46.3125 7.96634C46.5065 8.0422 46.7004 8.08013 46.8943 8.08013H48.601C48.8725 8.08013 49.144 8.00427 49.3768 7.89048C49.5319 7.81461 49.6483 7.70082 49.8034 7.58703C50.1137 7.28358 50.3077 6.86634 50.3077 6.41117V4.05944C50.3077 3.60427 50.1137 3.18703 49.8034 2.88358C49.5319 2.5422 49.1052 2.39048 48.6398 2.39048ZM31.1465 11.7215L32.0386 12.8215L32.8143 11.8732V10.4319H32.6592H31.1465V11.7215ZM32.6592 2.39048H30.9525C30.4871 2.39048 30.0604 2.58013 29.7501 2.88358C29.4398 3.18703 29.2458 3.60427 29.2458 4.05944V6.41117C29.2458 6.86634 29.4398 7.28358 29.7501 7.58703C29.9052 7.73875 30.0992 7.89048 30.3319 7.96634C30.5258 8.0422 30.7198 8.08013 30.9137 8.08013H32.6204C32.8919 8.08013 33.1634 8.00427 33.3962 7.89048C33.5513 7.81461 33.6677 7.70082 33.8228 7.58703C34.1331 7.28358 34.3271 6.86634 34.3271 6.41117V4.05944C34.3271 3.60427 34.1331 3.18703 33.8228 2.88358C33.5125 2.58013 33.1246 2.39048 32.6592 2.39048ZM15.321 11.7215L16.2131 12.8215L16.9889 11.8732V10.4319H16.8337H15.321V11.7215ZM14.4677 7.92841C14.5065 7.92841 14.5452 7.96634 14.584 7.96634C14.7392 8.0422 14.9331 8.0422 15.1271 8.0422H16.8337C17.1052 8.0422 17.3768 7.96634 17.6095 7.85255C17.7646 7.77668 17.881 7.66289 17.9974 7.5491C18.3077 7.24565 18.5016 6.82841 18.5016 6.37324V4.02151C18.5016 3.56634 18.3077 3.1491 17.9974 2.84565C17.6871 2.5422 17.2604 2.35255 16.7949 2.35255H15.1271C14.7004 2.35255 14.2737 2.50427 13.9634 2.76979L13.9246 2.80772C13.6143 3.11117 13.4204 3.52841 13.4204 3.98358V6.3353C13.4204 6.79048 13.6143 7.20772 13.9246 7.51117C14.0798 7.70082 14.2737 7.81461 14.4677 7.92841ZM23.1949 27.0836L24.0871 28.1836L24.8628 27.2353V25.756H24.7077H23.1949V27.0836ZM22.3416 23.2525C22.3804 23.2525 22.4192 23.2905 22.458 23.2905C22.6131 23.3284 22.8071 23.3663 23.001 23.3663H24.7077C24.9792 23.3663 25.2507 23.2905 25.4834 23.1767H25.5222C25.6774 23.1008 25.7937 22.987 25.9101 22.8732C26.2204 22.5698 26.4143 22.1525 26.4143 21.6974V19.3456C26.4143 18.9284 26.2592 18.5112 25.9877 18.2077H25.8713C25.561 17.9043 25.1343 17.7146 24.6689 17.7146H22.9622C22.4968 17.7146 22.0701 17.9043 21.7598 18.2077C21.4495 18.5112 21.2555 18.9284 21.2555 19.3836V21.7353C21.2555 22.1905 21.4495 22.6077 21.7598 22.9112C21.9537 23.0629 22.1477 23.1767 22.3416 23.2525ZM39.1755 27.0836L40.0677 28.1836L40.8434 27.2353V25.756H40.6883H39.1755V27.0836ZM41.4252 23.2525C41.464 23.2146 41.5028 23.2146 41.5416 23.1767C41.658 23.1008 41.7355 23.0629 41.8519 22.9491L41.8907 22.9112C42.201 22.6077 42.3949 22.1905 42.3949 21.7353V19.3836C42.3949 18.9284 42.201 18.5112 41.8907 18.2077C41.5804 17.9043 41.1537 17.7146 40.6883 17.7146H38.9816C38.5162 17.7146 38.0895 17.9043 37.7792 18.2077C37.4689 18.5112 37.2749 18.9284 37.2749 19.3836V21.7353C37.2749 22.1905 37.4689 22.6077 37.7792 22.9112C37.9343 23.0629 38.1283 23.2146 38.361 23.2905C38.5549 23.3663 38.7489 23.4043 38.9428 23.4043H40.6495C40.9598 23.4043 41.1925 23.3284 41.4252 23.2525ZM56.5137 27.2353V25.756H56.3586H54.8458V27.0836L55.738 28.1836L56.5137 27.2353ZM56.3586 17.7525H54.6519C54.1865 17.7525 53.7598 17.9422 53.4495 18.2456C53.1392 18.5491 52.9452 18.9663 52.9452 19.4215V21.7732C52.9452 22.2284 53.1392 22.6456 53.4495 22.9491C53.6046 23.1008 53.7986 23.2525 54.0313 23.3284C54.2252 23.4043 54.4192 23.4422 54.6131 23.4422H56.3198C56.5913 23.4422 56.8628 23.3663 57.0955 23.2525C57.2507 23.1767 57.3671 23.0629 57.4834 22.9491C57.7937 22.6456 57.9877 22.2284 57.9877 21.7732V19.4215C57.9877 19.0043 57.8325 18.587 57.561 18.2836L57.5222 18.2456C57.2507 17.9043 56.824 17.7525 56.3586 17.7525Z" fill="#DC3143"/>
</g>
<defs>
<clipPath id="clip0">
<rect width="64" height="66" fill="white"/>
</clipPath>
</defs>
</svg>
