<svg width="54" height="67" viewBox="0 0 54 67" fill="none" xmlns="http://www.w3.org/2000/svg">
<g clip-path="url(#clip0)">
<path d="M26.7938 5.33315C22.2762 5.33315 18.1468 7.22663 15.1468 10.2853C12.1115 13.3804 10.2762 17.6408 10.2762 22.3016V22.8114H7.41735V17.9321C7.41735 14.5821 9.28793 11.3413 11.7938 8.68315C15.0056 5.44239 19.0291 3.25761 21.6056 3.25761H31.8409C35.5468 3.25761 38.6879 5.11467 41.1232 7.62717C44.3703 10.9772 46.2762 15.456 46.2762 18.1505V22.4109H43.3468V22.338C43.3468 17.6772 41.4762 13.4168 38.4762 10.3217C35.4762 7.22663 31.3468 5.33315 26.7938 5.33315ZM29.7232 65.4875H24.4291V63.0842H29.7232V65.4875ZM23.335 67.7815H30.8173H52.9821C53.5821 67.7815 54.0762 67.2717 54.0762 66.6527V62.8658C54.0762 62.0283 54.0056 61.1179 53.335 60.0255C52.735 59.0424 51.7115 58.0592 49.7703 56.9304C46.8409 55.2918 40.8056 53.0706 38.7232 52.2696V50.0119C38.7232 48.5554 37.6291 47.4266 36.9232 46.8804V45.4239C37.3468 44.987 37.7703 44.5136 38.1585 44.0038C40.135 41.6734 41.6173 38.7603 42.4644 35.8109C43.0644 36.4299 43.9115 36.794 45.0056 36.794C48.4644 36.794 48.4644 33.1163 48.4644 33.1163V23.5397V18.1505C48.4644 14.9826 46.2762 9.81196 42.6409 6.025C39.8879 3.14837 36.1821 1 31.8409 1H21.6409C18.5703 1 13.8409 3.47609 10.3115 7.11739C7.41735 10.1033 5.22911 13.9266 5.22911 17.9321V24.013V32.9706C5.22911 33.5533 5.2997 34.0995 5.51146 34.6456C5.8644 38.8331 8.75852 39.7435 9.28793 39.8891C9.42911 39.9255 9.4997 39.9255 9.64088 39.9255H13.5232C14.1585 41.1272 14.8291 42.256 15.6056 43.312C16.1703 44.0038 16.6997 44.7321 17.3703 45.3875V46.8076C16.735 47.3174 15.4644 48.4826 15.4644 50.0484V52.306C13.3468 53.1071 7.31146 55.3283 4.38205 56.9668C2.47617 58.0592 1.38205 59.0788 0.817348 60.062C0.182056 61.1543 0.0761719 62.1011 0.0761719 62.9022V66.6891C0.0761719 67.3081 0.57029 67.8179 1.17029 67.8179H23.335V67.7815ZM29.0526 60.8266H25.0997L27.1115 56.8576L29.0526 60.8266ZM16.1703 63.9217C16.7703 63.9217 17.2644 63.4484 17.2644 62.7929C17.2644 62.1739 16.7703 61.7005 16.1703 61.7005H11.4409C10.8409 61.7005 10.3821 62.1739 10.3821 62.7929C10.3821 63.4484 10.8409 63.9217 11.4409 63.9217H16.1703ZM22.2409 62.3924V65.5239H2.2997V62.9022C2.2997 62.3924 2.33499 61.8098 2.68793 61.2272C3.07617 60.5717 3.88794 59.8071 5.44088 58.9331C8.2644 57.4038 14.1232 55.1826 16.1703 54.4543L22.2409 62.3924ZM27.1115 52.9978C25.8409 52.7429 21.1115 51.5777 19.5585 49.8299V47.3538C21.7468 49.0652 24.2173 50.1212 26.7938 50.1212C29.6879 50.1212 32.3703 49.0652 34.735 47.3538V47.4266V49.6114C33.3585 51.5777 28.3821 52.7429 27.1115 52.9978ZM17.6526 52.6701V50.9587C19.2409 53.1071 23.3703 54.4179 25.5938 55.0005L23.1232 59.8799L17.6526 52.6701ZM38.0173 54.4179C40.0644 55.1826 45.8879 57.3674 48.7115 58.8967C50.2997 59.7706 51.1115 60.5353 51.535 61.1908C51.8879 61.7734 51.8879 62.3196 51.8879 62.8658V65.4875H31.9468V62.356L38.0173 54.4179ZM36.4997 50.9587V52.6701L31.0644 59.8799L28.5938 55.0005C30.8173 54.4179 34.9468 53.1071 36.4997 50.9587ZM35.1585 44.0766C35.1232 44.113 35.0879 44.1495 35.0173 44.1495C32.7232 46.4071 29.8644 47.8636 26.7938 47.8636C23.2644 47.8636 19.9468 45.3875 17.3703 41.9283C16.9115 41.2728 16.4879 40.6174 16.0644 39.8891H21.7821C22.3821 39.8891 22.8762 39.3793 22.8762 38.7603C22.8762 38.1413 22.3821 37.6315 21.7821 37.6315H14.8644C13.3821 34.4272 12.4644 30.9315 12.4644 27.9092V23.9766V22.3016C12.4644 18.2598 14.0879 14.5457 16.6997 11.8875C19.3115 9.26576 22.8762 7.59076 26.7938 7.59076C30.7468 7.59076 34.3468 9.26576 36.9232 11.8875C39.535 14.5821 41.0879 18.2598 41.0879 22.3016V23.5397V30.1668C41.0879 34.6456 39.2526 39.1973 36.4997 42.5837C36.0762 43.1299 35.6173 43.6397 35.1585 44.0766ZM12.4644 37.6315H9.74676C9.57029 37.5951 9.07617 37.413 8.65264 36.8668C9.64088 36.8668 10.6644 36.4663 11.4056 35.6652C11.4762 35.5924 11.5468 35.4832 11.6173 35.4103C11.8644 36.175 12.1468 36.9033 12.4644 37.6315ZM28.5585 40.2897C29.1585 40.2897 29.6173 39.7799 29.6173 39.1609C29.6173 38.5418 29.1585 38.0321 28.5585 38.0321H25.0997C24.4997 38.0321 24.0056 38.5418 24.0056 39.1609C24.0056 39.7799 24.4997 40.2897 25.0997 40.2897H28.5585ZM31.6997 37.0853C32.335 37.0853 32.7938 36.612 32.7938 35.9565C32.7938 35.3375 32.335 34.8641 31.6997 34.8641H22.2762C21.6762 34.8641 21.2173 35.3375 21.2173 35.9565C21.2173 36.612 21.6762 37.0853 22.2762 37.0853H31.6997ZM22.9468 26.8533C23.5821 26.8533 24.0409 26.3799 24.0409 25.7245C24.0409 25.1054 23.5821 24.6321 22.9468 24.6321H17.7938C17.1938 24.6321 16.6997 25.1054 16.6997 25.7245C16.6997 26.3799 17.1938 26.8533 17.7938 26.8533H22.9468ZM36.5703 26.8533C37.1703 26.8533 37.6644 26.3799 37.6644 25.7245C37.6644 25.1054 37.1703 24.6321 36.5703 24.6321H31.3821C30.7821 24.6321 30.3232 25.1054 30.3232 25.7245C30.3232 26.3799 30.7821 26.8533 31.3821 26.8533C31.3468 26.8533 36.5703 26.8533 36.5703 26.8533ZM10.3115 25.1054V27.9092V32.6429C10.3115 33.3348 10.0997 33.7717 9.85264 34.0995C9.4997 34.4636 9.00558 34.6092 8.54676 34.6092C8.2644 34.6092 7.98205 34.4636 7.80558 34.2451C7.77029 34.1723 7.6644 34.0266 7.62911 33.9538L7.59382 33.881C7.52323 33.6261 7.45264 33.2984 7.45264 32.9706V25.1054H10.3115ZM46.2762 24.6685V33.1527C46.2762 33.1527 46.2762 34.6092 45.0409 34.6092C44.3703 34.6092 43.9821 34.3179 43.7703 33.8081C43.4173 33.0435 43.3468 31.9147 43.3468 30.4946V30.2033V24.6685H46.2762Z" fill="#DC3143"/>
</g>
<defs>
<clipPath id="clip0">
<rect width="54" height="67" fill="white" transform="matrix(-1 0 0 1 54 0)"/>
</clipPath>
</defs>
</svg>
