<svg width="64" height="55" viewBox="0 0 64 55" fill="none" xmlns="http://www.w3.org/2000/svg">
<g clip-path="url(#clip0)">
<path d="M55.9507 45.171C55.3456 45.171 54.8473 44.6742 54.8473 44.071C54.8473 44.0355 54.8473 43.9645 54.8473 43.8936V12.4548H38.8303C38.2252 12.4548 37.7269 11.9581 37.7269 11.3548C37.7269 10.7516 38.2252 10.2548 38.8303 10.2548H54.8473V1.52581C54.8473 0.922581 55.3456 0.425806 55.9507 0.425806C58.0863 0.425806 60.0083 1.27742 61.3964 2.66129L61.4676 2.73226C62.8557 4.15161 63.7456 6.06774 63.7456 8.23226V49.0387V49.0742C63.7456 50.7065 63.0337 52.1968 61.9659 53.2968C60.8625 54.3968 59.3676 55.071 57.6947 55.071H54.4557C53.8507 55.071 53.3524 54.5742 53.3524 53.971C53.3524 53.3677 53.8507 52.871 54.4557 52.871H57.6947C58.7269 52.871 59.688 52.4452 60.3998 51.771C61.1117 51.0968 61.5032 50.1387 61.5032 49.0742C61.5032 48.0452 61.0761 47.0871 60.3998 46.3774C59.688 45.7032 58.7625 45.2774 57.6947 45.2774L55.9507 45.171ZM30.7507 10.4677C30.7507 10.5387 30.7863 10.6097 30.7863 10.6452C30.7863 11.2484 30.288 11.7452 29.6829 11.7452H25.4117C24.8066 11.7452 24.3083 11.2484 24.3083 10.6452C24.3083 10.0419 24.8066 9.54516 25.4117 9.54516H28.2235C27.9032 8.90645 27.4405 8.30323 26.8354 7.77097C26.0168 7.02581 24.9846 6.52903 23.9168 6.52903C22.7422 6.49355 21.6388 6.95484 20.8202 7.7C20.2151 8.23226 19.7524 8.90645 19.5032 9.6871H21.4964C22.1015 9.6871 22.5998 10.1839 22.5998 10.7871C22.5998 11.3903 22.1015 11.8871 21.4964 11.8871H18.1507C17.5456 11.8871 17.0473 11.3903 17.0473 10.7871C17.0473 10.7161 17.0473 10.6452 17.0829 10.5742C17.0829 10.5387 17.0829 10.5387 17.0829 10.4677C17.2608 8.72903 18.1151 7.16774 19.3608 6.03226C20.571 4.93226 22.2083 4.25806 23.9524 4.32903C25.5896 4.36452 27.1202 5.07419 28.3303 6.13871C29.6473 7.30968 30.5727 8.90645 30.7863 10.3613C30.7507 10.3613 30.7507 10.4323 30.7507 10.4677ZM15.2676 10.6097C15.2676 11.2129 14.7693 11.7097 14.1642 11.7097C13.7727 11.7097 13.4168 11.4968 13.2388 11.2129V13.5548H33.9541V11.4968C33.7761 11.6387 33.5269 11.7452 33.2422 11.7452C32.6371 11.7452 32.1388 11.2484 32.1388 10.6452C32.1388 8.33871 31.2134 6.20968 29.6829 4.71936C28.1524 3.15806 26.0524 2.23548 23.7032 2.23548C21.3896 2.23548 19.2541 3.15806 17.7235 4.68387C16.2286 6.20968 15.2676 8.30323 15.2676 10.6097ZM13.0608 10.3258C13.132 7.52258 14.3066 4.96774 16.193 3.12258C18.0795 1.20645 20.749 0 23.7032 0C26.6574 0 29.3269 1.20645 31.249 3.12258C33.0642 4.93226 34.2388 7.38065 34.3456 10.1129C34.5235 9.97097 34.7727 9.86452 35.0574 9.86452C35.6625 9.86452 36.1608 10.3613 36.1608 10.9645V14.6548C36.1608 15.2581 35.6625 15.7548 35.0574 15.7548H12.0998C11.4947 15.7548 10.9964 15.2581 10.9964 14.6548V10.929C10.9964 10.3258 11.4947 9.82903 12.0998 9.82903C12.5269 9.82903 12.8473 10.0065 13.0608 10.3258ZM29.8252 46.9097H29.7541H29.6829L18.3642 46.8387C17.7591 46.8387 17.2608 46.3419 17.2608 45.7387V32.4677V32.3968V32.3258V19.5161C17.2608 18.9129 17.7591 18.4161 18.3642 18.4161H29.7541H46.8744C47.4795 18.4161 47.9778 18.9129 47.9778 19.5161V23.7742C47.9778 24.3774 47.4795 24.8742 46.8744 24.8742C46.2693 24.8742 45.771 24.3774 45.771 23.7742V20.6516H30.893V23.8806C30.893 24.4839 30.3947 24.9806 29.7896 24.9806C29.1846 24.9806 28.6863 24.4839 28.6863 23.8806V20.6516H19.5032V31.3323H28.6507V29.0968C28.6507 28.4935 29.149 27.9968 29.7541 27.9968C30.3591 27.9968 30.8574 28.4935 30.8574 29.0968V32.3968V36.371C30.8574 36.9742 30.3591 37.471 29.7541 37.471C29.149 37.471 28.6507 36.9742 28.6507 36.371V33.4968H19.5032V44.6387L28.6507 44.6742V41.4452C28.6507 40.8419 29.149 40.3452 29.7541 40.3452C30.3591 40.3452 30.8574 40.8419 30.8574 41.4452V44.7097L45.6998 44.7806V31.8645C45.6998 31.2613 46.1981 30.7645 46.8032 30.7645C47.4083 30.7645 47.9066 31.2613 47.9066 31.8645V45.8452C47.9066 46.4484 47.4083 46.9452 46.8032 46.9452H46.6964C46.7676 46.9452 29.8252 46.9097 29.8252 46.9097ZM45.8066 27.5C45.8422 26.8968 46.3761 26.4355 46.9812 26.471C47.5863 26.5065 48.049 27.0387 48.0134 27.6419L47.9422 28.6355C47.9066 29.2387 47.3727 29.7 46.7676 29.6645C46.1625 29.629 45.6998 29.0968 45.6998 28.4936L45.8066 27.5ZM25.5185 52.9774C24.9134 52.9774 24.4151 52.4806 24.4151 51.8774C24.4151 51.2742 24.9134 50.7774 25.5185 50.7774H27.7252C27.8676 50.3871 28.1168 50.0677 28.4015 49.7839C28.9354 49.2516 29.6829 48.8968 30.5015 48.8968H48.2981C49.1168 48.8968 49.8642 49.2161 50.3981 49.7839C50.932 50.3161 51.2879 51.0613 51.2879 51.8774C51.2879 52.6936 50.932 53.4387 50.3981 53.971C49.8642 54.5032 49.1168 54.8581 48.2981 54.8581H30.5015C29.6829 54.8581 28.9354 54.5387 28.4015 53.971C28.1168 53.6871 27.9032 53.3677 27.7252 52.9774H25.5185ZM48.2981 51.0968H30.5015C30.2879 51.0968 30.11 51.2032 29.9676 51.3452C29.8252 51.4871 29.7185 51.6645 29.7185 51.8774C29.7185 52.0903 29.8252 52.2677 29.9676 52.4097C30.11 52.5516 30.2879 52.6581 30.5015 52.6581H48.2981C48.5117 52.6581 48.7252 52.5516 48.832 52.4097C48.9744 52.2677 49.0812 52.0903 49.0812 51.8774C49.0812 51.6645 48.9744 51.4871 48.832 51.3452C48.6896 51.1677 48.5117 51.0968 48.2981 51.0968ZM57.0896 42.971H57.7303C59.1541 42.971 60.5066 43.4677 61.5388 44.3194V8.19677C61.5388 6.67097 60.8981 5.2871 59.9015 4.25806L59.8659 4.22258C59.1185 3.47742 58.1574 2.98065 57.0896 2.73226V11.3548V42.971ZM1.06592 48.9677V8.16129C1.06592 6.03226 1.95575 4.08065 3.34388 2.69677C4.76761 1.27742 6.68965 0.425806 8.86083 0.425806C9.46592 0.425806 9.96422 0.922581 9.96422 1.52581V43.9645V44.0355V44.1065C9.96422 44.7097 9.46592 45.2065 8.86083 45.2065H7.08117C6.01338 45.2065 5.08795 45.6323 4.37609 46.3065C3.66422 47.0161 3.2727 47.9387 3.2727 49.0032C3.2727 50.0677 3.69982 50.9903 4.37609 51.7C5.05236 52.4097 6.01338 52.8 7.08117 52.8H21.9591C22.5642 52.8 23.0625 53.2968 23.0625 53.9C23.0625 54.5032 22.5642 55 21.9591 55H7.08117C5.40829 55 3.91338 54.3258 2.80999 53.2258C1.74219 52.1613 1.06592 50.6355 1.06592 48.9677ZM7.75744 42.971V2.73226C6.65405 2.98065 5.69304 3.5129 4.90999 4.25806C3.87778 5.2871 3.2727 6.67097 3.2727 8.19677V44.3548C4.3049 43.5032 5.65744 43.0065 7.08117 43.0065H7.75744V42.971Z" fill="#DC3143"/>
</g>
<defs>
<clipPath id="clip0">
<rect width="63" height="55" fill="white" transform="translate(0.923828)"/>
</clipPath>
</defs>
</svg>
