<svg width="61" height="59" viewBox="0 0 61 59" fill="none" xmlns="http://www.w3.org/2000/svg">
<g clip-path="url(#clip0)">
<path d="M4.96813 33.3333C4.96813 32.7333 5.43222 32.3 5.99576 32.3C6.55929 32.3 7.02338 32.7667 7.02338 33.3333V40.6L12.9902 34.9667C13.4212 34.5667 14.051 34.6 14.4488 35L17.8632 38.5333L21.1449 35.3C21.5427 34.9 22.1726 34.9 22.5703 35.3L29.0013 41.4667V17.6667H18.2941H7.02338V25.7667C7.02338 26.3667 6.55929 26.8 5.99576 26.8C5.39907 26.8 4.96813 26.3333 4.96813 25.7667V17.1667C4.96813 13.5667 6.4267 10.2667 8.81344 7.9C11.2002 5.53333 14.4488 4.03333 18.0289 4.03333C21.609 4.03333 24.8908 5.5 27.2444 7.9C29.2665 9.93333 30.6256 12.6333 30.9902 15.6333H32.946C32.5482 12 30.8908 8.73333 28.4046 6.33333C25.7195 3.7 22.04 2.06667 18.0289 2.06667C13.8853 2.06667 10.1394 3.76667 7.45432 6.5C4.73609 9.23333 3.04548 13.0333 3.04548 17.1667V56.9333H58.8024V33.0667C58.8024 32.4667 59.2665 32.0333 59.83 32.0333C60.3935 32.0333 60.8576 32.5 60.8576 33.0667V57.9667C60.8576 58.5333 60.3935 59 59.83 59H2.01786C1.42117 59 0.990234 58.5333 0.990234 57.9667V17.1667C0.990234 12.4333 2.91289 8.16667 5.99576 5.06667C9.07863 1.96667 13.3217 0 18.0289 0C22.6035 0 26.7803 1.86667 29.83 4.86667C32.714 7.63333 34.6035 11.4 35.0013 15.6H35.3659H59.7969C60.3604 15.6 60.8245 16.0667 60.8245 16.6333V26.2667C60.8245 26.8667 60.3604 27.3 59.7969 27.3C59.2002 27.3 58.7692 26.8333 58.7692 26.2667V17.6667H35.3991H34.0731H31.0897V47.1667V53.9333C31.0897 54.5 30.6256 54.9667 30.0621 54.9667H6.02891C5.43222 54.9667 5.00128 54.5 5.00128 53.9333L4.96813 33.3333ZM11.4654 8.3L17.2665 14.1V6.1C15.1118 6.3 13.1228 7.06667 11.4654 8.3ZM15.8079 15.6L9.94051 9.7C8.48195 11.3 7.48747 13.3333 7.15598 15.6H15.8079ZM19.3549 6.2V14.1333L24.8908 8.56667C23.3328 7.3 21.4101 6.43333 19.3549 6.2ZM26.3825 10L20.7803 15.6H28.9018C28.6035 13.4667 27.7085 11.5667 26.3825 10ZM23.7306 23.1667C24.7913 23.1667 25.7527 23.6 26.4819 24.3333C27.1781 25.0333 27.609 26.0333 27.609 27.1C27.609 28.1667 27.1781 29.1667 26.4819 29.8667C25.7858 30.5667 24.7913 31.0333 23.7306 31.0333C22.6698 31.0333 21.6753 30.6 20.9792 29.8667C20.2831 29.1333 19.819 28.1333 19.819 27.0667C19.819 26 20.2499 25.0333 20.946 24.3C21.6422 23.5667 22.6366 23.1667 23.7306 23.1667ZM24.9902 25.7667C24.6587 25.4333 24.1947 25.2333 23.6974 25.2333C23.2002 25.2333 22.7361 25.4333 22.4046 25.7667C22.0731 26.1 21.8742 26.5667 21.8742 27.0667C21.8742 27.5667 22.0731 28.0333 22.4046 28.3667C22.7361 28.7 23.2002 28.9 23.6974 28.9C24.1947 28.9 24.6587 28.7 24.9902 28.3667C25.3217 28.0333 25.5206 27.5667 25.5206 27.0667C25.5206 26.5667 25.3217 26.1 24.9902 25.7667ZM19.3217 40L25.2554 46.1333H29.0013V44.3333L21.8742 37.5C21.9074 37.4667 19.3217 40 19.3217 40ZM7.02338 43.4667V52.9H29.0013V48.2333H18.0621C17.4654 48.2333 17.0344 47.7667 17.0344 47.2C17.0344 46.6333 17.4985 46.1667 18.0621 46.1667H22.4046L17.167 40.7667H17.1339L13.7195 37.2333L7.02338 43.4667ZM15.4433 49.2667C16.04 49.2667 16.4709 49.7333 16.4709 50.3C16.4709 50.9 16.0068 51.3333 15.4433 51.3333H8.71399C8.11731 51.3333 7.68637 50.8667 7.68637 50.3C7.68637 49.7333 8.15045 49.2667 8.71399 49.2667H15.4433ZM55.0565 44.1H46.1063V52.6H55.0565V44.1ZM44.0179 44.1H35.0676V52.6H44.0179V44.1ZM35.1007 42.0333H44.051V33.0667H35.1007V42.0333ZM46.1063 42.0333H55.0565V33.0667H46.1063V42.0333ZM35.1007 31H44.051V21.9H35.1007V31ZM46.1063 31H55.0565V21.9H46.1063V31ZM45.1118 54.7H45.0455H34.0731C33.4764 54.7 33.0455 54.2333 33.0455 53.6667V20.8667C33.0455 20.3 33.5096 19.8333 34.0731 19.8333H45.0786H56.1173C56.6808 19.8333 57.1449 20.3 57.1449 20.8667V32.0333V43.0667V53.6667C57.1449 54.2333 56.6808 54.7 56.1173 54.7C56.0842 54.7 45.1118 54.7 45.1118 54.7Z" fill="#DC3143"/>
</g>
<defs>
<clipPath id="clip0">
<rect width="60" height="59" fill="white" transform="translate(0.923828)"/>
</clipPath>
</defs>
</svg>
