<svg width="66" height="66" viewBox="0 0 66 66" fill="none" xmlns="http://www.w3.org/2000/svg">
<g>
<path d="M63.4619 6.60137C63.134 6.3227 62.7022 6.20248 62.2776 6.27243C59.9861 6.64732 47.8246 8.51747 33.4239 8.51747C19.0232 8.51747 6.86168 6.64732 4.57005 6.27243C4.14577 6.20337 3.71362 6.32283 3.38557 6.60137C3.05765 6.88003 2.86951 7.28666 2.86951 7.71716V19.3485C2.86963 19.8751 3.29645 20.3021 3.82318 20.3021C4.34991 20.3021 4.77673 19.8752 4.77673 19.3485V8.23741C8.62506 8.84666 19.9077 10.4247 33.4239 10.4247C46.9393 10.4247 58.2218 8.84679 62.0709 8.23741V19.3434C62.0709 19.8702 62.4977 20.297 63.0244 20.297C63.5512 20.297 63.978 19.87 63.978 19.3434V7.71716C63.978 7.28666 63.7898 6.88003 63.4619 6.60137Z" fill="#DC3143"/>
<path d="M63.0249 22.8315C62.4981 22.8315 62.0713 23.2585 62.0713 23.7851V34.887C58.2231 34.2778 46.9405 32.6998 33.4243 32.6998C19.9088 32.6998 8.62637 34.2777 4.77727 34.887V23.7851C4.77727 23.2584 4.35033 22.8315 3.82373 22.8315C3.29712 22.8315 2.87018 23.2585 2.87018 23.7851V35.4072C2.86967 35.8378 3.05782 36.2444 3.38574 36.5231C3.65259 36.7498 3.988 36.8713 4.33268 36.8713C4.41152 36.8713 4.49099 36.865 4.57008 36.8519C6.86185 36.477 19.0233 34.6068 33.424 34.6068C47.8248 34.6068 59.9862 36.477 62.2779 36.8519C62.7022 36.922 63.1344 36.8015 63.4624 36.5229C63.7903 36.2443 63.9784 35.8377 63.9784 35.4072V23.7851C63.9784 23.2584 63.5516 22.8315 63.0249 22.8315Z" fill="#DC3143"/>
<path d="M59.5413 11.1705C59.146 10.8229 58.6198 10.6624 58.0979 10.7296C52.427 11.4606 43.5428 12.3317 33.4239 12.3317C23.3041 12.3317 14.4204 11.4604 8.74987 10.7294C8.22797 10.662 7.70187 10.8227 7.30654 11.1703C6.91095 11.5182 6.68396 12.0202 6.68396 12.5471V30.5769C6.68396 31.104 6.91095 31.6059 7.30654 31.9537C7.64271 32.2493 8.07334 32.4096 8.51564 32.4096C8.59347 32.4096 8.67167 32.4047 8.74987 32.3947C14.4208 31.6637 23.3049 30.7924 33.4239 30.7924C43.5437 30.7924 52.4274 31.6637 58.0979 32.3947C58.6196 32.4617 59.146 32.3013 59.5413 31.9537C59.9368 31.6059 60.1638 31.1039 60.1638 30.5769V12.5473C60.1638 12.0202 59.9368 11.5183 59.5413 11.1705ZM33.4239 28.8854C23.2543 28.8854 14.3212 29.7566 8.59118 30.4924V12.632C14.3207 13.3678 23.2534 14.2389 33.4239 14.2389C43.5935 14.2389 52.5266 13.3678 58.2566 12.632V30.4924C52.5271 29.7566 43.5944 28.8854 33.4239 28.8854Z" fill="#DC3143"/>
<path d="M64.7329 55.2301H63.3214V50.3182C63.3214 48.0407 61.4684 46.1877 59.1909 46.1877H57.5571V43.5349C57.5571 41.2573 55.7041 39.4043 53.4265 39.4043H48.1975C46.9213 39.4043 45.7787 39.9863 45.0205 40.8984C44.2622 39.9863 43.1196 39.4043 41.8434 39.4043H36.6145C35.3383 39.4043 34.1958 39.9863 33.4375 40.8984C32.6792 39.9863 31.5366 39.4043 30.2605 39.4043H25.0316C23.7555 39.4043 22.6128 39.9863 21.8545 40.8984C21.0962 39.9863 19.9536 39.4043 18.6775 39.4043H13.4484C11.1709 39.4043 9.31786 41.2573 9.31786 43.5349V46.1877H7.62976C5.35222 46.1877 3.4992 48.0407 3.4992 50.3182V55.2301H2.1149C1.45805 55.2301 0.923828 55.7644 0.923828 56.4211V59.2615C0.923828 59.9183 1.45817 60.4525 2.1149 60.4525H64.7328C65.3896 60.4525 65.9238 59.9182 65.9238 59.2615V56.4211C65.924 55.7644 65.3897 55.2301 64.7329 55.2301ZM56.6034 48.0949L59.1907 48.0948C60.4167 48.0948 61.4142 49.0922 61.4142 50.3182V55.2301H51.7383V50.3182C51.7383 50.2579 51.7426 50.1988 51.7473 50.1397C51.751 50.0928 51.7571 50.0465 51.7637 50.0005C51.7675 49.9739 51.7711 49.9473 51.7759 49.9211C51.7839 49.8771 51.7937 49.8338 51.8042 49.7907C51.8108 49.7638 51.8174 49.7369 51.8249 49.7104C51.8368 49.6686 51.8503 49.6275 51.8645 49.5867C51.8736 49.5606 51.8829 49.5345 51.8931 49.5088C51.9089 49.4685 51.9261 49.4288 51.9441 49.3897C51.9553 49.3654 51.9668 49.3414 51.9789 49.3177C51.9988 49.2784 52.0199 49.2398 52.042 49.2018C52.0546 49.1802 52.0676 49.1589 52.081 49.1378C52.1052 49.0993 52.1305 49.0615 52.157 49.0247C52.1703 49.006 52.1842 48.9879 52.1981 48.9697C52.227 48.9323 52.2565 48.8955 52.2875 48.8599C52.3011 48.8443 52.3152 48.8292 52.3293 48.814C52.3625 48.7779 52.3967 48.7425 52.4322 48.7087C52.4458 48.6958 52.4599 48.6834 52.4739 48.6709C52.5115 48.6369 52.5499 48.6036 52.5898 48.5722C52.6034 48.5614 52.6176 48.5514 52.6316 48.541C52.6729 48.5099 52.7151 48.4796 52.7586 48.4514C52.7729 48.4421 52.7877 48.4337 52.8022 48.4248C52.8465 48.3976 52.8914 48.371 52.9376 48.3469C52.9535 48.3385 52.9701 48.3314 52.9863 48.3234C53.0322 48.3008 53.0784 48.2788 53.1259 48.2593C53.1453 48.2514 53.1654 48.245 53.1851 48.2376C53.2305 48.2204 53.2761 48.2036 53.3229 48.1893C53.3483 48.1817 53.3746 48.1761 53.4005 48.1694C53.4428 48.1582 53.4849 48.1466 53.5281 48.1379C53.5647 48.1307 53.6021 48.1264 53.6393 48.1209C53.6732 48.116 53.7067 48.1095 53.7411 48.1061C53.8137 48.099 53.8873 48.0949 53.9616 48.0949H56.6034ZM45.974 43.5349C45.974 42.3089 46.9715 41.3114 48.1975 41.3114H53.4264C54.6524 41.3114 55.6499 42.3089 55.6499 43.5349V46.1877H53.9619C53.8859 46.1877 53.8104 46.1901 53.7355 46.1941C53.7155 46.1953 53.6957 46.1973 53.6758 46.1987C53.62 46.2025 53.5643 46.207 53.5092 46.2131C53.4889 46.2153 53.4688 46.2183 53.4486 46.2208C53.393 46.2278 53.3375 46.2355 53.2826 46.2445C53.2656 46.2473 53.2486 46.2506 53.2315 46.2537C53.1721 46.2643 53.1131 46.2762 53.0544 46.2894C53.0429 46.292 53.0312 46.2947 53.0197 46.2974C52.9534 46.3128 52.8879 46.33 52.8229 46.3486C52.8192 46.3498 52.8154 46.3508 52.8116 46.3518C52.0087 46.585 51.3058 47.0549 50.7846 47.6818C50.2635 47.0549 49.5604 46.5849 48.7576 46.3518C48.754 46.3508 48.7503 46.3498 48.7468 46.3488C48.6817 46.3301 48.616 46.313 48.5496 46.2974C48.5382 46.2947 48.5266 46.292 48.5151 46.2894C48.4564 46.2762 48.3974 46.2643 48.3379 46.2537C48.321 46.2506 48.3041 46.2475 48.2871 46.2445C48.2321 46.2354 48.1766 46.2277 48.121 46.2207C48.1008 46.2181 48.0808 46.2152 48.0605 46.2129C48.0052 46.2068 47.9496 46.2025 47.8939 46.1986C47.874 46.1972 47.8542 46.1952 47.8341 46.194C47.7591 46.19 47.6837 46.1875 47.6078 46.1875H45.974V43.5349ZM45.0205 48.0949V48.0948H47.6078C47.6822 48.0948 47.7557 48.0987 47.8283 48.1059C47.8629 48.1094 47.8966 48.1158 47.9307 48.1209C47.9677 48.1264 48.005 48.1306 48.0412 48.1378C48.0847 48.1466 48.1273 48.1582 48.1699 48.1695C48.1953 48.1761 48.2212 48.1817 48.2463 48.1892C48.2936 48.2034 48.3395 48.2206 48.3853 48.2378C48.4046 48.2451 48.4243 48.2513 48.4434 48.259C48.4914 48.2786 48.5381 48.3008 48.5843 48.3237C48.6 48.3314 48.6161 48.3384 48.6316 48.3465C48.6784 48.3709 48.7236 48.3977 48.7684 48.4252C48.7825 48.4339 48.7969 48.442 48.8108 48.451C48.8547 48.4794 48.8972 48.51 48.939 48.5414C48.9526 48.5515 48.9663 48.5613 48.9796 48.5719C49.0199 48.6035 49.0585 48.637 49.0964 48.6713C49.11 48.6836 49.1238 48.6956 49.1372 48.7083C49.173 48.7424 49.2072 48.7779 49.2408 48.8142C49.2546 48.8292 49.2686 48.8442 49.282 48.8597C49.3131 48.8953 49.3428 48.9323 49.3716 48.9699C49.3856 48.988 49.3995 49.0062 49.4128 49.0248C49.4392 49.0616 49.4643 49.0993 49.4886 49.1377C49.502 49.159 49.5151 49.1805 49.5278 49.2022C49.5498 49.2399 49.5707 49.2782 49.5905 49.3172C49.6028 49.3413 49.6145 49.3658 49.6259 49.3906C49.6437 49.4292 49.6606 49.4683 49.6763 49.508C49.6867 49.5344 49.6963 49.5612 49.7057 49.5881C49.7196 49.628 49.7328 49.6682 49.7445 49.7091C49.7524 49.7368 49.7592 49.7648 49.7661 49.7929C49.7763 49.8348 49.7859 49.8768 49.7936 49.9196C49.7987 49.9473 49.8025 49.9755 49.8065 50.0035C49.8128 50.0479 49.8187 50.0926 49.8222 50.138C49.827 50.1976 49.8313 50.2574 49.8313 50.3182V55.2301H40.1555V50.3182C40.1555 50.2579 40.1598 50.1988 40.1645 50.1397C40.1682 50.0928 40.1743 50.0465 40.1809 50.0005C40.1847 49.9739 40.1882 49.9473 40.193 49.9211C40.201 49.8771 40.2108 49.8338 40.2214 49.7907C40.228 49.7638 40.2346 49.7369 40.2421 49.7104C40.254 49.6686 40.2674 49.6275 40.2817 49.5867C40.2908 49.5606 40.3001 49.5345 40.3102 49.5088C40.3261 49.4685 40.3432 49.4288 40.3613 49.3897C40.3724 49.3654 40.384 49.3414 40.396 49.3177C40.416 49.2784 40.437 49.2398 40.4591 49.2018C40.4717 49.1802 40.4848 49.1589 40.4981 49.1378C40.5224 49.0993 40.5476 49.0615 40.5742 49.0247C40.5875 49.006 40.6013 48.9879 40.6153 48.9697C40.6441 48.9323 40.6737 48.8955 40.7047 48.8599C40.7183 48.8443 40.7323 48.8292 40.7464 48.814C40.7797 48.7779 40.8138 48.7425 40.8494 48.7087C40.863 48.6958 40.8771 48.6834 40.891 48.6709C40.9286 48.6369 40.9671 48.6036 41.0069 48.5722C41.0205 48.5614 41.0347 48.5514 41.0487 48.541C41.0901 48.5099 41.1322 48.4796 41.1758 48.4514C41.19 48.4421 41.2049 48.4337 41.2193 48.4248C41.2636 48.3976 41.3086 48.371 41.3548 48.3469C41.3707 48.3385 41.3873 48.3314 41.4034 48.3234C41.4494 48.3008 41.4956 48.2788 41.5431 48.2593C41.5625 48.2514 41.5826 48.245 41.6022 48.2376C41.6477 48.2204 41.6933 48.2036 41.7401 48.1893C41.7655 48.1817 41.7918 48.1761 41.8177 48.1694C41.8599 48.1582 41.9021 48.1466 41.9453 48.1379C41.9818 48.1307 42.0193 48.1264 42.0565 48.1209C42.0904 48.116 42.1239 48.1095 42.1583 48.1061C42.2309 48.099 42.3044 48.0949 42.3788 48.0949H45.0205ZM36.6145 41.3114H41.8434C43.0694 41.3114 44.0669 42.3089 44.0669 43.5349V46.1877H42.3789C42.3029 46.1877 42.2275 46.1901 42.1526 46.1941C42.1325 46.1953 42.1127 46.1973 42.0928 46.1987C42.0369 46.2025 41.9813 46.207 41.9262 46.2131C41.9059 46.2153 41.8858 46.2183 41.8657 46.2208C41.8101 46.2278 41.7546 46.2355 41.6997 46.2445C41.6827 46.2473 41.6657 46.2506 41.6487 46.2537C41.5893 46.2643 41.5302 46.2762 41.4716 46.2894C41.46 46.292 41.4484 46.2947 41.4368 46.2974C41.3705 46.3128 41.305 46.33 41.24 46.3486C41.2363 46.3498 41.2325 46.3508 41.2287 46.3518C40.4259 46.585 39.7229 47.0549 39.2018 47.6818C38.6806 47.0549 37.9776 46.5849 37.1747 46.3518C37.1712 46.3508 37.1675 46.3498 37.1639 46.3488C37.0988 46.3301 37.0332 46.313 36.9668 46.2974C36.9554 46.2947 36.9438 46.292 36.9323 46.2894C36.8736 46.2762 36.8146 46.2643 36.755 46.2537C36.7381 46.2506 36.7213 46.2475 36.7042 46.2445C36.6493 46.2354 36.5938 46.2277 36.5382 46.2207C36.518 46.2181 36.4979 46.2152 36.4776 46.2129C36.4224 46.2068 36.3668 46.2025 36.3111 46.1986C36.2911 46.1972 36.2713 46.1952 36.2513 46.194C36.1762 46.19 36.1008 46.1875 36.0249 46.1875H34.3911V43.5349H34.391C34.391 42.3089 35.3885 41.3114 36.6145 41.3114ZM33.4375 48.0948H36.0248C36.0992 48.0948 36.1727 48.0987 36.2453 48.1059C36.28 48.1094 36.3136 48.1158 36.3478 48.1209C36.3847 48.1264 36.422 48.1306 36.4582 48.1378C36.5018 48.1466 36.5443 48.1582 36.5869 48.1695C36.6123 48.1761 36.6382 48.1817 36.6634 48.1892C36.7106 48.2034 36.7565 48.2206 36.8024 48.2378C36.8217 48.2451 36.8414 48.2513 36.8604 48.259C36.9084 48.2786 36.9551 48.3008 37.0013 48.3237C37.0171 48.3314 37.0332 48.3384 37.0487 48.3465C37.0954 48.3709 37.1406 48.3977 37.1854 48.4252C37.1995 48.4339 37.214 48.442 37.2278 48.451C37.2717 48.4794 37.3143 48.51 37.356 48.5414C37.3696 48.5515 37.3833 48.5613 37.3966 48.5719C37.4369 48.6035 37.4755 48.637 37.5134 48.6713C37.527 48.6836 37.5409 48.6956 37.5542 48.7083C37.59 48.7424 37.6243 48.7779 37.6578 48.8142C37.6716 48.8292 37.6856 48.8442 37.699 48.8597C37.7301 48.8953 37.7599 48.9323 37.7887 48.9699C37.8026 48.988 37.8165 49.0062 37.8298 49.0248C37.8562 49.0616 37.8814 49.0993 37.9056 49.1377C37.9191 49.159 37.9321 49.1805 37.9448 49.2022C37.9668 49.2399 37.9877 49.2782 38.0075 49.3172C38.0199 49.3413 38.0315 49.3658 38.043 49.3906C38.0607 49.4292 38.0776 49.4683 38.0934 49.508C38.1038 49.5344 38.1133 49.5612 38.1227 49.5881C38.1367 49.628 38.1499 49.6682 38.1615 49.7091C38.1694 49.7368 38.1763 49.7648 38.1831 49.7929C38.1933 49.8348 38.2029 49.8768 38.2107 49.9196C38.2157 49.9473 38.2196 49.9755 38.2235 50.0035C38.2298 50.0479 38.2357 50.0926 38.2392 50.138C38.2441 50.1976 38.2484 50.2574 38.2484 50.3182V55.2301H28.5725V50.3182C28.5725 50.2537 28.5768 50.1903 28.5821 50.127C28.5824 50.1249 28.5828 50.1228 28.583 50.1206C28.67 49.128 29.4231 48.3235 30.3731 48.1362C30.392 48.1325 30.4114 48.1306 30.4305 48.1274C30.4797 48.119 30.529 48.1106 30.5792 48.1057C30.6506 48.0987 30.7227 48.0948 30.7958 48.0948H33.4375ZM22.8081 43.5349C22.8081 42.3089 23.8057 41.3114 25.0316 41.3114H30.2605C31.4865 41.3114 32.4839 42.3089 32.4839 43.5349V46.1877H30.796C30.7214 46.1877 30.6476 46.1898 30.574 46.1938C30.5344 46.1958 30.4953 46.1996 30.456 46.2028C30.4245 46.2053 30.3928 46.2073 30.3615 46.2106C30.305 46.2165 30.249 46.2241 30.1932 46.2321C30.1823 46.2338 30.1712 46.235 30.1603 46.2367C29.1504 46.39 28.2612 46.9029 27.6329 47.65C26.8755 46.7494 25.7397 46.1877 24.4691 46.1877H24.4419H22.8081V43.5349ZM21.8544 48.0949V48.0948H24.4417C25.6677 48.0948 26.6651 49.0922 26.6651 50.3182V55.2301H16.9893V50.3182C16.9893 50.2537 16.9936 50.1903 16.9989 50.127C16.9992 50.1249 16.9996 50.1228 16.9998 50.1207C17.0868 49.1282 17.8399 48.3237 18.79 48.1363C18.8089 48.1326 18.8284 48.1307 18.8475 48.1275C18.8967 48.1191 18.946 48.1109 18.9961 48.1058C19.0675 48.0988 19.1396 48.0949 19.2127 48.0949H21.8544ZM11.225 43.5349C11.225 42.3089 12.2224 41.3114 13.4484 41.3114H18.6774C19.9034 41.3114 20.9008 42.3089 20.9008 43.5349V46.1877H19.213C19.1385 46.1877 19.0646 46.1898 18.9911 46.1938C18.9515 46.1958 18.9122 46.1996 18.8729 46.2028C18.8414 46.2053 18.8098 46.2073 18.7786 46.2106C18.7221 46.2165 18.6662 46.2241 18.6105 46.2321C18.5994 46.2338 18.5882 46.235 18.5772 46.2367C17.5672 46.39 16.6781 46.9029 16.0498 47.6502C15.2924 46.7494 14.1566 46.1877 12.886 46.1877H12.8587H11.225V43.5349ZM5.4063 50.3182C5.4063 49.0922 6.40377 48.0948 7.62976 48.0948H10.2714H12.8587C14.0847 48.0948 15.0822 49.0922 15.0822 50.3182V55.2301H5.4063V50.3182ZM64.0167 58.5454H2.83105V57.1373H64.0167V58.5454Z" fill="#DC3143"/>
</g>
<defs>
<clipPath>
<rect width="65" height="65" fill="white" transform="translate(0.923828 0.852539)"/>
</clipPath>
</defs>
</svg>
