<svg width="66" height="66" viewBox="0 0 66 66" fill="none" xmlns="http://www.w3.org/2000/svg">
<g>
<path d="M3.7554 15.8C3.12621 15.171 2.18012 14.9828 1.35816 15.3233C0.536201 15.6637 0.00018997 16.4657 0 17.3554V64.2C0 65.415 0.984973 66.4 2.2 66.4H49.0446C49.9343 66.3998 50.7363 65.8638 51.0767 65.0418C51.4171 64.2198 51.229 63.2738 50.6 62.6446L3.7554 15.8ZM49.0446 64.2H41.8V62C41.8 61.3924 41.3075 60.9 40.7 60.9C40.0925 60.9 39.6 61.3924 39.6 62V64.2H35.2V62C35.2 61.3924 34.7075 60.9 34.1 60.9C33.4925 60.9 33 61.3924 33 62V64.2H28.6V62C28.6 61.3924 28.1075 60.9 27.5 60.9C26.8925 60.9 26.4 61.3924 26.4 62V64.2H22V62C22 61.3924 21.5075 60.9 20.9 60.9C20.2925 60.9 19.8 61.3924 19.8 62V64.2H15.4V62C15.4 61.3924 14.9075 60.9 14.3 60.9C13.6925 60.9 13.2 61.3924 13.2 62V64.2H8.8V62C8.8 61.3924 8.30751 60.9 7.7 60.9C7.09249 60.9 6.6 61.3924 6.6 62V64.2H2.2V59.8H4.4C5.00751 59.8 5.5 59.3075 5.5 58.7C5.5 58.0924 5.00751 57.6 4.4 57.6H2.2V53.2H4.4C5.00751 53.2 5.5 52.7075 5.5 52.1C5.5 51.4925 5.00751 51 4.4 51H2.2V46.6H4.4C5.00751 46.6 5.5 46.1075 5.5 45.5C5.5 44.8924 5.00751 44.4 4.4 44.4H2.2V40H4.4C5.00751 40 5.5 39.5075 5.5 38.9C5.5 38.2924 5.00751 37.8 4.4 37.8H2.2V33.4H4.4C5.00751 33.4 5.5 32.9075 5.5 32.3C5.5 31.6924 5.00751 31.2 4.4 31.2H2.2V26.8H4.4C5.00751 26.8 5.5 26.3075 5.5 25.7C5.5 25.0924 5.00751 24.6 4.4 24.6H2.2V17.3554L49.06 64.2H49.0446Z" fill="#DC3143"/>
<path d="M9.89999 57.6002H30.4557C30.9005 57.6001 31.3015 57.3321 31.4717 56.9212C31.642 56.5102 31.5479 56.0371 31.2334 55.7225L10.6777 35.1668C10.3631 34.8523 9.89005 34.7583 9.47907 34.9285C9.06809 35.0987 8.80008 35.4997 8.79999 35.9445V56.5002C8.79999 57.1077 9.29247 57.6002 9.89999 57.6002ZM11 38.601L27.7992 55.4002H11V38.601Z" fill="#DC3143"/>
<path d="M44.283 3.16721C44.0356 3.01259 43.7369 2.96257 43.4527 3.02817C43.1684 3.09377 42.9218 3.26961 42.7672 3.51701L37.5895 11.8H4.1C3.49249 11.8 3 12.2925 3 12.9C3 13.5075 3.49249 14 4.1 14H25V32.8C25 33.4075 25.4925 33.9 26.1 33.9C26.7075 33.9 27.2 33.4075 27.2 32.8V14H38.2C38.5793 14 38.9318 13.8046 39.1328 13.483L44.6328 4.68301C44.7874 4.43561 44.8374 4.13693 44.7718 3.85266C44.7062 3.56839 44.5304 3.32183 44.283 3.16721Z" fill="#DC3143"/>
<path d="M64.9 11.7998H56.1C55.4925 11.7998 55 12.2923 55 12.8998C55 13.5073 55.4925 13.9998 56.1 13.9998H63.8V39.0493L45.1847 39.0174C45.1568 39.01 45.1285 39.0041 45.1 38.9998C45.0703 38.9998 45.0461 39.0141 45.0164 39.0163L35.2 38.9998C34.5925 38.9998 34.1 39.4923 34.1 40.0998C34.1 40.7073 34.5925 41.1998 35.2 41.1998L44 41.2152V50.0998C44 50.7073 44.4925 51.1998 45.1 51.1998C45.7075 51.1998 46.2 50.7073 46.2 50.0998V41.2185L63.8 41.2493V64.1998H55C54.3925 64.1998 53.9 64.6923 53.9 65.2998C53.9 65.9073 54.3925 66.3998 55 66.3998H64.9C65.5075 66.3998 66 65.9073 66 65.2998V12.8998C66 12.2923 65.5075 11.7998 64.9 11.7998Z" fill="#DC3143"/>
<path d="M35.6973 31L32.7988 22.6533H32.7441C32.8216 23.8929 32.8604 25.055 32.8604 26.1396V31H31.377V21.0059H33.6807L36.4561 28.9561H36.4971L39.3545 21.0059H41.665V31H40.0928V26.0576C40.0928 25.5609 40.1042 24.9137 40.127 24.1162C40.1543 23.3187 40.1771 22.8356 40.1953 22.667H40.1406L37.1396 31H35.6973ZM50.4971 31L49.499 28.2246H45.6777L44.7002 31H42.9775L46.7168 20.9648H48.4941L52.2334 31H50.4971ZM49.0684 26.8164L48.1318 24.0957C48.0635 23.9134 47.9678 23.6263 47.8447 23.2344C47.7262 22.8424 47.6442 22.5553 47.5986 22.373C47.4756 22.9336 47.2956 23.5465 47.0586 24.2119L46.1562 26.8164H49.0684ZM60.915 31H59.0352L56.5332 26.9121L54.0107 31H52.2607L55.5762 25.8184L52.4727 21.0059H54.291L56.6016 24.7861L58.9121 21.0059H60.6758L57.5518 25.8457L60.915 31Z" fill="#DC3143"/>
</g>
<defs>
<clipPath>
<rect width="66" height="66" fill="white"/>
</clipPath>
</defs>
</svg>
