<svg width="67" height="66" viewBox="0 0 67 66" fill="none" xmlns="http://www.w3.org/2000/svg">
<g>
<path d="M65.7329 58.3775H64.3214V53.4657C64.3214 51.1881 62.4684 49.3351 60.1909 49.3351H58.5571V46.6823C58.5571 44.4048 56.7041 42.5518 54.4265 42.5518H49.1975C47.9213 42.5518 46.7787 43.1337 46.0205 44.0459C45.2622 43.1337 44.1196 42.5518 42.8434 42.5518H37.6145C36.3383 42.5518 35.1958 43.1337 34.4375 44.0459C33.6792 43.1337 32.5366 42.5518 31.2605 42.5518H26.0316C24.7555 42.5518 23.6128 43.1337 22.8545 44.0459C22.0962 43.1337 20.9536 42.5518 19.6775 42.5518H14.4484C12.1709 42.5518 10.3179 44.4048 10.3179 46.6823V49.3351H8.62976C6.35222 49.3351 4.4992 51.1881 4.4992 53.4657V58.3775H3.1149C2.45805 58.3775 1.92383 58.9119 1.92383 59.5686V62.4089C1.92383 63.0658 2.45817 63.6 3.1149 63.6H65.7328C66.3896 63.6 66.9238 63.0656 66.9238 62.4089V59.5686C66.924 58.9119 66.3897 58.3775 65.7329 58.3775ZM57.6034 51.2424L60.1907 51.2422C61.4167 51.2422 62.4142 52.2397 62.4142 53.4657V58.3775H52.7383V53.4657C52.7383 53.4054 52.7426 53.3462 52.7473 53.2872C52.751 53.2402 52.7571 53.194 52.7637 53.1479C52.7675 53.1214 52.7711 53.0947 52.7759 53.0686C52.7839 53.0245 52.7937 52.9812 52.8042 52.9382C52.8108 52.9113 52.8174 52.8844 52.8249 52.8578C52.8368 52.8161 52.8503 52.7749 52.8645 52.7342C52.8736 52.708 52.8829 52.682 52.8931 52.6562C52.9089 52.616 52.9261 52.5763 52.9441 52.5372C52.9553 52.5129 52.9668 52.4889 52.9789 52.4652C52.9988 52.4258 53.0199 52.3872 53.042 52.3493C53.0546 52.3277 53.0676 52.3064 53.081 52.2853C53.1052 52.2468 53.1305 52.209 53.157 52.1722C53.1703 52.1535 53.1842 52.1353 53.1981 52.1172C53.227 52.0797 53.2565 52.0429 53.2875 52.0074C53.3011 51.9918 53.3152 51.9767 53.3293 51.9614C53.3625 51.9254 53.3967 51.8899 53.4322 51.8562C53.4458 51.8432 53.4599 51.8309 53.4739 51.8183C53.5115 51.7843 53.5499 51.7511 53.5898 51.7197C53.6034 51.7089 53.6176 51.6989 53.6316 51.6885C53.6729 51.6574 53.7151 51.627 53.7586 51.5988C53.7729 51.5896 53.7877 51.5812 53.8022 51.5723C53.8465 51.545 53.8914 51.5185 53.9376 51.4944C53.9535 51.486 53.9701 51.4789 53.9863 51.4709C54.0322 51.4483 54.0784 51.4263 54.1259 51.4068C54.1453 51.3989 54.1654 51.3924 54.1851 51.385C54.2305 51.3679 54.2761 51.351 54.3229 51.3368C54.3483 51.3292 54.3746 51.3236 54.4005 51.3169C54.4428 51.3057 54.4849 51.294 54.5281 51.2854C54.5647 51.2782 54.6021 51.2738 54.6393 51.2684C54.6732 51.2634 54.7067 51.257 54.7411 51.2535C54.8137 51.2464 54.8873 51.2424 54.9616 51.2424H57.6034ZM46.974 46.6823C46.974 45.4563 47.9715 44.4589 49.1975 44.4589H54.4264C55.6524 44.4589 56.6499 45.4563 56.6499 46.6823V49.3351H54.9619C54.8859 49.3351 54.8104 49.3375 54.7355 49.3416C54.7155 49.3427 54.6957 49.3448 54.6758 49.3462C54.62 49.35 54.5643 49.3544 54.5092 49.3605C54.4889 49.3628 54.4688 49.3657 54.4486 49.3683C54.393 49.3752 54.3375 49.383 54.2826 49.392C54.2656 49.3948 54.2486 49.3981 54.2315 49.4011C54.1721 49.4118 54.1131 49.4236 54.0544 49.4368C54.0429 49.4395 54.0312 49.4422 54.0197 49.4448C53.9534 49.4603 53.8879 49.4774 53.8229 49.4961C53.8192 49.4973 53.8154 49.4983 53.8116 49.4993C53.0087 49.7325 52.3058 50.2024 51.7846 50.8292C51.2635 50.2024 50.5604 49.7324 49.7576 49.4993C49.754 49.4983 49.7503 49.4973 49.7468 49.4962C49.6817 49.4776 49.616 49.4604 49.5496 49.4448C49.5382 49.4422 49.5266 49.4395 49.5151 49.4368C49.4564 49.4236 49.3974 49.4118 49.3379 49.4011C49.321 49.3981 49.3041 49.3949 49.2871 49.392C49.2321 49.3829 49.1766 49.3751 49.121 49.3681C49.1008 49.3656 49.0808 49.3627 49.0605 49.3604C49.0052 49.3543 48.9496 49.35 48.8939 49.3461C48.874 49.3447 48.8542 49.3426 48.8341 49.3415C48.7591 49.3374 48.6837 49.335 48.6078 49.335H46.974V46.6823ZM46.0205 51.2424V51.2422H48.6078C48.6822 51.2422 48.7557 51.2462 48.8283 51.2534C48.8629 51.2568 48.8966 51.2633 48.9307 51.2684C48.9677 51.2738 49.005 51.278 49.0412 51.2853C49.0847 51.294 49.1273 51.3057 49.1699 51.317C49.1953 51.3236 49.2212 51.3292 49.2463 51.3367C49.2936 51.3509 49.3395 51.368 49.3853 51.3853C49.4046 51.3925 49.4243 51.3988 49.4434 51.4065C49.4914 51.4261 49.5381 51.4483 49.5843 51.4711C49.6 51.4789 49.6161 51.4859 49.6316 51.494C49.6784 51.5184 49.7236 51.5451 49.7684 51.5727C49.7825 51.5813 49.7969 51.5894 49.8108 51.5985C49.8547 51.6269 49.8972 51.6575 49.939 51.6888C49.9526 51.699 49.9663 51.7088 49.9796 51.7193C50.0199 51.7509 50.0585 51.7844 50.0964 51.8187C50.11 51.831 50.1238 51.8431 50.1372 51.8558C50.173 51.8898 50.2072 51.9254 50.2408 51.9617C50.2546 51.9767 50.2686 51.9916 50.282 52.0071C50.3131 52.0428 50.3428 52.0797 50.3716 52.1173C50.3856 52.1355 50.3995 52.1536 50.4128 52.1723C50.4392 52.2091 50.4643 52.2468 50.4886 52.2851C50.502 52.3065 50.5151 52.3279 50.5278 52.3496C50.5498 52.3873 50.5707 52.4257 50.5905 52.4647C50.6028 52.4888 50.6145 52.5133 50.6259 52.538C50.6437 52.5766 50.6606 52.6157 50.6763 52.6555C50.6867 52.6819 50.6963 52.7087 50.7057 52.7356C50.7196 52.7754 50.7328 52.8157 50.7445 52.8566C50.7524 52.8842 50.7592 52.9123 50.7661 52.9404C50.7763 52.9823 50.7859 53.0243 50.7936 53.0671C50.7987 53.0947 50.8025 53.1229 50.8065 53.151C50.8128 53.1954 50.8187 53.2401 50.8222 53.2854C50.827 53.3451 50.8313 53.4049 50.8313 53.4657V58.3775H41.1555V53.4657C41.1555 53.4054 41.1598 53.3462 41.1645 53.2872C41.1682 53.2402 41.1743 53.194 41.1809 53.1479C41.1847 53.1214 41.1882 53.0947 41.193 53.0686C41.201 53.0245 41.2108 52.9812 41.2214 52.9382C41.228 52.9113 41.2346 52.8844 41.2421 52.8578C41.254 52.8161 41.2674 52.7749 41.2817 52.7342C41.2908 52.708 41.3001 52.682 41.3102 52.6562C41.3261 52.616 41.3432 52.5763 41.3613 52.5372C41.3724 52.5129 41.384 52.4889 41.396 52.4652C41.416 52.4258 41.437 52.3872 41.4591 52.3493C41.4717 52.3277 41.4848 52.3064 41.4981 52.2853C41.5224 52.2468 41.5476 52.209 41.5742 52.1722C41.5875 52.1535 41.6013 52.1353 41.6153 52.1172C41.6441 52.0797 41.6737 52.0429 41.7047 52.0074C41.7183 51.9918 41.7323 51.9767 41.7464 51.9614C41.7797 51.9254 41.8138 51.8899 41.8494 51.8562C41.863 51.8432 41.8771 51.8309 41.891 51.8183C41.9286 51.7843 41.9671 51.7511 42.0069 51.7197C42.0205 51.7089 42.0347 51.6989 42.0487 51.6885C42.0901 51.6574 42.1322 51.627 42.1758 51.5988C42.19 51.5896 42.2049 51.5812 42.2193 51.5723C42.2636 51.545 42.3086 51.5185 42.3548 51.4944C42.3707 51.486 42.3873 51.4789 42.4034 51.4709C42.4494 51.4483 42.4956 51.4263 42.5431 51.4068C42.5625 51.3989 42.5826 51.3924 42.6022 51.385C42.6477 51.3679 42.6933 51.351 42.7401 51.3368C42.7655 51.3292 42.7918 51.3236 42.8177 51.3169C42.8599 51.3057 42.9021 51.294 42.9453 51.2854C42.9818 51.2782 43.0193 51.2738 43.0565 51.2684C43.0904 51.2634 43.1239 51.257 43.1583 51.2535C43.2309 51.2464 43.3044 51.2424 43.3788 51.2424H46.0205ZM37.6145 44.4589H42.8434C44.0694 44.4589 45.0669 45.4563 45.0669 46.6823V49.3351H43.3789C43.3029 49.3351 43.2275 49.3375 43.1526 49.3416C43.1325 49.3427 43.1127 49.3448 43.0928 49.3462C43.0369 49.35 42.9813 49.3544 42.9262 49.3605C42.9059 49.3628 42.8858 49.3657 42.8657 49.3683C42.8101 49.3752 42.7546 49.383 42.6997 49.392C42.6827 49.3948 42.6657 49.3981 42.6487 49.4011C42.5893 49.4118 42.5302 49.4236 42.4716 49.4368C42.46 49.4395 42.4484 49.4422 42.4368 49.4448C42.3705 49.4603 42.305 49.4774 42.24 49.4961C42.2363 49.4973 42.2325 49.4983 42.2287 49.4993C41.4259 49.7325 40.7229 50.2024 40.2018 50.8292C39.6806 50.2024 38.9776 49.7324 38.1747 49.4993C38.1712 49.4983 38.1675 49.4973 38.1639 49.4962C38.0988 49.4776 38.0332 49.4604 37.9668 49.4448C37.9554 49.4422 37.9438 49.4395 37.9323 49.4368C37.8736 49.4236 37.8146 49.4118 37.755 49.4011C37.7381 49.3981 37.7213 49.3949 37.7042 49.392C37.6493 49.3829 37.5938 49.3751 37.5382 49.3681C37.518 49.3656 37.4979 49.3627 37.4776 49.3604C37.4224 49.3543 37.3668 49.35 37.3111 49.3461C37.2911 49.3447 37.2713 49.3426 37.2513 49.3415C37.1762 49.3374 37.1008 49.335 37.0249 49.335H35.3911V46.6823H35.391C35.391 45.4563 36.3885 44.4589 37.6145 44.4589ZM34.4375 51.2422H37.0248C37.0992 51.2422 37.1727 51.2462 37.2453 51.2534C37.28 51.2568 37.3136 51.2633 37.3478 51.2684C37.3847 51.2738 37.422 51.278 37.4582 51.2853C37.5018 51.294 37.5443 51.3057 37.5869 51.317C37.6123 51.3236 37.6382 51.3292 37.6634 51.3367C37.7106 51.3509 37.7565 51.368 37.8024 51.3853C37.8217 51.3925 37.8414 51.3988 37.8604 51.4065C37.9084 51.4261 37.9551 51.4483 38.0013 51.4711C38.0171 51.4789 38.0332 51.4859 38.0487 51.494C38.0954 51.5184 38.1406 51.5451 38.1854 51.5727C38.1995 51.5813 38.214 51.5894 38.2278 51.5985C38.2717 51.6269 38.3143 51.6575 38.356 51.6888C38.3696 51.699 38.3833 51.7088 38.3966 51.7193C38.4369 51.7509 38.4755 51.7844 38.5134 51.8187C38.527 51.831 38.5409 51.8431 38.5542 51.8558C38.59 51.8898 38.6243 51.9254 38.6578 51.9617C38.6716 51.9767 38.6856 51.9916 38.699 52.0071C38.7301 52.0428 38.7599 52.0797 38.7887 52.1173C38.8026 52.1355 38.8165 52.1536 38.8298 52.1723C38.8562 52.2091 38.8814 52.2468 38.9056 52.2851C38.9191 52.3065 38.9321 52.3279 38.9448 52.3496C38.9668 52.3873 38.9877 52.4257 39.0075 52.4647C39.0199 52.4888 39.0315 52.5133 39.043 52.538C39.0607 52.5766 39.0776 52.6157 39.0934 52.6555C39.1038 52.6819 39.1133 52.7087 39.1227 52.7356C39.1367 52.7754 39.1499 52.8157 39.1615 52.8566C39.1694 52.8842 39.1763 52.9123 39.1831 52.9404C39.1933 52.9823 39.2029 53.0243 39.2107 53.0671C39.2157 53.0947 39.2196 53.1229 39.2235 53.151C39.2298 53.1954 39.2357 53.2401 39.2392 53.2854C39.2441 53.3451 39.2484 53.4049 39.2484 53.4657V58.3775H29.5725V53.4657C29.5725 53.4012 29.5768 53.3377 29.5821 53.2745C29.5824 53.2723 29.5828 53.2703 29.583 53.268C29.67 52.2755 30.4231 51.471 31.3731 51.2836C31.392 51.2799 31.4114 51.278 31.4305 51.2749C31.4797 51.2665 31.529 51.2581 31.5792 51.2531C31.6506 51.2462 31.7227 51.2422 31.7958 51.2422H34.4375ZM23.8081 46.6823C23.8081 45.4563 24.8057 44.4589 26.0316 44.4589H31.2605C32.4865 44.4589 33.4839 45.4563 33.4839 46.6823V49.3351H31.796C31.7214 49.3351 31.6476 49.3373 31.574 49.3412C31.5344 49.3433 31.4953 49.3471 31.456 49.3502C31.4245 49.3528 31.3928 49.3548 31.3615 49.3581C31.305 49.364 31.249 49.3716 31.1932 49.3796C31.1823 49.3812 31.1712 49.3825 31.1603 49.3841C30.1504 49.5375 29.2612 50.0504 28.6329 50.7975C27.8755 49.8969 26.7397 49.3351 25.4691 49.3351H25.4419H23.8081V46.6823ZM22.8544 51.2424V51.2422H25.4417C26.6677 51.2422 27.6651 52.2397 27.6651 53.4657V58.3775H17.9893V53.4657C17.9893 53.4012 17.9936 53.3377 17.9989 53.2745C17.9992 53.2723 17.9996 53.2703 17.9998 53.2682C18.0868 52.2756 18.8399 51.4711 19.79 51.2837C19.8089 51.2801 19.8284 51.2782 19.8475 51.275C19.8967 51.2666 19.946 51.2584 19.9961 51.2533C20.0675 51.2463 20.1396 51.2424 20.2127 51.2424H22.8544ZM12.225 46.6823C12.225 45.4563 13.2224 44.4589 14.4484 44.4589H19.6774C20.9034 44.4589 21.9008 45.4563 21.9008 46.6823V49.3351H20.213C20.1385 49.3351 20.0646 49.3373 19.9911 49.3412C19.9515 49.3433 19.9122 49.3471 19.8729 49.3502C19.8414 49.3528 19.8098 49.3548 19.7786 49.3581C19.7221 49.364 19.6662 49.3716 19.6105 49.3796C19.5994 49.3812 19.5882 49.3825 19.5772 49.3841C18.5672 49.5375 17.6781 50.0504 17.0498 50.7976C16.2924 49.8969 15.1566 49.3351 13.886 49.3351H13.8587H12.225V46.6823ZM6.4063 53.4657C6.4063 52.2397 7.40377 51.2422 8.62976 51.2422H11.2714H13.8587C15.0847 51.2422 16.0822 52.2397 16.0822 53.4657V58.3775H6.4063V53.4657ZM65.0167 61.6929H3.83105V60.2847H65.0167V61.6929Z" fill="#DC3143"/>
<path d="M14.5491 18.6313C11.2913 18.2159 9.26571 20.8459 9.18473 20.9763C8.88527 21.2395 8.85583 21.6956 9.11903 21.995C9.38223 22.2945 9.83832 22.3239 10.1378 22.0607C10.211 21.9963 10.2706 21.9178 10.3126 21.8297C11.2861 20.6154 12.7927 19.955 14.3454 20.0621C14.7394 20.1227 15.1079 19.8523 15.1685 19.4583C15.1696 19.451 15.1706 19.4436 15.1715 19.4362C15.2205 19.0424 14.9425 18.6829 14.5491 18.6313Z" fill="#DC3143"/>
<path d="M22.9745 14.9709L22.9721 14.9566C19.7155 14.5483 17.6887 17.1712 17.6078 17.3016C17.3672 17.6199 17.4302 18.073 17.7485 18.3135C18.0669 18.5541 18.52 18.4911 18.7605 18.1728C19.7285 16.9513 21.2391 16.2892 22.7933 16.4052C23.1894 16.4552 23.551 16.1747 23.601 15.7786C23.651 15.3825 23.3706 15.0209 22.9745 14.9709Z" fill="#DC3143"/>
<path d="M24.0616 22.9633C23.9806 22.7974 23.839 22.6688 23.666 22.6041C23.4872 22.5337 23.2878 22.5375 23.1118 22.6147L14.7018 26.2797C14.333 26.4309 14.1566 26.8526 14.3078 27.2214C14.308 27.2216 14.3081 27.222 14.3082 27.2222C15.1181 29.0788 17.22 30.072 19.5278 29.6926C20.0346 29.6078 20.5288 29.4602 20.9991 29.2532C23.6884 28.0796 25.0617 25.2642 24.0616 22.9633ZM20.4264 27.9501C20.067 28.1063 19.6897 28.2175 19.303 28.2811C18.1114 28.5306 16.8751 28.1511 16.0288 27.2759L22.9302 24.2686C23.0956 25.6752 22.0989 27.2216 20.4264 27.9501Z" fill="#DC3143"/>
<path d="M42.5536 7.13047C42.552 7.13029 42.5504 7.13009 42.5487 7.12991L22.7128 5.0141C22.3164 4.97202 21.9609 5.25925 21.9188 5.65571C21.9188 5.65608 21.9187 5.65636 21.9187 5.65673L21.7891 6.82654L3.76116 14.6842C3.39875 14.8443 3.23308 15.2666 3.39 15.6304L8.6312 27.6657C10.9783 33.0746 17.2659 35.5567 22.6748 33.2095C24.4191 32.4525 25.9298 31.2434 27.0503 29.7072C32.5008 31.9768 38.7593 29.3983 41.0289 23.9478C41.4238 22.9996 41.6799 21.9995 41.7895 20.9783L43.1854 7.93235C43.2324 7.53645 42.9495 7.17741 42.5536 7.13047ZM22.1314 31.8692C17.4558 33.9133 12.0084 31.7802 9.96417 27.1046C9.96094 27.0972 9.95771 27.0898 9.95448 27.0824L4.99898 15.717L21.9911 8.32223L26.9478 19.6947C28.9777 24.3866 26.8218 29.8358 22.1314 31.8692ZM40.3598 20.8256C39.8138 25.9072 35.2517 29.5841 30.1702 29.0381C29.3706 28.9522 28.5856 28.7624 27.8351 28.4735C28.3813 27.4643 28.7626 26.3743 28.9648 25.2446L35.1235 25.9074C35.1888 25.9056 35.2534 25.895 35.3158 25.8757C35.6469 25.8338 35.9061 25.5704 35.9427 25.2387C36.2068 22.7519 34.0545 20.4723 31.1382 20.1763C30.3218 20.0876 29.4959 20.1662 28.7109 20.4071C28.5873 19.9667 28.4357 19.5347 28.2568 19.1137L26.2932 14.645C27.0748 14.8569 27.8922 14.9019 28.6924 14.7773C29.1738 14.6985 29.6424 14.5551 30.0854 14.3508C30.4512 14.1795 30.6089 13.7442 30.4376 13.3785C30.2664 13.0127 29.8311 12.855 29.4653 13.0262C28.17 13.5652 26.6979 13.4721 25.4809 12.7742L23.169 7.47753L23.2721 6.50228L41.6723 8.4737L40.3598 20.8256ZM29.1448 23.8032C29.1714 23.1414 29.1359 22.4787 29.0388 21.8235C29.6697 21.6109 30.3392 21.5383 31.0009 21.6107C32.8173 21.8022 34.2317 22.9742 34.498 24.3716L29.1448 23.8032Z" fill="#DC3143"/>
<path d="M39.5908 14.3683C39.4242 14.0058 38.9953 13.847 38.6328 14.0137C37.1836 14.5908 35.5425 14.411 34.2525 13.5341C33.9276 13.3027 33.4767 13.3785 33.2452 13.7034C33.0138 14.0283 33.0896 14.4792 33.4145 14.7107C34.7169 15.5806 36.2897 15.9507 37.8433 15.7529C38.3247 15.6743 38.7934 15.5308 39.2363 15.3264C39.5988 15.1597 39.7575 14.7307 39.5908 14.3683Z" fill="#DC3143"/>
<path d="M43.9564 24.7867V27.1613C43.9584 27.7627 44.2914 28.3176 44.83 28.6172V38.1543C44.8299 38.3786 44.9219 38.5937 45.0858 38.7524C45.2496 38.9109 45.4719 39 45.7037 39H63.1765C63.4082 39.0001 63.6305 38.911 63.7944 38.7524C63.9582 38.5938 64.0502 38.3787 64.0502 38.1543V28.6172C64.5889 28.3176 64.9219 27.7627 64.9238 27.1613V24.6244C64.9239 24.4002 64.8319 24.1851 64.668 24.0264C64.5042 23.8679 64.2819 23.7788 64.0501 23.7788H49.3791L63.0067 18.5192C63.2221 18.4364 63.3946 18.274 63.4862 18.0679C63.5778 17.8617 63.5808 17.6288 63.4947 17.4205L62.5238 15.0637C62.1646 14.1978 61.1497 13.7758 60.2536 14.1198L44.0229 20.3838C43.128 20.7314 42.6921 21.7139 43.0477 22.5813L43.9564 24.7867ZM61.791 25.47H63.1765L63.1774 27.1613H60.0437L61.791 25.47ZM56.5491 25.47H59.3203L57.5729 27.1613H54.8018L56.5491 25.47ZM51.3073 25.47H54.0784L52.3311 27.1613H49.5599L51.3073 25.47ZM62.3029 28.8526V37.3087H46.5773V28.8526H62.3029ZM59.6141 16.1877L60.9011 15.6909L61.5478 17.2616L58.6387 18.3844L59.6141 16.1877ZM54.745 18.0667L57.3184 17.0735L56.343 19.2705L53.7696 20.2637L54.745 18.0667ZM49.8763 19.9456L52.4495 18.9526L51.474 21.1497L48.9007 22.143L49.8763 19.9456ZM47.0892 27.1613H45.7037V25.47H48.8365L47.0892 27.1613ZM47.5806 20.8316L46.6049 23.029L45.318 23.5257L44.6705 21.9546L47.5806 20.8316Z" fill="#DC3143"/>
</g>
<defs>
<clipPath>
<rect width="66" height="66" fill="white" transform="translate(0.923828)"/>
</clipPath>
</defs>
</svg>
