<svg width="67" height="67" viewBox="0 0 67 67" fill="none" xmlns="http://www.w3.org/2000/svg">
<g>
<path d="M65.8809 28.2859C66.4149 28.2859 66.8477 27.8532 66.8477 27.3191V24.3464C66.8477 23.0955 65.8298 22.0776 64.5789 22.0776H48.9529C47.702 22.0776 46.6841 23.0955 46.6841 24.3464V41.2744C46.6841 42.5253 47.702 43.5431 48.9529 43.5431H49.2882V45.7767H47.6507C47.1166 45.7767 46.6839 46.2094 46.6839 46.7435V50.9104C46.6839 51.4444 47.1166 51.8772 47.6507 51.8772H56.8408V54.1105H36.898V51.8772H42.9627C43.4968 51.8772 43.9295 51.4444 43.9295 50.9104V46.7435C43.9295 46.2094 43.4968 45.7767 42.9627 45.7767H41.3252V43.5432H41.6608C42.9117 43.5432 43.9295 42.5254 43.9295 41.2745V24.3465C43.9295 23.0956 42.9117 22.0778 41.6608 22.0778H36.1035C35.5695 22.0778 35.1367 22.5105 35.1367 23.0446C35.1367 23.5786 35.5695 24.0114 36.1035 24.0114H41.6607C41.8455 24.0114 41.9958 24.1617 41.9958 24.3465V41.2745C41.9958 41.4593 41.8455 41.6096 41.6607 41.6096H26.0346C25.8498 41.6096 25.6995 41.4593 25.6995 41.2745V24.3465C25.6995 24.1617 25.8498 24.0114 26.0346 24.0114H31.5918C32.1259 24.0114 32.5586 23.5786 32.5586 23.0446C32.5586 22.5105 32.1259 22.0778 31.5918 22.0778H26.0346C24.7837 22.0778 23.7659 23.0956 23.7659 24.3465V41.2745C23.7659 42.5254 24.7837 43.5432 26.0346 43.5432H26.3702V45.7767H24.7327C24.1986 45.7767 23.7659 46.2094 23.7659 46.7435V50.9104C23.7659 51.4444 24.1986 51.8772 24.7327 51.8772H30.7975V54.1105H10.8546V51.8772H20.0448C20.5788 51.8772 21.0116 51.4444 21.0116 50.9104V46.7435C21.0116 46.2094 20.5788 45.7767 20.0448 45.7767H18.4073V43.5432H18.7425C19.9935 43.5432 21.0113 42.5254 21.0113 41.2745V32.8105C21.0113 32.2764 20.5786 31.8437 20.0445 31.8437C19.5104 31.8437 19.0777 32.2764 19.0777 32.8105V41.2745C19.0777 41.4593 18.9274 41.6096 18.7425 41.6096H3.11641C2.93155 41.6096 2.78125 41.4593 2.78125 41.2745V24.3465C2.78125 24.1617 2.93155 24.0114 3.11641 24.0114H18.7424C18.9273 24.0114 19.0776 24.1617 19.0776 24.3465V28.2988C19.0776 28.8328 19.5103 29.2656 20.0444 29.2656C20.5784 29.2656 21.0112 28.8328 21.0112 28.2988V24.3465C21.0112 23.0956 19.9933 22.0778 18.7424 22.0778H3.11641C1.8655 22.0778 0.847656 23.0956 0.847656 24.3465V41.2745C0.847656 42.5254 1.8655 43.5432 3.11641 43.5432H3.45208V45.7767H1.81445C1.28039 45.7767 0.847656 46.2094 0.847656 46.7435V50.9104C0.847656 51.4444 1.28039 51.8772 1.81445 51.8772H4.75416V62.4444H3.63757C3.10352 62.4444 2.67078 62.8771 2.67078 63.4112C2.67078 63.9452 3.10352 64.378 3.63757 64.378H11.9714C12.5054 64.378 12.9382 63.9452 12.9382 63.4112C12.9382 62.8771 12.5054 62.4444 11.9714 62.4444H10.8546V60.2111H30.7973V62.4444H29.6808C29.1467 62.4444 28.714 62.8771 28.714 63.4112C28.714 63.9452 29.1467 64.378 29.6808 64.378H38.0146C38.5486 64.378 38.9813 63.9452 38.9813 63.4112C38.9813 62.8771 38.5486 62.4444 38.0146 62.4444H36.898V60.2111H56.8407V62.4444H55.7239C55.1899 62.4444 54.7572 62.8771 54.7572 63.4112C54.7572 63.9452 55.1899 64.378 55.7239 64.378H64.0577C64.5918 64.378 65.0245 63.9452 65.0245 63.4112C65.0245 62.8771 64.5918 62.4444 64.0577 62.4444H62.9412V51.8772H65.8809C66.4149 51.8772 66.8477 51.4444 66.8477 50.9104V46.7435C66.8477 46.2094 66.4149 45.7767 65.8809 45.7767H64.2434V43.5432H64.579C65.8299 43.5432 66.8478 42.5254 66.8478 41.2745V31.8308C66.8478 31.2968 66.415 30.864 65.881 30.864C65.3469 30.864 64.9142 31.2968 64.9142 31.8308V41.2745C64.9142 41.4593 64.7639 41.6096 64.579 41.6096H48.9529C48.768 41.6096 48.6177 41.4593 48.6177 41.2745V24.3465C48.6177 24.1617 48.768 24.0114 48.9529 24.0114H64.5789C64.7638 24.0114 64.9141 24.1617 64.9141 24.3465V27.3192C64.9141 27.8532 65.3468 28.2859 65.8809 28.2859ZM28.3037 43.5432H39.3917V45.7767H28.3037V43.5432ZM25.6994 47.7103H41.9959V49.9436H25.6994V47.7103ZM32.7309 51.8772H34.9644V54.1105H32.7309V51.8772ZM5.38554 43.5432H16.4737V45.7767H5.38554V43.5432ZM2.78125 47.7103H19.078V49.9436H2.78125V47.7103ZM6.68775 62.4444V51.8772H8.92105V62.4444H6.68775ZM34.9644 62.4444H32.7309V60.2111H34.9644V62.4444ZM10.8546 58.2775V56.044H56.8407V58.2774H10.8546V58.2775ZM61.0076 62.4444H58.7743V51.8772H61.0076V62.4444ZM64.9141 49.9436H48.6173V47.7103H64.9141V49.9436ZM62.3098 45.7767H51.2216V43.5432H62.3098V45.7767Z" fill="#DC3143"/>
<path d="M29.1292 10.1528L28.1283 11.1537C26.8277 12.4545 26.8278 14.5711 28.1285 15.8721C28.7587 16.5022 29.5966 16.8493 30.4877 16.8493C31.3788 16.8493 32.2167 16.5022 32.8471 15.8719L33.8477 14.8712L34.8482 15.8718C35.4782 16.5021 36.3162 16.8493 37.2076 16.8493C38.0986 16.8493 38.9364 16.5024 39.5668 15.8721C40.1969 15.2419 40.5439 14.404 40.5439 13.5129C40.5439 12.6216 40.1969 11.7838 39.5668 11.1535L38.566 10.1528L39.5668 9.15214C40.8676 7.85122 40.8676 5.73457 39.5667 4.43365C38.9365 3.80356 38.0987 3.45654 37.2076 3.45654C36.3163 3.45654 35.4784 3.80369 34.8484 4.43378L33.8477 5.43448L32.8471 4.43365C31.5463 3.13286 29.4295 3.1326 28.1286 4.43365C27.4985 5.06387 27.1515 5.90177 27.1515 6.79289C27.1514 7.68415 27.4984 8.52191 28.1285 9.15214L29.1292 10.1528ZM29.4959 5.80109C30.0426 5.25401 30.9327 5.25401 31.4798 5.80096L33.1639 7.48525C33.3452 7.66662 33.5911 7.76846 33.8477 7.76846C34.1042 7.76846 34.3499 7.66662 34.5314 7.48538L36.2157 5.80096C36.4806 5.53593 36.8327 5.39001 37.2075 5.39001C37.5821 5.39001 37.9345 5.53593 38.1993 5.80083C38.7462 6.34791 38.7462 7.23788 38.1993 7.78483L36.515 9.46912C36.1374 9.84681 36.1374 10.4589 36.515 10.8364L38.1993 12.5207C38.7462 13.0677 38.7462 13.9575 38.1994 14.5046C37.9344 14.7696 37.5821 14.9155 37.2075 14.9155C36.8327 14.9155 36.4804 14.7696 36.2157 14.5046L34.5314 12.8203C34.35 12.6391 34.1042 12.5372 33.8477 12.5372C33.5911 12.5372 33.3453 12.6391 33.1639 12.8204L31.4798 14.5046C31.2147 14.7697 30.8626 14.9155 30.4878 14.9155C30.1131 14.9155 29.7608 14.7696 29.496 14.5047C28.9491 13.9576 28.9491 13.0677 29.4959 12.5207L31.1802 10.8364C31.5578 10.4587 31.5578 9.84668 31.1802 9.46912L29.4958 7.7847C28.9488 7.23788 28.949 6.34804 29.4959 5.80109Z" fill="#DC3143"/>
<path d="M6.87957 15.8671C7.50026 16.4877 8.32539 16.8296 9.20298 16.8296C10.0806 16.8296 10.9058 16.4878 11.5265 15.8671L18.4581 8.93533C19.0787 8.31478 19.4206 7.48952 19.4206 6.61193C19.4206 5.73407 19.0789 4.90895 18.4582 4.28839C17.177 3.00732 15.0924 3.00745 13.8111 4.28839L9.20298 8.89666L8.04772 7.74127C6.76665 6.4602 4.68198 6.4602 3.40065 7.74127C2.11958 9.02247 2.11958 11.107 3.40078 12.3883L6.87957 15.8671ZM4.76796 9.10871C5.0317 8.8451 5.37794 8.71336 5.72432 8.71336C6.07069 8.71336 6.41693 8.8451 6.68054 9.10858L8.51939 10.9476C8.70063 11.1289 8.94659 11.2308 9.20311 11.2308C9.45963 11.2308 9.70533 11.1289 9.88683 10.9477L15.1788 5.65557C15.706 5.12809 16.5638 5.12834 17.0913 5.65557C17.3466 5.91093 17.4873 6.25047 17.4873 6.6118C17.4873 6.97299 17.3466 7.31253 17.0911 7.5679L10.1595 14.4997C9.9041 14.7552 9.56456 14.8958 9.20324 14.8958C8.84204 14.8958 8.5025 14.7552 8.24701 14.4997L4.76809 11.021C4.51273 10.7658 4.37209 10.4261 4.37209 10.0648C4.37209 9.70361 4.51273 9.36395 4.76796 9.10871Z" fill="#DC3143"/>
<path d="M52.7157 15.8673C53.3363 16.4879 54.1615 16.8297 55.0391 16.8297C55.9167 16.8297 56.7419 16.488 57.3626 15.8673L64.2944 8.93551C65.5755 7.65431 65.5755 5.56977 64.2943 4.28844C63.0132 3.00737 60.9285 3.00737 59.6472 4.28844L55.0389 8.89697L53.8838 7.74158C52.6026 6.46051 50.5182 6.46051 49.2369 7.74158C48.6162 8.36213 48.2743 9.18739 48.2743 10.065C48.2743 10.9428 48.6161 11.768 49.2367 12.3885L52.7157 15.8673ZM50.6043 9.10889C50.8595 8.85352 51.1992 8.71276 51.5605 8.71276C51.9217 8.71276 52.2614 8.85352 52.5166 9.10876L54.3555 10.9477C54.5368 11.1291 54.7827 11.2309 55.0392 11.2309C55.2957 11.2309 55.5414 11.1291 55.7229 10.9479L61.0146 5.65575C61.5421 5.12852 62.4 5.12852 62.9272 5.65575C63.4546 6.18297 63.4546 7.04085 62.9272 7.56807L55.9954 14.4999C55.7401 14.7554 55.4005 14.896 55.0392 14.896C54.678 14.896 54.3385 14.7554 54.0831 14.4999L50.6042 11.0212C50.3488 10.7659 50.2082 10.4263 50.2082 10.065C50.2082 9.70379 50.3488 9.36425 50.6043 9.10889Z" fill="#DC3143"/>
</g>
<defs>
<clipPath>
<rect width="66" height="66" fill="white" transform="translate(0.847656 0.852539)"/>
</clipPath>
</defs>
</svg>
