<svg width="99" height="18" viewBox="0 0 99 18" fill="none" xmlns="http://www.w3.org/2000/svg">
<path d="M0 0.0919231C0.060614 0.0668535 0.0865914 0.0501404 0.112569 0.0501404C2.7969 0.0919231 5.4899 -0.00835546 8.14825 0.217271C12.1574 0.551533 14.8245 3.3844 15.1015 7.25348C15.2141 8.76602 15.1708 10.2618 14.7638 11.7242C13.8373 15.0585 11.5426 16.9554 8.06166 17.5571C7.32564 17.6825 6.57229 17.7242 5.8276 17.7326C3.89662 17.7577 1.96563 17.741 0 17.741C0 11.8412 0 5.97493 0 0.0919231ZM4.82314 13.8134C5.32537 13.8134 5.81895 13.8301 6.30386 13.8134C8.11362 13.7549 9.31724 12.8774 9.81947 11.1978C10.2351 9.81059 10.2697 8.39833 9.99265 6.98607C9.4731 4.26184 7.58541 3.65181 4.82314 3.98607C4.82314 7.24513 4.82314 10.5042 4.82314 13.8134Z" fill="white" fill-opacity="0.8"/>
<path d="M44.1443 4.31198C48.1708 4.30362 50.8118 6.77716 50.9157 10.6295C50.9417 11.6323 50.8465 12.6685 50.5867 13.6379C49.9286 16.078 48.2141 17.4735 45.6423 17.8747C44.3608 18.0752 43.0706 18.0418 41.841 17.6156C39.3212 16.7465 38.0742 14.8997 37.7106 12.4178C37.52 11.1393 37.5893 9.86073 37.953 8.60724C38.6544 6.15878 40.62 4.57939 43.2351 4.35376C43.5814 4.33705 43.9278 4.32869 44.1443 4.31198ZM42.1873 11.1476C42.3519 11.9415 42.4644 12.7688 42.7069 13.5543C42.9234 14.273 43.5295 14.5905 44.3002 14.5989C45.0708 14.5989 45.6337 14.273 45.8848 13.5376C46.4216 11.9666 46.413 10.3621 45.9108 8.78273C45.7462 8.27298 45.3739 7.90529 44.8024 7.76323C43.8239 7.52089 42.958 7.88858 42.6549 8.81616C42.4211 9.55153 42.3432 10.3287 42.1873 11.1476Z" fill="white" fill-opacity="0.8"/>
<path d="M29.3804 12.376C26.6528 12.376 23.9511 12.376 21.2408 12.376C21.1802 13.3287 21.7604 14.1643 22.7302 14.5237C23.5528 14.8329 24.4101 14.7994 25.25 14.6825C26.1073 14.5655 26.9559 14.3398 27.8477 14.1476C28.0556 15.0084 28.2894 15.9192 28.4885 16.8468C28.5058 16.9304 28.3586 17.0975 28.2461 17.156C27.2676 17.624 26.2112 17.8412 25.1288 17.9248C23.8472 18.0251 22.5657 18.0418 21.3014 17.7409C18.9029 17.1643 17.3615 15.727 16.79 13.3955C16.3744 11.6992 16.4177 9.98607 16.9632 8.32312C17.7339 5.94986 19.483 4.64624 22.0201 4.39554C22.9813 4.30362 23.9944 4.32869 24.9469 4.50418C27.5793 4.9805 29.2072 6.80223 29.3804 9.40111C29.441 10.3621 29.3804 11.3398 29.3804 12.376ZM25.2413 9.50139C25.2154 8.68245 24.9729 8.01393 24.2369 7.63788C23.5528 7.28691 22.8428 7.31198 22.1847 7.7298C21.5352 8.13927 21.3534 8.77437 21.3014 9.50139C22.6349 9.50139 23.9165 9.50139 25.2413 9.50139Z" fill="white" fill-opacity="0.8"/>
<path d="M91.9947 14.0641C92.2285 15.0585 92.4623 16.0279 92.6961 17.0139C91.8129 17.4735 90.895 17.741 89.9339 17.8579C88.5138 18.0251 87.085 18.0919 85.6736 17.7911C83.0412 17.2228 81.4133 15.6769 80.8851 13.1114C80.556 11.5153 80.6166 9.91922 81.1015 8.36491C81.8202 6.0585 83.7166 4.55432 86.2191 4.39555C87.2322 4.33705 88.28 4.36212 89.2671 4.55432C91.5878 4.98886 93.0598 6.54318 93.4495 8.79109C93.5274 9.24234 93.562 9.70195 93.5707 10.1616C93.588 10.8802 93.5793 11.6072 93.5793 12.376C90.8344 12.376 88.1154 12.376 85.3965 12.376C85.3359 13.6713 86.375 14.6574 87.8643 14.7326C89.1286 14.7994 90.3668 14.6407 91.5618 14.2228C91.6917 14.1643 91.8215 14.1226 91.9947 14.0641ZM89.371 9.5014C89.4576 8.32312 88.6177 7.42062 87.4573 7.41226C86.271 7.4039 85.4224 8.31477 85.509 9.5014C86.7819 9.5014 88.0548 9.5014 89.371 9.5014Z" fill="white" fill-opacity="0.8"/>
<path d="M71.5072 7.95544C70.9443 7.95544 70.4508 7.95544 69.9312 7.95544C69.9312 6.81059 69.9312 5.70753 69.9312 4.55432C70.4508 4.55432 70.9443 4.55432 71.4985 4.55432C71.4985 3.39276 71.4985 2.27299 71.4985 1.1365C73.0658 0.894157 74.5812 0.651817 76.1398 0.409477C76.1398 1.79666 76.1398 3.14207 76.1398 4.53761C77.127 4.53761 78.0882 4.53761 79.0666 4.53761C79.0666 5.69917 79.0666 6.80224 79.0666 7.93873C78.1141 7.93873 77.1703 7.93873 76.1485 7.93873C76.1485 8.10586 76.1485 8.2312 76.1485 8.36491C76.1485 9.89416 76.1485 11.4318 76.1485 12.961C76.1485 14.0891 76.6767 14.5404 77.8457 14.3566C78.4259 14.2646 78.9974 14.1226 79.6208 13.9889C79.6208 15.0334 79.6295 16.0696 79.6122 17.1059C79.6122 17.1811 79.4996 17.2897 79.4043 17.3231C77.7072 18.0084 75.9493 18.1839 74.1569 17.766C72.6329 17.4067 71.9055 16.3371 71.663 14.9332C71.5505 14.3231 71.5245 13.688 71.5158 13.0613C71.4899 11.3816 71.5072 9.70196 71.5072 7.95544Z" fill="white" fill-opacity="0.8"/>
<path d="M60.8305 7.94708C60.2676 7.94708 59.7654 7.94708 59.2545 7.94708C59.2545 6.80223 59.2545 5.69917 59.2545 4.55432C59.7827 4.55432 60.2763 4.55432 60.8132 4.55432C60.8132 3.41783 60.8132 2.32312 60.8132 1.18663C62.3718 0.927578 63.8958 0.668525 65.4718 0.401115C65.4718 1.79666 65.4718 3.14206 65.4718 4.52925C66.4589 4.52925 67.4028 4.52925 68.3812 4.52925C68.3812 5.6741 68.3812 6.77716 68.3812 7.93872C67.4374 7.93872 66.4849 7.93872 65.4718 7.93872C65.4718 8.24791 65.4718 8.50697 65.4718 8.76602C65.4718 10.1699 65.4718 11.5822 65.4718 12.9861C65.4718 14.0891 66 14.532 67.1516 14.3565C67.7405 14.2646 68.3293 14.1142 68.9441 13.9805C68.9441 15.0084 68.9527 16.0195 68.9354 17.0306C68.9354 17.1309 68.8142 17.2813 68.7103 17.3231C67.0218 18.0084 65.2813 18.1755 63.5062 17.7744C62.0254 17.4401 61.2721 16.4206 61.0037 15.0418C60.8911 14.4568 60.8478 13.8552 60.8391 13.2618C60.8132 11.6574 60.8305 10.0613 60.8305 8.45683C60.8305 8.30641 60.8305 8.15599 60.8305 7.94708Z" fill="white" fill-opacity="0.8"/>
<path d="M35.7969 17.7242C34.2556 17.7242 32.7662 17.7242 31.2422 17.7242C31.2422 11.8162 31.2422 5.91644 31.2422 0C32.7662 0 34.2729 0 35.7969 0C35.7969 5.91644 35.7969 11.7994 35.7969 17.7242Z" fill="white" fill-opacity="0.8"/>
<path d="M52.8035 17.7159C52.8035 13.337 52.8035 8.97493 52.8035 4.57938C54.3102 4.57938 55.8082 4.57938 57.3495 4.57938C57.3495 8.94986 57.3495 13.3203 57.3495 17.7159C55.8342 17.7159 54.3361 17.7159 52.8035 17.7159Z" fill="white" fill-opacity="0.8"/>
<path d="M57.3582 0.00835419C57.3582 0.977714 57.3582 1.93036 57.3582 2.91643C55.8428 2.91643 54.3361 2.91643 52.8035 2.91643C52.8035 1.95543 52.8035 1.00278 52.8035 0.00835419C54.3102 0.00835419 55.8255 0.00835419 57.3582 0.00835419Z" fill="white" fill-opacity="0.8"/>
<path d="M97.1816 17.7242C98.1811 17.7242 98.9914 16.9423 98.9914 15.9777C98.9914 15.0131 98.1811 14.2312 97.1816 14.2312C96.1821 14.2312 95.3718 15.0131 95.3718 15.9777C95.3718 16.9423 96.1821 17.7242 97.1816 17.7242Z" fill="#E5E5E5"/>
</svg>
