<svg width="13" height="23" viewBox="0 0 13 23" fill="none" xmlns="http://www.w3.org/2000/svg">
<path d="M12.4451 0.850731L9.40082 0.846153C5.98064 0.846153 3.77038 2.97124 3.77038 6.26038V8.75671H0.709462C0.444963 8.75671 0.230774 8.95766 0.230774 9.20553V12.8224C0.230774 13.0703 0.445207 13.271 0.709462 13.271H3.77038V22.3976C3.77038 22.6454 3.98456 22.8462 4.24906 22.8462H8.24269C8.50719 22.8462 8.72138 22.6452 8.72138 22.3976V13.271H12.3003C12.5648 13.271 12.779 13.0703 12.779 12.8224L12.7805 9.20553C12.7805 9.08651 12.7299 8.97253 12.6403 8.88831C12.5506 8.80408 12.4285 8.75671 12.3015 8.75671H8.72138V6.64054C8.72138 5.62343 8.98001 5.10709 10.3939 5.10709L12.4446 5.1064C12.7089 5.1064 12.9231 4.90545 12.9231 4.65781V1.29932C12.9231 1.05191 12.7091 0.851188 12.4451 0.850731Z" fill="white"/>
</svg>
