<svg width="11" height="19" viewBox="0 0 11 19" fill="none" xmlns="http://www.w3.org/2000/svg">
<path d="M9.93386 0.00375862L7.45794 0C4.67634 0 2.87874 1.74494 2.87874 4.4457V6.49547H0.389314C0.174198 6.49547 0 6.66047 0 6.864V9.83388C0 10.0374 0.174397 10.2022 0.389314 10.2022H2.87874V17.6962C2.87874 17.8997 3.05294 18.0645 3.26805 18.0645H6.51604C6.73116 18.0645 6.90536 17.8995 6.90536 17.6962V10.2022H9.81607C10.0312 10.2022 10.2054 10.0374 10.2054 9.83388L10.2066 6.864C10.2066 6.76628 10.1655 6.67269 10.0926 6.60353C10.0197 6.53437 9.92035 6.49547 9.81707 6.49547H6.90536V4.75786C6.90536 3.92269 7.11571 3.49872 8.26557 3.49872L9.93346 3.49815C10.1484 3.49815 10.3226 3.33315 10.3226 3.12981V0.372104C10.3226 0.16895 10.1486 0.00413449 9.93386 0.00375862Z" fill="#646677"/>
</svg>
