<svg width="29" height="30" viewBox="0 0 29 30" fill="none" xmlns="http://www.w3.org/2000/svg">
<g clip-path="url(#clip0)">
<path d="M15 0.206055C9.18445 0.206055 4.45312 4.93738 4.45312 10.7529C4.45312 12.7178 4.9974 14.6354 6.02748 16.2989L14.3996 28.7906C14.56 29.049 14.8426 29.2061 15.1464 29.2061C15.1488 29.2061 15.1511 29.2061 15.1534 29.2061C15.4599 29.2037 15.743 29.0418 15.9005 28.7788L24.0592 16.1564C25.0325 14.528 25.5469 12.6595 25.5469 10.7529C25.5469 4.93738 20.8155 0.206055 15 0.206055ZM22.5507 15.254L15.1331 26.6388L7.5215 15.3728C6.6641 13.9881 6.19922 12.3906 6.19922 10.7529C6.19922 5.90664 10.1537 1.95215 15 1.95215C19.8463 1.95215 23.7949 5.90664 23.7949 10.7529C23.7949 12.3421 23.3607 13.8987 22.5507 15.254Z" fill="#292A35"/>
<path d="M15 5.47949C12.0922 5.47949 9.72656 7.84516 9.72656 10.7529C9.72656 13.6421 12.0537 16.0264 15 16.0264C17.9826 16.0264 20.2734 13.6104 20.2734 10.7529C20.2734 7.84516 17.9078 5.47949 15 5.47949ZM15 14.2803C13.0513 14.2803 11.4727 12.6963 11.4727 10.7529C11.4727 8.81441 13.0615 7.22559 15 7.22559C16.9385 7.22559 18.5215 8.81441 18.5215 10.7529C18.5215 12.6679 16.9795 14.2803 15 14.2803Z" fill="#292A35"/>
</g>
<defs>
<clipPath id="clip0">
<rect width="29" height="29" fill="white" transform="translate(0 0.206055)"/>
</clipPath>
</defs>
</svg>
