<svg width="26" height="26" viewBox="0 0 26 26" fill="none" xmlns="http://www.w3.org/2000/svg">
<g clip-path="url(#clip0)">
<path d="M13.0691 0C8.00215 0 3.87988 4.12227 3.87988 9.18918C3.87988 10.9011 4.3541 12.5718 5.25157 14.0213L12.546 24.9048C12.6857 25.13 12.9319 25.2668 13.1966 25.2668C13.1987 25.2668 13.2007 25.2668 13.2027 25.2668C13.4698 25.2647 13.7164 25.1237 13.8536 24.8946L20.9621 13.8971C21.8101 12.4783 22.2582 10.8503 22.2582 9.18918C22.2582 4.12227 18.136 0 13.0691 0ZM19.6478 13.1108L13.185 23.0301L6.55327 13.2143C5.80624 12.0079 5.4012 10.6161 5.4012 9.18918C5.4012 4.96675 8.84663 1.52132 13.0691 1.52132C17.2915 1.52132 20.7318 4.96675 20.7318 9.18918C20.7318 10.5737 20.3535 11.93 19.6478 13.1108Z" fill="#292A35"/>
<path d="M13.0691 4.59473C10.5356 4.59473 8.47449 6.65586 8.47449 9.18932C8.47449 11.7066 10.5021 13.7839 13.0691 13.7839C15.6677 13.7839 17.6637 11.6789 17.6637 9.18932C17.6637 6.65586 15.6025 4.59473 13.0691 4.59473ZM13.0691 12.2626C11.3713 12.2626 9.99581 10.8825 9.99581 9.18932C9.99581 7.50035 11.3801 6.11605 13.0691 6.11605C14.758 6.11605 16.1372 7.50035 16.1372 9.18932C16.1372 10.8578 14.7938 12.2626 13.0691 12.2626Z" fill="#292A35"/>
</g>
<defs>
<clipPath id="clip0">
<rect width="25.2668" height="25.2668" fill="white"/>
</clipPath>
</defs>
</svg>
