<svg width="135" height="38" viewBox="0 0 135 38" fill="none" xmlns="http://www.w3.org/2000/svg">
<path fill-rule="evenodd" clip-rule="evenodd" d="M18.0008 7.4479C18.426 5.3778 18.8512 3.37043 19.3472 1.30033C19.4181 0.673032 19.2055 0.484841 18.922 0.35938C18.4968 0.23392 17.7882 0.547568 17.363 0.86122C16.7961 1.2376 10.9142 4.24866 7.51262 6.63241C4.11105 9.01616 3.82759 10.0198 3.89845 10.7099C4.04019 11.3999 5.17404 11.9018 6.5205 11.9018C7.86695 11.9018 11.9772 11.7136 11.9772 11.7136C11.9772 11.7136 13.9614 10.8353 15.5205 9.95711C17.1504 9.07889 17.9299 8.2634 18.0008 7.4479Z" fill="#D1030F"/>
<path fill-rule="evenodd" clip-rule="evenodd" d="M3.89854 10.459C3.33161 13.4073 2.76469 16.3557 2.19776 19.304C2.19776 19.304 1.84343 20.6841 3.75681 20.6841C5.67019 20.6841 8.43396 20.3704 10.6308 20.1195C12.7568 19.8686 22.4654 18.9276 22.4654 18.9276C22.4654 18.9276 24.2371 17.3594 25.4418 15.8538C26.5756 14.411 27.2134 12.8428 27.3552 12.2155C27.4969 11.6509 27.993 10.0826 24.2371 10.459C20.4812 10.8354 11.9773 11.8391 11.9773 11.8391C11.9773 11.8391 7.79617 12.0273 6.52058 12.0273C5.17413 12.0273 4.04027 11.4627 3.89854 10.8354C3.89854 10.6472 3.89854 10.5218 3.89854 10.459Z" fill="#9A9A9C"/>
<path fill-rule="evenodd" clip-rule="evenodd" d="M27.3553 12.1526C27.3553 12.1526 25.3002 21.3739 24.875 22.8167C22.6073 30.2189 9.78051 34.5473 2.48132 37.1192C2.48132 37.1192 1.34746 37.4956 0.922263 37.2447C0.709665 37.1193 0.780531 36.6801 0.922263 36.3038C1.56006 33.8573 2.12698 31.5363 2.69391 29.027C2.69391 29.027 2.69391 27.7097 4.74903 27.2079C6.80414 26.6433 12.1191 24.6986 16.0876 22.8795C19.9852 21.0603 22.4655 18.8647 22.4655 18.8647C22.4655 18.8647 24.2372 17.2965 25.4419 15.7909C26.5757 14.2854 27.2135 12.7799 27.3553 12.1526Z" fill="#D1030F"/>
<path fill-rule="evenodd" clip-rule="evenodd" d="M40.6781 13.0309C40.6781 13.0309 39.6151 12.5291 38.3395 12.5918C37.4182 12.6546 36.4261 13.2819 36.497 14.1601C36.5678 15.4147 38.1269 15.7911 39.5442 16.4184C42.9458 17.9866 41.6702 21.6877 38.056 21.6877C38.056 21.6877 38.056 21.6877 37.9852 21.6877C36.1426 21.6877 35.0088 21.0604 35.0088 21.0604C35.1505 20.7468 35.2214 20.4959 35.3631 20.1822C36.2135 20.6213 37.2056 20.8095 38.1269 20.7468C39.2607 20.684 40.1111 20.1822 40.182 18.8021C40.182 16.6066 35.2214 17.2966 35.0797 14.3483C35.0088 13.0309 36.497 11.7763 38.1978 11.7136C39.7568 11.6509 41.0324 12.2154 41.0324 12.2154C40.9615 12.5291 40.8198 12.78 40.6781 13.0309ZM66.119 11.7136C69.3079 11.7136 71.8591 13.8464 71.8591 16.6693C71.8591 19.4922 69.3079 21.7505 66.119 21.7505C62.93 21.7505 60.3788 19.4922 60.3788 16.6693C60.3788 13.9092 62.93 11.7136 66.119 11.7136ZM66.119 12.4664C63.4969 12.4664 61.4418 14.411 61.4418 16.732C61.4418 19.0531 63.4969 21.0604 66.119 21.0604C68.741 21.0604 70.867 19.0531 70.867 16.732C70.867 14.411 68.8119 12.4664 66.119 12.4664ZM103.253 11.7136C106.442 11.7136 108.993 13.8464 108.993 16.6693C108.993 19.4922 106.442 21.7505 103.253 21.7505C100.064 21.7505 97.5126 19.4922 97.5126 16.6693C97.4417 13.9092 99.9929 11.7136 103.253 11.7136ZM103.253 12.4664C100.631 12.4664 98.5047 14.411 98.5047 16.732C98.5047 19.0531 100.56 21.0604 103.253 21.0604C105.875 21.0604 108.001 19.0531 108.001 16.732C107.93 14.411 105.875 12.4664 103.253 12.4664ZM121.82 18.5512C122.457 18.5512 123.024 18.5512 123.662 18.5512C124.938 16.2302 126.213 13.9092 127.56 11.6509C129.473 15.0383 131.387 18.4258 133.3 21.7505C132.946 21.7505 132.52 21.7505 132.166 21.7505C131.741 20.9977 131.316 20.2449 130.89 19.4922C128.694 19.4922 126.568 19.4922 124.371 19.4922C123.946 20.2449 123.52 20.9977 123.095 21.7505C122.741 21.7505 122.316 21.7505 121.961 21.7505C122.387 20.9977 122.812 20.2449 123.237 19.4922C122.812 19.4922 122.387 19.4922 121.89 19.4922C121.82 19.1785 121.82 18.8649 121.82 18.5512ZM124.867 18.5512C126.709 18.5512 128.481 18.5512 130.324 18.5512C129.402 16.9202 128.481 15.2892 127.56 13.6582C126.639 15.2892 125.717 16.9202 124.867 18.5512ZM110.481 11.7136C111.544 11.7136 112.678 11.7136 113.741 11.7136C117.001 11.7136 120.261 13.0309 120.615 16.2302C120.969 19.2412 118.631 21.7505 114.733 21.7505C113.316 21.7505 111.898 21.7505 110.481 21.7505C110.41 18.4258 110.481 15.101 110.481 11.7136ZM111.473 20.9977C112.536 20.9977 113.599 20.9977 114.733 20.9977C117.993 20.9977 119.906 18.7394 119.623 16.3557C119.339 13.7837 116.434 12.5291 113.812 12.5291C113.032 12.5291 112.253 12.5291 111.544 12.5291C111.473 15.352 111.473 18.1748 111.473 20.9977ZM83.2685 21.7505C83.2685 18.4258 83.2685 15.1638 83.2685 11.8391C85.3945 13.721 87.4496 15.5402 89.5756 17.4221C91.7016 15.5402 93.8276 13.721 95.9535 11.8391C95.9535 15.1638 95.9535 18.4258 95.9535 21.7505C95.5992 21.7505 95.2449 21.7505 94.8905 21.7505C94.8905 19.1785 94.8905 16.6066 94.8905 14.0346C93.1189 15.6029 91.3472 17.1084 89.5756 18.6767C87.8039 17.1084 86.1032 15.6029 84.3315 14.0346C84.3315 16.6066 84.3315 19.1785 84.3315 21.7505C83.9772 21.7505 83.6228 21.7505 83.2685 21.7505ZM74.0559 11.7136C75.0481 13.0937 75.9693 14.4737 76.9615 15.8538C77.9536 14.4737 78.9457 13.0937 79.9378 11.7136C80.363 11.7136 80.7173 11.7136 81.1425 11.7136C79.9378 13.4073 78.7331 15.1638 77.4575 16.8575C77.4575 18.4885 77.4575 20.1195 77.4575 21.7505C77.1032 21.7505 76.7489 21.7505 76.3945 21.7505C76.3945 20.1195 76.3945 18.4885 76.3945 16.8575C75.1898 15.1638 73.9851 13.4073 72.7803 11.7136C73.2764 11.7136 73.7016 11.7136 74.0559 11.7136ZM52.7253 12.5918C52.7253 14.6619 52.7253 16.7948 52.7253 18.8649C53.3631 18.8649 54.0717 18.8649 54.7095 18.8649C56.8355 18.6139 57.8985 17.2966 57.8985 15.6656C57.8985 13.9719 56.6938 12.5918 54.5678 12.5918C54.0009 12.5918 53.3631 12.5918 52.7253 12.5918ZM52.7253 19.7431C52.7253 20.4331 52.7253 21.0604 52.7253 21.7505C52.371 21.7505 52.0166 21.7505 51.6623 21.7505C51.6623 18.5512 51.6623 15.352 51.6623 12.1527C51.6623 12.0273 51.6623 11.8391 51.6623 11.7136C52.4418 11.7136 53.1505 11.7136 53.93 11.7136C56.7646 11.7136 59.0324 13.0309 59.0324 15.7283C59.0324 16.983 58.5363 17.8612 57.8985 18.4885C57.4024 18.9903 56.6938 19.304 56.1977 19.4922H56.1269C57.119 20.2449 58.0402 20.9977 59.0324 21.7505C58.5363 21.7505 57.9694 21.7505 57.4733 21.7505C56.6229 21.0604 55.7725 20.4331 54.8513 19.7431C54.2135 19.7431 53.5048 19.7431 52.7253 19.7431ZM43.0875 11.6509C45.4261 11.6509 47.7647 11.6509 50.1032 11.6509C50.1032 11.9645 50.1032 12.2782 50.1032 12.5918C49.1111 12.5918 48.119 12.5918 47.1269 12.5918C47.1269 15.6656 47.1269 18.7394 47.1269 21.8759C46.7725 21.8759 46.4182 21.8759 46.0639 21.8759C46.0639 18.8021 46.0639 15.7283 46.0639 12.5918C45.0718 12.5918 44.0796 12.5918 43.0166 12.5918C43.0875 12.2782 43.0875 11.9645 43.0875 11.6509Z" fill="#404149"/>
</svg>
