<svg width="24" height="24" viewBox="0 0 24 24" fill="none" xmlns="http://www.w3.org/2000/svg">
<g clip-path="url(#clip0)">
<path d="M21.1431 3.75171H2.73751C1.56641 3.75171 0.61377 4.70434 0.61377 5.87544V18.6178C0.61377 19.7889 1.56641 20.7415 2.73751 20.7415H21.1431C22.3142 20.7415 23.2668 19.7889 23.2668 18.6178V5.87544C23.2668 4.70434 22.3142 3.75171 21.1431 3.75171ZM21.1431 5.16752C21.2392 5.16752 21.3307 5.18747 21.4144 5.22232L11.9403 13.4336L2.46613 5.22232C2.54978 5.18752 2.64128 5.16752 2.73746 5.16752H21.1431ZM21.1431 19.3256H2.73751C2.34692 19.3256 2.02958 19.0084 2.02958 18.6177V6.71814L11.4764 14.9054C11.6098 15.0208 11.7751 15.0782 11.9403 15.0782C12.1055 15.0782 12.2707 15.0209 12.4042 14.9054L21.851 6.71814V18.6178C21.8509 19.0084 21.5336 19.3256 21.1431 19.3256Z" fill="#292A35"/>
</g>
<defs>
<clipPath id="clip0">
<rect width="22.653" height="22.653" fill="white" transform="translate(0.61377 0.919922)"/>
</clipPath>
</defs>
</svg>
