<svg width="135" height="29" viewBox="0 0 135 29" fill="none" xmlns="http://www.w3.org/2000/svg">
<path d="M0 6.82353V13.6471H6.80273H13.6055V6.82353V2.86102e-06H6.80273H0V6.82353Z" fill="white" fill-opacity="0.8"/>
<path d="M15.2613 0.0746346C15.2191 0.10662 15.1875 3.17721 15.1875 6.89817V13.6471H21.9375H28.6875V6.82353V2.86102e-06H22.0113C18.3305 2.86102e-06 15.293 0.0319881 15.2613 0.0746346Z" fill="white" fill-opacity="0.8"/>
<path d="M125.234 4.69118C124.189 4.91508 123.272 5.51213 122.713 6.33309C122.133 7.19669 122.006 7.67647 121.932 9.27574L121.869 10.7151L120.867 10.7684L119.865 10.8217V11.8879V12.954L120.867 13.0074L121.869 13.0607L121.901 18.093L121.922 23.136H123.293H124.664L124.685 18.093L124.717 13.0607H126.932H129.146L129.21 16.8456C129.284 21.2169 129.336 21.5261 130.106 22.3897C130.634 22.9761 131.14 23.2213 132.089 23.3493C132.87 23.4665 133.882 23.3706 134.663 23.1254L135 23.0081V21.9206V20.8224L134.409 21.025C133.407 21.3662 132.606 21.1103 132.173 20.332C132.015 20.0228 131.994 19.607 131.994 16.5257V13.0607L133.502 13.0287L135 12.9967V11.8879V10.779L133.502 10.7471L131.994 10.7151L131.963 8.9239C131.952 7.94302 131.899 7.14338 131.857 7.14338C131.815 7.14338 131.214 7.32463 130.518 7.54853L129.252 7.95368L129.22 9.36103L129.189 10.7684L126.953 10.7471L124.717 10.7151L124.685 9.71287C124.664 9.05184 124.706 8.52941 124.822 8.15625C125.149 7.00478 126.193 6.55699 127.596 6.99412C127.828 7.05809 127.828 7.05809 127.828 5.9386C127.828 5.27758 127.786 4.78713 127.723 4.74449C127.533 4.62721 125.698 4.58456 125.234 4.69118Z" fill="white" fill-opacity="0.8"/>
<path d="M59.5161 5.75735C58.8727 6.15184 58.6196 7.13272 58.9887 7.85772C59.5477 8.94522 61.3829 8.90257 61.9313 7.78309C62.2899 7.06875 62.0684 6.23713 61.3934 5.78934C60.9188 5.46948 60.0012 5.44816 59.5161 5.75735Z" fill="white" fill-opacity="0.8"/>
<path d="M37.5469 14.5V23.1467L38.8441 23.1147L40.1309 23.0827L40.1625 16.4404C40.1836 11.1522 40.2152 9.80882 40.3207 9.80882C40.3945 9.80882 41.5441 12.5382 43.0945 16.4404L45.7418 23.0827L46.7332 23.1147L47.7352 23.1467L48.6949 20.7158C49.2117 19.3831 50.393 16.3765 51.3106 14.0415C52.3653 11.3441 53.0297 9.80882 53.1141 9.80882C53.2406 9.80882 53.2617 10.907 53.2617 16.4724V23.136H54.6328H56.0039V14.5V5.86397L54.0422 5.88529L52.0699 5.91728L49.5176 12.261C48.0516 15.8754 46.8914 18.6154 46.8176 18.6368C46.7121 18.6474 45.9 16.6857 44.1809 12.293L41.6918 5.91728L39.6246 5.88529L37.5469 5.86397V14.5Z" fill="white" fill-opacity="0.8"/>
<path d="M68.5758 10.7684C66.498 11.3335 65.032 12.7195 64.357 14.7559C64.0512 15.6621 63.9246 17.6985 64.1145 18.7114C64.2937 19.703 64.9898 21.025 65.707 21.7393C66.8672 22.9015 68.175 23.3919 70.084 23.3813C71.2969 23.3706 71.8453 23.2853 72.8156 22.9121L73.4063 22.6989V21.4621C73.4063 20.7905 73.3746 20.2574 73.3324 20.2787C71.8453 21.0463 70.9805 21.2702 69.9574 21.121C68.2066 20.8651 67.0887 19.671 66.8566 17.7945C66.5824 15.5875 67.5422 13.6577 69.2402 13.018C69.7676 12.8154 70.0313 12.7835 70.8223 12.8154C71.6555 12.8474 71.877 12.9007 72.5941 13.2526L73.4168 13.6364L73.3852 12.3463L73.3535 11.0456L72.7207 10.843C71.7609 10.5232 69.5883 10.4912 68.5758 10.7684Z" fill="white" fill-opacity="0.8"/>
<path d="M81.2637 10.6618C81.0317 10.7044 80.7152 10.7897 80.5465 10.8537C80.1035 11.0456 79.2598 11.8879 79.0488 12.3676C78.7324 13.082 78.5848 12.9221 78.5531 11.8026L78.5215 10.8217H77.2031H75.8848L75.8531 16.9735L75.832 23.136H77.1926H78.5637L78.5953 19.3724C78.627 15.7154 78.6375 15.5982 78.8801 14.9904C79.1649 14.2654 79.7133 13.6151 80.2723 13.3165C80.7574 13.0713 81.7277 13.05 82.35 13.2632C82.582 13.3485 82.8035 13.3912 82.8352 13.3592C82.9617 13.2206 82.8985 10.907 82.7719 10.8004C82.582 10.6511 81.7594 10.5765 81.2637 10.6618Z" fill="white" fill-opacity="0.8"/>
<path d="M87.6656 10.7684C85.5035 11.3441 83.9847 12.9114 83.4679 15.0971C83.2254 16.1099 83.2254 18.157 83.4679 19.0739C84.0269 21.1743 85.4929 22.6562 87.5496 23.2107C88.4672 23.4559 90.4183 23.4452 91.3254 23.2C92.4011 22.9121 93.2133 22.4323 93.9832 21.654C94.732 20.8971 95.3015 19.8629 95.5652 18.7647C95.7761 17.9011 95.7445 15.5875 95.5125 14.7132C94.964 12.6662 93.5191 11.2162 91.5363 10.7257C90.566 10.4805 88.6676 10.5018 87.6656 10.7684ZM91.0828 13.0926C92.4117 13.7857 93.0023 15.2143 92.8863 17.4107C92.7914 19.2551 92.1797 20.3746 90.9879 20.8971C90.2496 21.2276 88.8574 21.2382 88.1508 20.9184C86.7058 20.2787 85.9359 18.6261 86.0941 16.5364C86.2523 14.6173 86.9695 13.4551 88.3511 12.9434C88.9629 12.7088 90.5238 12.7941 91.0828 13.0926Z" fill="white" fill-opacity="0.8"/>
<path d="M100.332 10.7151C99.109 11.0563 98.1809 11.7813 97.6957 12.7835C97.432 13.3059 97.4004 13.4978 97.4109 14.3401C97.4109 16.1206 97.8961 16.6963 100.438 17.9651C102.315 18.9033 102.621 19.1805 102.621 19.9375C102.621 21.3235 100.638 21.6967 98.4551 20.7265C97.991 20.5239 97.548 20.3213 97.4848 20.2893C97.3793 20.2467 97.3477 20.5346 97.3477 21.5154V22.7842L97.9066 22.9548C99.3621 23.4132 101.039 23.5199 102.199 23.2426C104.119 22.7842 105.363 21.3662 105.363 19.6283C105.363 17.9331 104.572 17.0055 102.199 15.9393C101.587 15.6621 100.934 15.3423 100.754 15.2143C99.8262 14.5853 99.9105 13.3805 100.902 12.8901C101.313 12.6875 101.503 12.6662 102.241 12.7088C103.022 12.7621 103.444 12.8794 104.604 13.4018C104.699 13.4445 104.73 13.1673 104.73 12.2184V10.9923L104.33 10.875C103.011 10.5232 101.313 10.4485 100.332 10.7151Z" fill="white" fill-opacity="0.8"/>
<path d="M111.639 10.6618C109.793 11.0563 108.316 12.1544 107.578 13.679C107.04 14.7985 106.893 15.5555 106.903 17.1654C106.914 18.4022 106.956 18.7221 107.177 19.4257C107.81 21.3555 109.202 22.6776 111.122 23.1893C113.527 23.8184 116.068 23.2213 117.598 21.6541C118.705 20.5132 119.243 19.1805 119.348 17.2721C119.486 14.7985 118.621 12.6768 116.996 11.5574C115.952 10.8324 115.256 10.6404 113.537 10.5978C112.725 10.5871 111.871 10.6085 111.639 10.6618ZM114.455 13.0074C115.9 13.5511 116.648 15.1717 116.511 17.4107C116.395 19.2338 115.762 20.396 114.623 20.8971C113.843 21.2382 112.493 21.2489 111.744 20.9077C110.31 20.268 109.614 18.8074 109.719 16.6857C109.782 15.4382 109.877 15.0757 110.341 14.2868C110.7 13.679 111.428 13.0927 112.05 12.9114C112.662 12.7302 113.853 12.7835 114.455 13.0074Z" fill="white" fill-opacity="0.8"/>
<path d="M59.1363 10.8324C59.0941 10.875 59.0625 13.6577 59.0625 17.0268V23.1467L60.4125 23.1147L61.7519 23.0827V16.9522V10.8217L60.4758 10.7897C59.7797 10.779 59.1785 10.8004 59.1363 10.8324Z" fill="white" fill-opacity="0.8"/>
<path d="M0 22.1765V29H6.80273H13.6055V22.1765V15.3529H6.80273H0V22.1765Z" fill="white" fill-opacity="0.8"/>
<path d="M15.2086 22.1445L15.2402 28.9467L21.9691 28.9787L28.6875 29V22.1765V15.3529H21.9375H15.1875L15.2086 22.1445Z" fill="white" fill-opacity="0.8"/>
</svg>
