<svg width="143" height="37" viewBox="0 0 143 37" fill="none" xmlns="http://www.w3.org/2000/svg">
<g filter="url(#filter0_d)">
<path d="M4 6.82353V13.6471H10.8027H17.6055V6.82353V2.86102e-06H10.8027H4V6.82353Z" fill="white" fill-opacity="0.8"/>
<path d="M19.2613 0.0746346C19.2191 0.10662 19.1875 3.17721 19.1875 6.89817V13.6471H25.9375H32.6875V6.82353V2.86102e-06H26.0113C22.3305 2.86102e-06 19.293 0.0319881 19.2613 0.0746346Z" fill="white" fill-opacity="0.8"/>
<path d="M129.234 4.69118C128.189 4.91508 127.272 5.51213 126.713 6.33309C126.133 7.19669 126.006 7.67647 125.932 9.27574L125.869 10.7151L124.867 10.7684L123.865 10.8217V11.8879V12.954L124.867 13.0074L125.869 13.0607L125.901 18.093L125.922 23.136H127.293H128.664L128.685 18.093L128.717 13.0607H130.932H133.146L133.21 16.8456C133.284 21.2169 133.336 21.5261 134.106 22.3897C134.634 22.9761 135.14 23.2213 136.089 23.3493C136.87 23.4665 137.882 23.3706 138.663 23.1254L139 23.0081V21.9206V20.8224L138.409 21.025C137.407 21.3662 136.606 21.1103 136.173 20.332C136.015 20.0228 135.994 19.607 135.994 16.5257V13.0607L137.502 13.0287L139 12.9967V11.8879V10.779L137.502 10.7471L135.994 10.7151L135.963 8.9239C135.952 7.94302 135.899 7.14338 135.857 7.14338C135.815 7.14338 135.214 7.32463 134.518 7.54853L133.252 7.95368L133.22 9.36103L133.189 10.7684L130.953 10.7471L128.717 10.7151L128.685 9.71287C128.664 9.05184 128.706 8.52941 128.822 8.15625C129.149 7.00478 130.193 6.55699 131.596 6.99412C131.828 7.05809 131.828 7.05809 131.828 5.9386C131.828 5.27758 131.786 4.78713 131.723 4.74449C131.533 4.62721 129.698 4.58456 129.234 4.69118Z" fill="white" fill-opacity="0.8"/>
<path d="M63.5161 5.75735C62.8727 6.15184 62.6196 7.13272 62.9887 7.85772C63.5477 8.94522 65.3829 8.90257 65.9313 7.78309C66.2899 7.06875 66.0684 6.23713 65.3934 5.78934C64.9188 5.46948 64.0012 5.44816 63.5161 5.75735Z" fill="white" fill-opacity="0.8"/>
<path d="M41.5469 14.5V23.1467L42.8441 23.1147L44.1309 23.0827L44.1625 16.4404C44.1836 11.1522 44.2152 9.80882 44.3207 9.80882C44.3945 9.80882 45.5441 12.5382 47.0945 16.4404L49.7418 23.0827L50.7332 23.1147L51.7352 23.1467L52.6949 20.7158C53.2117 19.3831 54.393 16.3765 55.3106 14.0415C56.3653 11.3441 57.0297 9.80882 57.1141 9.80882C57.2406 9.80882 57.2617 10.907 57.2617 16.4724V23.136H58.6328H60.0039V14.5V5.86397L58.0422 5.88529L56.0699 5.91728L53.5176 12.261C52.0516 15.8754 50.8914 18.6154 50.8176 18.6368C50.7121 18.6474 49.9 16.6857 48.1809 12.293L45.6918 5.91728L43.6246 5.88529L41.5469 5.86397V14.5Z" fill="white" fill-opacity="0.8"/>
<path d="M72.5758 10.7684C70.498 11.3335 69.032 12.7195 68.357 14.7559C68.0512 15.6621 67.9246 17.6985 68.1145 18.7114C68.2937 19.703 68.9898 21.025 69.707 21.7393C70.8672 22.9015 72.175 23.3919 74.084 23.3813C75.2969 23.3706 75.8453 23.2853 76.8156 22.9121L77.4063 22.6989V21.4621C77.4063 20.7905 77.3746 20.2574 77.3324 20.2787C75.8453 21.0463 74.9805 21.2702 73.9574 21.121C72.2066 20.8651 71.0887 19.671 70.8566 17.7945C70.5824 15.5875 71.5422 13.6577 73.2402 13.018C73.7676 12.8154 74.0313 12.7835 74.8223 12.8154C75.6555 12.8474 75.877 12.9007 76.5941 13.2526L77.4168 13.6364L77.3852 12.3463L77.3535 11.0456L76.7207 10.843C75.7609 10.5232 73.5883 10.4912 72.5758 10.7684Z" fill="white" fill-opacity="0.8"/>
<path d="M85.2637 10.6618C85.0317 10.7044 84.7152 10.7897 84.5465 10.8537C84.1035 11.0456 83.2598 11.8879 83.0488 12.3676C82.7324 13.082 82.5848 12.9221 82.5531 11.8026L82.5215 10.8217H81.2031H79.8848L79.8531 16.9735L79.832 23.136H81.1926H82.5637L82.5953 19.3724C82.627 15.7154 82.6375 15.5982 82.8801 14.9904C83.1649 14.2654 83.7133 13.6151 84.2723 13.3165C84.7574 13.0713 85.7277 13.05 86.35 13.2632C86.582 13.3485 86.8035 13.3912 86.8352 13.3592C86.9617 13.2206 86.8985 10.907 86.7719 10.8004C86.582 10.6511 85.7594 10.5765 85.2637 10.6618Z" fill="white" fill-opacity="0.8"/>
<path d="M91.6656 10.7684C89.5035 11.3441 87.9847 12.9114 87.4679 15.0971C87.2254 16.1099 87.2254 18.157 87.4679 19.0739C88.0269 21.1743 89.4929 22.6562 91.5496 23.2107C92.4672 23.4559 94.4183 23.4452 95.3254 23.2C96.4011 22.9121 97.2133 22.4323 97.9832 21.654C98.732 20.8971 99.3015 19.8629 99.5652 18.7647C99.7761 17.9011 99.7445 15.5875 99.5125 14.7132C98.964 12.6662 97.5191 11.2162 95.5363 10.7257C94.566 10.4805 92.6676 10.5018 91.6656 10.7684ZM95.0828 13.0926C96.4117 13.7857 97.0023 15.2143 96.8863 17.4107C96.7914 19.2551 96.1797 20.3746 94.9879 20.8971C94.2496 21.2276 92.8574 21.2382 92.1508 20.9184C90.7058 20.2787 89.9359 18.6261 90.0941 16.5364C90.2523 14.6173 90.9695 13.4551 92.3511 12.9434C92.9629 12.7088 94.5238 12.7941 95.0828 13.0926Z" fill="white" fill-opacity="0.8"/>
<path d="M104.332 10.7151C103.109 11.0563 102.181 11.7813 101.696 12.7835C101.432 13.3059 101.4 13.4978 101.411 14.3401C101.411 16.1206 101.896 16.6963 104.438 17.9651C106.315 18.9033 106.621 19.1805 106.621 19.9375C106.621 21.3235 104.638 21.6967 102.455 20.7265C101.991 20.5239 101.548 20.3213 101.485 20.2893C101.379 20.2467 101.348 20.5346 101.348 21.5154V22.7842L101.907 22.9548C103.362 23.4132 105.039 23.5199 106.199 23.2426C108.119 22.7842 109.363 21.3662 109.363 19.6283C109.363 17.9331 108.572 17.0055 106.199 15.9393C105.587 15.6621 104.934 15.3423 104.754 15.2143C103.826 14.5853 103.911 13.3805 104.902 12.8901C105.313 12.6875 105.503 12.6662 106.241 12.7088C107.022 12.7621 107.444 12.8794 108.604 13.4018C108.699 13.4445 108.73 13.1673 108.73 12.2184V10.9923L108.33 10.875C107.011 10.5232 105.313 10.4485 104.332 10.7151Z" fill="white" fill-opacity="0.8"/>
<path d="M115.639 10.6618C113.793 11.0563 112.316 12.1544 111.578 13.679C111.04 14.7985 110.893 15.5555 110.903 17.1654C110.914 18.4022 110.956 18.7221 111.177 19.4257C111.81 21.3555 113.202 22.6776 115.122 23.1893C117.527 23.8184 120.068 23.2213 121.598 21.6541C122.705 20.5132 123.243 19.1805 123.348 17.2721C123.486 14.7985 122.621 12.6768 120.996 11.5574C119.952 10.8324 119.256 10.6404 117.537 10.5978C116.725 10.5871 115.871 10.6085 115.639 10.6618ZM118.455 13.0074C119.9 13.5511 120.648 15.1717 120.511 17.4107C120.395 19.2338 119.762 20.396 118.623 20.8971C117.843 21.2382 116.493 21.2489 115.744 20.9077C114.31 20.268 113.614 18.8074 113.719 16.6857C113.782 15.4382 113.877 15.0757 114.341 14.2868C114.7 13.679 115.428 13.0927 116.05 12.9114C116.662 12.7302 117.853 12.7835 118.455 13.0074Z" fill="white" fill-opacity="0.8"/>
<path d="M63.1363 10.8324C63.0941 10.875 63.0625 13.6577 63.0625 17.0268V23.1467L64.4125 23.1147L65.7519 23.0827V16.9522V10.8217L64.4758 10.7897C63.7797 10.779 63.1785 10.8004 63.1363 10.8324Z" fill="white" fill-opacity="0.8"/>
<path d="M4 22.1765V29H10.8027H17.6055V22.1765V15.3529H10.8027H4V22.1765Z" fill="white" fill-opacity="0.8"/>
<path d="M19.2086 22.1445L19.2402 28.9467L25.9691 28.9787L32.6875 29V22.1765V15.3529H25.9375H19.1875L19.2086 22.1445Z" fill="white" fill-opacity="0.8"/>
</g>
<defs>
<filter id="filter0_d" x="0" y="0" width="143" height="37" filterUnits="userSpaceOnUse" color-interpolation-filters="sRGB">
<feFlood flood-opacity="0" result="BackgroundImageFix"/>
<feColorMatrix in="SourceAlpha" type="matrix" values="0 0 0 0 0 0 0 0 0 0 0 0 0 0 0 0 0 0 127 0"/>
<feOffset dy="4"/>
<feGaussianBlur stdDeviation="2"/>
<feColorMatrix type="matrix" values="0 0 0 0 0 0 0 0 0 0 0 0 0 0 0 0 0 0 0.25 0"/>
<feBlend mode="normal" in2="BackgroundImageFix" result="effect1_dropShadow"/>
<feBlend mode="normal" in="SourceGraphic" in2="effect1_dropShadow" result="shape"/>
</filter>
</defs>
</svg>
