<svg width="40" height="40" viewBox="0 0 40 40" fill="none" xmlns="http://www.w3.org/2000/svg">
<circle cx="20" cy="20" r="20" fill="#E8E8EA"/>
<path fill-rule="evenodd" clip-rule="evenodd" d="M22.692 12.4258C22.9561 11.1385 23.2202 9.89013 23.5283 8.60278C23.5723 8.21267 23.4403 8.09564 23.2642 8.01762C23.0001 7.93959 22.56 8.13465 22.2959 8.3297C21.9438 8.56376 18.2906 10.4363 16.1779 11.9187C14.0652 13.4011 13.8892 14.0253 13.9332 14.4544C14.0212 14.8835 14.7255 15.1956 15.5617 15.1956C16.398 15.1956 18.9508 15.0786 18.9508 15.0786C18.9508 15.0786 20.1832 14.5324 21.1515 13.9863C22.1639 13.4401 22.648 12.933 22.692 12.4258Z" fill="#D1030F"/>
<path fill-rule="evenodd" clip-rule="evenodd" d="M13.9318 14.2983C13.5797 16.1318 13.2276 17.9653 12.8755 19.7988C12.8755 19.7988 12.6554 20.6571 13.8438 20.6571C15.0321 20.6571 16.7487 20.462 18.1131 20.306C19.4336 20.1499 25.4635 19.5648 25.4635 19.5648C25.4635 19.5648 26.5639 18.5895 27.3121 17.6532C28.0163 16.756 28.4125 15.7807 28.5005 15.3906C28.5885 15.0395 28.8966 14.0642 26.5639 14.2983C24.2311 14.5324 18.9494 15.1565 18.9494 15.1565C18.9494 15.1565 16.3526 15.2736 15.5603 15.2736C14.724 15.2736 14.0198 14.9225 13.9318 14.5324C13.9318 14.4153 13.9318 14.3373 13.9318 14.2983Z" fill="#9A9A9C"/>
<path fill-rule="evenodd" clip-rule="evenodd" d="M28.5006 15.3517C28.5006 15.3517 27.2242 21.0863 26.9601 21.9835C25.5517 26.5868 17.5851 29.2785 13.0516 30.878C13.0516 30.878 12.3474 31.112 12.0833 30.956C11.9513 30.878 11.9953 30.6049 12.0833 30.3708C12.4795 28.8494 12.8316 27.406 13.1837 25.8456C13.1837 25.8456 13.1837 25.0264 14.4601 24.7143C15.7365 24.3632 19.0376 23.1538 21.5024 22.0225C23.9231 20.8912 25.4636 19.5258 25.4636 19.5258C25.4636 19.5258 26.564 18.5506 27.3122 17.6143C28.0165 16.6781 28.4126 15.7418 28.5006 15.3517Z" fill="#D1030F"/>
</svg>
