<svg width="26" height="26" viewBox="0 0 26 26" fill="none" xmlns="http://www.w3.org/2000/svg">
<g clip-path="url(#clip0)">
<path d="M18.6866 26C17.8473 26 17.0151 25.8516 16.2014 25.556C12.6165 24.2537 9.28894 22.1327 6.57835 19.4221C3.86776 16.7116 1.74671 13.384 0.444479 9.79906C0.026008 8.64698 -0.0974869 7.45773 0.0775489 6.26422C0.241515 5.14627 0.674559 4.06096 1.32992 3.12561C1.98817 2.18614 2.86573 1.40475 3.86771 0.865937C4.9362 0.291371 6.10245 0 7.33415 0C7.71722 0 8.0483 0.267657 8.12858 0.642204L9.40385 6.59347C9.46159 6.86296 9.37877 7.14336 9.18393 7.33825L7.00484 9.51729C9.06048 13.6043 12.3961 16.9399 16.4831 18.9955L18.6621 16.8164C18.857 16.6216 19.1375 16.5389 19.4069 16.5965L25.3582 17.8718C25.7328 17.9521 26.0004 18.2831 26.0004 18.6662C26.0004 19.8979 25.709 21.0642 25.1344 22.1327C24.5956 23.1347 23.8142 24.0122 22.8747 24.6705C21.9394 25.3259 20.8541 25.7589 19.7361 25.9229C19.3858 25.9743 19.0355 25.9999 18.6866 26ZM6.68498 1.66048C5.06031 1.83983 3.61828 2.6914 2.66068 4.05812C1.58386 5.59495 1.33276 7.4852 1.97176 9.2443C4.47538 16.1363 9.86412 21.5251 16.7562 24.0287C18.5152 24.6677 20.4055 24.4167 21.9423 23.3398C23.3091 22.3822 24.1606 20.9402 24.34 19.3155L19.4986 18.2781L17.2229 20.5538C16.9808 20.7959 16.6128 20.8603 16.303 20.7147C11.4693 18.4438 7.55666 14.5312 5.28582 9.6975C5.14023 9.3876 5.20452 9.01965 5.44668 8.77753L7.7224 6.50182L6.68498 1.66048Z" fill="#292A35"/>
</g>
<defs>
<clipPath id="clip0">
<rect width="26" height="26" fill="white"/>
</clipPath>
</defs>
</svg>
