<svg width="24" height="23" viewBox="0 0 24 23" fill="none" xmlns="http://www.w3.org/2000/svg">
<g clip-path="url(#clip0)">
<path d="M16.8949 22.8791C16.1637 22.8791 15.4386 22.7498 14.7296 22.4922C11.6062 21.3576 8.70701 19.5096 6.34535 17.148C3.98369 14.7864 2.13569 11.8871 1.00109 8.7637C0.636492 7.75993 0.528895 6.72378 0.681398 5.6839C0.824257 4.70986 1.20156 3.76427 1.77255 2.94933C2.34606 2.1308 3.11066 1.45 3.98365 0.98054C4.9146 0.479937 5.93071 0.226074 7.00385 0.226074C7.33762 0.226074 7.62608 0.459276 7.69603 0.785608L8.80713 5.97077C8.85743 6.20556 8.78527 6.44987 8.61552 6.61967L6.71694 8.5182C8.50796 12.0791 11.4142 14.9853 14.975 16.7763L16.8736 14.8777C17.0434 14.708 17.2877 14.6359 17.5225 14.6861L22.7076 15.7972C23.034 15.8672 23.2672 16.1556 23.2672 16.4894C23.2672 17.5625 23.0133 18.5787 22.5127 19.5096C22.0432 20.3826 21.3624 21.1472 20.5439 21.7207C19.729 22.2917 18.7834 22.669 17.8093 22.8119C17.5041 22.8567 17.1989 22.8791 16.8949 22.8791ZM6.43826 1.6728C5.02273 1.82906 3.76633 2.57101 2.93201 3.76179C1.9938 5.10079 1.77503 6.74771 2.33177 8.28035C4.5131 14.2852 9.20814 18.9802 15.213 21.1616C16.7456 21.7183 18.3925 21.4996 19.7315 20.5613C20.9223 19.727 21.6643 18.4706 21.8205 17.0551L17.6024 16.1512L15.6197 18.134C15.4087 18.345 15.0881 18.401 14.8181 18.2741C10.6067 16.2956 7.19773 12.8867 5.21921 8.67522C5.09236 8.40521 5.14837 8.08463 5.35937 7.87368L7.34213 5.89091L6.43826 1.6728Z" fill="#292A35"/>
</g>
<defs>
<clipPath id="clip0">
<rect width="22.653" height="22.653" fill="white" transform="translate(0.61377 0.226074)"/>
</clipPath>
</defs>
</svg>
