<svg width="19" height="19" viewBox="0 0 19 19" fill="none" xmlns="http://www.w3.org/2000/svg">
<g clip-path="url(#clip0)">
<path d="M14.2685 1.2751C12.8131 0.425636 11.2234 0.000984192 9.5 0.000984192C7.77633 0.000984192 6.18677 0.425636 4.73133 1.2751C3.27589 2.1246 2.12342 3.27707 1.27412 4.73232C0.424651 6.18792 0 7.77748 0 9.50098C0 11.4224 0.523433 13.1666 1.57089 14.7332C2.61815 16.3003 3.99108 17.4588 5.69005 18.2091C5.65691 17.3267 5.71055 16.597 5.85087 16.0198L7.07541 10.8492C6.86922 10.4452 6.76621 9.94227 6.76621 9.34013C6.76621 8.63921 6.9435 8.05355 7.29807 7.58372C7.65245 7.1135 8.08553 6.87838 8.59689 6.87838C9.00908 6.87838 9.32671 7.01429 9.54941 7.28675C9.77207 7.55879 9.88351 7.90113 9.88351 8.31334C9.88351 8.56914 9.83591 8.88054 9.74133 9.24735C9.64635 9.61436 9.52267 10.039 9.37028 10.5215C9.2177 11.0038 9.10848 11.3892 9.04241 11.678C8.92677 12.1809 9.02174 12.6118 9.32691 12.9706C9.63185 13.3293 10.0361 13.5086 10.5392 13.5086C11.4216 13.5086 12.1452 13.0181 12.7102 12.0367C13.275 11.0553 13.5575 9.86373 13.5575 8.46166C13.5575 7.3815 13.2092 6.50307 12.5123 5.82688C11.8154 5.15087 10.8442 4.81256 9.59921 4.81256C8.20538 4.81256 7.07761 5.26011 6.21607 6.15456C5.35433 7.04943 4.92345 8.11956 4.92345 9.36438C4.92345 10.1066 5.13387 10.7294 5.55429 11.2324C5.69444 11.3974 5.73981 11.5745 5.69041 11.7641C5.67374 11.8137 5.64084 11.9373 5.59143 12.1351C5.54206 12.3329 5.50892 12.461 5.49245 12.5186C5.42638 12.7826 5.26979 12.8651 5.02223 12.766C4.38719 12.5021 3.9047 12.0445 3.57502 11.393C3.24515 10.7416 3.0803 9.98715 3.0803 9.12945C3.0803 8.57691 3.16884 8.02435 3.34613 7.47182C3.52342 6.91929 3.79949 6.38542 4.17496 5.86979C4.55001 5.35479 4.99956 4.89884 5.52339 4.5031C6.04702 4.10715 6.68409 3.78994 7.43458 3.55039C8.18491 3.31145 8.99323 3.19181 9.85914 3.19181C11.0301 3.19181 12.0816 3.4516 13.0134 3.971C13.9452 4.49063 14.6565 5.16284 15.1472 5.98741C15.6377 6.81201 15.8833 7.69421 15.8833 8.63465C15.8833 9.87164 15.6687 10.985 15.24 11.9746C14.8112 12.9643 14.205 13.7414 13.4216 14.3063C12.6379 14.871 11.7473 15.1535 10.7496 15.1535C10.2465 15.1535 9.77643 15.0361 9.33938 14.8009C8.90206 14.5658 8.60113 14.2876 8.43627 13.9659C8.06523 15.4253 7.84257 16.2958 7.76829 16.5758C7.61148 17.1615 7.28984 17.8375 6.80335 18.6045C7.68575 18.8683 8.58462 19.0002 9.5 19.0002C11.2235 19.0002 12.8131 18.5756 14.2685 17.7263C15.7239 16.8768 16.8763 15.7243 17.7259 14.2687C18.5752 12.8132 19 11.2239 19 9.50016C19 7.77649 18.5752 6.18717 17.7259 4.73153C16.8765 3.27707 15.7239 2.1246 14.2685 1.2751Z" fill="#646677"/>
</g>
<defs>
<clipPath id="clip0">
<rect width="19" height="19" fill="white"/>
</clipPath>
</defs>
</svg>
