<svg width="101" height="84" viewBox="0 0 101 84" fill="none" xmlns="http://www.w3.org/2000/svg">
<g clip-path="url(#clip0)">
<path d="M32.1001 47.6417L32.5351 45.1415L30.135 45.966C27.8359 46.7557 25.3881 47.2015 22.8357 47.2015C10.4955 47.2015 1.5 37.1183 1.5 24.5244C1.5 12.0405 11.5956 1.92676 24.0427 1.92676C36.4797 1.92676 46.5691 12.0246 46.5851 24.4947C46.5849 24.5006 46.5847 24.5074 46.5845 24.5149C46.5842 24.5272 46.584 24.5415 46.584 24.5572V24.5872L46.5852 24.6171L46.5853 24.6201C46.6099 25.2353 47.6271 50.6419 26.2514 76.034C25.1838 77.3022 24.2671 78.3851 23.4852 79.2932C23.5475 79.1148 23.6114 78.9322 23.6768 78.7452C25.8475 72.542 29.6675 61.6251 32.1001 47.6417ZM46.5868 24.4597L46.5867 24.4607L46.5868 24.4597Z" stroke="#BBBBC2" stroke-width="3"/>
<path d="M84.7486 47.6417L85.1835 45.1415L82.7834 45.966C80.4844 46.7557 78.0365 47.2015 75.4841 47.2015C63.1439 47.2015 54.1484 37.1183 54.1484 24.5244C54.1484 12.0405 64.244 1.92676 76.6911 1.92676C89.1281 1.92676 99.2176 12.0246 99.2336 24.4947C99.2334 24.5006 99.2331 24.5074 99.2329 24.5149C99.2326 24.5272 99.2324 24.5415 99.2324 24.5572V24.5872L99.2336 24.6171L99.2337 24.6201C99.2584 25.2353 100.276 50.6419 78.8998 76.034C77.8322 77.3022 76.9155 78.3851 76.1336 79.2932C76.196 79.1148 76.2599 78.9322 76.3253 78.7452C78.4959 72.542 82.316 61.6251 84.7486 47.6417ZM99.2352 24.4597L99.2351 24.4607L99.2352 24.4597Z" stroke="#BBBBC2" stroke-width="3"/>
</g>
<defs>
<clipPath id="clip0">
<rect width="101" height="84" fill="white"/>
</clipPath>
</defs>
</svg>
