<svg width="62" height="50" viewBox="0 0 62 50" fill="none" xmlns="http://www.w3.org/2000/svg">
<path d="M52.7205 27.8362L53.1726 25.3569L50.7777 26.1417C49.4143 26.5885 47.9641 26.8402 46.4529 26.8402C39.1546 26.8402 33.8999 21.1765 33.8999 14.1468C33.8999 7.22464 39.7883 1.5 47.1957 1.5C54.593 1.5 60.4755 7.20933 60.4913 14.1188C60.4909 14.132 60.4906 14.148 60.4906 14.1661V14.1974L60.4919 14.2288L60.492 14.231C60.5048 14.5324 61.1171 29.0039 48.4474 43.6053C49.7825 39.8261 51.5232 34.4016 52.7205 27.8362Z" stroke="#BBBBC2" stroke-width="3"/>
<path d="M20.3206 27.8362L20.7727 25.3569L18.3778 26.1417C17.0144 26.5885 15.5642 26.8402 14.053 26.8402C6.75469 26.8402 1.5 21.1765 1.5 14.1468C1.5 7.22464 7.38839 1.5 14.7958 1.5C22.1931 1.5 28.0756 7.20933 28.0914 14.1188C28.091 14.132 28.0907 14.148 28.0907 14.1661V14.1974L28.092 14.2288L28.0921 14.231C28.1049 14.5324 28.7172 29.0039 16.0475 43.6053C17.3826 39.8261 19.1233 34.4016 20.3206 27.8362Z" stroke="#BBBBC2" stroke-width="3"/>
</svg>
