<svg width="21" height="21" viewBox="0 0 21 21" fill="none" xmlns="http://www.w3.org/2000/svg">
<g clip-path="url(#clip0)">
<g filter="url(#filter0_d)">
<path d="M9.24796 0C4.14877 0 0 4.14877 0 9.24796C0 14.3474 4.14877 18.4959 9.24796 18.4959C14.3474 18.4959 18.4959 14.3474 18.4959 9.24796C18.4959 4.14877 14.3474 0 9.24796 0ZM9.24796 16.7886C5.09008 16.7886 1.70732 13.4059 1.70732 9.248C1.70732 5.09012 5.09008 1.70732 9.24796 1.70732C13.4058 1.70732 16.7886 5.09008 16.7886 9.24796C16.7886 13.4058 13.4058 16.7886 9.24796 16.7886Z" fill="#646677"/>
</g>
<g filter="url(#filter1_d)">
<path d="M20.7498 19.5427L15.8554 14.6484C15.5219 14.3149 14.9818 14.3149 14.6483 14.6484C14.3148 14.9816 14.3148 15.5223 14.6483 15.8555L19.5427 20.7498C19.7094 20.9165 19.9277 20.9999 20.1462 20.9999C20.3645 20.9999 20.583 20.9165 20.7498 20.7498C21.0833 20.4166 21.0833 19.8759 20.7498 19.5427Z" fill="#646677"/>
</g>
</g>
<defs>
<filter id="filter0_d" x="-16" y="-10" width="50.4959" height="50.4959" filterUnits="userSpaceOnUse" color-interpolation-filters="sRGB">
<feFlood flood-opacity="0" result="BackgroundImageFix"/>
<feColorMatrix in="SourceAlpha" type="matrix" values="0 0 0 0 0 0 0 0 0 0 0 0 0 0 0 0 0 0 127 0"/>
<feOffset dy="6"/>
<feGaussianBlur stdDeviation="8"/>
<feColorMatrix type="matrix" values="0 0 0 0 0.390833 0 0 0 0 0.398417 0 0 0 0 0.466667 0 0 0 0.2 0"/>
<feBlend mode="normal" in2="BackgroundImageFix" result="effect1_dropShadow"/>
<feBlend mode="normal" in="SourceGraphic" in2="effect1_dropShadow" result="shape"/>
</filter>
<filter id="filter1_d" x="-1.60178" y="4.39825" width="38.6017" height="38.6017" filterUnits="userSpaceOnUse" color-interpolation-filters="sRGB">
<feFlood flood-opacity="0" result="BackgroundImageFix"/>
<feColorMatrix in="SourceAlpha" type="matrix" values="0 0 0 0 0 0 0 0 0 0 0 0 0 0 0 0 0 0 127 0"/>
<feOffset dy="6"/>
<feGaussianBlur stdDeviation="8"/>
<feColorMatrix type="matrix" values="0 0 0 0 0.390833 0 0 0 0 0.398417 0 0 0 0 0.466667 0 0 0 0.2 0"/>
<feBlend mode="normal" in2="BackgroundImageFix" result="effect1_dropShadow"/>
<feBlend mode="normal" in="SourceGraphic" in2="effect1_dropShadow" result="shape"/>
</filter>
<clipPath id="clip0">
<rect width="21" height="21" fill="white"/>
</clipPath>
</defs>
</svg>
