<svg width="114" height="17" viewBox="0 0 114 17" fill="none" xmlns="http://www.w3.org/2000/svg">
<g clip-path="url(#clip0)">
<path d="M51.5807 10.472C51.9787 9.60411 52.3155 8.85199 52.6523 8.1095C53.7546 5.66027 54.8568 3.21103 55.9488 0.752156C56.1019 0.395378 56.306 0.279666 56.7041 0.279666C58.286 0.298951 59.8679 0.308594 61.4498 0.279666C61.9397 0.270023 62.052 0.433949 62.052 0.867868C62.0418 5.95919 62.0418 11.0602 62.052 16.1515C62.052 16.5661 61.9397 16.7204 61.4805 16.7107C60.3068 16.6818 59.1331 16.6818 57.9594 16.7107C57.5104 16.7204 57.3777 16.5854 57.3777 16.1611C57.3981 12.9501 57.3879 9.72947 57.3879 6.51846C57.3879 6.33525 57.3879 6.1424 57.3879 5.95919C57.3368 5.9399 57.2858 5.93026 57.2348 5.91098C57.1531 6.04597 57.0613 6.18097 56.9898 6.32561C55.4692 9.65233 53.9383 12.979 52.438 16.3154C52.2645 16.7011 52.04 16.8554 51.6011 16.8265C51.0398 16.7975 50.4785 16.7879 49.9171 16.8265C49.4579 16.8554 49.2231 16.7011 49.0394 16.2961C47.6208 13.0176 46.1716 9.73911 44.7427 6.47025C44.6611 6.28704 44.5692 6.10383 44.4774 5.92062C44.4366 5.93026 44.3855 5.93026 44.3447 5.9399C44.3243 6.13276 44.2937 6.32561 44.2937 6.52811C44.2937 9.6909 44.2937 12.8633 44.2937 16.0261C44.2937 16.7011 44.2937 16.7011 43.5589 16.7011C42.8955 16.7011 42.2321 16.6722 41.5687 16.7107C41.089 16.7397 40.9666 16.5854 40.9666 16.1418C40.987 11.4941 40.9768 6.85596 40.9768 2.2082C40.9768 1.70678 40.987 1.215 40.9768 0.713586C40.9666 0.395378 41.089 0.289309 41.4258 0.289309C43.2119 0.298951 44.9979 0.308594 46.7839 0.289309C47.2432 0.279666 47.3044 0.568946 47.4269 0.848583C48.7231 3.86673 50.0192 6.88488 51.3154 9.90304C51.3562 10.0477 51.4378 10.1923 51.5807 10.472Z" fill="white" fill-opacity="0.8"/>
<path d="M85.3827 6.22918C85.3827 6.41239 85.3827 6.5956 85.3827 6.77881C85.3827 9.89339 85.3725 13.0176 85.3929 16.1322C85.3929 16.5854 85.2398 16.7107 84.7805 16.6915C84.0151 16.6625 83.2497 16.6722 82.4842 16.6915C82.1474 16.7011 81.9943 16.6143 81.9943 16.2575C82.0045 11.0698 82.0045 5.88204 81.9943 0.684653C81.9943 0.366446 82.127 0.270019 82.4434 0.270019C84.0253 0.279662 85.6072 0.289304 87.1891 0.270019C87.5668 0.270019 87.6892 0.482158 87.8219 0.723224C89.4651 3.55816 91.098 6.38346 92.7412 9.2184C93.0065 9.68125 93.2821 10.1345 93.5474 10.5973C93.5882 10.5877 93.6393 10.5877 93.6801 10.578C93.6903 10.4044 93.7209 10.2309 93.7209 10.0573C93.7209 6.99095 93.7311 3.91494 93.7107 0.848578C93.7107 0.414659 93.8128 0.241091 94.3027 0.270019C95.0171 0.30859 95.7315 0.30859 96.4459 0.270019C96.9562 0.241091 97.1195 0.376088 97.1093 0.877506C97.0889 4.85028 97.0991 8.81341 97.0991 12.7862C97.0991 13.9144 97.0889 15.0329 97.1093 16.1611C97.1195 16.5468 97.0072 16.7011 96.5684 16.6915C95.0885 16.6722 93.6087 16.6722 92.1288 16.6915C91.792 16.6915 91.6083 16.5661 91.4552 16.2961C89.6181 13.1333 87.7709 9.97053 85.9134 6.80774C85.7909 6.5956 85.6582 6.40275 85.5256 6.19061C85.495 6.20989 85.4337 6.21954 85.3827 6.22918Z" fill="white" fill-opacity="0.8"/>
<path d="M31.5159 16.6915C29.5768 16.6915 27.6377 16.6818 25.6985 16.7011C25.2801 16.7011 25.1372 16.595 25.1474 16.1804C25.1576 11.0602 25.1576 5.93026 25.1474 0.810009C25.1474 0.424303 25.2495 0.279663 25.6883 0.279663C29.536 0.289306 33.3734 0.289306 37.221 0.279663C37.6292 0.279663 37.7619 0.405018 37.7415 0.781081C37.7211 1.42714 37.7211 2.06355 37.7415 2.70961C37.7517 3.08568 37.619 3.21103 37.2108 3.21103C35.0471 3.19174 32.8937 3.20139 30.73 3.20139C30.0258 3.20139 30.0054 3.22067 29.9952 3.86673C29.9952 4.75385 30.0054 5.63134 29.9952 6.51846C29.985 6.90417 30.1279 7.05845 30.5565 7.04881C32.4242 7.02952 34.3021 7.04881 36.1698 7.02952C36.5984 7.02952 36.7311 7.16452 36.7107 7.55987C36.6801 8.1095 36.6903 8.64949 36.7107 9.19912C36.7311 9.56554 36.578 9.67161 36.2004 9.66197C34.3429 9.65232 32.4957 9.67161 30.6382 9.64268C30.1585 9.63304 29.9646 9.75839 29.985 10.2309C30.0156 11.1759 30.0054 12.1305 29.985 13.0755C29.9748 13.519 30.1483 13.6637 30.6076 13.6637C32.8223 13.654 35.0267 13.654 37.2414 13.654C37.915 13.654 37.915 13.654 37.915 14.3001C37.915 14.9269 37.8946 15.5536 37.9252 16.1804C37.9456 16.5757 37.8027 16.7107 37.3741 16.7011C35.4248 16.6818 33.4754 16.6915 31.5159 16.6915Z" fill="white" fill-opacity="0.8"/>
<path d="M66.2568 8.45662C66.2568 5.93024 66.267 3.41351 66.2466 0.887134C66.2466 0.385716 66.4099 0.270004 66.91 0.270004C70.6861 0.28929 74.4623 0.28929 78.2385 0.270004C78.6978 0.270004 78.8815 0.366431 78.8509 0.829278C78.81 1.43677 78.81 2.0539 78.8509 2.66138C78.8815 3.10494 78.6978 3.20137 78.2589 3.20137C76.0953 3.18209 73.9418 3.19173 71.7782 3.19173C71.1148 3.19173 71.1046 3.20137 71.1046 3.84743C71.1046 4.71527 71.125 5.58311 71.0944 6.45094C71.0842 6.88486 71.2271 7.03915 71.7067 7.03915C73.5132 7.01022 75.3094 7.0295 77.1159 7.0295C77.8201 7.0295 77.8201 7.0295 77.8303 7.72377C77.8303 8.17698 77.7997 8.63018 77.8405 9.07375C77.8813 9.55588 77.6772 9.66195 77.1975 9.66195C75.3605 9.64266 73.5234 9.66195 71.6863 9.64266C71.2373 9.63302 71.0842 9.77766 71.0944 10.1923C71.1148 11.1276 71.1046 12.0533 71.1046 12.9887C71.1046 13.6154 71.1352 13.6444 71.7884 13.6444C73.952 13.6444 76.1055 13.6444 78.2691 13.6444C78.9529 13.6444 78.9529 13.6444 78.9529 14.2808C78.9529 14.9268 78.9427 15.5633 78.9631 16.2093C78.9733 16.5468 78.8815 16.7011 78.4835 16.6914C74.5746 16.6818 70.6657 16.6818 66.7467 16.6914C66.2976 16.6914 66.2466 16.4986 66.2568 16.1611C66.267 13.5962 66.2568 11.0312 66.2568 8.45662Z" fill="white" fill-opacity="0.8"/>
<path d="M112.643 3.54851C111.581 3.30744 110.632 3.01816 109.673 2.88317C108.815 2.76745 107.917 2.81567 107.05 2.81567C106.866 2.81567 106.682 2.88317 106.509 2.95066C105.927 3.18209 105.366 3.47137 105.305 4.13671C105.243 4.79241 105.743 5.14919 106.295 5.40954C107.601 6.02667 108.938 6.5763 110.224 7.24165C111.051 7.66592 111.887 8.13841 112.571 8.7459C114.684 10.6166 114.418 13.8372 112.102 15.4861C110.734 16.46 109.152 16.8747 107.489 16.9614C105.468 17.0675 103.457 16.9229 101.467 16.4986C101.039 16.4022 100.845 16.2382 100.875 15.7947C100.916 15.0908 100.885 14.3772 100.885 13.6733C100.885 13.5383 100.906 13.3937 100.916 13.2297C101.814 13.4419 102.661 13.654 103.519 13.8179C104.825 14.0686 106.142 14.2036 107.458 13.9722C107.703 13.9336 107.958 13.8565 108.183 13.7697C108.744 13.5383 109.081 13.143 109.132 12.5547C109.183 11.9762 108.877 11.5423 108.356 11.3012C107.397 10.8576 106.407 10.4623 105.427 10.0669C104.172 9.56553 102.927 9.06411 101.937 8.12877C99.8241 6.1231 100.14 2.8446 102.62 1.2632C103.743 0.549644 105.009 0.231436 106.346 0.0771537C108.305 -0.144627 110.203 0.192866 112.112 0.482145C112.479 0.540001 112.673 0.674998 112.653 1.07035C112.622 1.88997 112.643 2.69996 112.643 3.54851Z" fill="white" fill-opacity="0.8"/>
<path d="M12.0737 3.56809C11.2266 3.35595 10.451 3.12453 9.66512 2.9606C8.63433 2.74846 7.58312 2.56525 6.54212 2.81596C6.07264 2.93167 5.60317 3.10524 5.21535 3.37524C4.59279 3.79951 4.58258 4.50343 5.14391 4.9952C5.40926 5.22663 5.74606 5.41948 6.07264 5.57376C7.30756 6.16196 8.57309 6.71159 9.81821 7.2998C10.8184 7.76264 11.7471 8.33156 12.4513 9.16083C14.0537 11.0701 13.6965 13.8472 11.6553 15.3996C10.5224 16.2578 9.20586 16.711 7.78724 16.875C5.49091 17.1353 3.21499 16.9617 0.959483 16.5085C0.490012 16.4121 0.316511 16.2482 0.336923 15.7757C0.377747 14.9464 0.347129 14.1172 0.347129 13.2011C0.969689 13.3554 1.5106 13.5097 2.06172 13.635C3.65384 13.9918 5.25617 14.2425 6.89932 13.9725C7.24632 13.9147 7.59333 13.7989 7.8893 13.6254C8.80783 13.095 8.87927 11.9572 7.96074 11.4365C7.05241 10.9158 6.03182 10.5687 5.06226 10.1444C4.33764 9.82617 3.5722 9.54653 2.86799 9.17047C1.54122 8.4762 0.520629 7.51193 0.163422 6.06554C-0.438726 3.74166 0.683924 1.69741 3.04149 0.752434C4.70505 0.0774487 6.44006 -0.115404 8.22609 0.0774486C9.31812 0.19316 10.4102 0.357086 11.5022 0.48244C11.9819 0.540296 12.1554 0.742792 12.1247 1.20564C12.0737 1.83241 12.1145 2.45918 12.1145 3.08596C12.1043 3.2306 12.0839 3.38488 12.0737 3.56809Z" fill="white" fill-opacity="0.8"/>
<path d="M15.9519 8.53378C15.9519 5.97848 15.9621 3.42318 15.9417 0.877515C15.9417 0.414667 16.0846 0.270028 16.5745 0.27967C17.8604 0.308598 19.1566 0.298956 20.4527 0.27967C20.8405 0.270028 20.9936 0.366454 20.9936 0.761803C20.9834 5.92062 20.9834 11.0698 20.9936 16.2286C20.9936 16.5854 20.8712 16.7011 20.4935 16.7011C19.1464 16.6818 17.8094 16.6818 16.4622 16.7011C16.0438 16.7108 15.9519 16.5565 15.9519 16.1901C15.9621 13.6347 15.9519 11.0891 15.9519 8.53378Z" fill="white" fill-opacity="0.8"/>
</g>
<defs>
<clipPath id="clip0">
<rect width="114" height="17" fill="white"/>
</clipPath>
</defs>
</svg>
