<svg width="118" height="30" viewBox="0 0 118 30" fill="none" xmlns="http://www.w3.org/2000/svg">
<g clip-path="url(#clip0)">
<path d="M17.6047 13.3875C17.4326 13.359 17.2509 13.302 17.0787 13.302C13.1865 13.1974 9.30376 13.3115 5.45932 13.9486C4.4743 14.1102 3.49884 14.3574 2.54251 14.6237C1.69138 14.8614 0.859373 15.1752 0.218632 15.9929C-0.555995 11.0199 0.754176 6.82653 4.40735 3.46044C8.00315 0.151408 13.0048 -0.675851 16.9735 0.522248C15.386 1.36852 14.9652 2.96599 14.4392 4.47787C14.2193 5.13398 14.0758 5.8186 13.9324 6.49372C13.9037 6.61733 13.9898 6.76947 14.028 6.9121C14.1332 6.798 14.2767 6.6934 14.3245 6.56028C14.6783 5.41924 15.013 4.26868 15.3669 3.11813C15.4338 2.90894 15.5677 2.71876 15.692 2.5381C16.2754 1.69182 16.9161 1.68231 17.4804 2.55711C18.2263 3.68865 18.5228 5.00085 18.781 6.30355C19.5078 10.0405 19.6512 13.8154 19.4887 17.6094C19.4887 17.6379 19.4695 17.6665 19.4504 17.7425C19.1635 17.7711 18.8479 17.8471 18.5419 17.8376C15.4721 17.7806 12.3927 17.7806 9.32289 17.6284C7.55368 17.5429 5.77491 17.2766 4.0822 16.6871C3.7953 16.592 3.51797 16.4684 3.25976 16.3162C2.6764 15.9644 2.64771 15.4985 3.25976 15.2132C3.95788 14.8899 4.70382 14.6142 5.45932 14.462C9.25594 13.6918 13.1004 13.5682 16.964 13.6538C17.1839 13.6633 17.3943 13.6348 17.6143 13.6158C17.6047 13.5397 17.6047 13.4636 17.6047 13.3875Z" fill="#646677"/>
<path d="M0.458984 16.7822C1.94129 17.8282 3.59574 18.1325 5.23107 18.4177C9.45804 19.1594 13.7137 19.2165 17.9885 19.0833C18.4475 19.0738 18.9066 19.0263 19.4517 18.9883C19.3656 19.8631 19.3274 20.6998 19.203 21.5176C19.0022 22.8108 18.7344 24.0944 18.5049 25.3876C18.4571 25.6824 18.285 25.7965 18.0268 25.8916C10.8543 28.516 2.83068 24.5699 0.583307 17.3147C0.525927 17.1721 0.506801 17.0199 0.458984 16.7822Z" fill="#646677"/>
<path d="M18.2563 0.845703C19.031 1.24507 19.7865 1.57787 20.475 2.00577C23.8413 4.12621 25.907 7.14998 26.6338 11.039C26.9685 12.8172 26.9207 14.5953 26.4712 16.3544C26.433 16.5066 26.2799 16.6967 26.1365 16.7443C24.5872 17.2197 22.9902 17.4574 21.3262 17.5906C21.3262 16.3354 21.3453 15.1183 21.3262 13.9012C21.2592 10.7633 20.9341 7.65394 20.0734 4.62066C19.8821 3.95505 19.6526 3.28944 19.3466 2.67138C19.0597 2.06282 18.658 1.51131 18.2563 0.845703Z" fill="#646677"/>
<path d="M85.8111 7.44534C85.2181 8.8241 84.6157 10.1934 84.0227 11.5721C83.6785 12.3709 83.3342 13.1696 82.9803 13.9683C82.8082 14.3392 82.7221 14.8336 82.1483 14.8146C81.5841 14.8051 81.4406 14.3487 81.2685 13.9398C80.3791 11.8954 79.4897 9.85104 78.6003 7.80667C78.5621 7.72109 78.5238 7.63551 78.39 7.54994C78.2752 8.28211 78.1509 9.01428 78.0457 9.74645C77.7683 11.5911 77.5006 13.4358 77.2232 15.2805C77.118 16.0127 76.9937 16.7449 76.8885 17.4865C76.8311 17.8764 76.659 18.1712 76.2095 18.1046C75.7696 18.038 75.6835 17.6862 75.7409 17.3059C75.8939 16.2219 76.0565 15.1474 76.2286 14.0729C76.5729 11.8098 76.9268 9.54677 77.271 7.27418C77.4145 6.32331 77.6823 6.00952 78.3708 5.981C78.9064 5.95247 79.2028 6.14265 79.461 6.72268C80.2261 8.46277 80.9816 10.2029 81.7371 11.943C81.871 12.2567 82.0144 12.5705 82.1866 12.9509C82.9803 11.1157 83.755 9.33757 84.52 7.57846C84.6826 7.21713 84.8356 6.84629 85.0364 6.51349C85.3138 6.05707 85.8111 5.8764 86.3179 6.00952C86.7961 6.13314 87.0352 6.45643 87.1117 7.00794C87.4368 9.18543 87.7715 11.3534 88.1063 13.5214C88.2975 14.767 88.4984 16.0222 88.6801 17.2678C88.747 17.7528 88.4984 18.0951 88.0776 18.1141C87.6185 18.1331 87.4846 17.8193 87.4273 17.4485C87.2551 16.336 87.0926 15.2235 86.93 14.1205C86.5953 11.9049 86.2701 9.6894 85.9354 7.47387C85.8971 7.45485 85.8493 7.44534 85.8111 7.44534Z" fill="#646677"/>
<path d="M45.1669 10.4975C45.4251 8.62427 44.3923 7.17894 42.5274 7.11238C41.4946 7.07434 40.4522 7.11238 39.4194 7.09336C39.1994 7.09336 38.9603 7.07434 38.7691 6.97926C38.6352 6.9127 38.5013 6.694 38.5013 6.54186C38.5013 6.38972 38.6543 6.22807 38.7595 6.08544C38.7977 6.03789 38.9029 6.01888 38.9794 6.01888C40.5383 5.98084 42.1162 5.78116 43.6368 6.21856C45.4347 6.73203 46.4197 8.12981 46.4388 10.1171C46.4675 12.3992 46.4484 14.6813 46.4484 16.9634C46.4484 17.6861 46.1902 17.9333 45.4729 17.9333C43.4933 17.9333 41.5233 17.9428 39.5437 17.9238C38.53 17.9143 37.5736 17.6766 36.7895 17.011C35.6514 16.0411 35.441 14.7574 35.6992 13.3786C35.9479 12.0664 36.7799 11.2011 38.0518 10.8113C38.683 10.6211 39.362 10.5355 40.0218 10.5165C41.6285 10.4785 43.2447 10.507 44.8513 10.4975C44.9565 10.5165 45.0617 10.4975 45.1669 10.4975ZM45.2051 11.6575C45.0904 11.6385 45.0139 11.6195 44.9374 11.6195C43.3499 11.6195 41.7528 11.591 40.1653 11.6385C39.5532 11.6575 38.9316 11.7717 38.3578 11.9808C37.3346 12.3517 36.7895 13.2645 36.8277 14.32C36.8564 15.4325 37.4111 16.2122 38.4535 16.5926C38.7595 16.7067 39.0942 16.8018 39.4194 16.8113C41.2938 16.8493 43.1777 16.8588 45.0521 16.8683C45.1 16.8683 45.1382 16.8398 45.2051 16.8208C45.2051 15.1092 45.2051 13.4072 45.2051 11.6575Z" fill="#646677"/>
<path d="M94.772 10.3261C94.772 9.10894 94.772 7.88232 94.772 6.6652C94.772 6.49404 94.7433 6.27534 94.8294 6.16124C94.9537 5.99008 95.1737 5.79991 95.3554 5.7904C95.5371 5.78089 95.7953 5.96156 95.8909 6.1232C95.9961 6.31338 95.9866 6.57962 95.9866 6.81734C95.9961 9.11845 95.9866 11.4101 95.9961 13.7112C96.0057 15.1755 96.7708 16.2215 98.1192 16.6494C99.5824 17.1153 101.218 16.6589 102.002 15.5749C102.451 14.9568 102.604 14.2532 102.604 13.5115C102.614 11.2484 102.604 8.97582 102.604 6.71274C102.604 6.5511 102.557 6.35141 102.633 6.24682C102.777 6.05664 102.977 5.84745 103.197 5.78089C103.503 5.6858 103.762 5.84745 103.848 6.18026C103.895 6.38945 103.915 6.61766 103.924 6.83636C103.934 9.00435 103.876 11.1818 103.934 13.3498C104.029 16.83 101.218 18.0376 98.9416 17.9045C98.1192 17.857 97.3446 17.6478 96.6369 17.2104C95.4319 16.4687 94.8198 15.3657 94.772 13.9774C94.7433 12.7698 94.772 11.5432 94.772 10.3261Z" fill="#646677"/>
<path d="M59.6842 7.10322C59.4355 7.10322 59.2729 7.10322 59.1008 7.10322C57.1881 7.10322 55.2755 7.10322 53.3628 7.10322C53.2098 7.10322 53.009 7.13174 52.8942 7.05567C52.7221 6.93206 52.483 6.72287 52.4926 6.56122C52.5021 6.37105 52.7316 6.16185 52.9038 6.01922C53.009 5.94315 53.2098 5.98119 53.3724 5.98119C55.6676 5.98119 57.9628 5.98119 60.258 5.98119C60.6405 5.98119 60.9848 6.00971 61.1856 6.40908C61.3864 6.80845 61.2143 7.11273 60.9848 7.4075C58.7087 10.4122 56.4231 13.4265 54.147 16.4313C54.0609 16.5549 53.9749 16.6785 53.8314 16.8877C54.1088 16.8877 54.2713 16.8877 54.4435 16.8877C56.5474 16.8877 58.6513 16.8877 60.7553 16.8877C60.9178 16.8877 61.1187 16.8401 61.2239 16.9162C61.4056 17.0493 61.6351 17.2585 61.6446 17.4487C61.6542 17.6008 61.4056 17.81 61.2334 17.9336C61.1378 18.0002 60.9561 17.9622 60.8126 17.9622C58.307 17.9622 55.811 17.9622 53.3054 17.9622C52.9229 17.9622 52.5691 17.9336 52.3874 17.5248C52.1961 17.1159 52.3109 16.7736 52.5691 16.4313C54.8451 13.4741 57.1116 10.5168 59.3781 7.55963C59.4642 7.42651 59.5503 7.3029 59.6842 7.10322Z" fill="#646677"/>
<path d="M113.784 7.16952C113.784 7.43577 113.784 7.62594 113.784 7.81612C113.784 10.9064 113.784 13.9968 113.784 17.0776C113.784 17.458 113.745 17.8098 113.306 17.9524C112.942 18.0665 112.617 17.9049 112.55 17.534C112.512 17.3153 112.512 17.0966 112.512 16.8684C112.512 13.8446 112.512 10.8209 112.512 7.7971C112.512 7.60692 112.512 7.42626 112.512 7.16952C111.766 7.16952 111.077 7.16952 110.379 7.16952C110.064 7.16952 109.738 7.17903 109.423 7.16952C109.059 7.16002 108.734 7.0364 108.744 6.60851C108.753 6.18062 109.088 6.08553 109.452 6.07602C109.805 6.06651 110.15 6.07602 110.504 6.07602C112.512 6.07602 114.52 6.07602 116.528 6.07602C116.672 6.07602 116.854 6.02848 116.949 6.09504C117.14 6.23767 117.389 6.41833 117.437 6.62753C117.513 6.93181 117.255 7.12198 116.959 7.15051C116.567 7.17903 116.165 7.16952 115.763 7.16952C115.123 7.17903 114.482 7.16952 113.784 7.16952Z" fill="#646677"/>
<path d="M20.5513 24.6558C20.8095 22.7161 21.0581 20.8048 21.3163 18.8841C22.7986 18.6558 24.3288 18.4181 25.9163 18.1709C24.8261 20.9284 23.0377 23.0584 20.5513 24.6558Z" fill="#646677"/>
<path d="M68.0808 12.0091C68.0808 10.2975 68.0808 8.59546 68.0808 6.88389C68.0808 6.74126 68.0712 6.59863 68.0904 6.456C68.1286 6.1327 68.2912 5.914 68.6259 5.89499C68.9511 5.87597 69.171 6.04713 69.2571 6.36091C69.2953 6.49404 69.3049 6.63667 69.3049 6.7793C69.3049 10.2405 69.3049 13.7111 69.3049 17.1723C69.3049 17.2864 69.3145 17.4005 69.2858 17.5051C69.1997 17.8379 69.0276 18.0852 68.6355 18.0661C68.2243 18.0471 68.0904 17.7714 68.0808 17.4291C68.0617 16.9346 68.0712 16.4497 68.0712 15.9552C68.0808 14.6335 68.0808 13.3213 68.0808 12.0091Z" fill="#646677"/>
<path d="M66.9902 26.8717C67.1911 26.2917 67.3058 25.6261 67.631 25.0746C68.5012 23.5817 70.6338 23.5722 71.5615 25.027C72.3074 26.2061 72.3074 27.4518 71.6762 28.6784C71.2363 29.5247 70.5 29.943 69.5341 29.9145C68.5682 29.886 67.8605 29.4106 67.478 28.5453C67.258 28.0603 67.1719 27.5088 66.9902 26.8717ZM71.5328 26.8812C71.3989 26.4248 71.3033 25.8828 71.0833 25.3884C70.8155 24.7988 70.2896 24.5041 69.6297 24.4945C68.9411 24.485 68.4247 24.7798 68.1187 25.3789C67.6118 26.3487 67.6214 27.3567 68.0422 28.3551C68.3482 29.0778 68.9316 29.4201 69.754 29.3725C70.5287 29.325 70.9781 28.8781 71.2363 28.222C71.3798 27.8416 71.418 27.4042 71.5328 26.8812Z" fill="#646677"/>
<path d="M60.7935 26.5866C61.9029 26.5866 62.9357 26.5866 64.0546 26.5866C64.0546 25.978 64.0546 25.3885 64.0546 24.7894C64.0546 24.6658 64.0259 24.5232 64.0642 24.4091C64.1215 24.2569 64.2363 24.1143 64.3224 23.9717C64.4276 24.1238 64.6188 24.2664 64.6188 24.4186C64.6475 25.6072 64.638 26.7958 64.638 27.9844C64.638 28.4883 64.6571 29.0018 64.6188 29.5057C64.6093 29.6484 64.4371 29.7815 64.3415 29.9241C64.2459 29.7815 64.0833 29.6484 64.0737 29.5057C64.045 28.745 64.0642 27.9939 64.0642 27.1951C62.9739 27.1951 61.922 27.1951 60.8031 27.1951C60.8031 27.8798 60.8031 28.5549 60.8031 29.23C60.8031 29.3726 60.8318 29.5248 60.7744 29.6484C60.7266 29.7625 60.5927 29.8956 60.4971 29.9051C60.411 29.9146 60.2867 29.753 60.2389 29.6484C60.191 29.5438 60.2102 29.4012 60.2102 29.2775C60.2102 27.7371 60.2102 26.2062 60.2102 24.6658C60.2102 24.6183 60.191 24.5612 60.2102 24.5232C60.2962 24.3425 60.3727 24.0192 60.4779 24.0097C60.8031 23.9717 60.8031 24.276 60.8031 24.5137C60.8031 25.1793 60.7935 25.8639 60.7935 26.5866Z" fill="#646677"/>
<path d="M91.052 29.9999C90.6313 29.8667 90.2009 29.7621 89.8088 29.5815C89.6845 29.5244 89.6654 29.2582 89.5889 29.087C89.7514 29.087 89.9523 29.0395 90.0862 29.106C90.8799 29.5054 91.5493 29.4864 92.0371 29.011C92.6587 28.4119 92.5439 27.6132 91.7693 27.2328C91.425 27.0617 91.0616 26.9476 90.7173 26.7954C89.8853 26.4341 89.5124 25.9016 89.6463 25.2645C89.8088 24.4943 90.44 23.9618 91.3007 23.9904C91.6832 23.9999 92.0658 24.171 92.4196 24.3232C92.5343 24.3707 92.563 24.6179 92.6395 24.7701C92.4674 24.7796 92.2953 24.8271 92.1327 24.7891C91.8171 24.7225 91.5111 24.5419 91.1955 24.5228C90.7365 24.4943 90.3348 24.8556 90.2583 25.2455C90.1627 25.74 90.4304 26.0252 90.8417 26.2154C91.1477 26.358 91.4537 26.4721 91.7693 26.5862C92.7639 26.9761 93.1751 27.5656 93.0221 28.3929C92.8117 29.3818 92.1136 29.9333 91.052 29.9999Z" fill="#646677"/>
<path d="M80.3407 24.5224C80.3407 25.2641 80.3407 25.9583 80.3407 26.6904C80.8476 26.6904 81.3449 26.6714 81.8326 26.6999C81.976 26.7095 82.1004 26.8426 82.2342 26.9186C82.1004 27.0232 81.976 27.1944 81.8326 27.2039C81.3449 27.2419 80.8571 27.2134 80.3311 27.2134C80.3311 27.9361 80.3311 28.6112 80.3311 29.3339C80.8954 29.3339 81.4309 29.3148 81.9665 29.3434C82.1195 29.3529 82.2534 29.505 82.3968 29.5811C82.2534 29.6667 82.1099 29.8188 81.9665 29.8283C81.364 29.8568 80.7519 29.8283 80.1494 29.8473C79.8147 29.8568 79.7 29.7047 79.7095 29.3909C79.7191 27.7459 79.7191 26.1009 79.7095 24.4464C79.7095 24.1326 79.8339 23.99 80.159 23.9995C80.7519 24.0185 81.3353 23.99 81.9282 24.0185C82.0621 24.028 82.1864 24.1801 82.3203 24.2657C82.1864 24.3513 82.0621 24.4939 81.9282 24.5034C81.4118 24.5415 80.8954 24.5224 80.3407 24.5224Z" fill="#646677"/>
<path d="M75.904 24.5226C75.904 26.1391 75.904 27.67 75.904 29.2105C75.904 29.3626 75.9135 29.5337 75.8562 29.6764C75.8179 29.7715 75.6745 29.9141 75.6075 29.8951C75.5023 29.8666 75.3684 29.7524 75.3302 29.6383C75.2728 29.4957 75.2919 29.3246 75.2919 29.1724C75.2919 27.8127 75.2919 26.4529 75.2919 25.0837C75.2919 24.9125 75.2824 24.7413 75.2632 24.5226C74.8903 24.5226 74.5555 24.5512 74.2304 24.5131C74.0965 24.4941 73.9817 24.3515 73.8574 24.2659C73.9722 24.1803 74.0869 24.0377 74.2113 24.0377C75.1389 24.0187 76.057 24.0187 76.9846 24.0377C77.1089 24.0377 77.2237 24.1898 77.3385 24.2659C77.2141 24.3515 77.0994 24.5036 76.9655 24.5226C76.6403 24.5512 76.3056 24.5226 75.904 24.5226Z" fill="#646677"/>
<path d="M85.8683 29.3529C86.3656 29.3529 86.8055 29.3339 87.2454 29.3624C87.408 29.3719 87.561 29.524 87.7236 29.6191C87.5802 29.7047 87.4271 29.8473 87.2741 29.8568C86.7481 29.8854 86.2222 29.8664 85.6962 29.8664C85.3901 29.8664 85.2754 29.7427 85.2754 29.4385C85.285 27.7649 85.2754 26.0819 85.2945 24.4084C85.2945 24.2657 85.4667 24.1231 85.5527 23.9805C85.6579 24.1326 85.8492 24.2752 85.8492 24.4274C85.8683 25.8822 85.8588 27.337 85.8588 28.7919C85.8683 28.9535 85.8683 29.1247 85.8683 29.3529Z" fill="#646677"/>
</g>
<defs>
<clipPath id="clip0">
<rect width="117.447" height="30" fill="white"/>
</clipPath>
</defs>
</svg>
