<svg width="128" height="22" viewBox="0 0 128 22" fill="none" xmlns="http://www.w3.org/2000/svg">
<g clip-path="url(#clip0)">
<path d="M50.3247 2.2403C50.3247 1.71983 50.5271 1.22067 50.8875 0.852642C51.2478 0.484613 51.7365 0.277855 52.2461 0.277855C52.7557 0.277855 53.2443 0.484613 53.6047 0.852642C53.965 1.22067 54.1674 1.71983 54.1674 2.2403C54.1488 2.7481 53.9383 3.22878 53.58 3.58134C53.2217 3.93389 52.7436 4.13086 52.2461 4.13086C51.7486 4.13086 51.2704 3.93389 50.9121 3.58134C50.5538 3.22878 50.3433 2.7481 50.3247 2.2403Z" fill="#646677"/>
<path d="M80.6392 15.3284C80.6392 14.2392 81.4981 13.3591 82.5565 13.3591C83.0675 13.3591 83.5576 13.5664 83.9189 13.9355C84.2802 14.3045 84.4832 14.8051 84.4832 15.327C84.4832 15.8489 84.2802 16.3495 83.9189 16.7185C83.5576 17.0876 83.0675 17.2949 82.5565 17.2949C81.4995 17.2949 80.6392 16.4135 80.6392 15.327" fill="#646677"/>
<path d="M18.7925 14.4768C17.1387 14.4768 15.988 13.1348 15.988 11.2161C15.988 9.29874 17.1387 7.9581 18.7938 7.9581C20.4569 7.9581 21.6196 9.29874 21.6196 11.2161C21.6196 13.1649 20.4823 14.4768 18.7925 14.4768ZM18.7925 5.09233C15.2923 5.09233 12.7515 7.66838 12.7515 11.2161C12.7515 14.7652 15.2936 17.3398 18.7925 17.3398C22.3073 17.3398 24.8575 14.7652 24.8575 11.2175C24.8575 7.66838 22.3073 5.09233 18.7938 5.09233H18.7925ZM46.6037 11.5236C46.4819 11.2829 46.3279 11.0608 46.1461 10.8635L46.0391 10.7501L46.1515 10.6407C46.3121 10.4672 46.4766 10.2622 46.6345 10.0244L49.7252 5.33422H45.9736L43.6521 9.00355C43.521 9.20034 43.2561 9.29874 42.8587 9.29874H42.3302V2.36185C42.3302 0.974749 41.4833 0.786158 40.5695 0.786158H39.004L39.008 17.1595H42.3315V12.2479H42.6433C43.022 12.2479 43.2788 12.293 43.3979 12.5034L45.2309 16.0375C45.7434 16.9968 46.2531 17.1595 47.2138 17.1595H49.76L47.8628 13.9561L46.6051 11.5236H46.6037ZM62.7371 5.065C61.0459 5.065 59.9674 5.83303 59.3627 6.48217L59.162 6.68989L59.0898 6.407C58.9131 5.7114 58.3137 5.33012 57.4133 5.33012H55.9241L55.9334 17.1554H59.2342V11.7053C59.2342 11.1724 59.3011 10.7104 59.4403 10.2882C59.8069 9.01039 60.8318 8.21639 62.1122 8.21639C63.1425 8.21639 63.5453 8.7726 63.5453 10.2075V15.3583C63.5453 16.5827 64.1005 17.1554 65.3006 17.1554H66.8714L66.8661 9.63356C66.8661 6.64616 65.4385 5.06636 62.7371 5.06636V5.065ZM52.2861 5.33422H50.722L50.7327 14.4782V17.1595H52.4012L52.46 17.1622L53.2388 17.1595H54.0121V17.1554H54.0175L54.0241 7.1313C54.0241 5.92186 53.4582 5.33559 52.2875 5.33559L52.2861 5.33422ZM31.7561 14.4768C30.1024 14.4768 28.9504 13.1348 28.9504 11.2161C28.9504 9.29874 30.1024 7.9581 31.7575 7.9581C33.4166 7.9581 34.5833 9.29874 34.5833 11.2161C34.5833 13.1649 33.446 14.4768 31.7575 14.4768H31.7561ZM31.7561 5.09233C28.2533 5.09233 25.7111 7.66838 25.7111 11.2161C25.7111 14.7652 28.2533 17.3398 31.7575 17.3398C35.267 17.3398 37.8225 14.7652 37.8225 11.2175C37.8225 7.66838 35.267 5.09233 31.7575 5.09233" fill="#646677"/>
<path d="M102.501 14.4768C100.847 14.4768 99.694 13.1348 99.694 11.2161C99.694 9.29874 100.847 7.9581 102.501 7.9581C104.163 7.9581 105.328 9.29874 105.328 11.2161C105.328 13.1649 104.191 14.4768 102.501 14.4768ZM102.501 5.09233C98.9983 5.09233 96.4575 7.66838 96.4575 11.2161C96.4575 14.7652 98.9983 17.3398 102.501 17.3398C106.012 17.3398 108.566 14.7652 108.566 11.2175C108.566 7.66838 106.011 5.09233 102.501 5.09233Z" fill="#646677"/>
<path d="M73.8244 13.9561C72.0195 13.9561 71.3773 12.3489 71.3773 10.8416C71.3773 10.1774 71.5418 8.01406 73.6518 8.01406C74.6994 8.01406 76.0949 8.32018 76.0949 10.9523C76.0949 13.4354 74.86 13.9561 73.8244 13.9561ZM77.8089 5.30272C77.1827 5.30272 76.701 5.55827 76.4589 6.02428L76.3679 6.20467L76.2153 6.06801C75.6828 5.5979 74.7275 5.03896 73.1768 5.03896C70.0901 5.03896 68.0122 7.40729 68.0122 10.929C68.0122 14.4494 70.1624 16.9093 73.2384 16.9093C74.2887 16.9093 75.1195 16.6578 75.7778 16.1495L76.032 15.954V16.282C76.032 17.8618 75.0326 18.7337 73.2196 18.7337C72.3379 18.7337 71.5364 18.5151 70.9986 18.3155C70.3001 18.0996 69.888 18.2786 69.6057 18.9961L69.3435 19.6575L68.9728 20.6251L69.2016 20.7495C70.363 21.3781 71.8736 21.7539 73.2384 21.7539C76.0481 21.7539 79.3315 20.2848 79.3315 16.1495L79.3436 5.30272H77.8089Z" fill="#646677"/>
<path d="M6.50121 14.3414L3.81455 14.3387V11.0588C3.81455 10.3564 4.08081 9.99287 4.66818 9.90814H6.50121C7.80842 9.90814 8.654 10.75 8.65534 12.1125C8.654 13.5119 7.82982 14.34 6.50121 14.34V14.3414ZM3.81455 5.49128V4.62758C3.81455 3.87185 4.12765 3.51243 4.81403 3.46597H6.1895C7.36826 3.46597 8.07471 4.18617 8.07471 5.39288C8.07471 6.31124 7.59034 7.38403 6.23229 7.38403H3.81455V5.49128ZM9.93183 8.76566L9.44609 8.48688L9.87025 8.11653C10.364 7.68331 11.1895 6.70892 11.1895 5.028C11.1895 2.45331 9.23607 0.791523 6.21089 0.791523H2.36551C1.93282 0.807636 1.52281 0.993168 1.22041 1.30967C0.918015 1.62617 0.746422 2.04937 0.741211 2.49158V17.1006H6.27908C9.64143 17.1006 11.8116 15.2311 11.8116 12.3352C11.8116 10.7759 11.1106 9.4435 9.93183 8.76566Z" fill="#646677"/>
<path d="M123.31 5.10408C122.628 5.10664 121.956 5.26553 121.343 5.56901C120.729 5.87249 120.191 6.31281 119.767 6.85743L119.528 7.16629L119.341 6.82054C118.728 5.68215 117.677 5.10408 116.214 5.10408C114.68 5.10408 113.651 5.97871 113.173 6.49802L112.86 6.84377L112.739 6.38869C112.565 5.73272 111.994 5.3733 111.13 5.3733H109.742L109.729 17.1534H112.88V11.9535C112.88 11.4971 112.936 11.0474 113.047 10.576C113.348 9.31869 114.175 7.96712 115.565 8.10241C116.422 8.18714 116.842 8.86361 116.842 10.1701V17.1534H120.015V11.9535C120.015 11.3836 120.068 10.9572 120.193 10.5309C120.448 9.33099 121.312 8.10104 122.653 8.10104C123.624 8.10104 123.983 8.66135 123.983 10.1701V15.4315C123.983 16.6205 124.502 17.1534 125.667 17.1534H127.15L127.152 9.63301C127.152 6.62784 125.857 5.10408 123.31 5.10408ZM94.6312 13.0632C94.6218 13.0755 93.2665 14.535 91.4803 14.535C89.8533 14.535 88.2103 13.5155 88.2103 11.2401C88.2103 9.27496 89.484 7.90152 91.309 7.90152C91.9004 7.90152 92.5748 8.11744 92.6805 8.48233L92.6952 8.54382C92.7626 8.79503 92.9093 9.0165 93.1125 9.17389C93.3157 9.33128 93.564 9.4158 93.8191 9.41435L95.5451 9.41708V7.87555C95.5451 5.84205 93.0123 5.10408 91.309 5.10408C87.6644 5.10408 85.0205 7.69516 85.0205 11.2647C85.0205 14.8316 87.635 17.4199 91.2422 17.4199C94.3704 17.4199 96.0723 15.3195 96.0883 15.299L96.1793 15.1842L94.8118 12.8678L94.6312 13.0632Z" fill="#646677"/>
</g>
<defs>
<clipPath id="clip0">
<rect width="127" height="22" fill="white" transform="translate(0.447266)"/>
</clipPath>
</defs>
</svg>
