<svg width="82" height="40" viewBox="0 0 82 40" fill="none" xmlns="http://www.w3.org/2000/svg">
<g clip-path="url(#clip0)">
<path d="M25.5389 12.4957H30.6946V14.1844H28.242V26.0494H25.5389V12.4957ZM33.7513 20.9612L34.2146 14.1844H34.3697L34.833 20.9612H33.7513ZM30.7578 26.0494H33.4044L33.6548 22.4499H34.9294L35.1809 26.0494H37.8264L36.4167 12.4957H32.1675L30.7578 26.0494ZM41.6977 21.3057V23.8608C41.6977 24.2052 41.9637 24.3052 42.1188 24.3052C42.3737 24.3052 42.5511 24.0941 42.5511 23.8608V20.7059C42.5511 20.2836 42.4734 19.8171 41.4649 19.8171H40.3677V18.3284H41.5092C42.274 18.3284 42.5511 18.1506 42.5511 17.3174V14.6288C42.5511 14.3954 42.3737 14.1844 42.1187 14.1844C41.9637 14.1844 41.6977 14.2732 41.6977 14.6288V16.8396H38.9934V14.9177C38.9934 13.9733 39.1042 12.4957 40.9993 12.4957H43.238C45.1332 12.4957 45.2552 13.9733 45.2552 14.9177V17.0839C45.2552 18.5615 44.2245 18.9615 43.4154 18.9281V19.0615C45.233 19.0171 45.2552 20.4167 45.2552 20.8946V23.6276C45.2552 24.583 45.1332 26.0494 43.238 26.0494H40.9993C39.1042 26.0494 38.9934 24.5828 38.9934 23.6275V21.3057H41.6977ZM47.0285 12.4957H53.2903V26.0494H50.5861V14.1844H49.7327V26.0494H47.0285V12.4957ZM57.7678 19.9503V14.1845H58.1225C58.4106 14.1845 58.6212 14.4287 58.6212 14.8621V19.2726C58.6212 19.706 58.4106 19.9502 58.1224 19.9502L57.7678 19.9503ZM55.0636 26.0494H57.7678V21.4389H59.3192C61.2034 21.4389 61.3254 19.9725 61.3254 19.017V14.9177C61.3254 13.9733 61.2034 12.4957 59.3194 12.4957H55.0636V26.0494ZM66.6562 23.8608C66.6562 24.0941 66.4788 24.3052 66.224 24.3052C66.0687 24.3052 65.8028 24.2052 65.8028 23.8608V14.6288C65.8028 14.2732 66.0688 14.1844 66.224 14.1844C66.4788 14.1844 66.6562 14.3954 66.6562 14.6288V23.8608ZM63.0986 23.6276C63.0986 24.583 63.2204 26.0494 65.1046 26.0494H67.3544C69.2385 26.0494 69.3604 24.5828 69.3604 23.6275V14.9177C69.3604 13.9733 69.2386 12.4957 67.3544 12.4957H65.1046C63.2206 12.4957 63.0986 13.9733 63.0986 14.9177V23.6276ZM78.1602 12.4957H81.6845V26.0494H78.9804V17.5506H78.8805L77.4841 26.0494H75.3229L73.9376 17.5506H73.8379V26.0494H71.1337V12.4957H74.6469L76.4091 22.0277L78.1602 12.4957ZM22.0344 7.49643C21.2066 3.86358 19.1318 0.908476 18.8459 0.430664C18.3937 1.10829 16.7391 3.7192 15.8979 6.60762C14.9791 9.84048 14.8439 12.7067 15.161 15.5175C15.4757 18.3393 16.6648 21.239 16.6648 21.239C17.2966 22.7499 18.243 24.3829 18.8593 25.1829C19.7624 24.0053 21.8383 20.4946 22.4855 15.9175C22.8458 13.3622 22.8613 11.1293 22.0344 7.49643ZM18.8459 24.2719C18.4392 23.5053 17.8074 22.0499 17.7476 19.7835C17.7321 17.6061 18.6043 15.7285 18.8593 15.3398C19.0865 15.7287 19.8378 17.3617 19.9276 19.5947C19.9885 21.7722 19.266 23.4941 18.8459 24.2719ZM21.794 13.6621C21.763 15.0509 21.5978 16.5174 21.3872 17.3951C21.4626 15.8842 21.282 13.7622 20.9361 12.0958C20.5904 10.4404 19.6117 7.66309 18.8305 6.38541C18.109 7.60754 17.2201 10.0071 16.7546 12.0847C16.2869 14.1621 16.2737 16.684 16.2737 17.4395C16.1494 16.8062 15.8392 14.5288 15.9267 12.2513C15.9999 10.3738 16.4387 8.42967 16.6793 7.54085C17.5969 4.57461 18.6353 2.67486 18.8304 2.37483C19.0255 2.67486 20.3332 5.01902 21.0115 7.47417C21.6865 9.92943 21.8228 12.2846 21.794 13.6623" fill="#646677"/>
<path d="M20.25 26.0276H13.9561V30.2604C13.9617 30.2604 13.9661 30.2492 13.9716 30.2492C15.4545 28.7606 17.8596 28.7606 19.3435 30.2492C20.8264 31.7268 20.8264 34.1376 19.3435 35.6263C19.3368 35.6373 19.3301 35.6373 19.3236 35.6485C19.3158 35.6485 19.308 35.6596 19.3014 35.6707C17.8218 37.1372 15.889 37.8704 13.9561 37.8704C12.0145 37.8704 10.0727 37.1372 8.59207 35.6485C5.98088 33.0377 5.67167 28.9827 7.66216 26.0276C7.93542 25.621 8.2468 25.2416 8.59207 24.8944C10.0727 23.4058 12.0145 22.6725 13.9561 22.6725V12.4961C6.49517 12.4961 0.447266 18.5508 0.447266 26.0276C0.447266 33.5044 6.49517 39.5702 13.9561 39.5702C17.8462 39.5702 21.3506 37.9148 23.8154 35.2819V26.0276H20.25ZM81.6844 30.0097H25.5388V39.5702H81.6844V30.0097ZM76.8294 36.6839H77.5418V35.2408H76.8294V36.6839ZM76.8294 34.1585H77.9073L78.629 34.5194L78.807 34.8801L78.9852 35.6017V35.9624C78.9664 38.5471 77.3075 37.6009 75.5641 37.7664V31.8135H76.8294V34.1585ZM67.4662 31.8135V32.8958H66.5664V37.7664H65.1324V32.8958H64.2327V31.8135H67.4662ZM54.3352 36.1428H54.5133L54.8694 35.9624V33.437H54.3352V36.1428ZM52.8918 33.4371H52.3482V35.9624L52.7136 36.1428H52.8918V33.4371ZM54.3352 31.8135V32.3547H55.235L55.7692 32.7154L56.1347 33.0762L56.3128 33.7978V35.7821L56.1348 36.5036L55.7692 36.8644L55.235 37.2251H54.3352V37.7662H52.8918V37.2251H51.992L51.4485 36.8644L51.0923 36.5036L50.9142 35.7821V33.7978L51.0922 33.0762L51.4485 32.7154L51.992 32.3547H52.8918V31.8135H54.3352ZM42.6345 31.8135V32.8958H41.5548V34.1585H42.6345V35.2408H41.5548V36.6839H42.8145V37.7662H40.1151V31.8135H42.6345ZM29.6778 34.1585H30.3976V31.8135H31.6573V37.7664H30.3976V35.2408H29.6778V37.7664H28.2381V31.8135H29.6778V34.1585Z" fill="#646677"/>
</g>
<defs>
<clipPath id="clip0">
<rect width="81.2371" height="40" fill="white" transform="translate(0.447266)"/>
</clipPath>
</defs>
</svg>
