<svg width="136" height="29" viewBox="0 0 136 29" fill="none" xmlns="http://www.w3.org/2000/svg">
<path d="M0.68457 6.82393V13.6475H7.4873H14.29V6.82393V0.00039959H7.4873H0.68457V6.82393Z" fill="#646677"/>
<path d="M15.9459 0.0750313C15.9037 0.107017 15.8721 3.17761 15.8721 6.89856V13.6475H22.6221H29.3721V6.82393V0.00039959H22.6959C19.015 0.00039959 15.9775 0.0323849 15.9459 0.0750313Z" fill="#646677"/>
<path d="M125.918 4.69153C124.874 4.91543 123.956 5.51249 123.397 6.33344C122.817 7.19704 122.691 7.67682 122.617 9.27609L122.554 10.7154L121.552 10.7687L120.55 10.822V11.8882V12.9544L121.552 13.0077L122.554 13.061L122.585 18.0934L122.606 23.1364H123.978H125.349L125.37 18.0934L125.401 13.061H127.616H129.831L129.894 16.8459C129.968 21.2173 130.021 21.5265 130.791 22.3901C131.318 22.9765 131.824 23.2217 132.774 23.3496C133.554 23.4669 134.567 23.3709 135.347 23.1257L135.685 23.0084V21.9209V20.8228L135.094 21.0254C134.092 21.3665 133.29 21.1106 132.858 20.3323C132.7 20.0231 132.679 19.6073 132.679 16.5261V13.061L134.187 13.029L135.685 12.997V11.8882V10.7794L134.187 10.7474L132.679 10.7154L132.647 8.92425C132.637 7.94337 132.584 7.14374 132.542 7.14374C132.499 7.14374 131.898 7.32499 131.202 7.54888L129.937 7.95403L129.905 9.36138L129.873 10.7687L127.637 10.7474L125.401 10.7154L125.37 9.71322C125.349 9.05219 125.391 8.52976 125.507 8.1566C125.834 7.00513 126.878 6.55734 128.281 6.99447C128.513 7.05844 128.513 7.05844 128.513 5.93896C128.513 5.27793 128.471 4.78749 128.407 4.74484C128.217 4.62756 126.382 4.58491 125.918 4.69153Z" fill="#646677"/>
<path d="M60.2006 5.75718C59.5573 6.15167 59.3042 7.13255 59.6733 7.85755C60.2323 8.94505 62.0674 8.9024 62.6159 7.78292C62.9745 7.06858 62.753 6.23696 62.078 5.78917C61.6034 5.46931 60.6858 5.44799 60.2006 5.75718Z" fill="#646677"/>
<path d="M38.2314 14.4998V23.1465L39.5287 23.1145L40.8154 23.0825L40.8471 16.4402C40.8682 11.152 40.8998 9.80861 41.0053 9.80861C41.0791 9.80861 42.2287 12.538 43.7791 16.4402L46.4264 23.0825L47.4178 23.1145L48.4197 23.1465L49.3795 20.7156C49.8963 19.3829 51.0776 16.3763 51.9951 14.0413C53.0498 11.3439 53.7143 9.80861 53.7986 9.80861C53.9252 9.80861 53.9463 10.9068 53.9463 16.4722V23.1358H55.3174H56.6885V14.4998V5.86376L54.7268 5.88509L52.7545 5.91707L50.2022 12.2608C48.7361 15.8752 47.576 18.6152 47.5022 18.6366C47.3967 18.6472 46.5846 16.6855 44.8654 12.2928L42.3764 5.91707L40.3092 5.88509L38.2314 5.86376V14.4998Z" fill="#646677"/>
<path d="M69.2604 10.7688C67.1826 11.3339 65.7166 12.7199 65.0416 14.7563C64.7357 15.6625 64.6092 17.6989 64.799 18.7118C64.9783 19.7034 65.6744 21.0254 66.3916 21.7398C67.5518 22.9019 68.8596 23.3923 70.7686 23.3817C71.9814 23.371 72.5299 23.2857 73.5002 22.9125L74.0908 22.6993V21.4625C74.0908 20.7909 74.0592 20.2578 74.017 20.2791C72.5299 21.0467 71.665 21.2706 70.642 21.1214C68.8912 20.8655 67.7732 19.6714 67.5412 17.7949C67.267 15.5879 68.2268 13.6581 69.9248 13.0184C70.4522 12.8158 70.7158 12.7839 71.5068 12.8158C72.34 12.8478 72.5615 12.9011 73.2787 13.253L74.1014 13.6368L74.0697 12.3467L74.0381 11.046L73.4053 10.8434C72.4455 10.5236 70.2729 10.4916 69.2604 10.7688Z" fill="#646677"/>
<path d="M81.9483 10.6615C81.7162 10.7041 81.3998 10.7894 81.2311 10.8534C80.7881 11.0453 79.9443 11.8876 79.7334 12.3674C79.417 13.0817 79.2693 12.9218 79.2377 11.8023L79.2061 10.8214H77.8877H76.5693L76.5377 16.9732L76.5166 23.1357H77.8772H79.2482L79.2799 19.3721C79.3115 15.7152 79.3221 15.5979 79.5647 14.9902C79.8494 14.2652 80.3979 13.6148 80.9568 13.3163C81.442 13.071 82.4123 13.0497 83.0346 13.2629C83.2666 13.3482 83.4881 13.3909 83.5197 13.3589C83.6463 13.2203 83.583 10.9067 83.4565 10.8001C83.2666 10.6508 82.444 10.5762 81.9483 10.6615Z" fill="#646677"/>
<path d="M88.3503 10.7687C86.1882 11.3444 84.6694 12.9117 84.1526 15.0974C83.9101 16.1102 83.9101 18.1573 84.1526 19.0742C84.7116 21.1746 86.1776 22.6566 88.2343 23.211C89.1519 23.4562 91.103 23.4455 92.0101 23.2003C93.0858 22.9124 93.8979 22.4327 94.6679 21.6544C95.4167 20.8974 95.9862 19.8632 96.2499 18.765C96.4608 17.9014 96.4292 15.5878 96.1972 14.7136C95.6487 12.6665 94.2038 11.2165 92.221 10.7261C91.2507 10.4808 89.3522 10.5022 88.3503 10.7687ZM91.7675 13.093C93.0964 13.786 93.687 15.2147 93.571 17.411C93.4761 19.2555 92.8644 20.3749 91.6726 20.8974C90.9343 21.2279 89.5421 21.2386 88.8354 20.9187C87.3905 20.279 86.6206 18.6264 86.7788 16.5367C86.937 14.6176 87.6542 13.4555 89.0358 12.9437C89.6476 12.7091 91.2085 12.7944 91.7675 13.093Z" fill="#646677"/>
<path d="M101.017 10.7153C99.7936 11.0564 98.8654 11.7814 98.3803 12.7836C98.1166 13.3061 98.085 13.498 98.0955 14.3403C98.0955 16.1208 98.5807 16.6965 101.122 17.9653C103 18.9035 103.306 19.1807 103.306 19.9377C103.306 21.3237 101.323 21.6969 99.1396 20.7267C98.6756 20.5241 98.2326 20.3215 98.1693 20.2895C98.0639 20.2469 98.0322 20.5347 98.0322 21.5156V22.7844L98.5912 22.955C100.047 23.4134 101.724 23.52 102.884 23.2428C104.803 22.7844 106.048 21.3664 106.048 19.6285C106.048 17.9333 105.257 17.0057 102.884 15.9395C102.272 15.6623 101.618 15.3425 101.439 15.2145C100.511 14.5855 100.595 13.3807 101.587 12.8903C101.998 12.6877 102.188 12.6664 102.926 12.709C103.706 12.7623 104.128 12.8796 105.288 13.402C105.383 13.4447 105.415 13.1675 105.415 12.2186V10.9925L105.014 10.8752C103.696 10.5234 101.998 10.4487 101.017 10.7153Z" fill="#646677"/>
<path d="M112.323 10.6614C110.478 11.0559 109.001 12.1541 108.263 13.6787C107.725 14.7982 107.577 15.5552 107.588 17.1651C107.598 18.4019 107.641 18.7217 107.862 19.4254C108.495 21.3552 109.887 22.6772 111.807 23.189C114.211 23.818 116.753 23.221 118.282 21.6537C119.39 20.5129 119.928 19.1802 120.033 17.2717C120.17 14.7982 119.306 12.6765 117.681 11.557C116.637 10.832 115.941 10.6401 114.222 10.5974C113.41 10.5868 112.556 10.6081 112.323 10.6614ZM115.139 13.007C116.584 13.5508 117.333 15.1713 117.196 17.4103C117.08 19.2335 116.447 20.3956 115.308 20.8967C114.528 21.2379 113.178 21.2486 112.429 20.9074C110.995 20.2677 110.298 18.807 110.404 16.6853C110.467 15.4379 110.562 15.0754 111.026 14.2864C111.385 13.6787 112.113 13.0923 112.735 12.911C113.347 12.7298 114.538 12.7831 115.139 13.007Z" fill="#646677"/>
<path d="M59.8209 10.8322C59.7787 10.8748 59.7471 13.6575 59.7471 17.0266V23.1465L61.0971 23.1145L62.4365 23.0825V16.952V10.8215L61.1603 10.7895C60.4643 10.7788 59.8631 10.8002 59.8209 10.8322Z" fill="#646677"/>
<path d="M0.68457 22.1765V29H7.4873H14.29V22.1765V15.3529H7.4873H0.68457V22.1765Z" fill="#646677"/>
<path d="M15.8932 22.1445L15.9248 28.9467L22.6537 28.9787L29.3721 29V22.1765V15.3529H22.6221H15.8721L15.8932 22.1445Z" fill="#646677"/>
</svg>
