<svg width="100" height="18" viewBox="0 0 100 18" fill="none" xmlns="http://www.w3.org/2000/svg">
<g clip-path="url(#clip0)">
<path d="M0.68457 0.0915874C0.745184 0.0665178 0.771162 0.0498047 0.797139 0.0498047C3.48147 0.0915874 6.17447 -0.00869116 8.83282 0.216936C12.842 0.551198 15.509 3.38407 15.7861 7.25315C15.8987 8.76568 15.8554 10.2615 15.4484 11.7239C14.5219 15.0582 12.2272 16.9551 8.74623 17.5568C8.01021 17.6821 7.25686 17.7239 6.51217 17.7323C4.58119 17.7573 2.6502 17.7406 0.68457 17.7406C0.68457 11.8409 0.68457 5.9746 0.68457 0.0915874ZM5.50771 13.813C6.00994 13.813 6.50352 13.8298 6.98843 13.813C8.79819 13.7545 10.0018 12.8771 10.504 11.1974C10.9197 9.81025 10.9543 8.39799 10.6772 6.98574C10.1577 4.2615 8.26998 3.65148 5.50771 3.98574C5.50771 7.24479 5.50771 10.5038 5.50771 13.813Z" fill="#646677"/>
<path d="M44.8289 4.31154C48.8554 4.30319 51.4964 6.77673 51.6003 10.6291C51.6263 11.6319 51.531 12.6681 51.2713 13.6374C50.6132 16.0776 48.8987 17.4731 46.3269 17.8742C45.0453 18.0748 43.7551 18.0413 42.5255 17.6152C40.0057 16.7461 38.7588 14.8993 38.3951 12.4174C38.2046 11.1388 38.2739 9.86029 38.6376 8.60681C39.339 6.15834 41.3046 4.57895 43.9197 4.35333C44.266 4.33661 44.6124 4.32826 44.8289 4.31154ZM42.8719 11.1472C43.0364 11.9411 43.149 12.7684 43.3914 13.5539C43.6079 14.2725 44.2141 14.5901 44.9847 14.5985C45.7554 14.5985 46.3182 14.2725 46.5694 13.5372C47.1062 11.9661 47.0976 10.3617 46.5953 8.7823C46.4308 8.27255 46.0585 7.90486 45.487 7.7628C44.5085 7.52046 43.6426 7.88815 43.3395 8.81572C43.1057 9.5511 43.0278 10.3283 42.8719 11.1472Z" fill="#646677"/>
<path d="M30.0651 12.3756C27.3375 12.3756 24.6358 12.3756 21.9255 12.3756C21.8649 13.3282 22.4451 14.1639 23.4149 14.5232C24.2375 14.8324 25.0948 14.799 25.9347 14.682C26.792 14.565 27.6405 14.3394 28.5324 14.1472C28.7403 15.0079 28.9741 15.9187 29.1732 16.8463C29.1905 16.9299 29.0433 17.097 28.9308 17.1555C27.9523 17.6235 26.8959 17.8408 25.8135 17.9243C24.5319 18.0246 23.2504 18.0413 21.9861 17.7405C19.5875 17.1639 18.0462 15.7265 17.4747 13.3951C17.0591 11.6987 17.1024 9.9856 17.6479 8.32265C18.4186 5.94939 20.1677 4.64577 22.7048 4.39507C23.666 4.30315 24.6791 4.32822 25.6316 4.5037C28.264 4.98003 29.8919 6.80175 30.0651 9.40064C30.1257 10.3616 30.0651 11.3394 30.0651 12.3756ZM25.926 9.50092C25.9001 8.68198 25.6576 8.01345 24.9216 7.63741C24.2375 7.28643 23.5275 7.3115 22.8694 7.72933C22.2199 8.1388 22.0381 8.7739 21.9861 9.50092C23.3196 9.50092 24.6012 9.50092 25.926 9.50092Z" fill="#646677"/>
<path d="M92.6793 14.0645C92.9131 15.0589 93.1469 16.0283 93.3807 17.0144C92.4975 17.474 91.5796 17.7414 90.6184 17.8584C89.1983 18.0255 87.7696 18.0924 86.3581 17.7915C83.7258 17.2233 82.0978 15.6773 81.5696 13.1119C81.2406 11.5158 81.3012 9.91967 81.7861 8.36536C82.5048 6.05895 84.4012 4.55477 86.9037 4.396C87.9168 4.3375 88.9645 4.36257 89.9517 4.55477C92.2723 4.98931 93.7444 6.54363 94.134 8.79154C94.212 9.24279 94.2466 9.7024 94.2553 10.162C94.2726 10.8807 94.2639 11.6077 94.2639 12.3765C91.519 12.3765 88.8 12.3765 86.081 12.3765C86.0204 13.6718 87.0595 14.6578 88.5489 14.733C89.8131 14.7999 91.0514 14.6411 92.2463 14.2233C92.3762 14.1648 92.5061 14.123 92.6793 14.0645ZM90.0556 9.50185C90.1422 8.32357 89.3022 7.42107 88.1419 7.41271C86.9556 7.40435 86.107 8.31522 86.1936 9.50185C87.4665 9.50185 88.7394 9.50185 90.0556 9.50185Z" fill="#646677"/>
<path d="M72.1917 7.95514C71.6288 7.95514 71.1353 7.95514 70.6157 7.95514C70.6157 6.81029 70.6157 5.70723 70.6157 4.55403C71.1353 4.55403 71.6288 4.55403 72.183 4.55403C72.183 3.39247 72.183 2.27269 72.183 1.1362C73.7503 0.893859 75.2657 0.65152 76.8243 0.40918C76.8243 1.79637 76.8243 3.14177 76.8243 4.53731C77.8115 4.53731 78.7727 4.53731 79.7511 4.53731C79.7511 5.69887 79.7511 6.80194 79.7511 7.93843C78.7986 7.93843 77.8548 7.93843 76.833 7.93843C76.833 8.10556 76.833 8.23091 76.833 8.36461C76.833 9.89386 76.833 11.4315 76.833 12.9607C76.833 14.0888 77.3612 14.5401 78.5302 14.3563C79.1104 14.2643 79.6819 14.1223 80.3053 13.9886C80.3053 15.0331 80.314 16.0693 80.2967 17.1056C80.2967 17.1808 80.1841 17.2894 80.0889 17.3228C78.3917 18.0081 76.6339 18.1836 74.8414 17.7657C73.3174 17.4064 72.59 16.3368 72.3476 14.9329C72.235 14.3228 72.209 13.6877 72.2004 13.061C72.1744 11.3813 72.1917 9.70166 72.1917 7.95514Z" fill="#646677"/>
<path d="M61.5149 7.94733C60.9521 7.94733 60.4499 7.94733 59.939 7.94733C59.939 6.80248 59.939 5.69942 59.939 4.55457C60.4672 4.55457 60.9607 4.55457 61.4976 4.55457C61.4976 3.41808 61.4976 2.32337 61.4976 1.18688C63.0563 0.92783 64.5803 0.668777 66.1562 0.401367C66.1562 1.79691 66.1562 3.14231 66.1562 4.5295C67.1434 4.5295 68.0872 4.5295 69.0657 4.5295C69.0657 5.67435 69.0657 6.77741 69.0657 7.93897C68.1218 7.93897 67.1693 7.93897 66.1562 7.93897C66.1562 8.24816 66.1562 8.50722 66.1562 8.76627C66.1562 10.1702 66.1562 11.5824 66.1562 12.9863C66.1562 14.0894 66.6844 14.5323 67.8361 14.3568C68.4249 14.2649 69.0137 14.1145 69.6285 13.9808C69.6285 15.0086 69.6372 16.0198 69.6199 17.0309C69.6199 17.1312 69.4986 17.2816 69.3947 17.3234C67.7062 18.0086 65.9657 18.1757 64.1906 17.7746C62.7099 17.4404 61.9565 16.4209 61.6881 15.042C61.5755 14.4571 61.5322 13.8554 61.5236 13.2621C61.4976 11.6576 61.5149 10.0615 61.5149 8.45708C61.5149 8.30666 61.5149 8.15624 61.5149 7.94733Z" fill="#646677"/>
<path d="M36.4815 17.7242C34.9401 17.7242 33.4508 17.7242 31.9268 17.7242C31.9268 11.8162 31.9268 5.91644 31.9268 0C33.4508 0 34.9575 0 36.4815 0C36.4815 5.91644 36.4815 11.7994 36.4815 17.7242Z" fill="#646677"/>
<path d="M53.4878 17.7156C53.4878 13.3368 53.4878 8.97465 53.4878 4.5791C54.9945 4.5791 56.4925 4.5791 58.0338 4.5791C58.0338 8.94958 58.0338 13.32 58.0338 17.7156C56.5185 17.7156 55.0205 17.7156 53.4878 17.7156Z" fill="#646677"/>
<path d="M58.0425 0.00878906C58.0425 0.978148 58.0425 1.93079 58.0425 2.91687C56.5272 2.91687 55.0205 2.91687 53.4878 2.91687C53.4878 1.95586 53.4878 1.00322 53.4878 0.00878906C54.9945 0.00878906 56.5098 0.00878906 58.0425 0.00878906Z" fill="#646677"/>
<path d="M97.8659 17.7245C98.8654 17.7245 99.6757 16.9425 99.6757 15.978C99.6757 15.0134 98.8654 14.2314 97.8659 14.2314C96.8664 14.2314 96.0562 15.0134 96.0562 15.978C96.0562 16.9425 96.8664 17.7245 97.8659 17.7245Z" fill="#646677"/>
</g>
<defs>
<clipPath id="clip0">
<rect width="99" height="18" fill="white" transform="translate(0.68457)"/>
</clipPath>
</defs>
</svg>
