<svg width="115" height="17" viewBox="0 0 115 17" fill="none" xmlns="http://www.w3.org/2000/svg">
<g clip-path="url(#clip0)">
<path d="M52.265 10.472C52.6631 9.60414 52.9999 8.85202 53.3367 8.10953C54.4389 5.6603 55.5411 3.21106 56.6332 0.752187C56.7863 0.395408 56.9904 0.279697 57.3884 0.279697C58.9703 0.298982 60.5522 0.308625 62.1342 0.279697C62.624 0.270054 62.7363 0.433979 62.7363 0.867899C62.7261 5.95922 62.7261 11.0602 62.7363 16.1515C62.7363 16.5661 62.624 16.7204 62.1648 16.7108C60.9911 16.6819 59.8174 16.6819 58.6437 16.7108C58.1947 16.7204 58.062 16.5854 58.062 16.1611C58.0824 12.9501 58.0722 9.7295 58.0722 6.51849C58.0722 6.33528 58.0722 6.14243 58.0722 5.95922C58.0212 5.93993 57.9701 5.93029 57.9191 5.91101C57.8375 6.046 57.7456 6.181 57.6742 6.32564C56.1535 9.65236 54.6226 12.9791 53.1223 16.3154C52.9488 16.7011 52.7243 16.8554 52.2854 16.8265C51.7241 16.7976 51.1628 16.7879 50.6015 16.8265C50.1422 16.8554 49.9075 16.7011 49.7238 16.2961C48.3051 13.0176 46.8559 9.73914 45.4271 6.47028C45.3454 6.28707 45.2536 6.10386 45.1617 5.92065C45.1209 5.93029 45.0699 5.93029 45.029 5.93993C45.0086 6.13279 44.978 6.32564 44.978 6.52814C44.978 9.69093 44.978 12.8634 44.978 16.0262C44.978 16.7011 44.978 16.7011 44.2432 16.7011C43.5798 16.7011 42.9164 16.6722 42.253 16.7108C41.7733 16.7397 41.6509 16.5854 41.6509 16.1419C41.6713 11.4941 41.6611 6.85599 41.6611 2.20823C41.6611 1.70681 41.6713 1.21503 41.6611 0.713616C41.6509 0.395408 41.7733 0.289339 42.1101 0.289339C43.8962 0.298982 45.6822 0.308625 47.4683 0.289339C47.9275 0.279697 47.9888 0.568976 48.1112 0.848613C49.4074 3.86676 50.7035 6.88492 51.9997 9.90307C52.0405 10.0477 52.1222 10.1923 52.265 10.472Z" fill="#646677"/>
<path d="M86.0671 6.22946C86.0671 6.41267 86.0671 6.59588 86.0671 6.77909C86.0671 9.89367 86.0569 13.0179 86.0773 16.1325C86.0773 16.5857 85.9242 16.711 85.4649 16.6917C84.6995 16.6628 83.934 16.6725 83.1686 16.6917C82.8318 16.7014 82.6787 16.6146 82.6787 16.2578C82.6889 11.0701 82.6889 5.88233 82.6787 0.684936C82.6787 0.366728 82.8114 0.270301 83.1278 0.270301C84.7097 0.279944 86.2916 0.289587 87.8735 0.270301C88.2511 0.270301 88.3736 0.48244 88.5063 0.723506C90.1494 3.55845 91.7824 6.38374 93.4255 9.21869C93.6909 9.68153 93.9665 10.1347 94.2318 10.5976C94.2726 10.5879 94.3237 10.5879 94.3645 10.5783C94.3747 10.4047 94.4053 10.2312 94.4053 10.0576C94.4053 6.99123 94.4155 3.91522 94.3951 0.848861C94.3951 0.414941 94.4972 0.241373 94.987 0.270301C95.7015 0.308872 96.4159 0.308872 97.1303 0.270301C97.6406 0.241373 97.8039 0.376371 97.7937 0.877789C97.7733 4.85056 97.7835 8.81369 97.7835 12.7865C97.7835 13.9147 97.7733 15.0332 97.7937 16.1614C97.8039 16.5471 97.6916 16.7014 97.2528 16.6917C95.7729 16.6725 94.293 16.6725 92.8132 16.6917C92.4764 16.6917 92.2927 16.5664 92.1396 16.2964C90.3025 13.1336 88.4553 9.97081 86.5978 6.80802C86.4753 6.59588 86.3426 6.40303 86.21 6.19089C86.1793 6.21018 86.1181 6.21982 86.0671 6.22946Z" fill="#646677"/>
<path d="M32.2005 16.6921C30.2614 16.6921 28.3223 16.6824 26.3832 16.7017C25.9647 16.7017 25.8218 16.5956 25.832 16.181C25.8423 11.0608 25.8423 5.93087 25.832 0.810619C25.832 0.424913 25.9341 0.280273 26.373 0.280273C30.2206 0.289916 34.058 0.289916 37.9056 0.280273C38.3139 0.280273 38.4465 0.405628 38.4261 0.781691C38.4057 1.42775 38.4057 2.06416 38.4261 2.71022C38.4363 3.08629 38.3037 3.21164 37.8954 3.21164C35.7318 3.19235 33.5783 3.202 31.4147 3.202C30.7105 3.202 30.6901 3.22128 30.6799 3.86734C30.6799 4.75446 30.6901 5.63195 30.6799 6.51907C30.6696 6.90478 30.8125 7.05906 31.2412 7.04942C33.1089 7.03013 34.9867 7.04942 36.8544 7.03013C37.2831 7.03013 37.4157 7.16513 37.3953 7.56048C37.3647 8.11011 37.3749 8.6501 37.3953 9.19973C37.4157 9.56615 37.2627 9.67222 36.885 9.66258C35.0276 9.65293 33.1803 9.67222 31.3228 9.64329C30.8431 9.63365 30.6492 9.759 30.6696 10.2315C30.7003 11.1765 30.6901 12.1311 30.6696 13.0761C30.6594 13.5196 30.8329 13.6643 31.2922 13.6643C33.5069 13.6546 35.7114 13.6546 37.926 13.6546C38.5996 13.6546 38.5996 13.6546 38.5996 14.3007C38.5996 14.9275 38.5792 15.5542 38.6098 16.181C38.6302 16.5764 38.4874 16.7114 38.0587 16.7017C36.1094 16.6824 34.1601 16.6921 32.2005 16.6921Z" fill="#646677"/>
<path d="M66.9414 8.45712C66.9414 5.93074 66.9516 3.41401 66.9312 0.887638C66.9312 0.38622 67.0944 0.270508 67.5945 0.270508C71.3707 0.289793 75.1469 0.289793 78.9231 0.270508C79.3824 0.270508 79.5661 0.366934 79.5354 0.829782C79.4946 1.43727 79.4946 2.0544 79.5354 2.66189C79.5661 3.10545 79.3824 3.20187 78.9435 3.20187C76.7799 3.18259 74.6264 3.19223 72.4628 3.19223C71.7994 3.19223 71.7892 3.20187 71.7892 3.84793C71.7892 4.71577 71.8096 5.58361 71.779 6.45145C71.7688 6.88537 71.9116 7.03965 72.3913 7.03965C74.1978 7.01072 75.994 7.03001 77.8004 7.03001C78.5046 7.03001 78.5046 7.03001 78.5149 7.72428C78.5149 8.17748 78.4842 8.63069 78.5251 9.07425C78.5659 9.55638 78.3618 9.66245 77.8821 9.66245C76.045 9.64317 74.208 9.66245 72.3709 9.64317C71.9218 9.63352 71.7688 9.77816 71.779 10.1928C71.7994 11.1281 71.7892 12.0538 71.7892 12.9892C71.7892 13.6159 71.8198 13.6449 72.473 13.6449C74.6366 13.6449 76.7901 13.6449 78.9537 13.6449C79.6375 13.6449 79.6375 13.6449 79.6375 14.2813C79.6375 14.9273 79.6273 15.5638 79.6477 16.2098C79.6579 16.5473 79.5661 16.7016 79.168 16.6919C75.2592 16.6823 71.3503 16.6823 67.4312 16.6919C66.9822 16.6919 66.9312 16.4991 66.9414 16.1616C66.9516 13.5967 66.9414 11.0317 66.9414 8.45712Z" fill="#646677"/>
<path d="M113.327 3.5489C112.265 3.30783 111.316 3.01855 110.357 2.88356C109.5 2.76784 108.602 2.81606 107.734 2.81606C107.55 2.81606 107.367 2.88356 107.193 2.95105C106.611 3.18248 106.05 3.47176 105.989 4.1371C105.928 4.7928 106.428 5.14958 106.979 5.40993C108.285 6.02706 109.622 6.57669 110.908 7.24203C111.735 7.66631 112.572 8.1388 113.255 8.74629C115.368 10.617 115.103 13.8376 112.786 15.4865C111.418 16.4604 109.836 16.875 108.173 16.9618C106.152 17.0679 104.142 16.9233 102.151 16.499C101.723 16.4026 101.529 16.2386 101.56 15.7951C101.6 15.0912 101.57 14.3776 101.57 13.6737C101.57 13.5387 101.59 13.394 101.6 13.2301C102.498 13.4423 103.346 13.6544 104.203 13.8183C105.509 14.069 106.826 14.204 108.142 13.9726C108.387 13.934 108.642 13.8569 108.867 13.7701C109.428 13.5387 109.765 13.1433 109.816 12.5551C109.867 11.9766 109.561 11.5427 109.04 11.3016C108.081 10.858 107.091 10.4627 106.111 10.0673C104.856 9.56591 103.611 9.0645 102.621 8.12916C100.508 6.12349 100.825 2.84498 103.305 1.26359C104.427 0.550033 105.693 0.231825 107.03 0.0775428C108.989 -0.144238 110.888 0.193255 112.796 0.482534C113.164 0.54039 113.358 0.675387 113.337 1.07074C113.307 1.89036 113.327 2.70034 113.327 3.5489Z" fill="#646677"/>
<path d="M12.7582 3.56836C11.9111 3.35622 11.1354 3.12479 10.3496 2.96087C9.31878 2.74873 8.26757 2.56552 7.22656 2.81623C6.75709 2.93194 6.28762 3.10551 5.8998 3.3755C5.27724 3.79978 5.26703 4.50369 5.82835 4.99547C6.09371 5.22689 6.4305 5.41975 6.75709 5.57403C7.99201 6.16223 9.25754 6.71186 10.5027 7.30006C11.5028 7.76291 12.4316 8.33183 13.1358 9.16109C14.7381 11.0703 14.3809 13.8474 12.3397 15.3999C11.2069 16.2581 9.89031 16.7113 8.47169 16.8752C6.17536 17.1356 3.89944 16.962 1.64393 16.5088C1.17446 16.4124 1.00096 16.2484 1.02137 15.776C1.06219 14.9467 1.03158 14.1174 1.03158 13.2014C1.65414 13.3556 2.19505 13.5099 2.74617 13.6353C4.33829 13.9921 5.94062 14.2428 7.58377 13.9728C7.93077 13.9149 8.27777 13.7992 8.57374 13.6256C9.49228 13.0953 9.56372 11.9575 8.64519 11.4368C7.73686 10.9161 6.71627 10.5689 5.74671 10.1446C5.02209 9.82644 4.25664 9.5468 3.55244 9.17074C2.22567 8.47647 1.20508 7.5122 0.847871 6.0658C0.245722 3.74192 1.36837 1.69768 3.72594 0.752701C5.3895 0.0777157 7.12451 -0.115137 8.91054 0.0777157C10.0026 0.193428 11.0946 0.357353 12.1866 0.482707C12.6663 0.540563 12.8398 0.743059 12.8092 1.20591C12.7582 1.83268 12.799 2.45945 12.799 3.08622C12.7888 3.23086 12.7684 3.38515 12.7582 3.56836Z" fill="#646677"/>
<path d="M16.6362 8.53405C16.6362 5.97875 16.6464 3.42344 16.626 0.877782C16.626 0.414934 16.7689 0.270295 17.2587 0.279937C18.5447 0.308865 19.8408 0.299223 21.137 0.279937C21.5248 0.270295 21.6779 0.366721 21.6779 0.76207C21.6677 5.92089 21.6677 11.0701 21.6779 16.2289C21.6779 16.5857 21.5554 16.7014 21.1778 16.7014C19.8306 16.6821 18.4937 16.6821 17.1465 16.7014C16.728 16.711 16.6362 16.5567 16.6362 16.1903C16.6464 13.635 16.6362 11.0894 16.6362 8.53405Z" fill="#646677"/>
</g>
<defs>
<clipPath id="clip0">
<rect width="114" height="17" fill="white" transform="translate(0.68457)"/>
</clipPath>
</defs>
</svg>
