<svg width="125" height="30" viewBox="0 0 125 30" fill="none" xmlns="http://www.w3.org/2000/svg">
<g clip-path="url(#clip0)">
<path d="M0.68457 30C0.68457 19.9964 0.68457 10.0036 0.68457 0C10.5745 0 20.4573 0 30.3542 0C30.3542 9.99642 30.3542 19.9928 30.3542 30C20.4714 30 10.5886 30 0.68457 30ZM4.87964 15.0966C4.87964 18.6445 4.87964 22.1888 4.87964 25.7368C4.87964 25.9728 4.87964 25.9764 5.10955 25.9764C12.1167 25.9764 19.1273 25.9764 26.1344 25.9764C26.3749 25.9764 26.3749 25.9764 26.3749 25.7475C26.3749 18.6552 26.3749 11.5629 26.3785 4.47067C26.3785 4.29542 26.3396 4.2382 26.1521 4.2382C19.145 4.24177 12.1343 4.24177 5.12724 4.24177C4.87964 4.24177 4.87964 4.24177 4.87964 4.49571C4.87964 8.02933 4.87964 11.5629 4.87964 15.0966Z" fill="#646677"/>
<path d="M100.595 14.8105C101.55 15.0108 102.24 15.7476 102.357 16.7311C102.42 17.2676 102.385 17.7862 102.24 18.2977C102.053 18.9701 101.639 19.4636 101.009 19.7784C100.433 20.0645 99.8135 20.1646 99.191 20.1718C97.7478 20.1932 96.3011 20.1789 94.8579 20.1789C94.8226 20.1789 94.7872 20.1754 94.7412 20.1718C94.7412 16.7991 94.7412 13.4264 94.7412 10.0394C94.8261 10.0394 94.9075 10.0394 94.9888 10.0394C96.2728 10.0394 97.5603 10.0323 98.8443 10.043C99.5341 10.0502 100.21 10.161 100.822 10.508C101.377 10.8227 101.727 11.3127 101.851 11.9386C101.95 12.4465 101.953 12.9651 101.794 13.4658C101.61 14.0523 101.264 14.4958 100.694 14.7497C100.666 14.7605 100.645 14.7784 100.595 14.8105ZM96.4532 18.7304C96.5346 18.7304 96.5982 18.7304 96.6654 18.7304C97.3729 18.7304 98.0803 18.7376 98.7877 18.7269C99.0389 18.7233 99.29 18.6982 99.5376 18.6553C100.058 18.5623 100.489 18.1439 100.532 17.611C100.549 17.3678 100.578 17.1246 100.563 16.8849C100.535 16.4379 100.358 16.0623 99.9514 15.8334C99.6473 15.6618 99.3112 15.6117 98.9717 15.6081C98.1864 15.5974 97.4047 15.6045 96.6194 15.6045C96.5664 15.6045 96.5169 15.6117 96.4567 15.6153C96.4532 16.6489 96.4532 17.6789 96.4532 18.7304ZM96.4567 11.4522C96.4567 12.3678 96.4567 13.2512 96.4567 14.1703C97.3623 14.1525 98.2572 14.1596 99.145 14.0988C99.5411 14.0738 99.9055 13.8592 100.026 13.4264C100.089 13.1904 100.096 12.9364 100.1 12.6897C100.111 12.0745 99.7994 11.6954 99.2086 11.5559C98.6993 11.4343 98.1829 11.4486 97.6664 11.4522C97.2667 11.4522 96.867 11.4522 96.4567 11.4522Z" fill="#646677"/>
<path d="M34.8887 20.1505C34.8887 16.7921 34.8887 13.4266 34.8887 10.0396C34.9594 10.0396 35.0195 10.0396 35.0832 10.0396C36.2965 10.0396 37.5132 10.0253 38.7265 10.0432C39.6638 10.0575 40.5764 10.222 41.4041 10.7013C41.9311 11.0053 42.345 11.4344 42.6457 11.9745C43.056 12.7077 43.254 13.5017 43.2788 14.3386C43.2965 14.8786 43.3142 15.4223 43.2717 15.9588C43.2045 16.7885 42.9888 17.5861 42.5431 18.2978C42.2 18.845 41.7401 19.2706 41.1707 19.5782C40.4738 19.9537 39.7275 20.1326 38.9529 20.1433C37.6052 20.1683 36.254 20.1505 34.8887 20.1505ZM36.5724 11.4809C36.5724 13.9166 36.5724 16.3128 36.5724 18.7198C37.2055 18.7198 37.8316 18.7377 38.4541 18.7127C38.9387 18.6948 39.4162 18.6304 39.8761 18.4444C40.3713 18.2406 40.7674 17.9223 41.0256 17.4502C41.3015 16.9459 41.4183 16.3879 41.4536 15.8228C41.5031 15.0503 41.5102 14.2742 41.3228 13.5088C41.0893 12.5575 40.534 11.928 39.5896 11.6633C38.9246 11.4809 38.2454 11.4809 37.5663 11.4809C37.2373 11.4809 36.9084 11.4809 36.5724 11.4809Z" fill="#646677"/>
<path d="M77.4409 10.0469C77.9644 10.0469 78.4738 10.0469 79.0079 10.0469C79.0079 11.3058 79.0079 12.554 79.0079 13.8022C79.2307 13.6449 79.4359 13.4875 79.6516 13.3516C79.9735 13.1477 80.3343 13.0619 80.7057 13.0047C81.1125 12.9439 81.5157 12.9546 81.9119 13.0476C82.7254 13.2443 83.2914 13.7271 83.4965 14.5676C83.5637 14.8466 83.6026 15.1399 83.6062 15.426C83.6168 16.9532 83.6097 18.4768 83.6097 20.0039C83.6097 20.0576 83.6026 20.1077 83.5991 20.1685C83.0791 20.1685 82.5698 20.1685 82.0321 20.1685C82.0321 20.1005 82.0321 20.029 82.0321 19.961C82.0321 18.5662 82.0392 17.1713 82.0286 15.7765C82.0251 15.451 81.9543 15.1291 81.7739 14.8537C81.498 14.4281 81.0736 14.3137 80.6102 14.3566C80.0867 14.4067 79.6269 14.607 79.3121 15.0612C79.1175 15.3401 79.0114 15.6477 79.0114 15.9875C79.0079 17.3037 79.0114 18.6234 79.0114 19.9396C79.0114 20.0111 79.0114 20.0826 79.0114 20.1649C78.4844 20.1649 77.9715 20.1649 77.4445 20.1649C77.4409 16.7994 77.4409 13.4339 77.4409 10.0469Z" fill="#646677"/>
<path d="M90.8573 17.178C89.2762 17.178 87.688 17.178 86.0432 17.178C86.1104 17.482 86.1387 17.7753 86.2377 18.0399C86.3368 18.3046 86.4853 18.5514 86.7294 18.7338C86.9912 18.9269 87.2777 19.0199 87.5854 19.0485C87.9533 19.0807 88.3176 19.0342 88.6678 18.884C88.9649 18.7552 89.1488 18.5335 89.2408 18.2366C89.2762 18.1222 89.3151 18.0864 89.4283 18.0864C89.8916 18.09 90.3585 18.09 90.8325 18.09C90.8007 18.4405 90.6663 18.7409 90.5 19.0235C90.164 19.585 89.6546 19.9319 89.0498 20.1394C88.8482 20.2073 88.6289 20.2467 88.4166 20.2717C87.5995 20.3754 86.8001 20.3289 86.0609 19.9248C85.3994 19.5635 84.975 18.9949 84.7203 18.2867C84.501 17.6751 84.4479 17.0421 84.4762 16.3983C84.501 15.801 84.6142 15.2109 84.8759 14.6708C85.1306 14.1451 85.502 13.7052 86.0114 13.4155C86.6834 13.0328 87.4121 12.929 88.1796 13.0006C88.5475 13.0328 88.8977 13.115 89.2302 13.2509C89.7537 13.4691 90.1569 13.8339 90.4363 14.3382C90.6804 14.7817 90.8396 15.2538 90.8573 15.7653C90.8679 16.2231 90.8573 16.688 90.8573 17.178ZM89.3469 15.9655C89.3221 15.7653 89.3151 15.5864 89.2797 15.4148C89.1948 15.0106 89.0392 14.6386 88.6395 14.4598C88.4202 14.3632 88.1832 14.2917 87.9462 14.2595C87.6066 14.2166 87.2635 14.2524 86.9558 14.4169C86.3403 14.7424 86.1705 15.3182 86.1033 15.9655C87.1928 15.9655 88.261 15.9655 89.3469 15.9655Z" fill="#646677"/>
<path d="M50.4985 17.1777C48.9067 17.1777 47.3079 17.1777 45.6879 17.1777C45.748 17.8036 45.8612 18.3937 46.4024 18.7728C46.5828 18.898 46.8127 18.9624 47.0285 19.016C47.3963 19.1054 47.7607 19.0625 48.1215 18.9481C48.5424 18.8157 48.8112 18.5475 48.8996 18.0969C49.4161 18.0969 49.9325 18.0969 50.4666 18.0969C50.3676 18.5654 50.1872 18.9803 49.8759 19.3415C49.4514 19.835 48.9138 20.1104 48.2877 20.232C47.5803 20.368 46.8728 20.368 46.1866 20.1426C45.4969 19.9173 44.9628 19.481 44.5949 18.8372C44.2058 18.1577 44.082 17.4209 44.1103 16.6519C44.128 16.2156 44.1598 15.7721 44.2624 15.3536C44.4711 14.4989 44.9203 13.7979 45.7197 13.3722C46.3776 13.0217 47.078 12.9073 47.8102 13.0074C48.1392 13.0539 48.4681 13.1219 48.7794 13.2292C49.3347 13.4187 49.7486 13.7943 50.0386 14.3057C50.3428 14.8386 50.4914 15.4144 50.4985 16.0296C50.502 16.398 50.4985 16.7735 50.4985 17.1777ZM48.9739 15.9652C48.9421 15.7328 48.9279 15.5146 48.8784 15.3072C48.79 14.9459 48.6061 14.6526 48.2771 14.4524C48.0613 14.3236 47.835 14.2914 47.5944 14.27C47.0002 14.2163 46.459 14.3093 46.0876 14.835C45.8541 15.1677 45.7516 15.5504 45.7233 15.9652C46.8021 15.9652 47.8668 15.9652 48.9739 15.9652Z" fill="#646677"/>
<path d="M107.634 15.8695C107.602 15.5298 107.588 15.2186 107.542 14.911C107.478 14.4997 107.181 14.3245 106.817 14.2529C106.445 14.1814 106.067 14.1921 105.699 14.2887C105.299 14.396 105.098 14.6893 105.027 15.0898C104.5 15.0898 103.977 15.0898 103.432 15.0898C103.563 14.514 103.775 14.0026 104.235 13.6163C104.709 13.2193 105.264 13.0655 105.862 12.9976C106.353 12.9403 106.842 12.9618 107.316 13.0512C107.991 13.18 108.592 13.4768 108.897 14.1492C109.024 14.4282 109.123 14.7465 109.13 15.0469C109.151 16.7136 109.141 18.3838 109.144 20.0505C109.144 20.0863 109.141 20.1185 109.137 20.165C108.692 20.165 108.253 20.165 107.79 20.165C107.772 19.9039 107.751 19.6392 107.733 19.4067C107.499 19.5856 107.27 19.7966 107.011 19.9504C106.456 20.2758 105.848 20.3402 105.215 20.2937C104.787 20.2615 104.387 20.1542 104.03 19.911C103.549 19.5856 103.266 19.1278 103.181 18.5448C103.128 18.1764 103.121 17.808 103.227 17.4539C103.428 16.7601 103.906 16.3345 104.564 16.0841C104.949 15.9375 105.352 15.8695 105.763 15.8695C106.364 15.866 106.972 15.8695 107.634 15.8695ZM107.602 17.0641C106.965 17.0641 106.353 17.0462 105.742 17.0677C105.105 17.0891 104.801 17.3574 104.744 17.9761C104.687 18.5627 104.907 18.8846 105.505 19.0133C105.918 19.1027 106.322 19.0455 106.711 18.8953C107.04 18.7665 107.298 18.5448 107.468 18.2193C107.662 17.8474 107.591 17.4504 107.602 17.0641Z" fill="#646677"/>
<path d="M115.034 20.1793C115.034 19.9719 115.034 19.7823 115.034 19.5963C115.037 18.4661 115.044 17.3359 115.037 16.2058C115.034 15.8588 115.051 15.5155 114.938 15.1686C114.758 14.6214 114.358 14.3746 113.852 14.3567C113.156 14.3317 112.558 14.5892 112.232 15.2365C112.087 15.5226 112.027 15.8839 112.02 16.2129C111.995 17.4576 112.01 18.7058 112.01 19.9504C112.01 20.0219 112.01 20.0899 112.01 20.1721C111.483 20.1721 110.973 20.1721 110.45 20.1721C110.45 17.8402 110.45 15.5083 110.45 13.1657C110.941 13.1657 111.426 13.1657 111.939 13.1657C111.964 13.3803 111.985 13.602 112.01 13.8274C112.225 13.6664 112.416 13.5019 112.629 13.3731C112.972 13.1621 113.35 13.0548 113.75 13.0083C114.139 12.9618 114.524 12.9618 114.903 13.0513C115.667 13.2337 116.215 13.6557 116.477 14.439C116.65 14.9611 116.64 15.4869 116.64 16.0198C116.647 17.0176 116.643 18.0191 116.643 19.0169C116.643 19.3567 116.643 19.6965 116.643 20.0327C116.643 20.1328 116.622 20.1865 116.505 20.1865C116.028 20.1757 115.55 20.1793 115.034 20.1793Z" fill="#646677"/>
<path d="M57.6325 20.1682C57.1692 20.1682 56.72 20.1682 56.2601 20.1682C56.2389 19.9071 56.2212 19.6496 56.2 19.3849C56.0338 19.528 55.8746 19.6603 55.7189 19.7927C55.4395 20.0287 55.1106 20.1575 54.7568 20.229C54.1449 20.3542 53.5294 20.3578 52.9352 20.1646C52.1393 19.9107 51.6795 19.3313 51.5486 18.5087C51.4885 18.1189 51.4708 17.7183 51.4673 17.3213C51.4567 16.0051 51.4637 14.689 51.4637 13.3692C51.4637 13.3048 51.4637 13.2405 51.4637 13.1582C51.9908 13.1582 52.5072 13.1582 53.0484 13.1582C53.0484 13.2262 53.0484 13.2941 53.0484 13.3621C53.0484 14.6925 53.0413 16.0194 53.0555 17.3499C53.059 17.6468 53.1156 17.9472 53.1899 18.2369C53.2783 18.5802 53.5188 18.7984 53.8584 18.92C54.6012 19.1847 55.4324 18.8377 55.8251 18.194C56.0055 17.9007 56.0691 17.5716 56.0691 17.2319C56.0727 15.9443 56.0691 14.6568 56.0691 13.3692C56.0691 13.3048 56.0691 13.2405 56.0691 13.1582C56.5926 13.1582 57.1055 13.1582 57.6325 13.1582C57.6325 15.4937 57.6325 17.822 57.6325 20.1682Z" fill="#646677"/>
<path d="M69.4324 15.2327C68.9266 15.2327 68.435 15.2327 67.9327 15.2327C67.8443 14.9037 67.7063 14.5961 67.395 14.4209C66.8362 14.1025 66.2561 14.0704 65.6831 14.3636C65.3754 14.521 65.3082 14.8214 65.3541 15.1397C65.3895 15.408 65.5522 15.6083 65.7998 15.6798C66.2455 15.8085 66.7053 15.898 67.1581 16.0088C67.6179 16.1233 68.1025 16.1662 68.5269 16.4058C68.9266 16.6312 69.2237 16.9495 69.3864 17.393C69.5456 17.8329 69.5633 18.2764 69.4466 18.7163C69.3369 19.1276 69.1141 19.4781 68.7674 19.7392C68.2758 20.1075 67.7134 20.2399 67.1156 20.2864C66.5249 20.3329 65.9413 20.3078 65.3754 20.1362C64.5901 19.8965 64.0206 19.4209 63.8438 18.5661C63.8084 18.398 63.7766 18.2334 63.7412 18.051C64.2753 18.051 64.7847 18.051 65.3082 18.051C65.3471 18.4766 65.5204 18.8307 65.9307 18.9738C66.203 19.0668 66.5037 19.1097 66.7902 19.1025C67.0519 19.0954 67.3172 19.0167 67.5648 18.9201C67.8938 18.7914 68.007 18.5017 67.9893 18.1583C67.9751 17.8364 67.7912 17.6183 67.5012 17.5324C67.0732 17.4037 66.631 17.3178 66.1995 17.2034C65.7857 17.0925 65.3647 16.9888 64.9615 16.8422C64.3178 16.6097 63.8862 15.9659 63.8898 15.2685C63.8933 14.9967 63.9039 14.7213 63.9641 14.4566C64.0702 13.9988 64.3637 13.659 64.7564 13.423C65.439 13.0117 66.1924 12.9223 66.9741 12.9867C67.3561 13.0188 67.724 13.0975 68.0777 13.2477C68.5375 13.4409 68.8983 13.7485 69.1495 14.192C69.3298 14.521 69.39 14.8679 69.4324 15.2327Z" fill="#646677"/>
<path d="M76.4929 15.5581C75.9588 15.5581 75.4494 15.5581 74.933 15.5581C74.8976 15.4151 74.8658 15.272 74.8234 15.1325C74.6677 14.6497 74.3388 14.36 73.84 14.2992C73.4333 14.2491 73.03 14.2455 72.6551 14.4887C72.3403 14.6962 72.1564 14.9966 72.0608 15.3364C71.8132 16.2305 71.785 17.139 72.0785 18.0295C72.3474 18.8485 72.9734 19.1275 73.7587 19.0381C74.0912 19.0023 74.4095 18.8807 74.6076 18.6053C74.7455 18.4122 74.8234 18.1619 74.88 17.9258C74.9153 17.772 74.9507 17.7184 75.1099 17.7219C75.5662 17.7327 76.026 17.7255 76.4929 17.7255C76.4257 18.2405 76.3054 18.7162 76.026 19.1382C75.7748 19.5174 75.4565 19.8106 75.0462 20.0002C74.4449 20.2756 73.8153 20.3364 73.1609 20.2935C72.6445 20.2613 72.1528 20.1683 71.6965 19.9108C71.219 19.6425 70.8653 19.2527 70.6425 18.7448C70.2817 17.9115 70.1862 17.0352 70.2887 16.1411C70.3347 15.7334 70.3913 15.3185 70.5151 14.9287C70.8264 13.9809 71.4595 13.355 72.4429 13.1082C73.0512 12.9544 73.6702 12.9401 74.2751 13.051C75.3009 13.2334 76.0649 13.7699 76.3585 14.8464C76.408 15.0324 76.4504 15.2219 76.4929 15.4115C76.5035 15.4544 76.4929 15.4973 76.4929 15.5581Z" fill="#646677"/>
<path d="M59.7478 14.3495C59.3091 14.3495 58.9059 14.3495 58.4814 14.3495C58.4814 13.9525 58.4814 13.5626 58.4814 13.1549C58.8953 13.1549 59.3127 13.1549 59.7478 13.1549C59.7478 12.8187 59.7513 12.5075 59.7478 12.1928C59.7478 12.1106 59.7619 12.0605 59.8433 12.014C60.2642 11.7851 60.678 11.5455 61.0919 11.3058C61.1591 11.2665 61.2298 11.2271 61.3289 11.1699C61.3289 11.2629 61.3289 11.3237 61.3289 11.3881C61.3289 11.9067 61.3359 12.4253 61.3253 12.9439C61.3218 13.1227 61.3819 13.1621 61.5446 13.1585C62.0398 13.1477 62.5315 13.1549 63.0409 13.1549C63.0409 13.5555 63.0409 13.9453 63.0409 14.3495C62.482 14.3495 61.9231 14.3495 61.343 14.3495C61.3395 14.4317 61.3289 14.4997 61.3289 14.5676C61.3289 15.6406 61.3218 16.7136 61.3324 17.7865C61.3359 18.0261 61.3819 18.2693 61.4314 18.5054C61.4845 18.7522 61.718 18.931 62.0009 18.9489C62.3688 18.9703 62.7402 18.9739 63.1222 18.9847C63.1222 19.3137 63.1258 19.6821 63.1151 20.0505C63.1151 20.097 63.0267 20.1756 62.9737 20.1792C62.3228 20.2436 61.6684 20.2865 61.0282 20.1399C60.3844 19.9932 60.006 19.6928 59.8574 18.9167C59.7867 18.5447 59.7513 18.1656 59.7478 17.7865C59.7336 16.7207 59.7442 15.6549 59.7442 14.5855C59.7478 14.5104 59.7478 14.4389 59.7478 14.3495Z" fill="#646677"/>
<path d="M117.948 10.0469C118.465 10.0469 118.974 10.0469 119.498 10.0469C119.498 13.4195 119.498 16.7886 119.498 20.1685C118.985 20.1685 118.475 20.1685 117.948 20.1685C117.948 16.8029 117.948 13.4374 117.948 10.0469Z" fill="#646677"/>
<path d="M124.502 20.1784C123.866 20.1784 123.279 20.1784 122.688 20.1748C122.642 20.1748 122.582 20.1498 122.553 20.114C122.14 19.574 121.733 19.0268 121.315 18.4867C120.987 18.0575 120.643 17.6355 120.311 17.2099C120.085 16.9166 119.858 16.6269 119.639 16.3265C119.611 16.2871 119.611 16.1834 119.639 16.1477C120.032 15.6934 120.431 15.25 120.827 14.7993C121.224 14.3487 121.623 13.9016 122.005 13.4402C122.175 13.2364 122.341 13.1148 122.624 13.1291C123.098 13.1541 123.576 13.1362 124.092 13.1362C123.958 13.2936 123.848 13.4259 123.735 13.5547C123.07 14.3022 122.408 15.0497 121.743 15.7972C121.655 15.8973 121.552 15.9903 121.475 16.0976C121.443 16.1369 121.432 16.2371 121.461 16.2693C121.761 16.6663 122.069 17.0597 122.373 17.4495C122.638 17.7893 122.904 18.1255 123.169 18.4653C123.509 18.898 123.852 19.3308 124.191 19.7671C124.297 19.8959 124.389 20.0211 124.502 20.1784Z" fill="#646677"/>
<path d="M23.9375 7.30719C23.2937 8.20133 22.6641 9.07043 22.0381 9.9431C20.3827 12.2464 18.7273 14.5461 17.0719 16.8494C15.6535 18.8236 14.2315 20.7979 12.8131 22.7721C12.753 22.8544 12.6964 22.9045 12.5868 22.9045C10.8712 22.9009 9.15573 22.9009 7.44021 22.9009C7.41191 22.9009 7.38361 22.8973 7.31641 22.8937C7.43667 22.7221 7.54278 22.5719 7.65244 22.4216C9.48468 19.8751 11.3169 17.3287 13.1492 14.7822C14.9178 12.3215 16.6863 9.86084 18.4585 7.40376C18.4974 7.35011 18.5787 7.30004 18.6388 7.29646C20.3721 7.28931 22.1053 7.29289 23.8385 7.29289C23.8632 7.29289 23.8844 7.30004 23.9375 7.30719Z" fill="#646677"/>
</g>
<defs>
<clipPath id="clip0">
<rect width="123.818" height="30" fill="white" transform="translate(0.68457)"/>
</clipPath>
</defs>
</svg>
