<svg width="56" height="40" viewBox="0 0 56 40" fill="none" xmlns="http://www.w3.org/2000/svg">
<g clip-path="url(#clip0)">
<path d="M9.03531 23.1418C9.03531 19.1776 9.03531 15.2216 9.03531 11.2574C9.03531 10.3294 8.68673 9.98756 7.73228 9.98756C7.3837 9.98756 7.04342 9.98756 6.69484 9.98756C5.78189 9.97942 5.08473 9.31194 5.10133 8.46537C5.11793 7.62695 5.79849 7.00017 6.71144 7.00017C11.0438 7.00017 15.3678 7.00017 19.7002 7.00017C19.8496 7.00017 20.0073 7.00831 20.1567 6.99203C20.7293 6.95133 21.1443 6.69085 21.3518 6.14547C21.6423 5.39659 22.2731 4.96517 23.0615 4.96517C30.0082 4.96517 36.9466 4.96517 43.8933 4.95703C44.217 4.95703 44.3332 5.03843 44.3249 5.36403C44.3083 6.12105 44.3 6.88621 44.3249 7.64323C44.3332 7.99325 44.2004 8.08279 43.8684 8.08279C42.1255 8.07465 40.3826 8.07465 38.6397 8.07465C37.5608 8.07465 37.1043 8.53049 37.1043 9.58056C37.1043 15.71 37.1043 21.8475 37.1126 27.977C37.1126 28.848 36.7889 29.491 36.0088 29.9713C33.9837 31.2167 31.9918 32.511 29.9833 33.7808C29.8588 33.8622 29.726 33.9355 29.5849 33.9924C28.7052 34.3262 27.9499 33.8866 27.842 32.9668C27.8171 32.7796 27.8254 32.5842 27.8254 32.397C27.8254 24.8431 27.8254 17.281 27.8254 9.72708C27.8254 8.53863 27.3524 8.07465 26.1406 8.07465C25.2526 8.07465 24.3728 8.06651 23.4848 8.07465C22.6714 8.08279 22.4141 8.26187 22.1154 8.99448C21.8332 9.66196 21.2854 9.93872 20.5799 9.97942C20.2729 9.9957 19.9741 9.97128 19.667 9.98756C19.0694 10.012 18.696 10.362 18.6379 10.9481C18.6296 11.0539 18.6379 11.1679 18.6379 11.2737C18.6379 17.338 18.6213 23.4023 18.6462 29.4666C18.6545 31.4121 17.9075 32.9261 16.2393 34.0006C13.7245 35.6286 11.2596 37.3298 8.71163 38.9009C6.62015 40.187 4.38757 40.3986 2.1384 39.2102C0.94327 38.5834 0.412101 37.574 0.519995 36.2472C0.611289 35.0506 1.70683 34.0006 3.00985 33.8541C4.58676 33.675 5.6823 34.3099 6.31306 35.7344C6.48735 36.1333 6.66994 36.5403 6.92723 36.874C7.52479 37.6473 8.37135 37.5496 8.71993 36.6461C8.91082 36.1414 9.01871 35.5716 9.01871 35.0262C9.04361 31.062 9.03531 27.106 9.03531 23.1418Z" fill="#646677"/>
<path d="M45.5699 4.98145C48.6823 4.98145 51.7365 4.98145 54.8488 4.98145C54.8488 5.12797 54.8488 5.27449 54.8488 5.41287C54.8488 11.1923 54.8488 16.9635 54.8488 22.7429C54.8488 23.5488 54.5334 24.1593 53.8197 24.607C51.778 25.8768 49.7612 27.1874 47.7195 28.4491C47.4207 28.6363 47.0307 28.7584 46.6821 28.7503C46.0513 28.7421 45.6529 28.27 45.5782 27.5862C45.5616 27.4641 45.5699 27.342 45.5699 27.2199C45.5699 19.9509 45.5699 12.6819 45.5699 5.41287C45.5699 5.29077 45.5699 5.15239 45.5699 4.98145Z" fill="#646677"/>
<path d="M50.2008 2.98738C49.014 2.98738 47.8272 2.99552 46.6403 2.98738C45.8353 2.97924 45.2626 2.42572 45.1713 1.61172C45.0966 0.895401 45.5697 0.21978 46.2669 0.0407C46.3996 0.00814001 46.5407 0 46.6735 0C49.0057 0 51.3378 0 53.6783 0C54.5747 0 55.1888 0.602361 55.1971 1.47334C55.2054 2.36874 54.5913 2.98738 53.6783 2.98738C52.5247 2.99552 51.3627 2.98738 50.2008 2.98738Z" fill="#646677"/>
</g>
<defs>
<clipPath id="clip0">
<rect width="54.6939" height="40" fill="white" transform="translate(0.50293)"/>
</clipPath>
</defs>
</svg>
