<svg width="145" height="15" viewBox="0 0 145 15" fill="none" xmlns="http://www.w3.org/2000/svg">
<g clip-path="url(#clip0)">
<path d="M77.0201 6.01997C77.0201 8.94839 77.0201 11.8768 77.0201 14.9028C75.1004 14.9028 73.441 14.9028 71.6514 14.9028C71.6514 10.0221 71.6514 5.14145 71.6514 0.0980648C74.2544 0.0980648 76.8574 0.0655269 79.4279 0.163141C79.8509 0.163141 80.4041 0.781362 80.5993 1.23689C81.5429 3.35186 82.3889 5.49937 83.6579 7.67941C84.4063 5.75967 85.2522 3.87247 85.8705 1.92019C86.326 0.521058 87.0093 -0.064625 88.5386 0.0655269C90.6861 0.228217 92.8336 0.0980648 95.0787 0.0980648C95.0787 5.10891 95.0787 9.95707 95.0787 14.9028C93.2891 14.9028 91.5971 14.9028 89.6449 14.9028C89.6449 12.007 89.6449 9.07854 89.6449 6.15013C89.5147 6.11759 89.3846 6.08505 89.2219 6.01997C88.9941 6.37789 88.7663 6.73581 88.5711 7.12626C87.595 9.33885 86.5538 11.5514 85.6752 13.8291C85.1221 15.2282 84.0483 14.9679 83.0071 15.033C81.9984 15.0981 81.2826 14.9028 80.8271 13.8291C79.7533 11.1935 78.5494 8.62301 77.4106 5.98744C77.2804 5.9549 77.1503 5.98744 77.0201 6.01997Z" fill="#646677"/>
<path d="M37.9413 5.72705C36.8675 8.16739 35.7612 10.6077 34.7526 13.0806C34.232 14.3496 33.5487 14.9678 32.0845 14.9028C30.9456 14.8702 30.2623 14.4798 29.8393 13.4385C28.9933 11.3886 28.1148 9.3713 27.2038 7.32141C26.9435 6.76826 26.6181 6.21512 26.3252 5.69451C26.1951 5.72705 26.0324 5.72705 25.9022 5.75958C25.8372 6.24765 25.6745 6.73572 25.6745 7.19125C25.6419 9.30622 25.6419 11.4212 25.6745 13.5362C25.707 14.5123 25.3491 14.9028 24.3404 14.8702C19.8827 14.7726 20.7938 15.4884 20.6962 11.3886C20.6311 8.13485 20.7287 4.88106 20.6636 1.62726C20.6311 0.358282 21.1192 0.0654403 22.2905 0.130516C23.9825 0.22813 25.6419 0.260668 27.3339 0.130516C28.6029 0.0329023 29.1886 0.618586 29.6116 1.69234C30.3925 3.74223 31.271 5.75958 32.2471 8.23247C32.7352 7.38648 33.0606 6.93095 33.2884 6.44288C33.7439 5.33659 34.1669 4.2303 34.5573 3.12401C35.8914 -0.520243 35.4684 0.22813 38.9174 0.195592C40.5118 0.195592 42.6268 -0.227401 43.5704 0.618586C44.3838 1.33442 43.8957 3.547 43.8957 5.10882C43.9283 7.87455 43.8632 10.6403 43.9283 13.406C43.9608 14.4798 43.668 14.9353 42.4641 14.9353C38.592 14.9028 38.592 14.9678 38.592 11.0958C38.592 9.33876 38.592 7.58171 38.592 5.82466C38.3968 5.79212 38.1691 5.75958 37.9413 5.72705Z" fill="#646677"/>
<path d="M135.849 14.9027C133.668 14.9027 131.749 14.9027 129.634 14.9027C129.634 13.7639 129.634 12.6902 129.634 11.6164C129.666 10.4125 129.113 9.79428 127.877 9.79428C126.705 9.79428 125.534 9.79428 124.167 9.79428C124.167 11.5513 124.167 13.1457 124.167 14.8702C122.117 14.8702 120.263 14.8702 118.311 14.8702C118.311 9.98951 118.311 5.14135 118.311 0.0654297C119.547 0.0654297 120.783 0.0654297 122.02 0.0654297C125.339 0.0654297 128.625 0.0654297 131.944 0.0654297C134.287 0.0654297 135.556 0.911417 135.849 2.63593C136.337 5.59688 135.783 7.48409 133.408 8.00469C133.311 8.03723 133.245 8.13484 133.05 8.33007C137.052 9.17606 135.458 12.2997 135.849 14.9027ZM124.363 3.28669C123.679 6.44287 123.842 6.67064 126.673 6.67064C127.258 6.67064 127.844 6.67064 128.462 6.6381C129.471 6.57302 129.666 5.92226 129.666 5.07628C129.666 4.23029 129.634 3.35176 128.495 3.31923C127.096 3.25415 125.697 3.28669 124.363 3.28669Z" fill="#646677"/>
<path d="M106.63 0.0647645C108.159 0.0647645 109.656 0.0322266 111.185 0.0647645C113.593 0.12984 115.22 1.20359 115.513 3.57886C115.838 6.11683 115.838 8.7524 115.513 11.2578C115.187 13.6982 113.755 14.7719 111.25 14.9021C108.224 15.0322 105.198 15.0322 102.172 14.9021C99.5689 14.8045 98.0397 13.6006 97.7468 11.0301C97.4865 8.55717 97.5191 5.95414 97.8119 3.48125C98.1047 1.23613 99.7642 0.0973025 102.074 0.0322266C103.604 0.0322266 105.133 0.0647645 106.63 0.0647645ZM109.818 7.51596C109.851 3.18841 109.851 3.18841 105.588 3.31856C105.491 3.31856 105.361 3.31856 105.263 3.31856C104.092 3.25348 103.571 3.90424 103.571 5.01053C103.539 6.57236 103.571 8.13418 103.539 9.696C103.539 11.0301 104.124 11.6157 105.491 11.6483C109.818 11.7459 109.818 11.7784 109.818 7.51596Z" fill="#646677"/>
<path d="M0.295202 0.488251C4.91559 0.488251 9.34076 0.293023 13.7659 0.553327C16.4666 0.716017 17.8006 2.57068 17.8657 5.30387C17.8982 6.86569 17.8982 8.46005 17.8332 10.0219C17.7356 12.2995 16.5967 13.9264 14.3516 14.2843C11.7486 14.7073 9.08045 14.7399 6.44488 14.87C4.78544 14.9351 3.09347 14.9351 1.40149 14.8375C0.978499 14.805 0.262664 14.2843 0.230126 13.9915C0.16505 9.85918 0.197588 5.7594 0.197588 1.62708C0.197588 1.20409 0.295202 0.781092 0.295202 0.488251ZM5.92427 11.8765C7.25833 11.8765 8.49477 11.8115 9.69867 11.8765C11.2605 11.9416 12.0739 11.2258 12.139 9.72903C12.2366 8.23229 12.3017 6.67046 12.1065 5.20626C12.0089 4.49042 11.3581 3.38413 10.805 3.28652C9.2106 3.02621 7.51863 3.1889 5.89173 3.1889C5.92427 6.18239 5.92427 8.91558 5.92427 11.8765Z" fill="#646677"/>
<path d="M55.7728 0C57.7576 0.130152 59.775 0.195228 61.7273 0.488069C62.4431 0.585683 63.2891 1.17137 63.647 1.75705C64.1025 2.47289 64.1025 3.48156 64.2978 4.32755C63.5819 4.4577 62.8986 4.718 62.1828 4.75054C60.7837 4.78308 59.6123 4.718 58.3108 3.61171C57.2696 2.73319 54.9919 3.09111 53.365 3.41649C52.8444 3.5141 52.519 5.30369 52.3563 6.3449C52.1936 7.51627 52.2913 8.72017 52.3563 9.92408C52.4539 11.128 52.942 11.974 54.4062 11.8764C55.48 11.8113 56.6188 12.0716 57.6275 11.7787C58.2782 11.6161 58.7663 10.7375 59.3194 10.1844C58.7663 9.92408 58.2457 9.53362 57.66 9.37093C57.1394 9.24078 56.5212 9.46855 56.0657 9.27332C55.6752 9.11063 55.2197 8.55748 55.2522 8.19957C55.2847 7.74403 55.7728 6.99566 56.0657 6.96312C58.6687 6.86551 61.2717 6.86551 63.8748 6.96312C64.1676 6.96312 64.7208 7.64642 64.7208 8.00434C64.5906 9.50108 64.493 11.0304 64.0375 12.4295C63.4192 14.3167 61.532 14.6746 59.9051 14.7397C56.7815 14.8373 53.6253 14.7397 50.5017 14.5445C48.5168 14.4143 47.1177 13.1128 46.9225 11.1605C46.6947 8.72017 46.6622 6.21475 46.9225 3.7744C47.1503 1.52928 49.0375 0.195228 51.4127 0.130152C52.8769 0.0976139 54.3411 0.130152 55.8053 0.130152C55.7728 0.0976139 55.7728 0.0650759 55.7728 0Z" fill="#646677"/>
<path d="M138.191 0.129883C140.144 0.129883 141.998 0.129883 144.016 0.129883C144.016 4.97804 144.016 9.82619 144.016 14.837C142.128 14.837 140.241 14.837 138.191 14.837C138.191 10.0214 138.191 5.17327 138.191 0.129883Z" fill="#646677"/>
</g>
<defs>
<clipPath id="clip0">
<rect width="143.818" height="15" fill="white" transform="translate(0.197266)"/>
</clipPath>
</defs>
</svg>
